<svg width="173" height="171" viewBox="0 0 173 171" fill="none" xmlns="http://www.w3.org/2000/svg">
<rect x="16.666" y="17.167" width="139.5" height="136.667" stroke="#2B2B2B" stroke-width="5"/>
<path d="M28.334 14.6667V0.5" stroke="#2B2B2B" stroke-width="5"/>
<path d="M50.0566 14.6667V0.5" stroke="#2B2B2B" stroke-width="5"/>
<path d="M71.7773 14.6667V0.5" stroke="#2B2B2B" stroke-width="5"/>
<path d="M100.109 14.6667V0.5" stroke="#2B2B2B" stroke-width="5"/>
<path d="M121.832 14.6667V0.5" stroke="#2B2B2B" stroke-width="5"/>
<path d="M143.555 14.6667V0.5" stroke="#2B2B2B" stroke-width="5"/>
<path d="M28.334 170.5V156.333" stroke="#2B2B2B" stroke-width="5"/>
<path d="M50.0566 170.5V156.333" stroke="#2B2B2B" stroke-width="5"/>
<path d="M71.7773 170.5V156.333" stroke="#2B2B2B" stroke-width="5"/>
<path d="M158.667 27.8887L172.834 27.8887" stroke="#2B2B2B" stroke-width="5"/>
<path d="M158.667 49.6113L172.834 49.6113" stroke="#2B2B2B" stroke-width="5"/>
<path d="M158.667 71.333L172.834 71.333" stroke="#2B2B2B" stroke-width="5"/>
<path d="M-0.000650644 27.8887L14.166 27.8887" stroke="#2B2B2B" stroke-width="5"/>
<path d="M-0.000650644 49.6113L14.166 49.6113" stroke="#2B2B2B" stroke-width="5"/>
<path d="M-0.000650644 71.333L14.166 71.333" stroke="#2B2B2B" stroke-width="5"/>
<path d="M158.667 99.667L172.834 99.667" stroke="#2B2B2B" stroke-width="5"/>
<path d="M158.667 121.39L172.834 121.39" stroke="#2B2B2B" stroke-width="5"/>
<path d="M158.667 143.111L172.834 143.111" stroke="#2B2B2B" stroke-width="5"/>
<path d="M100.109 170.5V156.333" stroke="#2B2B2B" stroke-width="5"/>
<path d="M121.832 170.5V156.333" stroke="#2B2B2B" stroke-width="5"/>
<path d="M143.555 170.5V156.333" stroke="#2B2B2B" stroke-width="5"/>
<path d="M-0.000650644 99.667L14.166 99.667" stroke="#2B2B2B" stroke-width="5"/>
<path d="M-0.000650644 121.39L14.166 121.39" stroke="#2B2B2B" stroke-width="5"/>
<path d="M-0.000650644 143.111L14.166 143.111" stroke="#2B2B2B" stroke-width="5"/>
<path d="M57.6306 118.555H43.2656L65.7056 55.6553H79.1356L101.491 118.555H86.8706L82.4506 105.295H62.1356L57.6306 118.555ZM70.6356 80.3053L66.1306 93.7353H78.5406L74.0356 80.3053C73.6956 79.2286 73.3556 78.1236 73.0156 76.9903C72.6756 75.8569 72.449 74.9219 72.3356 74.1853C72.2223 74.9219 71.9956 75.8569 71.6556 76.9903C71.3723 78.0669 71.0323 79.1719 70.6356 80.3053Z" fill="#2B2B2B"/>
<path d="M122.581 55.6553V118.555H108.811V55.6553H122.581Z" fill="#2B2B2B"/>
</svg>
