<svg width="155" height="163" viewBox="0 0 155 163" fill="none" xmlns="http://www.w3.org/2000/svg">
<rect x="1.5957" y="97.7061" width="30" height="64.7941" fill="#2B2B2B"/>
<rect x="42.5957" y="87.7373" width="30" height="74.7624" fill="#2B2B2B"/>
<rect x="83.5957" y="112.658" width="30" height="49.8416" fill="#2B2B2B"/>
<rect x="124.596" y="72.7852" width="30" height="89.7149" fill="#2B2B2B"/>
<path fill-rule="evenodd" clip-rule="evenodd" d="M137.128 22.4761L128.882 33.1089L124.929 30.0596L133.175 19.4268L137.128 22.4761ZM54.1225 26.6412L61.2224 32.9175L57.9075 36.6473L54.0129 33.2045L49.1028 37.2621L45.9143 33.4242L54.1225 26.6412ZM120.637 43.7417L112.391 54.3746L108.438 51.3253L116.684 40.6924L120.637 43.7417ZM79.8964 56.0855L68.902 46.3664L72.2168 42.6365L83.2113 52.3557L79.8964 56.0855ZM35.9844 48.1026L22.866 58.9431L19.6776 55.1052L32.7959 44.2647L35.9844 48.1026ZM104.145 65.0076L98.3875 72.4319L90.8909 65.8048L94.2057 62.0748L97.7036 65.167L100.192 61.9582L104.145 65.0076ZM9.74767 69.7839L3.18848 75.2042L0 71.3662L6.55919 65.9459L9.74767 69.7839Z" fill="#2B2B2B"/>
<path d="M128.797 6.82969L149.83 3.43918L151.104 23.4536" stroke="#2B2B2B" stroke-width="5"/>
</svg>
