<svg width="173" height="171" viewBox="0 0 173 171" fill="none" xmlns="http://www.w3.org/2000/svg">
<rect x="16.667" y="17.1667" width="139.5" height="136.667" stroke="#2B2B2B" stroke-width="5"/>
<path d="M28.334 14.6667V0.5" stroke="#2B2B2B" stroke-width="5"/>
<path d="M50.0559 14.6667V0.5" stroke="#2B2B2B" stroke-width="5"/>
<path d="M71.7783 14.6667V0.5" stroke="#2B2B2B" stroke-width="5"/>
<path d="M100.11 14.6667V0.5" stroke="#2B2B2B" stroke-width="5"/>
<path d="M121.832 14.6667V0.5" stroke="#2B2B2B" stroke-width="5"/>
<path d="M143.556 14.6667V0.5" stroke="#2B2B2B" stroke-width="5"/>
<path d="M28.334 170.5V156.333" stroke="#2B2B2B" stroke-width="5"/>
<path d="M50.0559 170.5V156.333" stroke="#2B2B2B" stroke-width="5"/>
<path d="M71.7783 170.5V156.333" stroke="#2B2B2B" stroke-width="5"/>
<path d="M158.667 27.8889L172.834 27.8889" stroke="#2B2B2B" stroke-width="5"/>
<path d="M158.667 49.6112L172.834 49.6112" stroke="#2B2B2B" stroke-width="5"/>
<path d="M158.667 71.3334L172.834 71.3334" stroke="#2B2B2B" stroke-width="5"/>
<path d="M0.000325918 27.8889L14.167 27.8889" stroke="#2B2B2B" stroke-width="5"/>
<path d="M0.000325918 49.6112L14.167 49.6112" stroke="#2B2B2B" stroke-width="5"/>
<path d="M0.000325918 71.3334L14.167 71.3334" stroke="#2B2B2B" stroke-width="5"/>
<path d="M158.667 99.6666L172.834 99.6666" stroke="#2B2B2B" stroke-width="5"/>
<path d="M158.667 121.389L172.834 121.389" stroke="#2B2B2B" stroke-width="5"/>
<path d="M158.667 143.111L172.834 143.111" stroke="#2B2B2B" stroke-width="5"/>
<path d="M100.11 170.5V156.333" stroke="#2B2B2B" stroke-width="5"/>
<path d="M121.832 170.5V156.333" stroke="#2B2B2B" stroke-width="5"/>
<path d="M143.556 170.5V156.333" stroke="#2B2B2B" stroke-width="5"/>
<path d="M0.000325918 99.6666L14.167 99.6666" stroke="#2B2B2B" stroke-width="5"/>
<path d="M0.000325918 121.389L14.167 121.389" stroke="#2B2B2B" stroke-width="5"/>
<path d="M0.000325918 143.111L14.167 143.111" stroke="#2B2B2B" stroke-width="5"/>
<path d="M57.6306 118.556H43.2656L65.7056 55.6555H79.1356L101.491 118.556H86.8706L82.4506 105.296H62.1356L57.6306 118.556ZM70.6356 80.3055L66.1306 93.7355H78.5406L74.0356 80.3055C73.6956 79.2288 73.3556 78.1238 73.0156 76.9905C72.6756 75.8572 72.449 74.9222 72.3356 74.1855C72.2223 74.9222 71.9956 75.8572 71.6556 76.9905C71.3723 78.0672 71.0323 79.1722 70.6356 80.3055Z" fill="#2B2B2B"/>
<path d="M122.581 55.6555V118.556H108.811V55.6555H122.581Z" fill="#2B2B2B"/>
</svg>
