<svg width="190" height="161" viewBox="0 0 190 161" fill="none" xmlns="http://www.w3.org/2000/svg">
<rect x="20.5" y="13" width="148" height="145" stroke="#2B2B2B" stroke-width="5" stroke-dasharray="16 16"/>
<rect x="94" y="95.5" width="40" height="65" fill="#2B2B2B"/>
<path d="M171 0.5H18.5L0 69.4655C0 69.4655 6.25 80.5 24.875 80.5C43.5 80.5 49.75 69.4655 49.75 69.4655C49.75 69.4655 56.75 80.5 74.625 80.5C92.5 80.5 94.5 69.4655 94.5 69.4655C94.5 69.4655 97.75 80.5 114.625 80.5C131.5 80.5 139.75 69.4655 139.75 69.4655C139.75 69.4655 148.25 80.5 164.875 80.5C181.5 80.5 190 69.4655 190 69.4655L171 0.5Z" fill="#2B2B2B"/>
</svg>
