<svg width="406" height="490" viewBox="0 0 406 490" fill="none" xmlns="http://www.w3.org/2000/svg">
<circle cx="203" cy="202.5" r="99.25" stroke="#2B2B2B" stroke-width="1.5" stroke-dasharray="18 18"/>
<circle cx="204" cy="203.5" r="149" stroke="#2B2B2B" stroke-width="2" stroke-dasharray="24 24"/>
<circle cx="204" cy="203.5" r="59.5" stroke="#2B2B2B" stroke-dasharray="12 12"/>
<circle cx="203" cy="202.5" r="5" fill="#2B2B2B"/>
<path d="M203 203.5V3.5M203 3.5L196 10M203 3.5L210 10" stroke="black" stroke-width="5"/>
<path d="M203 202.5L203 402.5M203 402.5L210 396M203 402.5L196 396" stroke="black" stroke-width="5"/>
<path d="M202.5 203L402.5 203M402.5 203L396 196M402.5 203L396 210" stroke="black" stroke-width="5"/>
<path d="M203.5 203L3.5 203M3.5 203L10 210M3.5 203L10 196" stroke="black" stroke-width="5"/>
<path d="M202.647 203.354L344.068 61.9322M344.068 61.9322L334.522 61.5787M344.068 61.9322L344.421 71.4782" stroke="#2B2B2B"/>
<path d="M203.353 202.646L61.9321 344.068M61.9321 344.068L71.478 344.421M61.9321 344.068L61.5785 334.522" stroke="#2B2B2B"/>
<path d="M202.646 202.646L344.068 344.068M344.068 344.068L344.421 334.522M344.068 344.068L334.522 344.421" stroke="#2B2B2B"/>
<path d="M203.354 203.354L61.9322 61.9322M61.9322 61.9322L61.5786 71.4782M61.9322 61.9322L71.4781 61.5787" stroke="#2B2B2B"/>
<path d="M161.116 477.5H141.376V446.42H161.116V452.72H146.29L148.18 450.956V458.81H159.646V464.774H148.18V472.964L146.29 471.2H161.116V477.5ZM170.577 477.5L162.387 456.5H169.359L171.921 463.85C172.453 465.39 172.901 466.776 173.265 468.008C173.657 469.212 173.895 470.052 173.979 470.528C174.119 469.912 174.385 468.988 174.777 467.756C175.197 466.524 175.673 465.222 176.205 463.85L179.019 456.5H185.739L176.961 477.5H170.577ZM186.201 466.958C186.201 464.746 186.691 462.814 187.671 461.162C188.679 459.482 190.051 458.18 191.787 457.256C193.551 456.332 195.553 455.87 197.793 455.87C200.033 455.87 202.021 456.332 203.757 457.256C205.493 458.18 206.851 459.482 207.831 461.162C208.839 462.814 209.343 464.746 209.343 466.958C209.343 469.17 208.839 471.102 207.831 472.754C206.851 474.406 205.493 475.694 203.757 476.618C202.021 477.542 200.033 478.004 197.793 478.004C195.553 478.004 193.551 477.542 191.787 476.618C190.051 475.694 188.679 474.406 187.671 472.754C186.691 471.102 186.201 469.17 186.201 466.958ZM192.711 466.916C192.711 467.98 192.921 468.918 193.341 469.73C193.789 470.514 194.391 471.13 195.147 471.578C195.903 471.998 196.785 472.208 197.793 472.208C198.801 472.208 199.683 471.998 200.439 471.578C201.195 471.13 201.783 470.514 202.203 469.73C202.623 468.918 202.833 467.98 202.833 466.916C202.833 465.852 202.623 464.928 202.203 464.144C201.783 463.36 201.195 462.758 200.439 462.338C199.683 461.89 198.801 461.666 197.793 461.666C196.785 461.666 195.903 461.89 195.147 462.338C194.391 462.758 193.789 463.36 193.341 464.144C192.921 464.928 192.711 465.852 192.711 466.916ZM219.561 477.5H213.093V445.832H219.561V477.5ZM230.378 477.5L222.188 456.5H229.16L231.722 463.85C232.254 465.39 232.702 466.776 233.066 468.008C233.458 469.212 233.696 470.052 233.78 470.528C233.92 469.912 234.186 468.988 234.578 467.756C234.998 466.524 235.474 465.222 236.006 463.85L238.82 456.5H245.54L236.762 477.5H230.378ZM256.88 478.046C254.78 478.046 252.904 477.57 251.252 476.618C249.628 475.666 248.34 474.364 247.388 472.712C246.464 471.032 246.002 469.114 246.002 466.958C246.002 464.774 246.45 462.856 247.346 461.204C248.27 459.524 249.544 458.208 251.168 457.256C252.792 456.304 254.654 455.828 256.754 455.828C258.966 455.828 260.87 456.29 262.466 457.214C264.062 458.11 265.294 459.398 266.162 461.078C267.03 462.73 267.464 464.704 267.464 467V468.638L249.404 468.722L249.488 464.732H261.038C261.038 463.612 260.66 462.73 259.904 462.086C259.148 461.414 258.112 461.078 256.796 461.078C255.704 461.078 254.808 461.288 254.108 461.708C253.436 462.128 252.932 462.786 252.596 463.682C252.26 464.55 252.092 465.67 252.092 467.042C252.092 469.002 252.484 470.458 253.268 471.41C254.08 472.334 255.326 472.796 257.006 472.796C258.238 472.796 259.26 472.586 260.072 472.166C260.884 471.746 261.402 471.158 261.626 470.402H267.548C267.184 472.726 266.036 474.588 264.104 475.988C262.172 477.36 259.764 478.046 256.88 478.046Z" fill="black"/>
<g opacity="0.7">
<path d="M314.577 477.5H301.707V456.02H314.547V458H302.517L303.867 456.83V465.74H313.557V467.69H303.867V476.69L302.517 475.52H314.577V477.5ZM320.583 477.5H318.513V462.98H320.313L320.613 465.71L320.313 465.62C320.613 464.7 321.173 463.97 321.993 463.43C322.833 462.87 323.813 462.59 324.933 462.59C326.233 462.59 327.313 462.95 328.173 463.67C329.053 464.37 329.613 465.33 329.853 466.55H329.403C329.603 465.33 330.143 464.37 331.023 463.67C331.923 462.95 333.043 462.59 334.383 462.59C335.943 462.59 337.203 463.07 338.163 464.03C339.123 464.99 339.603 466.31 339.603 467.99V477.5H337.593V468.41C337.593 467.17 337.273 466.2 336.633 465.5C335.993 464.8 335.113 464.45 333.993 464.45C333.193 464.45 332.503 464.64 331.923 465.02C331.343 465.38 330.893 465.87 330.573 466.49C330.273 467.11 330.123 467.79 330.123 468.53V477.5H328.083V468.38C328.083 467.14 327.753 466.18 327.093 465.5C326.453 464.82 325.583 464.48 324.483 464.48C323.683 464.48 322.983 464.66 322.383 465.02C321.803 465.38 321.353 465.87 321.033 466.49C320.733 467.09 320.583 467.76 320.583 468.5V477.5Z" fill="#8D8D8D"/>
<path d="M349.856 477.86C348.456 477.86 347.216 477.54 346.136 476.9C345.076 476.26 344.246 475.37 343.646 474.23C343.046 473.09 342.746 471.76 342.746 470.24C342.746 468.74 343.036 467.42 343.616 466.28C344.216 465.12 345.036 464.22 346.076 463.58C347.116 462.92 348.326 462.59 349.706 462.59C351.026 462.59 352.176 462.88 353.156 463.46C354.156 464.04 354.926 464.85 355.466 465.89C356.026 466.91 356.306 468.11 356.306 469.49V470.51H343.886L343.946 469.01H354.236C354.236 467.61 353.816 466.49 352.976 465.65C352.156 464.79 351.066 464.36 349.706 464.36C348.706 464.36 347.826 464.59 347.066 465.05C346.326 465.51 345.756 466.17 345.356 467.03C344.956 467.87 344.756 468.87 344.756 470.03C344.756 471.95 345.196 473.44 346.076 474.5C346.976 475.56 348.246 476.09 349.886 476.09C351.066 476.09 352.036 475.84 352.796 475.34C353.556 474.84 354.066 474.11 354.326 473.15H356.306C355.926 474.67 355.186 475.84 354.086 476.66C352.986 477.46 351.576 477.86 349.856 477.86Z" fill="#8D8D8D" fill-opacity="0.7"/>
<path d="M367.206 462.8V464.66H366.066C364.726 464.66 363.656 465.07 362.856 465.89C362.076 466.71 361.686 467.82 361.686 469.22V477.5H359.616V462.98H361.566L361.746 465.83H361.536C361.736 464.89 362.226 464.13 363.006 463.55C363.786 462.95 364.736 462.65 365.856 462.65C366.076 462.65 366.296 462.66 366.516 462.68C366.736 462.7 366.966 462.74 367.206 462.8Z" fill="#8D8D8D" fill-opacity="0.4"/>
<path d="M368.704 469.82C368.704 468.5 368.974 467.3 369.514 466.22C370.054 465.12 370.834 464.24 371.854 463.58C372.874 462.92 374.094 462.59 375.514 462.59C376.894 462.59 378.074 462.93 379.054 463.61C380.034 464.29 380.734 465.27 381.154 466.55L380.824 466.97L381.094 462.98H382.894V477.05C382.894 478.49 382.604 479.74 382.024 480.8C381.444 481.88 380.624 482.71 379.564 483.29C378.524 483.89 377.294 484.19 375.874 484.19C374.014 484.19 372.474 483.69 371.254 482.69C370.034 481.69 369.274 480.32 368.974 478.58H371.044C371.264 479.76 371.794 480.67 372.634 481.31C373.494 481.97 374.584 482.3 375.904 482.3C377.404 482.3 378.604 481.84 379.504 480.92C380.404 480 380.854 478.78 380.854 477.26V472.7L381.154 473.09C380.734 474.31 380.004 475.28 378.964 476C377.944 476.7 376.744 477.05 375.364 477.05C373.984 477.05 372.794 476.72 371.794 476.06C370.794 475.4 370.024 474.53 369.484 473.45C368.964 472.35 368.704 471.14 368.704 469.82ZM370.774 469.79C370.774 470.79 370.964 471.7 371.344 472.52C371.744 473.34 372.304 473.99 373.024 474.47C373.764 474.95 374.644 475.19 375.664 475.19C376.704 475.19 377.594 474.96 378.334 474.5C379.094 474.02 379.674 473.38 380.074 472.58C380.474 471.76 380.674 470.83 380.674 469.79C380.674 468.75 380.474 467.83 380.074 467.03C379.694 466.23 379.134 465.6 378.394 465.14C377.674 464.66 376.774 464.42 375.694 464.42C374.654 464.42 373.764 464.67 373.024 465.17C372.304 465.65 371.744 466.3 371.344 467.12C370.964 467.92 370.774 468.81 370.774 469.79Z" fill="#8D8D8D" fill-opacity="0.15"/>
<path d="M393.304 477.86C391.904 477.86 390.664 477.54 389.584 476.9C388.524 476.26 387.694 475.37 387.094 474.23C386.494 473.09 386.194 471.76 386.194 470.24C386.194 468.74 386.484 467.42 387.064 466.28C387.664 465.12 388.484 464.22 389.524 463.58C390.564 462.92 391.774 462.59 393.154 462.59C394.474 462.59 395.624 462.88 396.604 463.46C397.604 464.04 398.374 464.85 398.914 465.89C399.474 466.91 399.754 468.11 399.754 469.49V470.51H387.334L387.394 469.01H397.684C397.684 467.61 397.264 466.49 396.424 465.65C395.604 464.79 394.514 464.36 393.154 464.36C392.154 464.36 391.274 464.59 390.514 465.05C389.774 465.51 389.204 466.17 388.804 467.03C388.404 467.87 388.204 468.87 388.204 470.03C388.204 471.95 388.644 473.44 389.524 474.5C390.424 475.56 391.694 476.09 393.334 476.09C394.514 476.09 395.484 475.84 396.244 475.34C397.004 474.84 397.514 474.11 397.774 473.15H399.754C399.374 474.67 398.634 475.84 397.534 476.66C396.434 477.46 395.024 477.86 393.304 477.86Z" fill="#8D8D8D" fill-opacity="0.05"/>
</g>
<g opacity="0.7">
<path d="M48.6315 457.7C46.9915 457.7 45.5615 458.08 44.3415 458.84C43.1215 459.6 42.1815 460.67 41.5215 462.05C40.8815 463.41 40.5615 465.01 40.5615 466.85C40.5615 468.71 40.9015 470.31 41.5815 471.65C42.2615 472.99 43.2115 474.02 44.4315 474.74C45.6715 475.46 47.0915 475.82 48.6915 475.82C49.6115 475.82 50.4915 475.7 51.3315 475.46C52.1715 475.22 52.9215 474.84 53.5815 474.32C54.2615 473.78 54.8015 473.07 55.2015 472.19C55.6015 471.29 55.8015 470.2 55.8015 468.92V466.79L56.8515 467.84H48.0315V465.89H57.8415V477.53H56.1315L55.8615 473.09L56.1615 473.6C55.8415 474.38 55.3215 475.1 54.6015 475.76C53.9015 476.4 53.0415 476.91 52.0215 477.29C51.0015 477.67 49.8615 477.86 48.6015 477.86C46.5815 477.86 44.7915 477.41 43.2315 476.51C41.6915 475.59 40.4815 474.3 39.6015 472.64C38.7415 470.98 38.3115 469.05 38.3115 466.85C38.3115 464.65 38.7415 462.71 39.6015 461.03C40.4815 459.35 41.7015 458.04 43.2615 457.1C44.8215 456.14 46.6215 455.66 48.6615 455.66C50.1815 455.66 51.5615 455.93 52.8015 456.47C54.0415 457.01 55.0715 457.77 55.8915 458.75C56.7115 459.71 57.2615 460.84 57.5415 462.14H55.2015C54.7615 460.66 53.9515 459.55 52.7715 458.81C51.5915 458.07 50.2115 457.7 48.6315 457.7Z" fill="#8D8D8D" fill-opacity="0.1"/>
<path d="M69.2715 462.8V464.66H68.1315C66.7915 464.66 65.7215 465.07 64.9215 465.89C64.1415 466.71 63.7515 467.82 63.7515 469.22V477.5H61.6815V462.98H63.6315L63.8115 465.83H63.6015C63.8015 464.89 64.2915 464.13 65.0715 463.55C65.8515 462.95 66.8015 462.65 67.9215 462.65C68.1415 462.65 68.3615 462.66 68.5815 462.68C68.8015 462.7 69.0315 462.74 69.2715 462.8Z" fill="#8D8D8D" fill-opacity="0.3"/>
<path d="M70.4466 470.24C70.4466 468.74 70.7666 467.42 71.4066 466.28C72.0466 465.14 72.9266 464.24 74.0466 463.58C75.1666 462.92 76.4266 462.59 77.8266 462.59C79.2466 462.59 80.5066 462.92 81.6066 463.58C82.7266 464.24 83.6066 465.14 84.2466 466.28C84.8866 467.42 85.2066 468.74 85.2066 470.24C85.2066 471.7 84.8866 473.01 84.2466 474.17C83.6066 475.31 82.7266 476.21 81.6066 476.87C80.5066 477.53 79.2466 477.86 77.8266 477.86C76.4266 477.86 75.1666 477.53 74.0466 476.87C72.9266 476.21 72.0466 475.31 71.4066 474.17C70.7666 473.01 70.4466 471.7 70.4466 470.24ZM72.5466 470.21C72.5466 471.35 72.7666 472.36 73.2066 473.24C73.6666 474.1 74.2866 474.78 75.0666 475.28C75.8666 475.76 76.7866 476 77.8266 476C78.8666 476 79.7766 475.76 80.5566 475.28C81.3566 474.78 81.9766 474.1 82.4166 473.24C82.8766 472.36 83.1066 471.35 83.1066 470.21C83.1066 469.09 82.8766 468.1 82.4166 467.24C81.9766 466.38 81.3566 465.7 80.5566 465.2C79.7766 464.7 78.8666 464.45 77.8266 464.45C76.7866 464.45 75.8666 464.7 75.0666 465.2C74.2866 465.7 73.6666 466.38 73.2066 467.24C72.7666 468.1 72.5466 469.09 72.5466 470.21Z" fill="#8D8D8D" fill-opacity="0.7"/>
<path d="M90.9329 477.5L86.1329 462.98H88.2629L91.1129 471.74C91.2729 472.22 91.4229 472.71 91.5629 473.21C91.7229 473.71 91.8729 474.26 92.0129 474.86C92.0929 474.48 92.1929 474.08 92.3129 473.66C92.4329 473.22 92.5429 472.83 92.6429 472.49C92.7629 472.15 92.8429 471.9 92.8829 471.74L95.7629 462.98H97.8929L100.743 471.74C100.803 471.94 100.873 472.17 100.953 472.43C101.033 472.67 101.113 472.92 101.193 473.18C101.273 473.44 101.343 473.72 101.403 474.02C101.483 474.3 101.563 474.58 101.643 474.86C101.743 474.44 101.823 474.1 101.883 473.84C101.943 473.56 102.023 473.27 102.123 472.97C102.223 472.67 102.353 472.26 102.513 471.74L105.393 462.98H107.553L102.633 477.5H100.623L97.6229 468.38C97.4429 467.84 97.2829 467.34 97.1429 466.88C97.0229 466.42 96.9229 465.97 96.8429 465.53C96.7429 465.93 96.6229 466.36 96.4829 466.82C96.3629 467.26 96.2029 467.78 96.0029 468.38L93.0029 477.5H90.9329Z" fill="#8D8D8D"/>
</g>
</svg>
