<svg width="370" height="371" viewBox="0 0 370 371" fill="none" xmlns="http://www.w3.org/2000/svg">
<circle cx="185" cy="185.5" r="182.5" stroke="black" stroke-width="5"/>
<path d="M334.5 185.5C334.5 287.5 267.474 370 185 370C102.526 370 35.5 287.5 35.5 185.5C35.5 83.5004 102.526 1 185 1C267.474 1 334.5 83.5004 334.5 185.5Z" stroke="#2B2B2B"/>
<path d="M289.5 185.5C289.5 236.516 277.763 282.678 258.811 316.068C239.852 349.473 213.736 370 185 370C156.264 370 130.148 349.473 111.189 316.068C92.2374 282.678 80.5 236.516 80.5 185.5C80.5 134.484 92.2374 88.3223 111.189 54.932C130.148 21.527 156.264 1 185 1C213.736 1 239.852 21.527 258.811 54.932C277.763 88.3223 289.5 134.484 289.5 185.5Z" stroke="#2B2B2B"/>
<path d="M239.5 185.5C239.5 236.552 233.347 282.752 223.412 316.172C218.443 332.886 212.536 346.375 205.999 355.674C199.453 364.987 192.349 370 185 370C177.651 370 170.547 364.987 164.001 355.674C157.464 346.375 151.557 332.886 146.588 316.172C136.653 282.752 130.5 236.552 130.5 185.5C130.5 134.448 136.653 88.2482 146.588 54.8277C151.557 38.1143 157.464 24.6252 164.001 15.3257C170.547 6.01251 177.651 1 185 1C192.349 1 199.453 6.01251 205.999 15.3257C212.536 24.6252 218.443 38.1143 223.412 54.8277C233.347 88.2482 239.5 134.448 239.5 185.5Z" stroke="#2B2B2B"/>
<path d="M185 370.5C187.761 370.5 190 287.673 190 185.5C190 83.3273 187.761 0.5 185 0.5" stroke="#2B2B2B"/>
<path fill-rule="evenodd" clip-rule="evenodd" d="M348.997 21.4297L349.236 27.8775L347.237 27.9516L347.118 24.7233L341.395 30.3605L339.98 28.9463L345.704 23.3091L342.475 23.1896L342.549 21.1909L348.997 21.4297ZM331.436 22.7807L325.916 22.5763L325.99 20.5776L331.51 20.7821L331.436 22.7807ZM347.851 44.5111L347.646 38.9913L349.645 38.9173L349.849 44.4371L347.851 44.5111ZM325.805 43.2075L334.413 34.5995L335.827 36.0138L327.219 44.6217L325.805 43.2075ZM308.589 60.4234L317.197 51.8155L318.611 53.2297L310.003 61.8377L308.589 60.4234ZM291.373 77.6394L299.981 69.0314L301.395 70.4456L292.787 79.0536L291.373 77.6394ZM274.157 94.8553L282.765 86.2474L284.18 87.6616L275.572 96.2695L274.157 94.8553ZM256.941 112.071L265.549 103.463L266.964 104.878L258.356 113.485L256.941 112.071ZM239.725 129.287L248.333 120.679L249.748 122.093L241.14 130.701L239.725 129.287ZM222.51 146.503L231.118 137.895L232.532 139.309L223.924 147.917L222.51 146.503ZM205.294 163.719L213.902 155.111L215.316 156.525L206.708 165.133L205.294 163.719ZM188.078 180.935L196.686 172.327L198.1 173.741L189.492 182.349L188.078 180.935ZM170.862 198.151L179.47 189.543L180.884 190.957L172.276 199.565L170.862 198.151ZM153.646 215.367L162.254 206.759L163.668 208.173L155.06 216.781L153.646 215.367ZM136.43 232.583L145.038 223.975L146.452 225.389L137.844 233.997L136.43 232.583ZM119.214 249.799L127.822 241.191L129.236 242.605L120.628 251.213L119.214 249.799ZM101.998 267.015L110.606 258.407L112.02 259.821L103.412 268.429L101.998 267.015ZM84.7821 284.231L93.3901 275.623L94.8043 277.037L86.1963 285.645L84.7821 284.231ZM67.5662 301.446L76.1741 292.839L77.5884 294.253L68.9804 302.861L67.5662 301.446ZM50.3503 318.662L58.9582 310.054L60.3725 311.469L51.7645 320.077L50.3503 318.662ZM33.1343 335.878L41.7423 327.27L43.1565 328.685L34.5486 337.293L33.1343 335.878ZM20.2223 348.79L24.5264 344.486L25.9406 345.9L21.6365 350.205L20.2223 348.79Z" fill="black"/>
<path d="M325.953 21.5771L348.033 22.3949L348.85 44.4743" stroke="black" stroke-width="5"/>
</svg>
