<svg width="391" height="350" viewBox="0 0 391 350" fill="none" xmlns="http://www.w3.org/2000/svg">
<path d="M161.41 252.108V212.502H200.65C200.271 216.926 200.021 226.059 203.293 234.291C204.998 238.579 207.695 242.715 211.908 245.772C216.138 248.84 221.707 250.684 228.91 250.684C236.112 250.684 241.682 248.84 245.911 245.772C250.124 242.715 252.822 238.579 254.526 234.291C257.799 226.059 257.548 216.926 257.17 212.502H296.41V347.502H161.41V307.896C161.41 305.062 158.877 303.006 156.199 303.344C152.003 303.874 143.153 304.457 135.463 301.631C131.666 300.236 128.253 298.046 125.779 294.694C123.317 291.357 121.637 286.668 121.637 280.002C121.637 273.336 123.317 268.647 125.779 265.31C128.253 261.958 131.666 259.769 135.463 258.373C143.153 255.547 152.003 256.13 156.199 256.66C158.877 256.998 161.41 254.942 161.41 252.108Z" stroke="black" stroke-width="5"/>
<path d="M100.894 210.91L140.5 210.91L140.5 244.112C136.217 244.272 127.016 245.151 118.71 249.633C114.403 251.956 110.28 255.279 107.24 260.016C104.191 264.768 102.318 270.807 102.318 278.41C102.318 293.884 110.055 303.122 118.763 308.481C127.106 313.616 136.33 315.21 140.5 315.696L140.5 345.91L5.4997 345.91L5.49971 210.91L45.1057 210.91C47.9401 210.91 49.9956 208.377 49.6575 205.699C49.1278 201.503 48.545 192.653 51.371 184.963C52.7663 181.166 54.956 177.753 58.3077 175.279C61.6447 172.817 66.334 171.137 72.9999 171.137C79.6657 171.137 84.355 172.817 87.692 175.279C91.0437 177.753 93.2334 181.166 94.6288 184.963C97.4547 192.653 96.8719 201.504 96.3422 205.699C96.0041 208.377 98.0596 210.91 100.894 210.91Z" stroke="black" stroke-width="5"/>
<path d="M108.001 197.273L111.182 197.273L141.001 197.273C142.105 197.273 143.001 196.378 143.001 195.273L143.001 155.167C143.001 153.905 144.145 152.938 145.398 153.096C153.995 154.181 182.773 155.692 182.773 127.273C182.773 98.8543 153.995 100.365 145.398 101.451C144.145 101.609 143.001 100.641 143.001 99.3791L143.001 59.2731C143.001 58.1686 142.105 57.2731 141.001 57.2731L18.0004 57.2731C9.7161 57.2731 3.00037 63.9888 3.00037 72.2731L3.00036 195.273C3.00036 196.378 3.89579 197.273 5.00036 197.273L34.8186 197.273L38.0004 197.273" stroke="black" stroke-width="5" stroke-linecap="round"/>
<path d="M220.46 108.951C220.874 108.51 221.088 107.909 221.037 107.312L222.033 107.227C221.997 106.796 221.868 106.365 221.637 105.965L219.13 101.624L218.264 102.124L213.251 93.4403L214.117 92.9403L209.104 84.2572L208.238 84.7572L203.224 76.074L204.09 75.574L201.584 71.2324C201.308 70.7541 201.471 70.1425 201.95 69.8663L206.3 67.3548L205.8 66.4888L214.5 61.4657L215 62.3317L223.7 57.3086L223.2 56.4426L231.901 51.4195L232.401 52.2856L236.751 49.774C236.886 49.6959 237.029 49.6526 237.173 49.6392L237.081 48.6435C237.667 48.5893 238.258 48.7893 238.701 49.1852L238.034 49.9302C238.147 50.032 238.242 50.1576 238.31 50.3048C238.972 51.7443 239.982 53.7694 241.343 56.0233L242.199 55.5063C244.125 58.6944 246.765 62.3476 250.124 65.4136L249.449 66.1522C252.603 69.0309 256.416 71.4453 260.893 72.5144L261.125 71.5417C264.842 72.4292 269.017 72.3384 273.651 70.7405L273.977 71.6859C275.895 71.0243 277.88 70.1166 279.931 68.9328C281.981 67.7489 283.759 66.4841 285.292 65.1532L284.636 64.3982C288.337 61.1841 290.503 57.6144 291.593 53.9514L292.551 54.2366C293.864 49.8246 293.679 45.3157 292.763 41.1451L291.786 41.3596C290.811 36.9176 288.967 32.8048 287.169 29.5433L288.044 29.0605C286.773 26.7545 285.524 24.8671 284.609 23.5742C284.515 23.4419 284.454 23.2969 284.422 23.1476L283.444 23.3528C283.322 22.7719 283.444 22.1597 283.784 21.6793L284.601 22.257C284.684 22.1389 284.793 22.0367 284.929 21.9585L289.279 19.447L288.779 18.5809L297.479 13.5579L297.979 14.4239L306.679 9.40082L306.179 8.53479L314.879 3.51172L315.379 4.37774L319.729 1.8662C320.208 1.59006 320.819 1.75393 321.095 2.23223L323.929 7.13972L324.795 6.63972L330.462 16.4547L329.595 16.9547L335.262 26.7697L336.128 26.2697L341.795 36.0846L340.929 36.5846L346.596 46.3996L347.462 45.8996L353.128 55.7146L352.262 56.2146L357.929 66.0296L358.795 65.5296L364.462 75.3445L363.596 75.8445L369.262 85.6595L370.128 85.1595L375.795 94.9745L374.929 95.4745L380.596 105.289L381.462 104.789L387.128 114.604L386.262 115.104L389.096 120.012C389.372 120.49 389.208 121.102 388.73 121.378L383.822 124.211L384.322 125.077L374.507 130.744L374.007 129.878L364.192 135.545L364.692 136.411L354.877 142.077L354.377 141.211L344.562 146.878L345.062 147.744L335.247 153.411L334.747 152.545L324.932 158.211L325.432 159.077L315.617 164.744L315.117 163.878L305.302 169.545L305.802 170.411L295.987 176.077L295.487 175.211L285.672 180.878L286.172 181.744L276.357 187.411L275.857 186.545L270.95 189.378C270.472 189.654 269.86 189.49 269.584 189.012L267.077 184.67L266.211 185.17L261.198 176.487L262.064 175.987L257.051 167.304L256.185 167.804L251.171 159.121L252.038 158.621L249.531 154.279C249.3 153.88 248.992 153.552 248.636 153.305L248.065 154.125C247.573 153.783 246.946 153.667 246.357 153.805L246.128 152.832C245.713 152.929 245.309 153.113 244.949 153.387C243.687 154.345 241.834 155.661 239.566 157.011L240.078 157.87C236.748 159.852 232.537 161.906 227.974 163.048L227.731 162.078C223.657 163.097 219.355 163.352 215.193 162.157L214.917 163.118C211.13 162.031 207.428 159.796 204.074 155.917L204.831 155.263C203.549 153.78 202.312 152.04 201.14 150.009C199.967 147.977 199.078 146.036 198.435 144.185L197.49 144.513C195.808 139.669 195.723 135.345 196.675 131.522L197.645 131.764C198.692 127.562 201.064 123.964 203.983 120.945L203.264 120.25C206.535 116.868 210.42 114.249 213.801 112.356L214.289 113.229C216.592 111.94 218.658 110.994 220.118 110.379C220.536 110.204 220.897 109.947 221.189 109.636L220.46 108.951Z" stroke="black" stroke-width="2" stroke-dasharray="12 12"/>
</svg>
