<svg width="169" height="135" viewBox="0 0 169 135" fill="none" xmlns="http://www.w3.org/2000/svg">
<g clip-path="url(#clip0_657_117)">
<path fill-rule="evenodd" clip-rule="evenodd" d="M84.7289 9.47707C84.2086 9.84115 83.6632 10.213 83.1257 10.599C79.4922 13.2502 75.8628 15.9029 72.2377 18.5572C70.2969 19.9744 68.3453 21.387 66.4015 22.8074C63.1472 25.1825 59.8955 27.5644 56.6464 29.953C54.0759 31.8406 51.5211 33.7547 48.9491 35.6423C46.7084 37.2908 44.4442 38.9144 42.1972 40.5566C39.7143 42.3692 37.2392 44.1927 34.7562 46.0022C32.4124 47.721 30.0685 49.4102 27.7325 51.1353C24.5433 53.501 21.3041 55.823 18.2008 58.2965C15.6415 60.272 13.4106 62.6399 11.5911 65.3125C10.1284 67.4466 9.0667 69.8293 8.45812 72.344C8.23936 73.2956 8.155 74.2816 7.98937 75.2457C7.82922 76.4271 7.78161 77.6211 7.84717 78.8115C7.83732 82.4007 8.92026 85.9079 10.952 88.8667C12.8001 91.5831 15.633 93.4734 18.8508 94.1372C19.6461 94.3025 20.4576 94.377 21.2697 94.3591C27.2981 94.3768 33.3255 94.381 39.3518 94.3716H40.633C40.6487 94.6451 40.6643 94.8904 40.6815 95.231C40.3143 95.231 40.0033 95.231 39.6893 95.231C39.4007 95.2264 39.1142 95.2798 38.8466 95.3881C38.5791 95.4964 38.3362 95.6573 38.1321 95.8614C37.928 96.0655 37.7671 96.3085 37.6588 96.576C37.5505 96.8435 37.4971 97.1301 37.5017 97.4186C37.5517 100.327 37.5189 103.244 37.5189 106.155C37.5189 106.382 37.5532 106.603 37.5767 106.913H41.7847C42.455 106.913 43.1286 106.913 43.7958 106.913C44.4894 106.958 45.1858 106.931 45.8739 106.833C45.9005 106.563 45.9302 106.364 45.9302 106.164C45.9302 103.282 45.9302 100.401 45.9302 97.5218C45.9697 97.0387 45.8393 96.5569 45.5614 96.1598C45.2835 95.7626 44.8756 95.475 44.4082 95.3466C44.1869 95.2798 43.958 95.241 43.727 95.231C43.4645 95.2076 43.2051 95.2201 42.9457 95.2076C42.8818 95.1961 42.8208 95.1722 42.766 95.1373C42.719 95.0709 42.6826 94.9976 42.6582 94.9201C42.6501 94.7598 42.6501 94.5991 42.6582 94.4388C42.792 94.4053 42.9284 94.3833 43.066 94.3732C45.8036 94.3732 48.5402 94.3732 51.2758 94.3732H52.6977V95.1404C52.3945 95.3201 52.0383 95.2123 51.7024 95.231C51.2668 95.2396 50.8435 95.3766 50.4854 95.6249C50.1274 95.8731 49.8506 96.2215 49.6898 96.6264C49.6044 96.9313 49.5664 97.2475 49.5772 97.5639C49.5647 99.7515 49.5695 101.939 49.5695 104.116C49.5695 110 49.5773 115.879 49.5695 121.762C49.5341 122.109 49.5805 122.459 49.7051 122.785C49.8297 123.11 50.0289 123.402 50.2867 123.637C50.7155 123.988 51.2483 124.188 51.8023 124.206C52.0867 124.229 52.3727 124.234 52.6993 124.245V125.003C52.4055 125.026 52.1539 125.062 51.9008 125.062C49.4928 125.051 47.0834 125.062 44.6755 125.062C44.1958 125.062 43.7082 125.046 43.2254 125.037C42.7425 125.028 42.6801 124.92 42.7129 124.256C42.9895 124.242 43.2707 124.231 43.5535 124.217C43.8745 124.242 44.1973 124.198 44.4993 124.086C44.8014 123.974 45.0755 123.798 45.3025 123.57C45.5294 123.341 45.7039 123.066 45.8136 122.763C45.9234 122.461 45.9658 122.137 45.938 121.817C45.9443 117.684 45.9443 113.55 45.938 109.414C45.938 109.297 45.938 109.183 45.938 109.066C45.9146 108.658 45.8255 108.566 45.424 108.525C45.3365 108.525 45.2536 108.525 45.1614 108.525C42.8634 108.525 40.5638 108.525 38.2627 108.525C38.0153 108.542 37.7693 108.576 37.5267 108.627V121.771C37.4881 122.098 37.5237 122.429 37.6308 122.74C37.7379 123.051 37.9138 123.334 38.1454 123.568C38.3769 123.801 38.6582 123.98 38.9682 124.09C39.2783 124.2 39.6091 124.238 39.9362 124.203C40.1596 124.215 40.3894 124.235 40.6175 124.242C40.6504 124.335 40.6754 124.432 40.6925 124.529C40.7018 124.675 40.6925 124.818 40.6925 125.009H30.7248C30.6758 124.927 30.638 124.839 30.6123 124.746C30.6045 124.604 30.6045 124.462 30.6123 124.32C30.7009 124.284 30.7917 124.254 30.8842 124.229C31.4028 124.204 31.9188 124.14 32.428 124.039C32.8367 123.921 33.1977 123.677 33.4593 123.341C33.7209 123.006 33.8697 122.596 33.8843 122.171C33.9002 121.968 33.9028 121.763 33.8922 121.559V98.4952C33.8982 98.292 33.8941 98.0886 33.8797 97.8858C33.8459 97.3593 33.6163 96.8644 33.236 96.4986C32.8557 96.1328 32.3524 95.9225 31.8249 95.9092C31.6249 95.9014 31.4218 95.9092 31.2139 95.9092C26.5262 95.9092 21.8385 95.9092 17.1508 95.9092C15.0328 95.9125 12.9293 95.5591 10.9286 94.8638C8.409 94.0213 6.1488 92.5441 4.36581 90.5746C2.57663 88.5759 1.30979 86.1657 0.678162 83.5586C0.343649 82.3572 0.158349 81.1192 0.126532 79.8725C0.126532 79.2397 -0.0109495 78.6037 0.0156143 77.9724C0.106488 75.2463 0.758046 72.5681 1.92973 70.1049C2.79712 68.3021 3.87498 66.6085 5.1408 65.0593C6.40168 63.5057 7.77131 62.0436 9.23941 60.6841C11.5395 58.595 13.9866 56.687 16.4179 54.7463C18.3696 53.1931 20.2884 51.5978 22.237 50.0415C23.7527 48.8258 25.2934 47.6476 26.8106 46.4256C28.2357 45.285 29.6342 44.1037 31.0561 42.9536C32.5421 41.7536 34.0484 40.5691 35.5407 39.3738C36.947 38.2503 38.3424 37.1205 39.744 35.9939C41.5951 34.5001 43.4494 33.0104 45.3067 31.525C46.6834 30.414 48.0694 29.3124 49.4491 28.2123C51.1055 26.8888 52.7634 25.5747 54.4119 24.2465C55.7698 23.1527 57.1104 22.0495 58.4636 20.9651C59.6621 19.9963 60.8621 19.0369 62.0575 18.0775C63.418 16.9941 64.7775 15.9091 66.1359 14.8226C67.425 13.7882 68.7094 12.746 69.997 11.7053C71.3971 10.5761 72.7997 9.44946 74.205 8.32545C75.8832 6.98633 77.5676 5.65814 79.2411 4.31589C80.8464 3.02208 82.4465 1.72463 84.0414 0.423527C84.7086 -0.124935 84.7179 -0.121812 85.3445 0.404775C87.0462 1.84703 88.7822 3.26741 90.4776 4.70497C92.173 6.14254 93.834 7.57697 95.52 8.99735C97.142 10.3662 98.7764 11.7053 100.4 13.06C101.669 14.1226 102.916 15.2039 104.188 16.2696C105.46 17.3352 106.775 18.4165 108.06 19.501C109.039 20.3276 109.997 21.1698 110.966 22.0011C112.14 22.9964 113.318 23.9809 114.499 24.97C115.455 25.769 116.412 26.5685 117.368 27.3685C118.684 28.4623 120.001 29.5561 121.309 30.6609C122.573 31.7328 123.831 32.8078 125.096 33.8735C126.362 34.9392 127.681 36.0283 128.97 37.1127C130.259 38.1972 131.578 39.3316 132.886 40.4347C134.437 41.752 135.992 43.0536 137.547 44.3599C138.565 45.2225 139.585 46.0813 140.608 46.9366C142.255 48.3158 143.901 49.694 145.547 51.0712C146.461 51.8384 147.368 52.6119 148.274 53.3807C149.583 54.4838 150.93 55.537 152.196 56.6902C153.924 58.1999 155.572 59.8001 157.131 61.4842C158.367 62.8795 159.556 64.2968 160.684 65.7781C161.756 67.2203 162.728 68.7344 163.593 70.3096C164.803 72.4542 165.803 74.7106 166.58 77.0474C167.201 78.9158 167.68 80.8286 168.012 82.7695C168.355 84.5349 168.546 86.3265 168.581 88.1245C168.581 88.6713 168.691 89.2182 168.695 89.7667C168.72 91.8262 168.578 93.881 168.411 95.9342C168.241 98.1279 167.881 100.303 167.336 102.434C166.416 106.004 164.976 109.418 163.061 112.568C161.574 115.029 159.816 117.316 157.821 119.387C155.396 121.891 152.678 124.095 149.726 125.95C146.709 127.857 143.506 129.452 140.166 130.709C137.648 131.664 135.065 132.437 132.436 133.022C130.491 133.471 128.521 133.807 126.537 134.028C124.804 134.205 123.067 134.297 121.331 134.416C119.679 134.522 118.021 134.498 116.365 134.498C99.5389 134.511 82.7116 134.597 65.8936 134.47C54.3946 134.386 42.9019 134.456 31.4076 134.386C31.1498 134.386 30.8951 134.361 30.6185 134.341V130.148H31.6014C61.733 130.159 91.8657 130.162 121.999 130.159C124.201 130.134 126.396 129.925 128.562 129.534C131.213 129.083 133.807 128.341 136.295 127.322C138.367 126.481 140.361 125.459 142.253 124.268C143.928 123.228 145.527 122.069 147.038 120.803C148.166 119.848 149.176 118.757 150.229 117.712C151.524 116.422 152.69 115.009 153.712 113.493C154.513 112.319 155.293 111.127 155.987 109.899C157.225 107.733 158.227 105.44 158.976 103.06C159.614 101.079 160.085 99.0493 160.382 96.9905C160.593 95.3545 160.84 93.7231 160.904 92.0699C160.946 91.1136 161.017 90.1589 161.073 89.2042C161.114 88.4526 161.217 87.6994 161.187 86.9525C161.139 85.5915 160.984 84.2461 160.917 82.8898C160.828 81.5022 160.64 80.1226 160.356 78.7615C159.374 73.7066 157.218 68.9532 154.062 64.8843C153.199 63.7593 152.249 62.6967 151.302 61.6295C149.211 59.3695 146.915 57.308 144.444 55.4714C141.961 53.5604 139.472 51.6603 136.992 49.7461C134.241 47.6116 131.504 45.4631 128.75 43.3396C126.453 41.5723 124.126 39.841 121.827 38.0659C119.073 35.9424 116.34 33.7907 113.585 31.6593C111.839 30.314 110.069 29.003 108.322 27.6513C106.067 25.9184 103.831 24.173 101.578 22.4339C100.292 21.4432 98.992 20.4604 97.7076 19.465C95.2075 17.5415 92.7074 15.6023 90.2072 13.6757C88.3853 12.2647 86.5868 10.8943 84.7289 9.47707Z" fill="#C76F45"/>
<path fill-rule="evenodd" clip-rule="evenodd" d="M67.6796 88.1603V88.815C67.6312 88.8447 67.5891 88.9135 67.5422 88.9135C64.9546 88.9218 62.3659 88.9265 59.7762 88.9275C59.7262 88.9275 59.6746 88.8838 59.584 88.8416V88.1744C59.6523 88.1344 59.7267 88.1059 59.8043 88.09C60.1246 88.079 60.4449 88.09 60.7653 88.079C61.2779 88.0632 61.7651 87.8517 62.1266 87.4878C62.4881 87.124 62.6966 86.6355 62.7091 86.1227C62.7185 85.9774 62.7091 85.829 62.7091 85.6836C62.7091 77.6478 62.7091 69.6147 62.7091 61.5841C62.7423 61.2523 62.7037 60.9173 62.5958 60.6019C62.488 60.2864 62.3134 59.9979 62.0841 59.7559C61.9244 59.5866 61.7322 59.4511 61.5191 59.3577C61.3059 59.2643 61.0761 59.2148 60.8434 59.2121C60.6105 59.2043 60.3746 59.2121 60.1465 59.1996C59.5605 59.1793 59.5543 59.1668 59.6215 58.3449C62.2325 58.3167 64.8546 58.3589 67.5547 58.3449C68.3844 61.7294 69.1532 65.0967 69.9282 68.4656C70.7032 71.8345 71.5001 75.1988 72.4283 78.5536C73.8221 72.145 75.2207 65.7119 76.6239 59.2543C76.1379 59.2246 75.7113 59.2011 75.1957 59.1715C75.1722 58.9199 75.1472 58.6761 75.1191 58.348H84.9555V59.0715C84.8731 59.1267 84.7823 59.1684 84.6867 59.1949C84.3979 59.222 84.1073 59.2256 83.8179 59.2058C83.2911 59.2135 82.786 59.4164 82.4004 59.7753C82.0147 60.1341 81.7759 60.6233 81.7303 61.1481C81.7123 61.38 81.7081 61.6127 81.7178 61.845C81.7178 69.737 81.7178 77.626 81.7178 85.5117C81.7146 85.8866 81.764 86.26 81.8647 86.6212C81.9768 87.0448 82.2273 87.4189 82.5764 87.6839C82.9255 87.9489 83.3531 88.0896 83.7914 88.0837C84.1632 88.0947 84.5414 88.0837 84.9555 88.0837V88.9135H74.955V88.0837C75.3597 88.0837 75.7363 88.0915 76.1051 88.0837C76.3668 88.0844 76.626 88.0328 76.8676 87.932C77.1091 87.8311 77.328 87.683 77.5115 87.4965C77.695 87.3099 77.8394 87.0885 77.9363 86.8454C78.0331 86.6022 78.0804 86.3422 78.0754 86.0805C78.0754 85.6117 78.0754 85.143 78.0754 84.6851C78.0754 78.4234 78.0754 72.1653 78.0754 65.9108C78.0754 64.8327 78.0911 63.7545 78.0942 62.6794C78.1168 62.2678 78.073 61.8552 77.9645 61.4575C77.7614 62.3153 77.5505 63.1763 77.3614 64.0389C76.9411 65.9233 76.5379 67.8203 76.1254 69.7079C75.6045 72.0736 75.0837 74.4409 74.5628 76.8098C73.8117 80.2151 73.0601 83.6236 72.308 87.0352C72.1752 87.6509 72.0518 88.2712 71.9158 88.9103H71.0282C68.8906 79.6786 66.7551 70.4595 64.6217 61.2528C64.578 61.2528 64.5342 61.2528 64.4905 61.2653C64.4717 61.4653 64.4436 61.6684 64.4436 61.8716C64.4436 69.8459 64.4436 77.8213 64.4436 85.7977C64.4158 86.1028 64.455 86.4104 64.5584 86.6988C64.6618 86.9873 64.8269 87.2496 65.0422 87.4676C65.2575 87.6856 65.5179 87.854 65.805 87.9609C66.0921 88.0679 66.3992 88.1109 66.7046 88.0869C66.9671 88.0869 67.2281 88.0869 67.4859 88.1009C67.552 88.1153 67.6168 88.1352 67.6796 88.1603Z" fill="#C76F45"/>
<path fill-rule="evenodd" clip-rule="evenodd" d="M128.761 88.8979V88.0838C129.09 88.0838 129.403 88.0729 129.715 88.0838C130.013 88.0989 130.311 88.0529 130.591 87.9486C130.871 87.8443 131.126 87.6839 131.341 87.4772C131.557 87.2705 131.727 87.022 131.843 86.7469C131.959 86.4718 132.017 86.1759 132.014 85.8774C132.022 85.7634 132.014 85.6446 132.014 85.5274V61.7763C132.043 61.4133 131.996 61.0481 131.874 60.7046C131.753 60.3611 131.561 60.0469 131.311 59.7825C131.144 59.6 130.941 59.455 130.714 59.3569C130.487 59.2589 130.242 59.2101 129.995 59.2137C129.617 59.2137 129.242 59.2137 128.776 59.2137C128.76 58.92 128.748 58.6402 128.732 58.3434C129.317 58.3434 129.826 58.3543 130.334 58.3434C131.984 58.2824 133.636 58.3699 135.286 58.3434C136.936 58.3168 138.605 58.3434 140.264 58.3668C141.787 58.4156 143.239 59.0243 144.341 60.0762C146.104 61.7393 147.355 63.8724 147.944 66.2234C148.454 67.884 148.777 69.5962 148.908 71.3283C149.146 74.4296 148.87 77.5488 148.091 80.56C147.546 82.8265 146.46 84.9272 144.925 86.6822C144.361 87.35 143.665 87.8938 142.881 88.2791C142.096 88.6645 141.241 88.8832 140.367 88.9213C136.583 88.9666 132.797 88.9338 129.015 88.9338C128.961 88.9385 128.901 88.9151 128.761 88.8979ZM135.537 73.5003C135.537 77.4286 135.54 81.359 135.547 85.2915C135.544 85.7251 135.596 86.1573 135.703 86.5775C135.778 86.9532 135.967 87.2967 136.244 87.5613C136.521 87.8258 136.873 87.9984 137.252 88.0557C138.046 88.184 138.859 88.1033 139.613 87.8217C140.366 87.54 141.033 87.0671 141.549 86.4493C142.532 85.3002 143.28 83.9685 143.749 82.5304C144.574 79.9689 145.031 77.303 145.105 74.6129C145.153 73.7191 145.013 72.8175 145.007 71.9205C144.975 70.0951 144.725 68.28 144.261 66.514C143.862 64.5783 143.036 62.7559 141.844 61.1794C141.351 60.4899 140.683 59.9447 139.909 59.6004C139.135 59.2561 138.283 59.1253 137.441 59.2215C137.106 59.2357 136.781 59.3421 136.503 59.5291C136.225 59.716 136.004 59.9762 135.864 60.281C135.643 60.7546 135.532 61.2723 135.539 61.7951C135.548 65.6963 135.549 69.598 135.542 73.5003H135.537Z" fill="#C76F45"/>
<path fill-rule="evenodd" clip-rule="evenodd" d="M94.7096 57.6387C95.7779 57.6025 96.8392 57.8251 97.8029 58.2877C98.7666 58.7502 99.6041 59.4389 100.244 60.2951C101.828 62.3438 102.899 64.7411 103.369 67.2876C103.654 68.7936 103.85 70.315 103.957 71.844C104.062 73.3188 104.031 74.8 103.866 76.2692C103.692 78.8735 103.048 81.4247 101.965 83.7993C101.22 85.5797 99.9812 87.1095 98.3941 88.2073C97.2172 88.9695 95.8282 89.3369 94.4284 89.2563C93.0286 89.1757 91.6909 88.6511 90.6093 87.7588C89.1819 86.5555 88.0812 85.0114 87.4092 83.2696C86.6572 81.4538 86.1511 79.5457 85.9045 77.5958C85.6575 75.961 85.5529 74.3079 85.5919 72.655C85.6175 69.1429 86.4032 65.6779 87.8952 62.4983C88.5452 61.1284 89.5088 59.9309 90.7079 59.0028C91.8201 58.0564 93.2508 57.5687 94.7096 57.6387ZM89.7093 73.4097H89.7781C89.7781 74.2863 89.7093 75.1692 89.7952 76.0286C89.9226 77.728 90.1359 79.4198 90.4343 81.0976C90.7317 82.7201 91.2419 84.2963 91.9516 85.7853C92.271 86.441 92.7258 87.0215 93.286 87.4885C93.6551 87.8445 94.1396 88.0561 94.6516 88.0848C95.1635 88.1135 95.6688 87.9573 96.0753 87.6447C96.464 87.344 96.8169 86.9995 97.1269 86.6181C98.087 85.1985 98.7312 83.5893 99.016 81.8992C99.2722 80.6929 99.4317 79.4538 99.5754 78.2209C99.7192 76.988 99.8269 75.7489 99.8754 74.5082C99.9255 72.4797 99.8268 70.4502 99.5801 68.436C99.4476 66.9976 99.1973 65.5724 98.8316 64.1749C98.509 62.5767 97.813 61.0775 96.8003 59.7997C96.6067 59.5164 96.3543 59.278 96.0604 59.1009C95.7665 58.9238 95.4379 58.812 95.097 58.7731C94.756 58.7343 94.4106 58.7693 94.0844 58.8758C93.7582 58.9823 93.4588 59.1578 93.2064 59.3903C92.9603 59.5939 92.7417 59.8287 92.5564 60.0888C92.0227 60.8126 91.6047 61.6149 91.3172 62.467C90.5792 64.5692 90.1185 66.7586 89.9468 68.9798C89.7983 70.4502 89.7781 71.9346 89.7015 73.4097H89.7093Z" fill="#C76F45"/>
<path fill-rule="evenodd" clip-rule="evenodd" d="M71.5736 109.447C71.5651 112.343 71.1394 115.222 70.3095 117.996C69.784 119.784 68.8987 121.445 67.7078 122.878C66.6525 124.238 65.1174 125.144 63.4164 125.411C61.7153 125.677 59.9768 125.284 58.5558 124.312C57.2622 123.414 56.2262 122.193 55.5509 120.77C54.61 118.939 53.957 116.974 53.6149 114.945C53.3791 113.751 53.2495 112.54 53.2274 111.324C53.2274 110.663 53.0946 109.999 53.118 109.338C53.1183 105.974 53.7798 102.642 55.065 99.5329C55.7279 97.9512 56.7433 96.5418 58.0339 95.4124C59.2057 94.4205 60.6838 93.8634 62.2188 93.8349C63.7537 93.8064 65.2515 94.3084 66.4593 95.2561C67.8701 96.4262 68.9664 97.9301 69.6485 99.6313C70.3815 101.361 70.9004 103.174 71.1938 105.03C71.3204 105.769 71.3502 106.53 71.4142 107.274C71.4814 108.086 71.533 108.902 71.5736 109.447ZM57.2119 109.776C57.2776 110.785 57.3682 111.883 57.4151 112.98C57.5188 115.206 57.878 117.412 58.4854 119.556C58.8217 120.879 59.4189 122.122 60.2418 123.212C60.5545 123.649 60.9954 123.978 61.5032 124.153C62.011 124.328 62.5608 124.341 63.0764 124.19C63.691 123.988 64.218 123.582 64.5702 123.039C65.0586 122.253 65.4809 121.428 65.8327 120.573C66.7954 117.72 67.3151 114.736 67.3734 111.726C67.4958 109.32 67.4027 106.908 67.0952 104.519C66.9006 102.709 66.5344 100.921 66.0014 99.1797C65.6732 97.9387 65.04 96.7994 64.1592 95.8655C63.9382 95.6027 63.6628 95.391 63.352 95.245C63.0412 95.099 62.7024 95.0223 62.3591 95.02C62.0157 95.0178 61.676 95.0902 61.3633 95.2321C61.0506 95.374 60.7724 95.5821 60.548 95.8421C59.7797 96.6425 59.2042 97.6076 58.8652 98.6641C58.1311 100.793 57.6629 103.005 57.4714 105.249C57.3135 106.719 57.2964 108.202 57.2136 109.776H57.2119Z" fill="#C76F45"/>
<path fill-rule="evenodd" clip-rule="evenodd" d="M112.447 88.0822V88.8385C112.384 88.8827 112.313 88.9149 112.238 88.9338H104.489C104.464 88.676 104.441 88.4354 104.414 88.1854C104.503 88.1398 104.598 88.1076 104.697 88.09C104.981 88.0791 105.277 88.09 105.567 88.0822C106.093 88.0669 106.594 87.8528 106.968 87.4831C107.342 87.1134 107.563 86.6156 107.585 86.0899C107.597 85.8587 107.594 85.6212 107.594 85.3883C107.594 77.5307 107.594 69.6746 107.594 61.8201C107.616 61.4432 107.585 61.0651 107.503 60.6966C107.384 60.2574 107.12 59.8713 106.755 59.6008C106.389 59.3302 105.942 59.1911 105.488 59.2059C105.175 59.2199 104.855 59.2059 104.486 59.2059V58.3418H111.305C112.227 60.2466 113.132 62.092 114.022 63.9483C114.913 65.8046 115.816 67.6516 116.705 69.5111C117.582 71.3439 118.424 73.18 119.321 75.0035C120.218 76.827 121.124 78.6865 122.024 80.5209C122.084 80.5084 122.138 80.4928 122.198 80.4803C122.212 80.2991 122.235 80.1209 122.235 79.9428C122.235 73.8279 122.238 67.7136 122.243 61.5997C122.268 60.958 122.04 60.3321 121.607 59.8575C121.43 59.6456 121.206 59.4768 120.954 59.364C120.702 59.2511 120.427 59.197 120.151 59.2059C119.808 59.2184 119.458 59.2059 119.035 59.2059C119.013 58.9012 118.994 58.6668 118.969 58.3449C120.39 58.3449 121.723 58.3324 123.057 58.3449C124.392 58.3574 125.701 58.2558 127.075 58.3824V59.0496C126.781 59.3121 126.45 59.1934 126.137 59.2059C125.868 59.1774 125.597 59.2046 125.339 59.2857C125.082 59.3669 124.844 59.5002 124.64 59.6775C124.436 59.8548 124.271 60.0722 124.156 60.3161C124.04 60.56 123.975 60.8252 123.967 61.095C123.897 61.5229 123.858 61.9554 123.852 62.3888C123.84 70.884 123.837 79.3813 123.845 87.8806V88.8635C123.338 88.9551 122.822 88.9855 122.309 88.9541C121.454 87.1619 120.615 85.3837 119.768 83.6101C118.921 81.8366 118.049 80.06 117.202 78.2786C116.355 76.4973 115.493 74.6597 114.632 72.8612C113.771 71.0627 112.93 69.3079 112.072 67.5297C111.214 65.7515 110.353 63.9983 109.367 62.2685C109.35 62.4826 109.316 62.7045 109.316 62.9185C109.316 70.547 109.316 78.1724 109.316 85.7946C109.255 86.2624 109.361 86.7365 109.615 87.134C109.869 87.5314 110.255 87.8267 110.705 87.9682C110.924 88.0383 111.153 88.0752 111.383 88.0775C111.718 88.0963 112.069 88.0822 112.447 88.0822Z" fill="#C76F45"/>
<path fill-rule="evenodd" clip-rule="evenodd" d="M112.387 125.034C112.369 124.736 112.357 124.521 112.348 124.3C112.443 124.266 112.541 124.243 112.641 124.229C113.071 124.182 113.507 124.182 113.931 124.106C114.409 124.018 114.841 123.764 115.15 123.388C115.458 123.012 115.624 122.539 115.617 122.053C115.627 121.879 115.627 121.705 115.617 121.531C115.617 113.606 115.617 105.689 115.617 97.7796C115.648 97.3421 115.575 96.9033 115.402 96.4999C115.234 96.1273 114.963 95.8104 114.621 95.5862C114.279 95.3621 113.88 95.24 113.471 95.2342C113.127 95.2185 112.779 95.2342 112.377 95.2342V94.4138H131.284C131.298 94.6451 131.322 94.8685 131.328 95.0873C131.398 98.1109 131.466 101.13 131.531 104.221L130.714 104.291C130.68 104.169 130.655 104.045 130.641 103.919C130.609 102.295 130.255 100.693 129.598 99.2078C129.186 98.1962 128.517 97.3098 127.657 96.6364C126.797 95.963 125.776 95.526 124.695 95.3685C123.515 95.2198 122.324 95.1811 121.137 95.2529C120.623 95.2787 120.139 95.5022 119.786 95.8768C119.433 96.2513 119.239 96.7478 119.243 97.2624C119.254 98.5124 119.243 99.7625 119.243 101.022C119.243 103.142 119.243 105.272 119.243 107.396C119.243 107.674 119.268 107.96 119.289 108.319C120.577 108.391 121.87 108.339 123.148 108.163C123.739 108.065 124.286 107.79 124.716 107.373C125.146 106.957 125.439 106.419 125.556 105.832C125.644 105.347 125.696 104.858 125.712 104.366C125.736 103.969 125.712 103.564 125.712 103.131H126.558C126.589 107.103 126.558 111.071 126.572 115.093H125.819C125.777 115.027 125.745 114.954 125.725 114.879C125.665 114.098 125.67 113.316 125.561 112.535C125.479 111.88 125.173 111.274 124.696 110.818C124.218 110.363 123.598 110.086 122.94 110.035C121.754 109.949 120.57 109.915 119.32 109.855C119.285 110.158 119.239 110.377 119.234 110.6C119.234 114.382 119.246 118.166 119.234 121.951C119.203 122.236 119.234 122.524 119.324 122.796C119.415 123.067 119.562 123.317 119.757 123.527C119.952 123.737 120.189 123.902 120.453 124.013C120.718 124.123 121.002 124.176 121.289 124.167C122.677 124.332 124.084 124.229 125.434 123.865C126.75 123.477 127.903 122.669 128.716 121.564C129.65 120.231 130.298 118.72 130.619 117.124C130.717 116.71 130.741 116.262 130.819 115.843C130.868 115.615 130.929 115.389 131.003 115.168H131.766C131.788 115.341 131.8 115.514 131.803 115.688C131.703 117.452 131.592 119.218 131.491 120.982C131.422 122.168 131.377 123.351 131.316 124.545C131.295 124.708 131.265 124.869 131.225 125.028C128.066 125.065 124.926 125.048 121.803 125.048C118.679 125.048 115.565 125.071 112.387 125.034Z" fill="#C76F45"/>
<path fill-rule="evenodd" clip-rule="evenodd" d="M29.0323 58.3482C29.5277 60.2795 29.9933 62.1234 30.473 63.9734C31.6064 68.3914 32.742 72.8082 33.8795 77.2241C34.5499 79.8226 35.2139 82.4259 35.903 85.0244C36.0484 85.5516 36.2507 86.0614 36.5062 86.5448C36.7295 87.0381 37.0982 87.4513 37.5629 87.7292C38.0276 88.0071 38.5661 88.1363 39.1063 88.0996C39.1855 88.1099 39.2639 88.1261 39.3407 88.148C39.3532 88.373 39.3673 88.6168 39.3813 88.909H29.4839C29.4514 88.8277 29.4269 88.7434 29.4105 88.6574C29.4105 88.5012 29.4214 88.3277 29.4277 88.1886C29.9278 88.1102 30.4222 87.9985 30.9074 87.8542C31.2359 87.7274 31.519 87.5054 31.7205 87.2168C31.922 86.9281 32.0328 86.5859 32.0387 86.2339C32.0687 85.8302 32.0328 85.4244 31.9325 85.0322C31.5559 83.3978 31.1512 81.7727 30.7449 80.0883C30.1012 79.9723 29.4449 79.9429 28.7933 80.0008C28.1214 79.9758 27.4542 80.0008 26.7854 80.0008C26.1166 80.0008 25.4462 80.0008 24.7759 80.0008C24.1056 80.0008 23.4525 80.0117 22.7634 80.0211C22.5415 80.868 22.3195 81.643 22.1273 82.4243C21.9226 83.2353 21.7211 84.0494 21.554 84.8744C21.4605 85.4134 21.3954 85.9568 21.3586 86.5026C21.2524 87.6292 22.0883 88.0183 22.9039 88.0871C23.2461 88.1121 23.5931 88.0871 23.9384 88.0871C23.9712 88.1863 23.9973 88.2875 24.0165 88.3902C24.029 88.5387 24.0165 88.6777 24.0165 88.8277C23.9181 88.8746 23.8415 88.9402 23.7681 88.9402C21.4659 88.9402 19.1663 88.9402 16.8693 88.9402C16.6083 88.9481 16.3489 88.9402 16.0192 88.9402C15.9927 88.6777 15.9677 88.434 15.9458 88.2121C16.0458 88.1527 16.0912 88.1043 16.1427 88.1043C16.9016 88.0778 17.6326 87.8116 18.2308 87.3439C18.829 86.8762 19.2637 86.2311 19.4726 85.501C19.7976 84.451 20.0475 83.3759 20.3163 82.3102C21.407 78.0548 22.4961 73.7963 23.5837 69.5346C24.4795 66.0022 25.3801 62.4708 26.2853 58.9404C26.4307 58.3623 26.4307 58.3544 27.0307 58.3482C27.6666 58.3404 28.3057 58.3482 29.0323 58.3482ZM30.2074 78.1007C29.9183 76.3193 27.0448 64.8188 26.7166 64.2531C26.6166 64.5453 26.5167 64.7735 26.4573 65.011C26.0073 66.833 25.5635 68.6549 25.1087 70.48C24.5259 72.8239 23.9306 75.1818 23.3447 77.5381C23.323 77.7271 23.323 77.918 23.3447 78.1069L30.2074 78.1007Z" fill="#C76F45"/>
<path fill-rule="evenodd" clip-rule="evenodd" d="M94.8965 125.123V112.963C95.1996 112.937 95.4761 112.91 95.8074 112.883C95.9449 113.48 96.0714 114.04 96.2105 114.59C96.563 116.112 97.0333 117.606 97.6169 119.056C98.2088 120.574 99.1139 121.952 100.273 123.098C101.314 124.136 102.721 124.723 104.191 124.732C105.35 124.807 106.496 124.451 107.41 123.735C108.324 123.018 108.943 121.99 109.147 120.846C109.468 119.524 109.398 118.137 108.946 116.854C108.494 115.571 107.68 114.446 106.602 113.616C105.067 112.417 103.381 111.427 101.586 110.672C99.9393 109.945 98.4163 108.966 97.0715 107.769C96.1571 106.906 95.51 105.797 95.2074 104.577C94.6454 102.46 94.8622 100.212 95.8183 98.2421C96.2818 97.1512 97.0153 96.1961 97.9496 95.4668C98.884 94.7375 99.9885 94.2579 101.159 94.0731C102.157 93.8575 103.189 93.8585 104.187 94.076C105.184 94.2935 106.123 94.7226 106.941 95.3341C107.455 95.7467 108.025 96.0904 108.558 96.4592C109.272 96.1701 109.421 95.4982 109.761 94.9216H110.505C110.558 94.9935 110.638 95.0654 110.646 95.1372C110.677 95.3966 110.693 95.6574 110.696 95.9185C110.714 97.8686 110.714 99.825 110.753 101.766C110.772 102.749 110.863 103.728 110.921 104.724C110.569 104.883 110.171 104.903 109.805 104.78C109.658 104.174 109.482 103.575 109.367 102.953C109.075 101.594 108.634 100.272 108.05 99.0109C107.638 98.0174 107.029 97.1176 106.259 96.3654C105.367 95.5653 104.22 95.1055 103.022 95.0669C102.242 94.9876 101.455 95.0836 100.717 95.3482C99.9743 95.6161 99.3224 96.0885 98.8364 96.7108C98.3504 97.3331 98.0501 98.08 97.97 98.8655C97.7805 99.6268 97.7651 100.421 97.9247 101.189C98.1014 101.922 98.4316 102.609 98.8935 103.205C99.7045 104.199 100.681 105.044 101.781 105.705C103.594 106.799 105.422 107.863 107.231 108.958C108.625 109.749 109.834 110.828 110.777 112.124C111.407 113.098 111.813 114.199 111.964 115.349C112.261 117.22 111.994 119.138 111.199 120.857C110.763 122.066 110.027 123.143 109.06 123.989C108.093 124.835 106.927 125.421 105.672 125.693C104.122 126.013 102.51 125.796 101.1 125.078C100.267 124.667 99.5013 124.128 98.7091 123.645C98.4372 123.489 98.1841 123.289 97.8981 123.151C97.7855 123.082 97.6597 123.038 97.5287 123.021C97.3978 123.004 97.2648 123.015 97.1384 123.053C97.012 123.091 96.895 123.155 96.7951 123.242C96.6953 123.328 96.6148 123.435 96.559 123.554C96.3631 123.876 96.1968 124.215 96.0621 124.567C95.773 125.265 95.7793 125.265 94.8965 125.123Z" fill="#C76F45"/>
<path fill-rule="evenodd" clip-rule="evenodd" d="M86.4882 95.2279V94.4106H94.5823C94.598 94.6372 94.6152 94.8794 94.6277 95.0982C94.5308 95.1576 94.4885 95.2075 94.4339 95.2075C94.2309 95.2277 94.0267 95.234 93.8229 95.2263C93.4958 95.1873 93.1641 95.2214 92.8518 95.3262C92.5395 95.431 92.2544 95.6039 92.0171 95.8324C91.7798 96.0609 91.5963 96.3392 91.4797 96.6473C91.3631 96.9554 91.3165 97.2856 91.3431 97.6139C91.3338 97.8186 91.3431 98.0186 91.3431 98.2218C91.3431 104.743 91.3431 111.263 91.3431 117.782C91.3531 118.767 91.2328 119.749 90.9853 120.702C90.7608 121.73 90.2573 122.675 89.5304 123.435C88.8035 124.195 87.8811 124.739 86.8648 125.009C85.5973 125.447 84.2382 125.55 82.9193 125.307C82.1456 125.208 81.3788 125.06 80.6238 124.864C79.3633 124.493 78.2362 123.767 77.3772 122.773C76.5182 121.779 75.9636 120.558 75.7799 119.257C75.6844 118.717 75.6322 118.17 75.6237 117.621C75.6143 110.984 75.6143 104.348 75.6237 97.7124C75.6767 97.1013 75.4964 96.4927 75.119 96.0091C74.9179 95.7601 74.6626 95.5602 74.3726 95.4248C74.0826 95.2894 73.7654 95.2221 73.4454 95.2279H72.4032C72.3891 94.9325 72.3766 94.6966 72.3594 94.4106H82.374C82.3959 94.6263 82.4192 94.8669 82.4427 95.1091C82.3526 95.1548 82.2578 95.1904 82.1599 95.2154C81.9286 95.2279 81.6911 95.2232 81.4599 95.2279C81.1689 95.2158 80.8786 95.2641 80.6072 95.3696C80.3358 95.4752 80.0892 95.6357 79.8829 95.8412C79.6765 96.0466 79.515 96.2926 79.4083 96.5635C79.3016 96.8344 79.2521 97.1245 79.2629 97.4155C79.2629 104.25 79.2425 111.094 79.2847 117.934C79.2639 118.778 79.416 119.619 79.7314 120.403C80.0469 121.187 80.5191 121.898 81.1192 122.493C81.833 123.183 82.7629 123.606 83.7521 123.69C84.9303 123.862 86.1311 123.604 87.1351 122.964C88.1392 122.324 88.8796 121.345 89.2211 120.204C89.489 119.497 89.6256 118.747 89.6243 117.991C89.618 111.122 89.618 104.254 89.6243 97.3858C89.6434 97.0958 89.6001 96.805 89.4972 96.5332C89.3944 96.2614 89.2343 96.0148 89.028 95.8101C88.8217 95.6054 88.5738 95.4473 88.3012 95.3466C88.0285 95.2459 87.7374 95.2049 87.4476 95.2263L86.4882 95.2279Z" fill="#C76F45"/>
<path fill-rule="evenodd" clip-rule="evenodd" d="M57.5544 77.6787C57.7966 77.6662 58.0232 77.649 58.3357 77.6334C58.3357 81.3945 58.3014 85.1119 58.2857 88.7777C58.2264 88.8402 58.2122 88.8699 58.1872 88.8855C58.1668 88.9023 58.1418 88.9127 58.1154 88.9152C52.386 88.9298 46.6529 88.9381 40.9161 88.9402C40.8052 88.9402 40.6912 88.9152 40.524 88.8996C40.5099 88.6589 40.4958 88.4308 40.4849 88.2074C40.5617 88.1579 40.647 88.123 40.7365 88.1042C41.0583 88.0823 41.3771 88.0917 41.6974 88.0808C42.2093 88.0619 42.6955 87.8517 43.06 87.4919C43.4245 87.132 43.6408 86.6485 43.6663 86.1369C43.6741 85.9807 43.6663 85.8463 43.6663 85.6994C43.6663 77.6668 43.6663 69.6331 43.6663 61.5983C43.6812 61.2825 43.6475 60.9663 43.5662 60.6608C43.4553 60.2192 43.1916 59.8312 42.8217 59.5657C42.4518 59.3002 41.9997 59.1744 41.5459 59.2107C41.2334 59.2107 40.9114 59.2107 40.5458 59.2107V58.3872H50.415C50.4384 58.6169 50.4635 58.856 50.4885 59.106C50.3958 59.1509 50.2975 59.1835 50.1963 59.2029C49.8478 59.2029 49.4962 59.1935 49.1493 59.2216C48.6675 59.2616 48.2163 59.4743 47.8789 59.8206C47.5416 60.1668 47.3407 60.6234 47.3133 61.1061C47.3008 61.3077 47.3133 61.5155 47.3133 61.7139C47.3133 69.6601 47.3133 77.6058 47.3133 85.551C47.3187 85.9847 47.3829 86.4157 47.5039 86.8323C47.6025 87.1721 47.8047 87.4727 48.0823 87.692C48.3599 87.9113 48.6991 88.0385 49.0525 88.0558C50.6214 88.2711 52.2149 87.9048 53.5324 87.026C54.3245 86.48 54.98 85.7587 55.448 84.9181C56.2427 83.4359 56.8021 81.8392 57.106 80.1851C57.2763 79.3976 57.395 78.5928 57.5544 77.6787Z" fill="#C76F45"/>
<path fill-rule="evenodd" clip-rule="evenodd" d="M21.4573 123.189C22.6257 123.191 23.767 123.541 24.7369 124.192C25.7067 124.844 26.4616 125.768 26.9059 126.849C27.3502 127.93 27.4641 129.118 27.2331 130.263C27.0021 131.408 26.4366 132.459 25.6081 133.283C24.7796 134.107 23.7254 134.667 22.5788 134.891C21.4322 135.116 20.2448 134.996 19.1667 134.545C18.0885 134.095 17.1681 133.335 16.522 132.362C15.8759 131.388 15.533 130.245 15.5367 129.076C15.5257 128.297 15.6715 127.524 15.9655 126.803C16.2595 126.081 16.6958 125.426 17.2483 124.877C17.8007 124.327 18.458 123.895 19.1812 123.605C19.9043 123.315 20.6784 123.173 21.4573 123.189ZM21.4979 124.02C20.8252 124.008 20.1569 124.13 19.5317 124.379C18.9066 124.628 18.3371 124.998 17.8564 125.469C17.3758 125.94 16.9935 126.501 16.7318 127.121C16.4701 127.741 16.3342 128.407 16.332 129.08C16.3296 129.75 16.4593 130.415 16.7138 131.036C16.9683 131.657 17.3425 132.221 17.8152 132.698C18.2878 133.174 18.8496 133.552 19.4685 133.811C20.0874 134.07 20.7512 134.205 21.4221 134.207C22.093 134.21 22.7578 134.08 23.3786 133.825C23.9993 133.571 24.564 133.197 25.0401 132.724C25.5163 132.251 25.8946 131.69 26.1536 131.071C26.4126 130.452 26.5472 129.788 26.5497 129.117C26.5555 127.771 26.0266 126.478 25.0792 125.522C24.1319 124.567 22.8437 124.026 21.4979 124.02Z" fill="#C76F45"/>
<path fill-rule="evenodd" clip-rule="evenodd" d="M19.9807 129.542C19.8983 130.358 19.8582 131.178 19.8604 131.998C19.7806 132.038 19.6961 132.067 19.6088 132.084C19.4809 132.083 19.3534 132.071 19.2275 132.048V126.157C20.4104 126.157 21.5714 126.118 22.7183 126.171C23.043 126.191 23.3478 126.335 23.5696 126.572C23.7915 126.81 23.9136 127.124 23.9106 127.45C23.9496 128.172 23.9606 128.768 22.9371 129.168C22.8074 129.22 22.6839 129.301 22.598 129.342L24.4637 132.058H23.5153C23.1559 131.536 22.734 131.015 22.4214 130.44C22.2077 130.006 21.8351 129.67 21.3807 129.503C20.9264 129.336 20.4251 129.35 19.9807 129.542ZM20.0479 128.726C20.262 128.739 20.4573 128.77 20.6589 128.77C21.1495 128.77 21.6433 128.783 22.1355 128.759C22.3073 128.738 22.4736 128.685 22.6261 128.603C22.8119 128.52 22.9668 128.381 23.0682 128.205C23.1696 128.029 23.2123 127.825 23.1902 127.623C23.1763 127.435 23.1048 127.255 22.9855 127.109C22.8661 126.962 22.7047 126.856 22.523 126.804C21.7574 126.65 20.9722 126.617 20.1963 126.707C20.13 126.729 20.0701 126.766 20.0223 126.817C19.9744 126.867 19.9403 126.929 19.9229 126.996C19.8268 127.575 19.8696 128.168 20.0479 128.726Z" fill="#C76F45"/>
</g>
<defs>
<clipPath id="clip0_657_117">
<rect width="168.697" height="135" fill="white"/>
</clipPath>
</defs>
</svg>
