<svg width="250" height="56" viewBox="0 0 250 56" fill="none" xmlns="http://www.w3.org/2000/svg">
<path d="M237.691 16.7656V11.0356H235.568V9.76221H241.086V11.0356H238.964V16.7656H237.691ZM241.935 16.7656V9.76221H244.057L245.331 14.4311L246.604 9.76221H248.726V16.5534H247.453V11.2478L245.967 16.7656H244.694L243.208 11.2478V16.7656H241.935Z" fill="#005CB9"/>
<path d="M12.3094 49.0237V16.3412H0.424805V9.76221H32.2584V16.3412H20.3739V49.0237H12.3094Z" fill="#005EB8"/>
<path d="M42.8696 49.0237H35.2295V20.5856H42.4451V24.6179C43.294 23.1323 44.3551 21.859 45.6285 20.7979C46.6896 20.1612 47.7507 19.949 49.0241 19.949C50.7219 19.949 52.6319 20.3734 54.1174 21.4345L51.783 28.0135C50.7219 27.1646 49.4485 26.7401 48.1752 26.7401C47.114 26.7401 46.2651 26.9524 45.4162 27.589C44.5674 28.4379 43.9307 29.4991 43.7185 30.7724C43.0818 33.9558 42.8696 37.1391 43.0818 40.3225V49.0237H42.8696Z" fill="#005EB8"/>
<path d="M77.8859 49.0237V44.7792C76.8248 46.2648 75.3393 47.5382 73.6415 48.3871C71.9437 49.2359 70.0337 49.6604 68.1236 49.6604C66.2136 49.6604 64.5158 49.2359 62.818 48.3871C61.3325 47.5382 60.0591 46.477 59.4224 44.7792C58.5736 42.657 58.3613 40.5348 58.3613 38.4125V20.5857H66.2136V33.7436C66.0014 36.2903 66.2136 38.6247 66.6381 41.1714C66.8503 42.0203 67.487 42.8692 68.1236 43.2937C68.9725 43.9303 70.0337 44.1426 70.8826 44.1426C72.1559 44.1426 73.4292 43.7181 74.4904 43.0814C75.5515 42.4448 76.1881 41.5959 76.6126 40.5348C77.037 37.9881 77.2493 35.4414 77.2493 32.8947V20.5857H84.8893V49.0237H77.8859Z" fill="#005EB8"/>
<path d="M102.08 49.0237L90.6201 20.5857H98.6846L104.202 35.0169L105.9 39.8981C106.325 38.6247 106.537 37.7758 106.749 37.5636C106.961 36.7147 107.174 35.8658 107.598 35.2292L113.116 20.5857H120.968L109.508 49.0237H102.08Z" fill="#005EB8"/>
<path d="M126.698 16.7656V9.76221H134.338V16.7656H126.698ZM126.698 49.0237V20.5856H134.338V49.0237H126.698Z" fill="#005EB8"/>
<path d="M156.834 20.5856V26.5279H151.528V38.2002C151.528 39.4736 151.528 40.9591 151.74 42.2325C151.953 42.6569 152.165 42.8691 152.377 43.2936C152.802 43.5058 153.226 43.718 153.65 43.718C154.712 43.718 155.773 43.5058 156.834 43.0814L157.47 49.0236C155.56 49.8725 153.438 50.0848 151.528 50.0848C150.255 50.0848 148.981 49.8725 147.708 49.4481C146.647 49.0236 146.01 48.387 145.161 47.7503C144.525 46.9014 144.313 45.8403 144.1 44.7792C143.888 43.0814 143.888 41.1714 143.888 39.4736V26.9523H140.28V20.5856H143.888V14.8556L151.528 10.6111V20.5856H156.834Z" fill="#005EB8"/>
<path d="M169.355 29.2869L162.351 28.0136C162.988 25.4669 164.261 23.3446 166.383 21.8591C168.93 20.3735 171.901 19.7368 174.872 19.9491C177.419 19.7368 180.178 20.1613 182.512 21.2224C183.998 21.8591 185.271 22.9202 186.12 24.1935C186.969 26.3158 187.394 28.6502 187.181 30.9847V39.6859C187.181 41.5959 187.181 43.2937 187.606 45.2037C187.818 46.4771 188.455 47.7504 188.879 49.0238H181.239C181.027 48.3871 180.815 47.5382 180.602 46.9015C180.39 46.4771 180.39 46.0526 180.39 46.0526C179.117 47.326 177.631 48.1749 176.146 48.8115C174.66 49.4482 172.962 49.8726 171.477 49.8726C168.93 50.0849 166.383 49.236 164.473 47.5382C162.776 46.0526 161.927 43.7181 161.927 41.3837C161.927 39.8981 162.351 38.4125 163.2 37.1392C164.049 35.8659 165.11 34.8047 166.596 34.1681C168.506 33.3192 170.628 32.6825 172.75 32.4703C175.297 32.0458 177.844 31.4092 180.178 30.5603V29.7114C180.39 28.6502 179.966 27.3769 179.117 26.528C177.844 25.6791 176.358 25.4669 175.085 25.6791C174.024 25.6791 172.75 25.8913 171.901 26.528C170.203 27.1647 169.567 28.2258 169.355 29.2869ZM179.541 35.4414C178.48 35.6536 176.995 36.0781 174.872 36.5025C173.387 36.7148 171.901 37.1392 170.628 37.7759C169.779 38.4125 169.142 39.2614 169.142 40.5348C169.142 41.5959 169.567 42.657 170.203 43.2937C171.052 44.1426 172.114 44.567 173.175 44.3548C174.66 44.3548 175.934 43.9304 177.207 43.0815C178.056 42.4448 178.692 41.5959 179.117 40.5348C179.329 39.2614 179.541 38.2003 179.541 36.927V35.4414Z" fill="#005EB8"/>
<path d="M196.095 49.0237V9.76221H203.735V49.0237H196.095Z" fill="#005EB8"/>
<path d="M210.102 40.9592L217.742 39.898C217.954 41.1714 218.591 42.4447 219.652 43.2936C220.925 44.1425 222.411 44.567 223.896 44.3547C225.382 44.567 227.079 44.1425 228.353 43.2936C228.99 42.8692 229.414 42.0203 229.414 41.1714C229.414 40.7469 229.202 40.1103 228.777 39.6858C227.928 39.2614 227.079 38.8369 226.231 38.6247C222.198 37.988 218.166 36.7147 214.558 35.0169C212.436 33.7435 210.95 31.1969 211.163 28.6502C211.163 26.3157 212.224 23.9812 214.134 22.4957C216.681 20.5856 220.076 19.7367 223.259 19.949C226.231 19.7367 229.414 20.3734 232.173 21.859C234.295 23.1323 235.568 25.2546 236.205 27.589L228.99 28.8624C228.777 27.8013 228.141 26.9524 227.292 26.3157C226.231 25.679 224.957 25.2546 223.684 25.4668C222.198 25.2546 220.713 25.679 219.227 26.3157C218.591 26.7401 218.378 27.1646 218.378 27.8013C218.378 28.4379 218.591 28.8624 219.227 29.0746C221.562 30.1357 223.896 30.7724 226.443 31.1968C229.414 31.6213 232.385 32.8946 234.932 34.5924C236.63 36.078 237.478 37.988 237.266 40.1103C237.266 42.657 235.993 45.2036 234.083 46.6892C231.324 48.8115 227.716 49.6603 224.321 49.4481C221.137 49.6603 217.742 48.8115 214.983 47.1137C212.436 45.8403 210.95 43.7181 210.102 40.9592Z" fill="#005EB8"/>
</svg>
