<svg width="60" height="61" viewBox="0 0 60 61" fill="none" xmlns="http://www.w3.org/2000/svg">
<rect y="0.5" width="60" height="60" rx="30" fill="#2B2B2B"/>
<path d="M22.8898 19.5C23.8707 19.5 24.7779 19.5786 25.6067 19.8111C26.4372 19.9667 27.1171 20.2779 27.7204 20.666C28.3252 21.0547 28.778 21.5989 29.0788 22.2987C29.3812 22.998 29.5332 23.8544 29.5332 24.7863C29.5332 25.8753 29.306 26.8071 28.778 27.5064C28.3252 28.2073 27.57 28.828 26.6643 29.2947C27.9476 29.6844 28.9284 30.3837 29.5332 31.3156C30.138 32.2474 30.514 33.415 30.514 34.7366C30.514 35.8256 30.2869 36.7574 29.9093 37.5353C29.5332 38.3131 28.9284 39.0124 28.2484 39.4791C27.5095 39.9788 26.693 40.3465 25.8339 40.5666C24.9283 40.8007 24.0226 40.9563 23.117 40.9563H13V19.5H22.8898ZM22.2851 28.2057C23.1155 28.2057 23.7955 27.9731 24.3235 27.585C24.8515 27.1969 25.0787 26.496 25.0787 25.6411C25.0787 25.1744 25.002 24.7077 24.8515 24.3981C24.7011 24.0886 24.4739 23.8529 24.1731 23.6203C23.8655 23.4434 23.5346 23.3127 23.1907 23.2321C22.8131 23.1536 22.437 23.1536 21.9827 23.1536H17.6049V28.2073L22.2851 28.2057ZM22.5122 37.3797C22.965 37.3797 23.4179 37.3011 23.7955 37.2241C24.1731 37.1456 24.5507 36.9916 24.8515 36.7574C25.1579 36.5286 25.415 36.2376 25.6067 35.9026C25.7572 35.5144 25.9091 35.0477 25.9091 34.504C25.9091 33.415 25.6067 32.6371 25.0035 32.0934C24.3987 31.6267 23.5683 31.3941 22.5874 31.3941H17.6049V37.3813L22.5122 37.3797ZM37.0822 37.3011C37.686 37.9234 38.5916 38.2346 39.7991 38.2346C40.6295 38.2346 41.3847 38.002 41.988 37.6138C42.5928 37.1466 42.9704 36.6799 43.1208 36.2137H46.8201C46.2153 38.079 45.3097 39.4006 44.1032 40.2554C42.8936 41.0333 41.4599 41.5 39.7239 41.5C38.6133 41.5017 37.5122 41.2906 36.4774 40.8777C35.5459 40.522 34.7155 39.9344 34.0614 39.168C33.3588 38.4535 32.8404 37.5718 32.5525 36.6018C32.1749 35.5914 32.0229 34.504 32.0229 33.2594C32.0229 32.0934 32.1749 31.006 32.5525 29.994C32.9147 29.0191 33.4526 28.1225 34.1381 27.3509C34.8166 26.6516 35.647 26.0309 36.5526 25.6411C37.5608 25.2268 38.6375 25.0155 39.7239 25.0189C41.0071 25.0189 42.1399 25.253 43.1208 25.7967C44.1032 26.3404 44.8568 26.9627 45.4601 27.8961C46.0649 28.751 46.5192 29.7614 46.8201 30.8504C46.9705 31.9379 47.0457 33.0269 46.9705 34.2699H36.0246C36.0246 35.5144 36.4774 36.6804 37.0822 37.3027M41.8375 29.1407C41.3095 28.597 40.4791 28.2859 39.4967 28.2859C38.9207 28.277 38.3511 28.4101 37.8359 28.674C37.3831 28.9081 37.0822 29.2193 36.7798 29.5304C36.5002 29.8297 36.316 30.209 36.2518 30.6179C36.175 31.0076 36.0998 31.3171 36.0998 31.6283H42.8936C42.7432 30.4623 42.3656 29.686 41.8375 29.1407ZM35.1942 20.9771H43.6488V23.0766H35.1957L35.1942 20.9771Z" fill="white"/>
</svg>
