<svg width="66" height="66" viewBox="0 0 66 66" fill="none" xmlns="http://www.w3.org/2000/svg">
<rect x="1.5" y="1.5" width="63" height="63" rx="31.5" stroke="#2B2B2B" stroke-width="3"/>
<path d="M25.8898 22C26.8707 22 27.7779 22.0786 28.6067 22.3111C29.4372 22.4667 30.1171 22.7779 30.7204 23.166C31.3252 23.5547 31.778 24.0989 32.0788 24.7987C32.3812 25.498 32.5332 26.3544 32.5332 27.2863C32.5332 28.3753 32.306 29.3071 31.778 30.0064C31.3252 30.7073 30.57 31.328 29.6643 31.7947C30.9476 32.1844 31.9284 32.8837 32.5332 33.8156C33.138 34.7474 33.514 35.915 33.514 37.2366C33.514 38.3256 33.2869 39.2574 32.9093 40.0353C32.5332 40.8131 31.9284 41.5124 31.2484 41.9791C30.5095 42.4788 29.693 42.8465 28.8339 43.0666C27.9283 43.3007 27.0226 43.4563 26.117 43.4563H16V22H25.8898ZM25.2851 30.7057C26.1155 30.7057 26.7955 30.4731 27.3235 30.085C27.8515 29.6969 28.0787 28.996 28.0787 28.1411C28.0787 27.6744 28.002 27.2077 27.8515 26.8981C27.7011 26.5886 27.4739 26.3529 27.1731 26.1203C26.8655 25.9434 26.5346 25.8127 26.1907 25.7321C25.8131 25.6536 25.437 25.6536 24.9827 25.6536H20.6049V30.7073L25.2851 30.7057ZM25.5122 39.8797C25.965 39.8797 26.4179 39.8011 26.7955 39.7241C27.1731 39.6456 27.5507 39.4916 27.8515 39.2574C28.1579 39.0286 28.415 38.7376 28.6067 38.4026C28.7572 38.0144 28.9091 37.5477 28.9091 37.004C28.9091 35.915 28.6067 35.1371 28.0035 34.5934C27.3987 34.1267 26.5683 33.8941 25.5874 33.8941H20.6049V39.8813L25.5122 39.8797ZM40.0822 39.8011C40.686 40.4234 41.5916 40.7346 42.7991 40.7346C43.6295 40.7346 44.3847 40.502 44.988 40.1138C45.5928 39.6466 45.9704 39.1799 46.1208 38.7137H49.8201C49.2153 40.579 48.3097 41.9006 47.1032 42.7554C45.8936 43.5333 44.4599 44 42.7239 44C41.6133 44.0017 40.5122 43.7906 39.4774 43.3777C38.5459 43.022 37.7155 42.4344 37.0614 41.668C36.3588 40.9535 35.8404 40.0718 35.5525 39.1018C35.1749 38.0914 35.0229 37.004 35.0229 35.7594C35.0229 34.5934 35.1749 33.506 35.5525 32.494C35.9147 31.5191 36.4526 30.6225 37.1381 29.8509C37.8166 29.1516 38.647 28.5309 39.5526 28.1411C40.5608 27.7268 41.6375 27.5155 42.7239 27.5189C44.0071 27.5189 45.1399 27.753 46.1208 28.2967C47.1032 28.8404 47.8568 29.4627 48.4601 30.3961C49.0649 31.251 49.5192 32.2614 49.8201 33.3504C49.9705 34.4379 50.0457 35.5269 49.9705 36.7699H39.0246C39.0246 38.0144 39.4774 39.1804 40.0822 39.8027M44.8375 31.6407C44.3095 31.097 43.4791 30.7859 42.4967 30.7859C41.9207 30.777 41.3511 30.9101 40.8359 31.174C40.3831 31.4081 40.0822 31.7193 39.7798 32.0304C39.5002 32.3297 39.316 32.709 39.2518 33.1179C39.175 33.5076 39.0998 33.8171 39.0998 34.1283H45.8936C45.7432 32.9623 45.3656 32.186 44.8375 31.6407ZM38.1942 23.4771H46.6488V25.5766H38.1957L38.1942 23.4771Z" fill="#2B2B2B"/>
</svg>
