<svg width="60" height="61" viewBox="0 0 60 61" fill="none" xmlns="http://www.w3.org/2000/svg">
<rect y="0.5" width="60" height="60" rx="30" fill="#2B2B2B"/>
<path fill-rule="evenodd" clip-rule="evenodd" d="M30 13C39.3891 13 47 20.6109 47 30C47 39.3891 39.3891 47 30 47C20.6109 47 13 39.3891 13 30C13 20.6109 20.6109 13 30 13ZM32.7489 33.3728C28.4156 34.6487 24.6272 37.3246 21.976 40.982C24.3032 42.6878 27.1146 43.6051 30 43.6C31.765 43.6012 33.5134 43.2588 35.1476 42.5919C34.611 39.4558 33.8085 36.3711 32.7489 33.3711V33.3728ZM36.1115 32.6877C37.0159 35.3108 37.7435 38.0172 38.2773 40.7933C40.7719 38.8813 42.5271 36.1642 43.2447 33.1042C40.9095 32.5503 38.4953 32.4093 36.1115 32.6877ZM30.5967 28.1504C26.048 29.7554 21.1989 30.3269 16.4017 29.8232L16.4 30C16.4 33.2759 17.5594 36.2815 19.4889 38.6292C22.5083 34.6214 26.7156 31.6688 31.5113 30.1921C31.22 29.5061 30.9151 28.826 30.5967 28.1521V28.1504ZM41.0296 22.0423C38.8282 23.9656 36.376 25.5812 33.74 26.8448C34.1378 27.6948 34.5163 28.5544 34.8756 29.4237C37.7656 28.9817 40.7406 29.0735 43.5966 29.6974C43.5399 26.9439 42.6443 24.2733 41.0296 22.0423ZM24.1758 17.709C22.399 18.5534 20.826 19.7724 19.5648 21.2822C18.3035 22.7919 17.384 24.5568 16.8692 26.4555C20.9754 26.871 25.123 26.4074 29.0361 25.0955C27.6129 22.5093 25.9877 20.0395 24.1758 17.709ZM30 16.4C29.1829 16.4 28.3867 16.4697 27.6115 16.6091C29.3137 18.8958 30.8493 21.3018 32.2066 23.8086C34.5563 22.6901 36.7441 21.2594 38.7108 19.5552C36.2682 17.5126 33.1841 16.3955 30 16.4Z" fill="white"/>
</svg>
