<svg width="531" height="247" viewBox="0 0 531 247" fill="none" xmlns="http://www.w3.org/2000/svg">
<path d="M0.25 138.5V108.5C9.08333 108.5 15.9167 106.417 20.75 102.25C25.5833 97.9167 28 91.5 28 83V34.75C28 24.25 31.4167 15.9167 38.25 9.74998C45.0833 3.58332 53.8333 0.499984 64.5 0.499984H83.75V30H73C70 30 67.5833 31 65.75 33C63.9167 34.8333 63 37.9167 63 42.25V88.25C63 97.9167 60.8333 105.583 56.5 111.25C52.3333 116.75 46.1667 120.833 38 123.5C46.1667 126.167 52.3333 130.25 56.5 135.75C60.8333 141.25 63 148.917 63 158.75V204.75C63 208.917 63.9167 212 65.75 214C67.5833 216 70 217 73 217H83.75V246.5H64.5C53.8333 246.5 45.0833 243.417 38.25 237.25C31.4167 231.083 28 222.75 28 212.25V164C28 155.5 25.5833 149.167 20.75 145C15.9167 140.667 9.08333 138.5 0.25 138.5ZM184.197 221C165.697 221 149.697 217.167 136.197 209.5C122.697 201.667 112.281 190.667 104.947 176.5C97.6139 162.167 93.9473 145.25 93.9473 125.75C93.9473 106.417 97.7806 89.5833 105.447 75.25C113.114 60.9167 123.864 49.8333 137.697 42C151.531 34 167.614 30 185.947 30C201.447 30 215.197 32.8333 227.197 38.5C239.364 44 249.281 51.8333 256.947 62C264.614 72.1667 269.364 84.1667 271.197 98H228.447C225.781 88.6667 220.614 81.5 212.947 76.5C205.447 71.5 196.114 69 184.947 69C174.947 69 166.281 71.25 158.947 75.75C151.781 80.25 146.281 86.75 142.447 95.25C138.614 103.583 136.697 113.667 136.697 125.5C136.697 137 138.614 147 142.447 155.5C146.447 164 152.031 170.583 159.197 175.25C166.531 179.75 175.114 182 184.947 182C196.281 182 205.864 179.417 213.697 174.25C221.697 168.917 226.947 161.667 229.447 152.5H271.447C269.281 166.167 264.197 178.167 256.197 188.5C248.364 198.833 238.281 206.833 225.947 212.5C213.614 218.167 199.697 221 184.197 221ZM339.033 33V218H298.533V33H339.033ZM373.283 142.75H326.033V108.75H371.283C378.617 108.75 384.2 107 388.033 103.5C391.867 100 393.783 94.9167 393.783 88.25C393.783 81.75 391.867 76.8333 388.033 73.5C384.2 70.1667 378.617 68.5 371.283 68.5H328.783V33H375.533C394.2 33 408.783 37.5833 419.283 46.75C429.95 55.9167 435.283 68.4167 435.283 84.25C435.283 95.0833 432.617 104.25 427.283 111.75C421.95 119.25 414.2 124.583 404.033 127.75V124.25C414.867 126.583 423.117 131.417 428.783 138.75C434.617 146.083 437.533 155.5 437.533 167C437.533 177.833 435.117 187.083 430.283 194.75C425.617 202.417 418.617 208.25 409.283 212.25C400.117 216.083 388.867 218 375.533 218H328.783V182.5H373.283C380.783 182.5 386.45 180.833 390.283 177.5C394.117 174 396.033 168.833 396.033 162C396.033 155.667 394.033 150.917 390.033 147.75C386.2 144.417 380.617 142.75 373.283 142.75ZM466.043 246.5H446.793V217H457.543C460.543 217 462.96 216 464.793 214C466.626 212 467.543 208.917 467.543 204.75V158.75C467.543 148.917 469.626 141.25 473.793 135.75C478.126 130.25 484.376 126.167 492.543 123.5C484.376 120.833 478.126 116.75 473.793 111.25C469.626 105.583 467.543 97.9167 467.543 88.25V42.25C467.543 37.9167 466.626 34.8333 464.793 33C462.96 31 460.543 30 457.543 30H446.793V0.499984H466.043C476.876 0.499984 485.626 3.58332 492.293 9.74998C499.126 15.9167 502.543 24.25 502.543 34.75V83C502.543 91.5 504.96 97.9167 509.793 102.25C514.793 106.417 521.626 108.5 530.293 108.5V138.5C521.626 138.5 514.793 140.667 509.793 145C504.96 149.167 502.543 155.5 502.543 164V212.25C502.543 222.75 499.126 231.083 492.293 237.25C485.626 243.417 476.876 246.5 466.043 246.5Z" fill="black"/>
</svg>
