<svg width="60" height="60" viewBox="0 0 60 60" fill="none" xmlns="http://www.w3.org/2000/svg">
<rect width="60" height="60" rx="30" fill="#2B2B2B"/>
<path d="M24.3347 30C24.3347 26.8705 26.8711 24.3329 30.0007 24.3329C33.1303 24.3329 35.668 26.8705 35.668 30C35.668 33.1295 33.1303 35.6671 30.0007 35.6671C26.8711 35.6671 24.3347 33.1295 24.3347 30ZM21.271 30C21.271 34.8212 25.1793 38.7293 30.0007 38.7293C34.8221 38.7293 38.7303 34.8212 38.7303 30C38.7303 25.1788 34.8221 21.2707 30.0007 21.2707C25.1793 21.2707 21.271 25.1788 21.271 30ZM37.0358 20.9246C37.0357 21.3281 37.1552 21.7225 37.3792 22.0581C37.6032 22.3937 37.9217 22.6553 38.2945 22.8098C38.6672 22.9644 39.0773 23.0049 39.4731 22.9264C39.8689 22.8478 40.2325 22.6537 40.5179 22.3685C40.8033 22.0833 40.9978 21.7199 41.0766 21.3242C41.1555 20.9285 41.1153 20.5183 40.961 20.1455C40.8068 19.7727 40.5454 19.4539 40.21 19.2297C39.8746 19.0054 39.4802 18.8856 39.0767 18.8854H39.0759C38.5351 18.8857 38.0164 19.1005 37.6339 19.4829C37.2514 19.8652 37.0363 20.3838 37.0358 20.9246ZM23.1324 43.8376C21.4749 43.7621 20.574 43.486 19.9753 43.2528C19.1816 42.9438 18.6153 42.5758 18.0198 41.9812C17.4244 41.3866 17.0558 40.8208 16.7482 40.0271C16.5148 39.4287 16.2387 38.5276 16.1634 36.8702C16.0809 35.0782 16.0645 34.54 16.0645 30.0001C16.0645 25.4603 16.0823 24.9235 16.1634 23.1301C16.2388 21.4727 16.517 20.5733 16.7482 19.9731C17.0572 19.1794 17.4252 18.6131 18.0198 18.0177C18.6144 17.4223 19.1802 17.0538 19.9753 16.7461C20.5737 16.5127 21.4749 16.2367 23.1324 16.1613C24.9244 16.0789 25.4627 16.0624 30.0007 16.0624C34.5386 16.0624 35.0775 16.0803 36.871 16.1613C38.5285 16.2368 39.4279 16.5149 40.0281 16.7461C40.8218 17.0538 41.3881 17.4231 41.9836 18.0177C42.579 18.6123 42.9462 19.1794 43.2552 19.9731C43.4886 20.5715 43.7647 21.4727 43.8401 23.1301C43.9225 24.9235 43.9389 25.4603 43.9389 30.0001C43.9389 34.54 43.9225 35.0767 43.8401 36.8702C43.7646 38.5276 43.4871 39.4285 43.2552 40.0271C42.9462 40.8208 42.5782 41.3871 41.9836 41.9812C41.389 42.5752 40.8218 42.9438 40.0281 43.2528C39.4297 43.4862 38.5285 43.7622 36.871 43.8376C35.079 43.92 34.5407 43.9365 30.0007 43.9365C25.4607 43.9365 24.9239 43.92 23.1324 43.8376ZM22.9916 13.103C21.1818 13.1854 19.9451 13.4723 18.8651 13.8926C17.7466 14.3265 16.7997 14.9088 15.8535 15.8534C14.9073 16.7981 14.3266 17.7464 13.8926 18.8649C13.4723 19.9455 13.1854 21.1815 13.103 22.9912C13.0192 24.8038 13 25.3833 13 30C13 34.6167 13.0192 35.1962 13.103 37.0088C13.1854 38.8186 13.4723 40.0545 13.8926 41.1351C14.3266 42.2529 14.9075 43.2023 15.8535 44.1466C16.7996 45.0908 17.7466 45.6722 18.8651 46.1074C19.9472 46.5277 21.1818 46.8146 22.9916 46.897C24.8053 46.9795 25.3838 47 30.0007 47C34.6175 47 35.197 46.9808 37.0097 46.897C38.8197 46.8146 40.0556 46.5277 41.1363 46.1074C42.2541 45.6722 43.2016 45.0912 44.1478 44.1466C45.094 43.2019 45.6735 42.2529 46.1088 41.1351C46.529 40.0545 46.8173 38.8185 46.8984 37.0088C46.9808 35.1948 47 34.6167 47 30C47 25.3833 46.9808 24.8038 46.8984 22.9912C46.816 21.1814 46.529 19.9448 46.1088 18.8649C45.6735 17.7471 45.0925 16.7996 44.1478 15.8534C43.2031 14.9073 42.2541 14.3265 41.1376 13.8926C40.0556 13.4723 38.8195 13.184 37.0111 13.103C35.1984 13.0205 34.6189 13 30.002 13C25.3852 13 24.8053 13.0192 22.9916 13.103Z" fill="white"/>
</svg>
