<svg width="66" height="66" viewBox="0 0 66 66" fill="none" xmlns="http://www.w3.org/2000/svg">
<rect x="1.5" y="1.5" width="63" height="63" rx="31.5" stroke="#2B2B2B" stroke-width="3"/>
<path d="M27.3347 33C27.3347 29.8705 29.8711 27.3329 33.0007 27.3329C36.1303 27.3329 38.668 29.8705 38.668 33C38.668 36.1295 36.1303 38.6671 33.0007 38.6671C29.8711 38.6671 27.3347 36.1295 27.3347 33ZM24.271 33C24.271 37.8212 28.1793 41.7293 33.0007 41.7293C37.8221 41.7293 41.7303 37.8212 41.7303 33C41.7303 28.1788 37.8221 24.2707 33.0007 24.2707C28.1793 24.2707 24.271 28.1788 24.271 33ZM40.0358 23.9246C40.0357 24.3281 40.1552 24.7225 40.3792 25.0581C40.6032 25.3937 40.9217 25.6553 41.2945 25.8098C41.6672 25.9644 42.0773 26.0049 42.4731 25.9264C42.8689 25.8478 43.2325 25.6537 43.5179 25.3685C43.8033 25.0833 43.9978 24.7199 44.0766 24.3242C44.1555 23.9285 44.1153 23.5183 43.961 23.1455C43.8068 22.7727 43.5454 22.4539 43.21 22.2297C42.8746 22.0054 42.4802 21.8856 42.0767 21.8854H42.0759C41.5351 21.8857 41.0164 22.1005 40.6339 22.4829C40.2514 22.8652 40.0363 23.3838 40.0358 23.9246ZM26.1324 46.8376C24.4749 46.7621 23.574 46.486 22.9753 46.2528C22.1816 45.9438 21.6153 45.5758 21.0198 44.9812C20.4244 44.3866 20.0558 43.8208 19.7482 43.0271C19.5148 42.4287 19.2387 41.5276 19.1634 39.8702C19.0809 38.0782 19.0645 37.54 19.0645 33.0001C19.0645 28.4603 19.0823 27.9235 19.1634 26.1301C19.2388 24.4727 19.517 23.5733 19.7482 22.9731C20.0572 22.1794 20.4252 21.6131 21.0198 21.0177C21.6144 20.4223 22.1802 20.0538 22.9753 19.7461C23.5737 19.5127 24.4749 19.2367 26.1324 19.1613C27.9244 19.0789 28.4627 19.0624 33.0007 19.0624C37.5386 19.0624 38.0775 19.0803 39.871 19.1613C41.5285 19.2368 42.4279 19.5149 43.0281 19.7461C43.8218 20.0538 44.3881 20.4231 44.9836 21.0177C45.579 21.6123 45.9462 22.1794 46.2552 22.9731C46.4886 23.5715 46.7647 24.4727 46.8401 26.1301C46.9225 27.9235 46.9389 28.4603 46.9389 33.0001C46.9389 37.54 46.9225 38.0767 46.8401 39.8702C46.7646 41.5276 46.4871 42.4285 46.2552 43.0271C45.9462 43.8208 45.5782 44.3871 44.9836 44.9812C44.389 45.5752 43.8218 45.9438 43.0281 46.2528C42.4297 46.4862 41.5285 46.7622 39.871 46.8376C38.079 46.92 37.5407 46.9365 33.0007 46.9365C28.4607 46.9365 27.9239 46.92 26.1324 46.8376ZM25.9916 16.103C24.1818 16.1854 22.9451 16.4723 21.8651 16.8926C20.7466 17.3265 19.7997 17.9088 18.8535 18.8534C17.9073 19.7981 17.3266 20.7464 16.8926 21.8649C16.4723 22.9455 16.1854 24.1815 16.103 25.9912C16.0192 27.8038 16 28.3833 16 33C16 37.6167 16.0192 38.1962 16.103 40.0088C16.1854 41.8186 16.4723 43.0545 16.8926 44.1351C17.3266 45.2529 17.9075 46.2023 18.8535 47.1466C19.7996 48.0908 20.7466 48.6722 21.8651 49.1074C22.9472 49.5277 24.1818 49.8146 25.9916 49.897C27.8053 49.9795 28.3838 50 33.0007 50C37.6175 50 38.197 49.9808 40.0097 49.897C41.8197 49.8146 43.0556 49.5277 44.1363 49.1074C45.2541 48.6722 46.2016 48.0912 47.1478 47.1466C48.094 46.2019 48.6735 45.2529 49.1088 44.1351C49.529 43.0545 49.8173 41.8185 49.8984 40.0088C49.9808 38.1948 50 37.6167 50 33C50 28.3833 49.9808 27.8038 49.8984 25.9912C49.816 24.1814 49.529 22.9448 49.1088 21.8649C48.6735 20.7471 48.0925 19.7996 47.1478 18.8534C46.2031 17.9073 45.2541 17.3265 44.1376 16.8926C43.0556 16.4723 41.8195 16.184 40.0111 16.103C38.1984 16.0205 37.6189 16 33.002 16C28.3852 16 27.8053 16.0192 25.9916 16.103Z" fill="#2B2B2B"/>
</svg>
