<svg width="66" height="66" viewBox="0 0 66 66" fill="none" xmlns="http://www.w3.org/2000/svg">
<rect x="1.5" y="1.5" width="63" height="63" rx="31.5" stroke="#2B2B2B" stroke-width="3"/>
<path d="M21.0165 23.4843C23.2197 23.8593 25.1415 22.7812 25.6103 20.9062C26.2197 18.4218 24.4853 16.3124 21.8603 16.3593C20.1259 16.3124 18.7665 17.1562 18.204 18.5624C17.3603 20.8124 18.6728 23.1093 21.0165 23.4843Z" fill="#2B2B2B"/>
<path d="M49.6571 47.156C47.6884 47.1091 45.7665 47.1091 43.7977 47.156C43.3759 47.156 43.2821 47.0622 43.2821 46.6404V36.1872C43.2821 35.3904 43.2352 34.5935 43.0009 33.8435C42.2977 31.406 39.4852 30.5154 37.4696 32.156C36.3915 32.9997 35.9696 34.1716 35.9696 35.5779V45.4216C35.9696 45.5605 35.9645 45.6995 35.9594 45.8401C35.9489 46.1264 35.9382 46.4197 35.9696 46.7341C36.0165 47.1091 35.829 47.2029 35.5009 47.156H29.5009C29.1259 47.156 29.0321 47.0622 29.0321 46.6872C29.079 43.7341 29.079 40.781 29.079 37.781C29.079 34.1247 29.079 30.4685 29.0321 26.8591C29.0321 26.4372 29.1259 26.3435 29.5009 26.3435H35.5009C35.8759 26.3435 35.9696 26.4372 35.9696 26.8122V29.2029L36.204 28.9685C38.0321 26.2966 40.6102 25.5466 43.6571 26.0154C47.1727 26.5779 49.4227 29.0154 49.9852 32.7654C50.1259 33.656 50.1727 34.5466 50.1727 35.4372V46.6404C50.1727 47.0154 50.079 47.156 49.6571 47.156Z" fill="#2B2B2B"/>
<path d="M25.2821 36.75V46.5938C25.2821 47.0156 25.1884 47.1562 24.7665 47.1562C23.454 47.125 22.1415 47.1354 20.829 47.1458C20.1727 47.151 19.5165 47.1562 18.8602 47.1562C18.4852 47.1562 18.3915 47.0625 18.3915 46.6875V26.8125C18.3915 26.4844 18.4852 26.3438 18.8602 26.3438H24.9071C25.329 26.3438 25.3759 26.4844 25.3759 26.8594C25.2821 30.1406 25.2821 33.4219 25.2821 36.75Z" fill="#2B2B2B"/>
</svg>
