<svg width="66" height="66" viewBox="0 0 66 66" fill="none" xmlns="http://www.w3.org/2000/svg">
<rect x="1.5" y="1.5" width="63" height="63" rx="31.5" stroke="#F3F3F3" stroke-width="3"/>
<path d="M49.6562 47.156C47.6875 47.1091 45.7656 47.1091 43.7969 47.156C43.375 47.156 43.2812 47.0622 43.2812 46.6404C43.2812 43.1716 43.2812 39.656 43.2812 36.1872C43.2812 35.3904 43.2344 34.5935 43 33.8435C42.2969 31.406 39.4844 30.5154 37.4687 32.156C36.3906 32.9997 35.9687 34.1716 35.9687 35.5779C35.9687 38.8591 35.9687 42.1404 35.9687 45.4216C35.9687 45.8435 35.9219 46.2654 35.9687 46.7341C36.0156 47.1091 35.8281 47.2029 35.5 47.156C33.4844 47.156 31.5156 47.156 29.5 47.156C29.125 47.156 29.0312 47.0622 29.0312 46.6872C29.0781 43.7341 29.0781 40.781 29.0781 37.781C29.0781 34.1247 29.0781 30.4685 29.0312 26.8591C29.0312 26.4372 29.125 26.3435 29.5 26.3435C31.5156 26.3435 33.4844 26.3435 35.5 26.3435C35.875 26.3435 35.9687 26.4372 35.9687 26.8122C35.9687 27.5622 35.9687 28.3122 35.9687 29.2029C36.1094 29.0622 36.1562 29.0154 36.2031 28.9685C38.0312 26.2966 40.6094 25.5466 43.6562 26.0154C47.1719 26.5779 49.4219 29.0154 49.9844 32.7654C50.125 33.656 50.1719 34.5466 50.1719 35.4372C50.1719 39.1872 50.1719 42.8904 50.1719 46.6404C50.1719 47.0154 50.0781 47.156 49.6562 47.156Z" fill="#F3F3F3"/>
<path d="M25.2812 36.75C25.2812 40.0313 25.2812 43.3125 25.2812 46.5938C25.2812 47.0156 25.1875 47.1562 24.7656 47.1562C22.7969 47.1094 20.8281 47.1562 18.8594 47.1562C18.4844 47.1562 18.3906 47.0625 18.3906 46.6875C18.3906 40.0781 18.3906 33.4219 18.3906 26.8125C18.3906 26.4844 18.4844 26.3438 18.8594 26.3438C20.875 26.3438 22.8906 26.3438 24.9062 26.3438C25.3281 26.3438 25.375 26.4844 25.375 26.8594C25.2812 30.1406 25.2812 33.4219 25.2812 36.75Z" fill="#F3F3F3"/>
<path d="M25.6094 20.9062C25.1407 22.7812 23.2188 23.8593 21.0157 23.4843C18.6719 23.1093 17.3594 20.8124 18.2032 18.5624C18.7657 17.1562 20.1251 16.3124 21.8594 16.3593C24.4844 16.3124 26.2188 18.4218 25.6094 20.9062Z" fill="#F3F3F3"/>
</svg>
