<svg width="66" height="66" viewBox="0 0 66 66" fill="none" xmlns="http://www.w3.org/2000/svg">
<rect x="1.5" y="1.5" width="63" height="63" rx="31.5" stroke="#2B2B2B" stroke-width="3"/>
<path fill-rule="evenodd" clip-rule="evenodd" d="M33 15.5C42.3891 15.5 50 23.1109 50 32.5C50 41.8891 42.3891 49.5 33 49.5C23.6109 49.5 16 41.8891 16 32.5C16 23.1109 23.6109 15.5 33 15.5ZM35.7489 35.8728C31.4156 37.1487 27.6272 39.8246 24.976 43.482C27.3032 45.1878 30.1146 46.1051 33 46.1C34.765 46.1012 36.5134 45.7588 38.1476 45.0919C37.611 41.9558 36.8085 38.8711 35.7489 35.8711V35.8728ZM39.1115 35.1877C40.0159 37.8108 40.7435 40.5172 41.2773 43.2933C43.7719 41.3813 45.5271 38.6642 46.2447 35.6042C43.9095 35.0503 41.4953 34.9093 39.1115 35.1877ZM33.5967 30.6504C29.048 32.2554 24.1989 32.8269 19.4017 32.3232L19.4 32.5C19.4 35.7759 20.5594 38.7815 22.4889 41.1292C25.5083 37.1214 29.7156 34.1688 34.5113 32.6921C34.22 32.0061 33.9151 31.326 33.5967 30.6521V30.6504ZM44.0296 24.5423C41.8282 26.4656 39.376 28.0812 36.74 29.3448C37.1378 30.1948 37.5163 31.0544 37.8756 31.9237C40.7656 31.4817 43.7406 31.5735 46.5966 32.1974C46.5399 29.4439 45.6443 26.7733 44.0296 24.5423ZM27.1758 20.209C25.399 21.0534 23.826 22.2724 22.5648 23.7822C21.3035 25.2919 20.384 27.0568 19.8692 28.9555C23.9754 29.371 28.123 28.9074 32.0361 27.5955C30.6129 25.0093 28.9877 22.5395 27.1758 20.209ZM33 18.9C32.1829 18.9 31.3867 18.9697 30.6115 19.1091C32.3137 21.3958 33.8493 23.8018 35.2066 26.3086C37.5563 25.1901 39.7441 23.7594 41.7108 22.0552C39.2682 20.0126 36.1841 18.8955 33 18.9Z" fill="#2B2B2B"/>
</svg>
