<svg width="65" height="101" viewBox="0 0 65 101" fill="none" xmlns="http://www.w3.org/2000/svg">
<path d="M0 0.5H65V100.5L32.5 86.5L0 100.5V0.5Z" fill="#2B2B2B"/>
<path d="M26.0039 22.9159C25.8816 22.5887 26.0477 22.2243 26.375 22.102C28.2822 21.3893 30.3463 21 32.5 21C42.165 21 50 28.835 50 38.5C50 48.165 42.165 56 32.5 56C22.835 56 15 48.165 15 38.5C15 36.3463 15.3893 34.2822 16.102 32.375C16.2243 32.0477 16.5887 31.8816 16.9159 32.0039L23.3646 36.2254C23.1592 37.008 23.05 37.8291 23.05 38.675C23.05 43.9907 27.3593 48.3 32.675 48.3C37.9907 48.3 42.3 43.9907 42.3 38.675C42.3 33.3593 37.9907 29.05 32.675 29.05C32.0164 29.05 31.3728 29.1162 30.7505 29.2425L26.0039 22.9159Z" fill="white"/>
<path fill-rule="evenodd" clip-rule="evenodd" d="M21.3372 21.5054C21.5431 21.4661 21.755 21.5313 21.9031 21.6794L26.5418 26.3181C26.671 26.4473 26.7381 26.6262 26.7256 26.8086L26.4039 31.5014L32.9475 38.0449C33.1945 38.2919 33.1945 38.6924 32.9475 38.9394C32.7004 39.1865 32.3 39.1865 32.0529 38.9394L25.5134 32.3999L20.7455 32.7972C20.5601 32.8127 20.3773 32.7457 20.2457 32.6141L15.6071 27.9756C15.4598 27.8282 15.3945 27.6177 15.4325 27.4128C15.4706 27.208 15.6071 27.0349 15.7975 26.9503L19.367 25.3639L20.8753 21.8756C20.9584 21.6833 21.1314 21.5447 21.3372 21.5054ZM19.7095 26.596L17.1529 27.7323L20.9328 31.5122L24.3416 31.2281L19.7095 26.596ZM25.2172 30.3147L25.4438 27.0091L21.6669 23.2323L20.6007 25.6982L25.2172 30.3147Z" fill="white"/>
</svg>
