<svg width="65" height="101" viewBox="0 0 65 101" fill="none" xmlns="http://www.w3.org/2000/svg">
<path d="M0 0.5H65V100.5L32.5 86.5L0 100.5V0.5Z" fill="#2B2B2B"/>
<path fill-rule="evenodd" clip-rule="evenodd" d="M30.9452 22.3987C31.2297 22.3301 31.7052 22.3611 32.1341 22.879C32.5984 23.4398 33.0707 24.6474 33.0164 27.0931C33.008 27.472 33.3083 27.786 33.6873 27.7944C34.0662 27.8029 34.3802 27.5025 34.3886 27.1236C34.4459 24.5446 33.9645 22.9375 33.1913 22.0036C32.3863 21.0315 31.3449 20.884 30.605 21.0689L30.589 21.0732C28.6964 21.5952 27.3562 23.232 26.4579 24.9025C25.5479 26.5945 25.0112 28.4673 24.7918 29.7108C24.7259 30.084 24.9751 30.44 25.3484 30.5059C25.7216 30.5717 26.0776 30.3225 26.1435 29.9493C26.3428 28.82 26.839 27.0917 27.6667 25.5526C28.5042 23.9954 29.6036 22.7728 30.9452 22.3987Z" fill="white"/>
<path fill-rule="evenodd" clip-rule="evenodd" d="M34.041 22.931C34.4681 22.8696 34.7929 22.9402 35.0361 23.2199C35.329 23.5565 35.6462 24.3461 35.5919 26.104C35.5802 26.4828 35.8779 26.7994 36.2567 26.8111C36.6356 26.8228 36.9521 26.5251 36.9638 26.1463C37.0212 24.2874 36.7125 23.0558 36.0718 22.3191C35.3868 21.5315 34.4792 21.4734 33.801 21.5791C33.7819 21.5821 33.763 21.5859 33.7442 21.5905C32.1162 21.9873 30.9449 23.3161 30.154 24.6352C29.3514 25.9736 28.8582 27.4373 28.6371 28.3396C28.5469 28.7077 28.7722 29.0793 29.1403 29.1695C29.5084 29.2597 29.88 29.0344 29.9702 28.6662C30.1676 27.8606 30.6164 26.5329 31.3311 25.3411C32.0511 24.1404 32.9625 23.2062 34.041 22.931Z" fill="white"/>
<path d="M20.6519 31.5734L38.6569 25.502L37.1914 55.9988L18 52.4397L20.6519 31.5734Z" fill="white"/>
<path d="M40.8894 27.7351L38.6568 25.502L37.1875 55.9988L47.589 53.6261L43.8205 27.9445L40.8894 27.7351Z" fill="white"/>
<path fill-rule="evenodd" clip-rule="evenodd" d="M29.147 32.9492C30.9192 32.6155 32.6265 32.9559 33.6791 33.3795C34.0186 33.5162 34.1912 33.8953 34.0712 34.2411L32.8848 37.6607C32.824 37.836 32.6948 37.9792 32.5266 38.0577C32.3584 38.1361 32.1656 38.1431 31.9922 38.0771C30.6052 37.5488 29.7441 37.5687 29.2599 37.7295C28.8024 37.8813 28.6287 38.1716 28.5833 38.4047C28.5402 38.6253 28.5394 38.7534 28.5582 38.8495C28.5751 38.9365 28.618 39.0476 28.7502 39.2109C29.0475 39.578 29.6689 40.0635 30.9423 40.9124C32.5191 41.9636 33.0341 43.4463 33.0564 44.8006C33.0782 46.1219 32.6372 47.3368 32.2872 48.0107L32.2822 48.0203C31.6514 49.1896 30.8389 49.9718 29.9147 50.4316C28.9953 50.8889 28.0141 51.0034 27.0777 50.9201C25.2276 50.7554 23.4639 49.8127 22.4014 49.0096C22.1716 48.8359 22.0747 48.5371 22.1589 48.2616L22.9266 45.7493C22.9894 45.5437 23.1448 45.3795 23.3466 45.3055C23.5484 45.2315 23.7732 45.2563 23.954 45.3725C26.1736 46.7994 27.1981 46.1793 27.2848 46.0926C27.2949 46.0825 27.3053 46.0728 27.316 46.0633C27.3142 46.0649 27.3146 46.0645 27.3166 46.0619C27.3251 46.0509 27.3636 46.0013 27.3942 45.9053C27.4281 45.7988 27.4461 45.6519 27.4057 45.4716C27.3275 45.1221 26.9913 44.5075 25.7633 43.8288C24.1953 42.9623 23.6828 41.451 23.6166 40.0852C23.5511 38.7329 23.9093 37.4173 24.2026 36.6904C24.2126 36.6657 24.2241 36.6415 24.2369 36.618C25.4897 34.3263 27.3441 33.2887 29.147 32.9492ZM25.4608 37.2408C25.2218 37.848 24.9353 38.9395 24.9876 40.0187C25.0403 41.1065 25.4233 42.0727 26.4272 42.6275C27.851 43.4143 28.55 44.3001 28.7451 45.1719C28.9324 46.0084 28.6233 46.7273 28.2411 47.0773C27.5639 47.7374 26.0474 48.0374 23.9869 46.9763L23.6162 48.1892C24.5563 48.8161 25.8833 49.4358 27.1994 49.5529C27.9425 49.619 28.6588 49.5233 29.3033 49.2027C29.9418 48.885 30.5584 48.3228 31.0715 47.3735C31.3493 46.8367 31.701 45.851 31.6841 44.8232C31.6676 43.8255 31.3104 42.8075 30.1809 42.0545C28.9419 41.2285 28.1352 40.6324 27.6836 40.0748C27.4414 39.7757 27.2795 39.4637 27.211 39.1124C27.1442 38.7701 27.177 38.4446 27.2361 38.1418C27.3767 37.4211 27.9009 36.7344 28.8275 36.4268C29.5932 36.1726 30.5828 36.1913 31.8122 36.5648L32.5473 34.4459C31.698 34.212 30.5589 34.08 29.401 34.2981C27.9702 34.5675 26.4961 35.3707 25.4608 37.2408Z" fill="#2B2B2B"/>
</svg>
