<svg width="65" height="100" viewBox="0 0 65 100" fill="none" xmlns="http://www.w3.org/2000/svg">
<path d="M0 0H65V100L32.5 86L0 100V0Z" fill="#2B2B2B"/>
<path d="M20.6241 34.5868C19.8836 33.8463 19.8836 32.6458 20.6241 31.9054L23.7745 28.7549C24.515 28.0145 25.7155 28.0145 26.4559 28.7549L31.8923 34.1912L26.0604 40.0231L20.6241 34.5868Z" stroke="white" stroke-width="2" stroke-linecap="round" stroke-linejoin="round"/>
<path d="M35.0151 48.7004L40.8765 43.1794L44.6417 46.9446L45.2249 53.3597L38.817 52.7772L35.0151 48.7004Z" stroke="white" stroke-width="2" stroke-linecap="round" stroke-linejoin="round"/>
<path fill-rule="evenodd" clip-rule="evenodd" d="M46.695 31.8275C46.695 31.8275 46.8525 30.7249 45.9074 29.7797C44.9622 28.8346 43.8596 28.9921 43.8596 28.9921C40.9611 29.3701 38.2937 31.4075 37.086 32.6151L29.3674 40.3338C27.8884 41.8128 27.8884 44.2107 29.3674 45.6896C30.8463 47.1686 33.2442 47.1686 34.7232 45.6896L42.4418 37.971C43.702 36.8158 45.9389 34.3479 46.695 31.8275Z" fill="white"/>
<path d="M24.6592 42.7148C26.2075 42.2413 27.777 42.3975 28.7687 42.6891C29.1228 42.7933 29.3254 43.1648 29.2212 43.5189C29.1722 44.3439 29.6038 45.9576 31.7231 45.8127C32.0921 45.8085 32.3948 46.1042 32.399 46.4733C32.4317 49.3183 31.7772 51.4309 30.614 52.9331C29.4485 54.4384 27.8309 55.2551 26.0856 55.618C22.6356 56.3352 18.5561 55.3109 15.8771 54.1857C15.588 54.0643 15.4222 53.7582 15.4784 53.4497C15.5346 53.1412 15.7978 52.9133 16.1111 52.9017C17.4856 52.8508 18.5368 51.9333 19.3185 50.6205C20.0969 49.3133 20.5238 47.7414 20.6724 46.7013C20.6792 46.6535 20.6912 46.6065 20.7082 46.5612C21.543 44.3352 23.0777 43.1985 24.6592 42.7148Z" fill="white"/>
</svg>
