<svg width="65" height="100" viewBox="0 0 65 100" fill="none" xmlns="http://www.w3.org/2000/svg">
<path d="M0 0H65V100L32.5 86L0 100V0Z" fill="#2B2B2B"/>
<path d="M39.8134 36.3307C39.8188 36.3185 39.8308 36.3105 39.8442 36.3105H45.1261C45.1355 36.3105 45.1445 36.3145 45.1509 36.3214L45.8641 35.6663L45.1509 36.3214L50.138 41.7507L50.8745 41.0743L50.138 41.7507C50.1498 41.7636 50.1498 41.7834 50.138 41.7963L45.1509 47.2256C45.1445 47.2325 45.1355 47.2365 45.1261 47.2365H39.8442C39.8308 47.2365 39.8188 47.2286 39.8134 47.2163C39.808 47.2041 39.8104 47.1898 39.8195 47.18L39.0847 46.5017L39.8195 47.18L44.184 42.4518C44.5376 42.0687 44.5376 41.4783 44.184 41.0952L39.8195 36.367C39.8104 36.3572 39.808 36.3429 39.8134 36.3307Z" stroke="white" stroke-width="2" stroke-linejoin="round"/>
<path d="M25.3331 36.3307C25.3277 36.3185 25.3156 36.3105 25.3023 36.3105H20.0204C20.0109 36.3105 20.002 36.3145 19.9956 36.3214L19.2824 35.6663L19.9956 36.3214L15.0085 41.7507L14.272 41.0743L15.0085 41.7507C14.9967 41.7636 14.9967 41.7834 15.0085 41.7963L19.9956 47.2256C20.002 47.2325 20.0109 47.2365 20.0204 47.2365H25.3023C25.3156 47.2365 25.3277 47.2286 25.3331 47.2163C25.3385 47.2041 25.3361 47.1898 25.327 47.18L26.0618 46.5017L25.327 47.18L20.9625 42.4518C20.6089 42.0687 20.6089 41.4783 20.9625 41.0952L25.327 36.367C25.3361 36.3572 25.3385 36.3429 25.3331 36.3307Z" stroke="white" stroke-width="2" stroke-linejoin="round"/>
<path d="M38.8585 26.392C39.0546 26.6397 39.1267 26.9634 39.0542 27.2708L32.4702 55.2035C32.3602 55.6702 31.9437 56 31.4642 56H27.4106C27.0948 56 26.7962 55.8556 26.6002 55.608C26.4041 55.3603 26.3321 55.0366 26.4045 54.7292L32.9885 26.7965C33.0985 26.3298 33.5151 26 33.9946 26H38.0481C38.364 26 38.6625 26.1444 38.8585 26.392Z" fill="white"/>
</svg>
