<svg width="40" height="40" viewBox="0 0 40 40" fill="none" xmlns="http://www.w3.org/2000/svg">
<path fill-rule="evenodd" clip-rule="evenodd" d="M20.3966 33.1429C22.4381 32.1225 31.6667 27.029 31.6667 18.3337C31.6667 11.8903 26.4434 6.66699 20 6.66699C13.5567 6.66699 8.33337 11.8903 8.33337 18.3337C8.33337 27.029 17.562 32.1225 19.6035 33.1429C19.8583 33.2702 20.1418 33.2702 20.3966 33.1429ZM20 23.3337C22.7615 23.3337 25 21.0951 25 18.3337C25 15.5722 22.7615 13.3337 20 13.3337C17.2386 13.3337 15 15.5722 15 18.3337C15 21.0951 17.2386 23.3337 20 23.3337Z" fill="#E0E0E0"/>
</svg>
