<svg width="75" height="75" viewBox="0 0 75 75" fill="none" xmlns="http://www.w3.org/2000/svg">
<path fill-rule="evenodd" clip-rule="evenodd" d="M37.8913 62.3156C40.8336 60.8921 59.375 51.2517 59.375 34.375C59.375 22.2938 49.5812 12.5 37.5 12.5C25.4188 12.5 15.625 22.2938 15.625 34.375C15.625 51.2517 34.1664 60.8921 37.1087 62.3156C37.3651 62.4397 37.6349 62.4397 37.8913 62.3156ZM37.5 43.75C42.6777 43.75 46.875 39.5527 46.875 34.375C46.875 29.1973 42.6777 25 37.5 25C32.3223 25 28.125 29.1973 28.125 34.375C28.125 39.5527 32.3223 43.75 37.5 43.75Z" fill="black"/>
</svg>
