<svg width="600" height="148" viewBox="0 0 600 148" fill="none" xmlns="http://www.w3.org/2000/svg">
<path d="M553.034 129.704C570.242 129.704 575.911 125.841 575.911 116.693V116.287C575.911 112.018 574.494 109.172 571.659 107.545C568.825 105.716 562.549 104.089 552.63 102.666C539.876 100.634 530.968 97.381 525.705 92.9086C520.644 88.233 518.012 80.9146 518.012 70.9535V70.5469C518.012 51.0313 530.968 41.2734 557.083 41.2734C570.849 41.2734 583.401 42.8997 594.94 46.3556L592.309 63.6351C581.781 60.9924 571.862 59.5694 562.549 59.5694C548.581 59.5694 542.103 62.0088 542.103 70.7502V71.1568C542.103 79.4916 547.164 82.1344 563.966 84.5738C577.935 86.81 587.45 90.0626 592.511 94.3316C597.572 98.6007 600.001 105.716 600.001 115.677V116.083C600.001 137.429 588.867 148 558.298 148C543.317 148 530.158 146.17 518.619 142.714L521.453 125.028C532.385 128.077 542.912 129.704 553.034 129.704Z" fill="white"/>
<path d="M456.772 147.994C442.398 147.994 428.632 146.571 415.068 143.928V2.84603L439.766 0L439.564 50.2122C448.472 44.3168 458.189 41.2675 468.918 41.2675C494.629 41.2675 507.585 58.7503 507.585 93.9191V94.3257C507.585 131.934 492.402 147.994 456.772 147.994ZM456.974 128.072C475.801 128.072 483.089 118.924 483.089 94.3257V93.9191C483.089 82.1284 481.47 73.7936 478.028 68.7114C474.587 63.6292 469.121 61.1898 461.428 61.1898C453.735 61.1898 446.245 63.4259 439.159 67.8983V127.055C443.815 127.665 449.686 128.072 456.974 128.072Z" fill="white"/>
<path d="M347.757 130.707C356.26 130.707 363.953 128.267 370.633 123.185V98.1806L360.916 98.5872C340.672 100.01 332.574 104.279 332.574 115.663V116.07C332.574 125.828 337.635 130.707 347.757 130.707ZM318.605 63.0118L321.439 43.4961H394.117V120.542C394.117 127.657 395.331 129.69 400.797 129.69C402.012 129.69 403.632 129.487 405.858 129.284V144.937C400.392 146.157 396.141 146.767 392.7 146.767C381.16 146.767 376.302 143.107 374.48 135.586C365.167 143.311 353.83 147.173 340.672 147.173C320.63 147.173 308.686 138.228 308.686 118.509V118.103C308.686 105.702 313.342 97.1642 322.857 92.4885C332.574 87.8129 343.101 86.1866 359.499 85.5768L370.431 85.1702V63.0118H318.605Z" fill="white"/>
<path d="M222.629 7.52344H248.339V124.414H301.987V145.759H222.629V7.52344Z" fill="white"/>
<path d="M129.383 43.4981H153.879V145.752H129.383V43.4981ZM154.284 27.4384H128.979V4.4668H154.284V27.4384Z" fill="white"/>
<path d="M117.822 145.759H91.5045L82.597 114.046H34.8203L26.1152 145.759H0L39.6789 7.52344H77.9408L117.822 145.759ZM60.1257 27.649H57.6964L39.6789 93.9209H77.9408L60.1257 27.649Z" fill="white"/>
</svg>
