<svg width="40" height="60" viewBox="0 0 40 60" fill="none" xmlns="http://www.w3.org/2000/svg">
<path fill-rule="evenodd" clip-rule="evenodd" d="M0 0H11.9754C12.9358 0 13.7145 0.778635 13.7145 1.73913C13.7145 2.69963 12.9358 3.47826 11.9754 3.47826H3.47826V32.9192L16.6073 36.7022V56.5217H23.1428V36.6961L36.4943 32.9132V3.47826H22.393V10.6402C22.393 11.6007 21.6144 12.3793 20.6539 12.3793C19.6934 12.3793 18.9148 11.6007 18.9148 10.6402V0H39.9726V35.5428L26.621 39.3258V60H13.1291V39.3197L0 35.5368V0Z" fill="#525252"/>
<path fill-rule="evenodd" clip-rule="evenodd" d="M0 21.3213C0 20.3608 0.778635 19.5822 1.73913 19.5822H38.011C38.9715 19.5822 39.7501 20.3608 39.7501 21.3213C39.7501 22.2818 38.9715 23.0604 38.011 23.0604H1.73913C0.778635 23.0604 0 22.2818 0 21.3213Z" fill="#525252"/>
</svg>
