<svg width="70" height="71" viewBox="0 0 70 71" fill="none" xmlns="http://www.w3.org/2000/svg">
<path fill-rule="evenodd" clip-rule="evenodd" d="M35 3.03012C30.9996 3.03012 27.171 3.75297 23.6356 5.07406C22.9811 5.31863 22.2523 4.98633 22.0077 4.33186C21.7632 3.67739 22.0955 2.94857 22.75 2.70401C26.5643 1.27866 30.6927 0.5 35 0.5C54.33 0.5 70 16.17 70 35.5C70 54.83 54.33 70.5 35 70.5C15.67 70.5 0 54.83 0 35.5C0 31.1927 0.778662 27.0643 2.20401 23.25C2.44857 22.5955 3.17739 22.2632 3.83186 22.5077C4.48633 22.7523 4.81863 23.4811 4.57406 24.1356C3.25297 27.671 2.53012 31.4996 2.53012 35.5C2.53012 53.4326 17.0674 67.9699 35 67.9699C52.9326 67.9699 67.4699 53.4326 67.4699 35.5C67.4699 17.5674 52.9326 3.03012 35 3.03012Z" fill="#2B2B2B"/>
<path fill-rule="evenodd" clip-rule="evenodd" d="M34.577 13.993C33.0734 13.993 31.6065 14.1442 30.1901 14.4317C29.5054 14.5707 28.8376 14.1283 28.6986 13.4436C28.5597 12.7588 29.002 12.0911 29.6868 11.9521C31.2679 11.6312 32.9034 11.4629 34.577 11.4629C48.0847 11.4629 59.0348 22.413 59.0348 35.9207C59.0348 49.4284 48.0847 60.3786 34.577 60.3786C21.0693 60.3786 10.1191 49.4284 10.1191 35.9207C10.1191 33.7713 10.3967 31.6848 10.9186 29.696C11.096 29.0202 11.7876 28.6161 12.4634 28.7935C13.1392 28.9708 13.5432 29.6624 13.3659 30.3382C12.8985 32.1192 12.6493 33.9899 12.6493 35.9207C12.6493 48.0311 22.4666 57.8484 34.577 57.8484C46.6873 57.8484 56.5047 48.0311 56.5047 35.9207C56.5047 23.8104 46.6873 13.993 34.577 13.993Z" fill="#2B2B2B"/>
<path fill-rule="evenodd" clip-rule="evenodd" d="M33.7346 22.849C33.7346 22.1504 34.301 21.584 34.9996 21.584C42.6851 21.584 48.9153 27.8142 48.9153 35.4996C48.9153 43.1851 42.6851 49.4153 34.9996 49.4153C27.3142 49.4153 21.084 43.1851 21.084 35.4996C21.084 34.801 21.6504 34.2346 22.349 34.2346C23.0477 34.2346 23.6141 34.801 23.6141 35.4996C23.6141 41.7877 28.7116 46.8852 34.9996 46.8852C41.2877 46.8852 46.3852 41.7877 46.3852 35.4996C46.3852 29.2116 41.2877 24.1141 34.9996 24.1141C34.301 24.1141 33.7346 23.5477 33.7346 22.849Z" fill="#2B2B2B"/>
<path fill-rule="evenodd" clip-rule="evenodd" d="M12.6745 2.20801C13.0861 2.12942 13.5099 2.25978 13.8063 2.55609L23.0836 11.8334C23.3421 12.0919 23.4761 12.4497 23.4511 12.8144L22.8079 22.2L35.8949 35.2871C36.389 35.7811 36.389 36.5821 35.8949 37.0762C35.4009 37.5702 34.5999 37.5702 34.1059 37.0762L21.0268 23.9971L11.491 24.7917C11.1202 24.8226 10.7545 24.6887 10.4914 24.4256L1.2143 15.1484C0.919579 14.8537 0.788939 14.4328 0.865028 14.023C0.941116 13.6132 1.21417 13.2672 1.59504 13.0979L8.73405 9.92499L11.7506 2.94855C11.9169 2.56391 12.2629 2.28659 12.6745 2.20801ZM9.41902 12.3893L4.30583 14.6618L11.8656 22.2216L18.6832 21.6535L9.41902 12.3893ZM20.4345 19.8266L20.8876 13.2155L13.3339 5.66184L11.2015 10.5936L20.4345 19.8266Z" fill="#2B2B2B"/>
</svg>
