<svg width="93" height="71" viewBox="0 0 93 71" fill="none" xmlns="http://www.w3.org/2000/svg">
<path d="M60.0355 70.2509C59.7033 70.417 59.039 70.5 58.0426 70.5C57.0462 70.5 55.0533 70.0018 52.064 69.0053C49.0746 68.0089 47.1648 67.1785 46.3344 66.5142C52.6452 59.3731 59.4542 50.8203 66.7615 40.8559C62.1114 39.6934 58.2087 37.2853 55.0533 33.6317C51.8979 29.9781 50.3202 25.4941 50.3202 20.1797C50.3202 15.0314 52.3131 10.4644 56.2988 6.47866C60.1185 2.49288 64.6025 0.499998 69.7508 0.499998C70.0829 0.499998 70.3321 0.499998 70.4981 0.499998C76.8089 0.499999 82.1233 2.3268 86.4412 5.98042C90.593 9.63404 92.669 15.1145 92.6689 22.4217C92.5029 29.7289 88.7662 38.1157 81.459 47.5818C73.9857 57.048 66.8445 64.6044 60.0355 70.2509ZM13.2028 70.2509C12.8706 70.417 12.2894 70.5 11.459 70.5C10.4625 70.5 8.38662 69.9187 5.23122 68.7562C2.07583 67.7598 0.332056 67.0125 -9.12043e-05 66.5142C8.30358 56.882 14.9465 48.3292 19.9287 40.8559C15.2787 39.6934 11.459 37.2853 8.46965 33.6317C5.31426 30.1441 3.73656 25.6601 3.73656 20.1797C3.73656 14.8654 5.64641 10.2153 9.4661 6.22953C13.2858 2.40984 17.8528 0.499993 23.1672 0.499994C23.4993 0.499994 23.7484 0.499994 23.9145 0.499994C30.0592 0.499995 35.2905 2.3268 39.6084 5.98042C43.7603 9.63404 45.8362 14.4502 45.8362 20.4288C45.8362 26.5735 43.5112 33.3826 38.8611 40.8559C31.72 52.1489 23.1672 61.9472 13.2028 70.2509Z" fill="#2B2B2B"/>
</svg>
