<svg width="46" height="44" viewBox="0 0 46 44" fill="none" xmlns="http://www.w3.org/2000/svg">
<path d="M18.3411 24.5222C17.4306 25.3501 16.568 26.2026 15.7534 27.0798C14.6921 28.2228 13.5173 29.7231 12.2295 31.5743C12.2295 31.5743 12.2294 31.5744 12.2294 31.5745L7.54954 38.2943L7.26076 38.7089L7.67845 38.9933L13.3184 42.8333L13.7191 43.1061L14.0042 42.7141L18.8042 36.1141L18.8067 36.1106C20.0179 34.415 20.9927 32.8324 21.7271 31.3636C22.2547 30.3083 22.7195 29.2726 23.121 28.2565C23.5573 29.2118 24.0346 30.2075 24.5526 31.2436C25.288 32.7144 26.3036 34.3375 27.5937 36.1117C27.5943 36.1125 27.5949 36.1133 27.5955 36.1141L32.272 42.7092L32.5586 43.1134L32.9654 42.8305L38.4854 38.9905L38.896 38.7048L38.6101 38.2943L33.9389 31.5868C32.8131 29.7388 31.7184 28.2358 30.653 27.0871C29.8991 26.2083 29.0507 25.3558 28.1087 24.5293C29.1614 24.3793 30.2771 24.1864 31.4557 23.9507C33.1662 23.6248 34.9912 23.0969 36.9298 22.3703L44.8444 19.6122L45.3368 19.4406L45.1447 18.9558L42.6247 12.5958L42.448 12.1498L41.995 12.308L34.4363 14.9475C34.4361 14.9476 34.4359 14.9476 34.4357 14.9477C32.3411 15.6728 30.5958 16.4023 29.2059 17.1381C28.1819 17.6802 27.1803 18.2449 26.201 18.8322C26.4108 17.7187 26.5758 16.5619 26.6961 15.362C26.9395 13.7346 27.0598 11.873 27.0598 9.78V1.5V1H26.5598H19.8398H19.3398V1.5V9.78C19.3398 11.8721 19.4203 13.7293 19.5823 15.3498L19.5837 15.3639L19.586 15.378C19.7633 16.5011 19.9623 17.6241 20.1831 18.7471C19.2446 18.1429 18.2429 17.604 17.1786 17.1301C15.7882 16.3955 14.0057 15.6683 11.8392 14.9461C11.8388 14.9459 11.8384 14.9458 11.838 14.9457L4.40025 12.4264L3.94552 12.2724L3.77317 12.7205L1.37317 18.9605L1.18875 19.44L1.67305 19.6114L9.46897 22.3699C9.46966 22.3701 9.47035 22.3704 9.47104 22.3706C11.2481 23.0168 12.9103 23.5037 14.4568 23.8293C15.6766 24.0861 16.9714 24.317 18.3411 24.5222Z" fill="black" stroke="black"/>
</svg>
