<svg width="600" height="601" viewBox="0 0 600 601" fill="none" xmlns="http://www.w3.org/2000/svg">
<path opacity="0.3" d="M300 0.203125V600.203" stroke="#525252" stroke-width="0.5"/>
<path opacity="0.3" d="M600 331.203L-1.89543e-05 331.203" stroke="#525252" stroke-width="0.5"/>
<path d="M390.5 276.203L209.5 276.203" stroke="#2B2B2B"/>
<path d="M361.5 221.203L239 221.203" stroke="#2B2B2B"/>
<path d="M422 331.203L178.5 331.203" stroke="#2B2B2B"/>
<path d="M452 386.203L148 386.203" stroke="#2B2B2B"/>
<path d="M482 441.203L117.5 441.203" stroke="#2B2B2B"/>
<path d="M87.5493 495.703L300 113.292L512.451 495.703H87.5493Z" stroke="black" stroke-width="3"/>
<path d="M292.493 202.203H290.453L295.733 187.743H297.913L303.213 202.203H301.153L299.853 198.603H293.773L292.493 202.203ZM296.573 190.863L294.373 196.903H299.273L297.053 190.863C297.013 190.716 296.966 190.57 296.913 190.423C296.86 190.263 296.826 190.13 296.813 190.023C296.786 190.13 296.753 190.263 296.713 190.423C296.673 190.57 296.626 190.716 296.573 190.863ZM307.095 187.743V202.203H305.135V187.743H307.095Z" fill="black"/>
<path d="M280.965 246.643C280.965 245.816 281.172 245.09 281.585 244.463C281.998 243.836 282.578 243.35 283.325 243.003C284.085 242.656 284.958 242.483 285.945 242.483C286.865 242.483 287.665 242.65 288.345 242.983C289.038 243.303 289.578 243.763 289.965 244.363C290.365 244.963 290.592 245.683 290.645 246.523H288.665C288.612 245.803 288.345 245.243 287.865 244.843C287.385 244.443 286.738 244.243 285.925 244.243C285.018 244.243 284.292 244.456 283.745 244.883C283.198 245.296 282.925 245.863 282.925 246.583C282.925 247.17 283.092 247.643 283.425 248.003C283.758 248.35 284.265 248.603 284.945 248.763L287.325 249.323C288.512 249.59 289.398 250.05 289.985 250.703C290.585 251.343 290.885 252.17 290.885 253.183C290.885 254.05 290.672 254.803 290.245 255.443C289.832 256.083 289.238 256.576 288.465 256.923C287.705 257.27 286.812 257.443 285.785 257.443C284.812 257.443 283.952 257.283 283.205 256.963C282.472 256.63 281.892 256.163 281.465 255.563C281.052 254.95 280.818 254.236 280.765 253.423H282.765C282.778 254.116 283.058 254.67 283.605 255.083C284.152 255.483 284.878 255.683 285.785 255.683C286.745 255.683 287.505 255.47 288.065 255.043C288.638 254.616 288.925 254.05 288.925 253.343C288.925 252.77 288.765 252.303 288.445 251.943C288.125 251.583 287.618 251.323 286.925 251.163L284.545 250.623C283.372 250.356 282.478 249.89 281.865 249.223C281.265 248.543 280.965 247.683 280.965 246.643ZM302.168 257.203H293.348V242.743H302.168V244.543H294.408L295.308 243.763V249.063H301.488V250.803H295.308V256.203L294.408 255.383H302.168V257.203ZM318.048 249.963C318.048 251.43 317.748 252.73 317.148 253.863C316.561 254.983 315.741 255.863 314.688 256.503C313.648 257.13 312.441 257.443 311.068 257.443C309.721 257.443 308.521 257.13 307.468 256.503C306.428 255.863 305.615 254.983 305.028 253.863C304.441 252.743 304.148 251.443 304.148 249.963C304.148 248.496 304.441 247.203 305.028 246.083C305.628 244.963 306.448 244.083 307.488 243.443C308.528 242.803 309.728 242.483 311.088 242.483C312.461 242.483 313.668 242.803 314.708 243.443C315.748 244.083 316.561 244.963 317.148 246.083C317.748 247.203 318.048 248.496 318.048 249.963ZM315.988 249.963C315.988 248.843 315.781 247.863 315.368 247.023C314.968 246.183 314.401 245.536 313.668 245.083C312.935 244.616 312.075 244.383 311.088 244.383C310.115 244.383 309.261 244.616 308.528 245.083C307.795 245.536 307.221 246.183 306.808 247.023C306.408 247.863 306.208 248.843 306.208 249.963C306.208 251.083 306.408 252.063 306.808 252.903C307.221 253.743 307.795 254.396 308.528 254.863C309.261 255.33 310.115 255.563 311.088 255.563C312.075 255.563 312.935 255.33 313.668 254.863C314.401 254.383 314.968 253.723 315.368 252.883C315.781 252.043 315.988 251.07 315.988 249.963Z" fill="black"/>
<path d="M274.808 310.203H270.028V295.743H274.728C276.168 295.743 277.428 296.05 278.508 296.663C279.601 297.263 280.448 298.11 281.048 299.203C281.661 300.283 281.968 301.543 281.968 302.983C281.968 304.41 281.668 305.67 281.068 306.763C280.468 307.843 279.628 308.69 278.548 309.303C277.481 309.903 276.234 310.203 274.808 310.203ZM271.988 296.663V309.303L271.068 308.383H274.668C275.748 308.383 276.674 308.163 277.448 307.723C278.234 307.283 278.841 306.663 279.268 305.863C279.708 305.05 279.928 304.09 279.928 302.983C279.928 301.863 279.708 300.896 279.268 300.083C278.841 299.27 278.228 298.643 277.428 298.203C276.641 297.763 275.694 297.543 274.588 297.543H271.068L271.988 296.663ZM288.361 310.443C287.415 310.443 286.575 310.23 285.841 309.803C285.108 309.363 284.535 308.763 284.121 308.003C283.708 307.23 283.501 306.336 283.501 305.323C283.501 304.296 283.701 303.396 284.101 302.623C284.515 301.85 285.075 301.243 285.781 300.803C286.501 300.363 287.335 300.143 288.281 300.143C289.215 300.143 290.021 300.343 290.701 300.743C291.395 301.143 291.928 301.703 292.301 302.423C292.688 303.143 292.881 303.99 292.881 304.963V305.663L284.501 305.683L284.541 304.423H291.001C291.001 303.61 290.755 302.956 290.261 302.463C289.768 301.97 289.108 301.723 288.281 301.723C287.655 301.723 287.115 301.863 286.661 302.143C286.221 302.41 285.881 302.81 285.641 303.343C285.415 303.863 285.301 304.49 285.301 305.223C285.301 306.396 285.568 307.303 286.101 307.943C286.635 308.57 287.401 308.883 288.401 308.883C289.135 308.883 289.735 308.736 290.201 308.443C290.668 308.15 290.981 307.723 291.141 307.163H292.901C292.661 308.203 292.148 309.01 291.361 309.583C290.575 310.156 289.575 310.443 288.361 310.443ZM294.181 307.363H295.981C295.981 307.856 296.161 308.25 296.521 308.543C296.881 308.823 297.368 308.963 297.981 308.963C298.648 308.963 299.161 308.836 299.521 308.583C299.881 308.316 300.061 307.963 300.061 307.523C300.061 307.203 299.961 306.936 299.761 306.723C299.574 306.51 299.228 306.336 298.721 306.203L297.001 305.803C296.134 305.59 295.488 305.263 295.061 304.823C294.648 304.383 294.441 303.803 294.441 303.083C294.441 302.483 294.594 301.963 294.901 301.523C295.221 301.083 295.654 300.743 296.201 300.503C296.761 300.263 297.401 300.143 298.121 300.143C298.841 300.143 299.461 300.27 299.981 300.523C300.514 300.776 300.928 301.13 301.221 301.583C301.528 302.036 301.688 302.576 301.701 303.203H299.901C299.888 302.696 299.721 302.303 299.401 302.023C299.081 301.743 298.634 301.603 298.061 301.603C297.474 301.603 297.021 301.73 296.701 301.983C296.381 302.236 296.221 302.583 296.221 303.023C296.221 303.676 296.701 304.123 297.661 304.363L299.381 304.783C300.208 304.97 300.828 305.276 301.241 305.703C301.654 306.116 301.861 306.683 301.861 307.403C301.861 308.016 301.694 308.556 301.361 309.023C301.028 309.476 300.568 309.83 299.981 310.083C299.408 310.323 298.728 310.443 297.941 310.443C296.794 310.443 295.881 310.163 295.201 309.603C294.521 309.043 294.181 308.296 294.181 307.363ZM303.946 310.203V300.423H305.826V310.203H303.946ZM304.866 298.103C304.533 298.103 304.239 297.983 303.986 297.743C303.746 297.49 303.626 297.196 303.626 296.863C303.626 296.516 303.746 296.223 303.986 295.983C304.239 295.743 304.533 295.623 304.866 295.623C305.213 295.623 305.506 295.743 305.746 295.983C305.986 296.223 306.106 296.516 306.106 296.863C306.106 297.196 305.986 297.49 305.746 297.743C305.506 297.983 305.213 298.103 304.866 298.103ZM307.935 305.063C307.935 304.143 308.122 303.316 308.495 302.583C308.869 301.836 309.402 301.243 310.095 300.803C310.789 300.363 311.609 300.143 312.555 300.143C313.435 300.143 314.189 300.356 314.815 300.783C315.442 301.196 315.889 301.776 316.155 302.523L315.915 302.783L316.115 300.423H317.795V309.803C317.795 310.83 317.595 311.716 317.195 312.463C316.795 313.223 316.229 313.81 315.495 314.223C314.762 314.636 313.895 314.843 312.895 314.843C311.562 314.843 310.469 314.49 309.615 313.783C308.762 313.076 308.242 312.103 308.055 310.863H309.935C310.055 311.583 310.375 312.143 310.895 312.543C311.415 312.943 312.082 313.143 312.895 313.143C313.815 313.143 314.549 312.863 315.095 312.303C315.655 311.756 315.935 311.016 315.935 310.083V307.323L316.175 307.583C315.922 308.316 315.462 308.896 314.795 309.323C314.129 309.736 313.355 309.943 312.475 309.943C311.542 309.943 310.735 309.73 310.055 309.303C309.375 308.863 308.849 308.276 308.475 307.543C308.115 306.81 307.935 305.983 307.935 305.063ZM309.815 305.023C309.815 305.636 309.935 306.19 310.175 306.683C310.429 307.176 310.775 307.57 311.215 307.863C311.669 308.156 312.195 308.303 312.795 308.303C313.435 308.303 313.982 308.163 314.435 307.883C314.889 307.603 315.235 307.216 315.475 306.723C315.729 306.23 315.855 305.663 315.855 305.023C315.855 304.383 315.735 303.823 315.495 303.343C315.255 302.863 314.909 302.483 314.455 302.203C314.002 301.923 313.455 301.783 312.815 301.783C312.189 301.783 311.649 301.93 311.195 302.223C310.755 302.516 310.415 302.91 310.175 303.403C309.935 303.883 309.815 304.423 309.815 305.023ZM322.388 310.203H320.508V300.423H322.208L322.408 301.923C322.715 301.363 323.155 300.93 323.728 300.623C324.315 300.303 324.955 300.143 325.648 300.143C326.928 300.143 327.875 300.51 328.488 301.243C329.102 301.976 329.408 302.97 329.408 304.223V310.203H327.528V304.643C327.528 303.656 327.315 302.95 326.888 302.523C326.462 302.083 325.888 301.863 325.168 301.863C324.288 301.863 323.602 302.15 323.108 302.723C322.628 303.296 322.388 304.063 322.388 305.023V310.203Z" fill="black"/>
<path d="M258.002 364.203H256.082V349.743H258.002L262.982 361.903L267.962 349.743H269.922V364.203H268.002V358.483C268.002 357.803 268.002 357.223 268.002 356.743C268.002 356.263 268.009 355.85 268.022 355.503C268.036 355.156 268.049 354.85 268.062 354.583C268.076 354.303 268.096 354.036 268.122 353.783L263.902 364.203H262.062L257.862 353.823C257.916 354.17 257.949 354.703 257.962 355.423C257.989 356.143 258.002 357.01 258.002 358.023V364.203ZM275.829 364.443C274.789 364.443 273.969 364.17 273.369 363.623C272.783 363.076 272.489 362.363 272.489 361.483C272.489 360.59 272.809 359.876 273.449 359.343C274.089 358.796 274.983 358.476 276.129 358.383L279.209 358.143V357.863C279.209 357.316 279.109 356.883 278.909 356.563C278.709 356.23 278.436 355.996 278.089 355.863C277.743 355.716 277.349 355.643 276.909 355.643C276.123 355.643 275.509 355.81 275.069 356.143C274.643 356.463 274.429 356.923 274.429 357.523H272.789C272.789 356.843 272.963 356.25 273.309 355.743C273.656 355.236 274.143 354.843 274.769 354.563C275.409 354.283 276.149 354.143 276.989 354.143C277.803 354.143 278.509 354.29 279.109 354.583C279.723 354.863 280.196 355.296 280.529 355.883C280.876 356.456 281.049 357.183 281.049 358.063V364.203H279.449L279.249 362.623C278.996 363.183 278.556 363.63 277.929 363.963C277.316 364.283 276.616 364.443 275.829 364.443ZM276.369 362.983C277.263 362.983 277.963 362.716 278.469 362.183C278.976 361.636 279.229 360.903 279.229 359.983V359.463L276.729 359.663C275.903 359.743 275.303 359.936 274.929 360.243C274.569 360.55 274.389 360.943 274.389 361.423C274.389 361.943 274.563 362.336 274.909 362.603C275.269 362.856 275.756 362.983 276.369 362.983ZM289.253 354.343V356.063H288.413C287.52 356.063 286.813 356.323 286.293 356.843C285.786 357.35 285.533 358.076 285.533 359.023V364.203H283.653V354.443H285.413L285.573 356.403H285.393C285.526 355.763 285.846 355.243 286.353 354.843C286.86 354.43 287.493 354.223 288.253 354.223C288.426 354.223 288.586 354.236 288.733 354.263C288.893 354.276 289.066 354.303 289.253 354.343ZM292.936 364.203H291.056V349.483H292.936V359.023L297.276 354.423H299.636L295.896 358.323L299.616 364.203H297.456L294.596 359.683L292.936 361.423V364.203ZM305.002 364.443C304.055 364.443 303.215 364.23 302.482 363.803C301.749 363.363 301.175 362.763 300.762 362.003C300.349 361.23 300.142 360.336 300.142 359.323C300.142 358.296 300.342 357.396 300.742 356.623C301.155 355.85 301.715 355.243 302.422 354.803C303.142 354.363 303.975 354.143 304.922 354.143C305.855 354.143 306.662 354.343 307.342 354.743C308.035 355.143 308.569 355.703 308.942 356.423C309.329 357.143 309.522 357.99 309.522 358.963V359.663L301.142 359.683L301.182 358.423H307.642C307.642 357.61 307.395 356.956 306.902 356.463C306.409 355.97 305.749 355.723 304.922 355.723C304.295 355.723 303.755 355.863 303.302 356.143C302.862 356.41 302.522 356.81 302.282 357.343C302.055 357.863 301.942 358.49 301.942 359.223C301.942 360.396 302.209 361.303 302.742 361.943C303.275 362.57 304.042 362.883 305.042 362.883C305.775 362.883 306.375 362.736 306.842 362.443C307.309 362.15 307.622 361.723 307.782 361.163H309.542C309.302 362.203 308.789 363.01 308.002 363.583C307.215 364.156 306.215 364.443 305.002 364.443ZM310.484 354.423H316.204V356.003H310.484V354.423ZM314.284 364.203H312.404V351.363H314.284V364.203ZM317.891 364.203V354.423H319.771V364.203H317.891ZM318.811 352.103C318.478 352.103 318.185 351.983 317.931 351.743C317.691 351.49 317.571 351.196 317.571 350.863C317.571 350.516 317.691 350.223 317.931 349.983C318.185 349.743 318.478 349.623 318.811 349.623C319.158 349.623 319.451 349.743 319.691 349.983C319.931 350.223 320.051 350.516 320.051 350.863C320.051 351.196 319.931 351.49 319.691 351.743C319.451 351.983 319.158 352.103 318.811 352.103ZM324.381 364.203H322.501V354.423H324.201L324.401 355.923C324.707 355.363 325.147 354.93 325.721 354.623C326.307 354.303 326.947 354.143 327.641 354.143C328.921 354.143 329.867 354.51 330.481 355.243C331.094 355.976 331.401 356.97 331.401 358.223V364.203H329.521V358.643C329.521 357.656 329.307 356.95 328.881 356.523C328.454 356.083 327.881 355.863 327.161 355.863C326.281 355.863 325.594 356.15 325.101 356.723C324.621 357.296 324.381 358.063 324.381 359.023V364.203ZM333.385 359.063C333.385 358.143 333.571 357.316 333.945 356.583C334.318 355.836 334.851 355.243 335.545 354.803C336.238 354.363 337.058 354.143 338.005 354.143C338.885 354.143 339.638 354.356 340.265 354.783C340.891 355.196 341.338 355.776 341.605 356.523L341.365 356.783L341.565 354.423H343.245V363.803C343.245 364.83 343.045 365.716 342.645 366.463C342.245 367.223 341.678 367.81 340.945 368.223C340.211 368.636 339.345 368.843 338.345 368.843C337.011 368.843 335.918 368.49 335.065 367.783C334.211 367.076 333.691 366.103 333.505 364.863H335.385C335.505 365.583 335.825 366.143 336.345 366.543C336.865 366.943 337.531 367.143 338.345 367.143C339.265 367.143 339.998 366.863 340.545 366.303C341.105 365.756 341.385 365.016 341.385 364.083V361.323L341.625 361.583C341.371 362.316 340.911 362.896 340.245 363.323C339.578 363.736 338.805 363.943 337.925 363.943C336.991 363.943 336.185 363.73 335.505 363.303C334.825 362.863 334.298 362.276 333.925 361.543C333.565 360.81 333.385 359.983 333.385 359.063ZM335.265 359.023C335.265 359.636 335.385 360.19 335.625 360.683C335.878 361.176 336.225 361.57 336.665 361.863C337.118 362.156 337.645 362.303 338.245 362.303C338.885 362.303 339.431 362.163 339.885 361.883C340.338 361.603 340.685 361.216 340.925 360.723C341.178 360.23 341.305 359.663 341.305 359.023C341.305 358.383 341.185 357.823 340.945 357.343C340.705 356.863 340.358 356.483 339.905 356.203C339.451 355.923 338.905 355.783 338.265 355.783C337.638 355.783 337.098 355.93 336.645 356.223C336.205 356.516 335.865 356.91 335.625 357.403C335.385 357.883 335.265 358.423 335.265 359.023Z" fill="black"/>
<path d="M245.577 419.203H240.797V404.743H245.497C246.937 404.743 248.197 405.05 249.277 405.663C250.371 406.263 251.217 407.11 251.817 408.203C252.431 409.283 252.737 410.543 252.737 411.983C252.737 413.41 252.437 414.67 251.837 415.763C251.237 416.843 250.397 417.69 249.317 418.303C248.251 418.903 247.004 419.203 245.577 419.203ZM242.757 405.663V418.303L241.837 417.383H245.437C246.517 417.383 247.444 417.163 248.217 416.723C249.004 416.283 249.611 415.663 250.037 414.863C250.477 414.05 250.697 413.09 250.697 411.983C250.697 410.863 250.477 409.896 250.037 409.083C249.611 408.27 248.997 407.643 248.197 407.203C247.411 406.763 246.464 406.543 245.357 406.543H241.837L242.757 405.663ZM259.131 419.443C258.184 419.443 257.344 419.23 256.611 418.803C255.877 418.363 255.304 417.763 254.891 417.003C254.477 416.23 254.271 415.336 254.271 414.323C254.271 413.296 254.471 412.396 254.871 411.623C255.284 410.85 255.844 410.243 256.551 409.803C257.271 409.363 258.104 409.143 259.051 409.143C259.984 409.143 260.791 409.343 261.471 409.743C262.164 410.143 262.697 410.703 263.071 411.423C263.457 412.143 263.651 412.99 263.651 413.963V414.663L255.271 414.683L255.311 413.423H261.771C261.771 412.61 261.524 411.956 261.031 411.463C260.537 410.97 259.877 410.723 259.051 410.723C258.424 410.723 257.884 410.863 257.431 411.143C256.991 411.41 256.651 411.81 256.411 412.343C256.184 412.863 256.071 413.49 256.071 414.223C256.071 415.396 256.337 416.303 256.871 416.943C257.404 417.57 258.171 417.883 259.171 417.883C259.904 417.883 260.504 417.736 260.971 417.443C261.437 417.15 261.751 416.723 261.911 416.163H263.671C263.431 417.203 262.917 418.01 262.131 418.583C261.344 419.156 260.344 419.443 259.131 419.443ZM268.159 419.203L264.219 409.423H266.219L268.359 414.883C268.532 415.336 268.685 415.77 268.819 416.183C268.952 416.583 269.059 416.93 269.139 417.223C269.232 416.89 269.345 416.523 269.479 416.123C269.625 415.723 269.785 415.31 269.959 414.883L272.139 409.423H274.099L270.019 419.203H268.159ZM279.365 419.443C278.418 419.443 277.578 419.23 276.845 418.803C276.112 418.363 275.538 417.763 275.125 417.003C274.712 416.23 274.505 415.336 274.505 414.323C274.505 413.296 274.705 412.396 275.105 411.623C275.518 410.85 276.078 410.243 276.785 409.803C277.505 409.363 278.338 409.143 279.285 409.143C280.218 409.143 281.025 409.343 281.705 409.743C282.398 410.143 282.932 410.703 283.305 411.423C283.692 412.143 283.885 412.99 283.885 413.963V414.663L275.505 414.683L275.545 413.423H282.005C282.005 412.61 281.758 411.956 281.265 411.463C280.772 410.97 280.112 410.723 279.285 410.723C278.658 410.723 278.118 410.863 277.665 411.143C277.225 411.41 276.885 411.81 276.645 412.343C276.418 412.863 276.305 413.49 276.305 414.223C276.305 415.396 276.572 416.303 277.105 416.943C277.638 417.57 278.405 417.883 279.405 417.883C280.138 417.883 280.738 417.736 281.205 417.443C281.672 417.15 281.985 416.723 282.145 416.163H283.905C283.665 417.203 283.152 418.01 282.365 418.583C281.578 419.156 280.578 419.443 279.365 419.443ZM287.905 419.203H286.025V404.483H287.905V419.203ZM290.033 414.303C290.033 413.303 290.253 412.416 290.693 411.643C291.133 410.87 291.733 410.263 292.493 409.823C293.266 409.383 294.146 409.163 295.133 409.163C296.119 409.163 296.993 409.383 297.753 409.823C298.513 410.263 299.113 410.87 299.553 411.643C299.993 412.416 300.213 413.303 300.213 414.303C300.213 415.303 299.993 416.19 299.553 416.963C299.113 417.736 298.513 418.343 297.753 418.783C296.993 419.223 296.119 419.443 295.133 419.443C294.146 419.443 293.266 419.223 292.493 418.783C291.733 418.343 291.133 417.736 290.693 416.963C290.253 416.19 290.033 415.303 290.033 414.303ZM291.933 414.303C291.933 414.983 292.066 415.583 292.333 416.103C292.613 416.623 292.993 417.03 293.473 417.323C293.953 417.616 294.506 417.763 295.133 417.763C295.759 417.763 296.313 417.616 296.793 417.323C297.273 417.03 297.646 416.623 297.913 416.103C298.193 415.583 298.333 414.983 298.333 414.303C298.333 413.61 298.193 413.01 297.913 412.503C297.646 411.983 297.273 411.576 296.793 411.283C296.313 410.99 295.759 410.843 295.133 410.843C294.506 410.843 293.953 410.99 293.473 411.283C292.993 411.576 292.613 411.983 292.333 412.503C292.066 413.01 291.933 413.61 291.933 414.303ZM302.294 423.583V409.423H303.994L304.134 411.183C304.454 410.503 304.927 409.996 305.554 409.663C306.194 409.316 306.9 409.143 307.674 409.143C308.607 409.143 309.414 409.363 310.094 409.803C310.774 410.23 311.294 410.83 311.654 411.603C312.027 412.363 312.214 413.243 312.214 414.243C312.214 415.243 312.034 416.136 311.674 416.923C311.327 417.71 310.814 418.33 310.134 418.783C309.467 419.236 308.647 419.463 307.674 419.463C306.887 419.463 306.187 419.303 305.574 418.983C304.96 418.663 304.494 418.203 304.174 417.603V423.583H302.294ZM304.194 414.323C304.194 414.976 304.314 415.57 304.554 416.103C304.807 416.623 305.16 417.03 305.614 417.323C306.08 417.616 306.634 417.763 307.274 417.763C307.914 417.763 308.46 417.616 308.914 417.323C309.367 417.016 309.714 416.603 309.954 416.083C310.207 415.563 310.334 414.976 310.334 414.323C310.334 413.643 310.207 413.043 309.954 412.523C309.714 412.003 309.367 411.596 308.914 411.303C308.46 411.01 307.914 410.863 307.274 410.863C306.634 410.863 306.08 411.01 305.614 411.303C305.16 411.596 304.807 412.003 304.554 412.523C304.314 413.043 304.194 413.643 304.194 414.323ZM316.166 419.203H314.286V409.423H315.966L316.226 411.223L315.986 411.063C316.186 410.516 316.552 410.063 317.086 409.703C317.632 409.33 318.292 409.143 319.066 409.143C319.932 409.143 320.652 409.376 321.226 409.843C321.799 410.31 322.172 410.93 322.346 411.703H322.006C322.139 410.93 322.506 410.31 323.106 409.843C323.706 409.376 324.446 409.143 325.326 409.143C326.446 409.143 327.326 409.47 327.966 410.123C328.606 410.776 328.926 411.67 328.926 412.803V419.203H327.086V413.263C327.086 412.49 326.886 411.896 326.486 411.483C326.099 411.056 325.572 410.843 324.906 410.843C324.439 410.843 324.026 410.95 323.666 411.163C323.319 411.363 323.046 411.656 322.846 412.043C322.646 412.43 322.546 412.883 322.546 413.403V419.203H320.686V413.243C320.686 412.47 320.492 411.883 320.106 411.483C319.719 411.07 319.192 410.863 318.526 410.863C318.059 410.863 317.646 410.97 317.286 411.183C316.939 411.383 316.666 411.676 316.466 412.063C316.266 412.436 316.166 412.883 316.166 413.403V419.203ZM335.752 419.443C334.805 419.443 333.965 419.23 333.232 418.803C332.499 418.363 331.925 417.763 331.512 417.003C331.099 416.23 330.892 415.336 330.892 414.323C330.892 413.296 331.092 412.396 331.492 411.623C331.905 410.85 332.465 410.243 333.172 409.803C333.892 409.363 334.725 409.143 335.672 409.143C336.605 409.143 337.412 409.343 338.092 409.743C338.785 410.143 339.319 410.703 339.692 411.423C340.079 412.143 340.272 412.99 340.272 413.963V414.663L331.892 414.683L331.932 413.423H338.392C338.392 412.61 338.145 411.956 337.652 411.463C337.159 410.97 336.499 410.723 335.672 410.723C335.045 410.723 334.505 410.863 334.052 411.143C333.612 411.41 333.272 411.81 333.032 412.343C332.805 412.863 332.692 413.49 332.692 414.223C332.692 415.396 332.959 416.303 333.492 416.943C334.025 417.57 334.792 417.883 335.792 417.883C336.525 417.883 337.125 417.736 337.592 417.443C338.059 417.15 338.372 416.723 338.532 416.163H340.292C340.052 417.203 339.539 418.01 338.752 418.583C337.965 419.156 336.965 419.443 335.752 419.443ZM344.252 419.203H342.372V409.423H344.072L344.272 410.923C344.578 410.363 345.018 409.93 345.592 409.623C346.178 409.303 346.818 409.143 347.512 409.143C348.792 409.143 349.738 409.51 350.352 410.243C350.965 410.976 351.272 411.97 351.272 413.223V419.203H349.392V413.643C349.392 412.656 349.178 411.95 348.752 411.523C348.325 411.083 347.752 410.863 347.032 410.863C346.152 410.863 345.465 411.15 344.972 411.723C344.492 412.296 344.252 413.063 344.252 414.023V419.203ZM352.836 409.423H358.556V411.003H352.836V409.423ZM356.636 419.203H354.756V406.363H356.636V419.203Z" fill="black"/>
<path d="M239.956 459.743V474.203H237.996V459.743H239.956ZM243.676 467.823H239.416V466.123H243.516C244.33 466.123 244.956 465.916 245.396 465.503C245.836 465.09 246.056 464.503 246.056 463.743C246.056 463.023 245.823 462.47 245.356 462.083C244.903 461.683 244.25 461.483 243.396 461.483H239.076V459.743H243.516C244.93 459.743 246.036 460.083 246.836 460.763C247.65 461.443 248.056 462.376 248.056 463.563C248.056 464.456 247.836 465.203 247.396 465.803C246.97 466.39 246.336 466.816 245.496 467.083V466.823C246.43 467.05 247.13 467.463 247.596 468.063C248.076 468.65 248.316 469.41 248.316 470.343C248.316 471.143 248.13 471.836 247.756 472.423C247.396 472.996 246.87 473.436 246.176 473.743C245.483 474.05 244.663 474.203 243.716 474.203H239.076V472.463H243.676C244.516 472.463 245.163 472.256 245.616 471.843C246.07 471.43 246.296 470.85 246.296 470.103C246.296 469.383 246.063 468.823 245.596 468.423C245.143 468.023 244.503 467.823 243.676 467.823ZM256.05 464.343V466.063H255.21C254.317 466.063 253.61 466.323 253.09 466.843C252.583 467.35 252.33 468.076 252.33 469.023V474.203H250.45V464.443H252.21L252.37 466.403H252.19C252.323 465.763 252.643 465.243 253.15 464.843C253.657 464.43 254.29 464.223 255.05 464.223C255.223 464.223 255.383 464.236 255.53 464.263C255.69 464.276 255.863 464.303 256.05 464.343ZM260.283 474.443C259.243 474.443 258.423 474.17 257.823 473.623C257.236 473.076 256.943 472.363 256.943 471.483C256.943 470.59 257.263 469.876 257.903 469.343C258.543 468.796 259.436 468.476 260.583 468.383L263.663 468.143V467.863C263.663 467.316 263.563 466.883 263.363 466.563C263.163 466.23 262.889 465.996 262.543 465.863C262.196 465.716 261.803 465.643 261.363 465.643C260.576 465.643 259.963 465.81 259.523 466.143C259.096 466.463 258.883 466.923 258.883 467.523H257.243C257.243 466.843 257.416 466.25 257.763 465.743C258.109 465.236 258.596 464.843 259.223 464.563C259.863 464.283 260.603 464.143 261.443 464.143C262.256 464.143 262.963 464.29 263.563 464.583C264.176 464.863 264.649 465.296 264.983 465.883C265.329 466.456 265.503 467.183 265.503 468.063V474.203H263.903L263.703 472.623C263.449 473.183 263.009 473.63 262.383 473.963C261.769 474.283 261.069 474.443 260.283 474.443ZM260.823 472.983C261.716 472.983 262.416 472.716 262.923 472.183C263.429 471.636 263.683 470.903 263.683 469.983V469.463L261.183 469.663C260.356 469.743 259.756 469.936 259.383 470.243C259.023 470.55 258.843 470.943 258.843 471.423C258.843 471.943 259.016 472.336 259.363 472.603C259.723 472.856 260.209 472.983 260.823 472.983ZM269.986 474.203H268.106V464.423H269.806L270.006 465.923C270.313 465.363 270.753 464.93 271.326 464.623C271.913 464.303 272.553 464.143 273.246 464.143C274.526 464.143 275.473 464.51 276.086 465.243C276.699 465.976 277.006 466.97 277.006 468.223V474.203H275.126V468.643C275.126 467.656 274.913 466.95 274.486 466.523C274.059 466.083 273.486 465.863 272.766 465.863C271.886 465.863 271.199 466.15 270.706 466.723C270.226 467.296 269.986 468.063 269.986 469.023V474.203ZM283.53 474.443C282.583 474.443 281.77 474.23 281.09 473.803C280.41 473.363 279.883 472.756 279.51 471.983C279.15 471.21 278.97 470.33 278.97 469.343C278.97 468.343 279.157 467.456 279.53 466.683C279.903 465.896 280.437 465.276 281.13 464.823C281.823 464.37 282.65 464.143 283.61 464.143C284.37 464.143 285.043 464.303 285.63 464.623C286.23 464.93 286.697 465.39 287.03 466.003V459.483H288.89V474.203H287.21L287.05 472.423C286.73 473.076 286.257 473.576 285.63 473.923C285.017 474.27 284.317 474.443 283.53 474.443ZM283.91 472.743C284.55 472.743 285.097 472.596 285.55 472.303C286.017 472.01 286.377 471.603 286.63 471.083C286.883 470.563 287.01 469.963 287.01 469.283C287.01 468.603 286.883 468.01 286.63 467.503C286.377 466.983 286.017 466.576 285.55 466.283C285.097 465.99 284.55 465.843 283.91 465.843C283.27 465.843 282.723 465.996 282.27 466.303C281.817 466.596 281.47 467.003 281.23 467.523C280.99 468.03 280.87 468.616 280.87 469.283C280.87 469.963 280.99 470.563 281.23 471.083C281.47 471.603 281.817 472.01 282.27 472.303C282.723 472.596 283.27 472.743 283.91 472.743ZM299.351 459.743V474.203H297.391V459.743H299.351ZM306.323 474.443C305.376 474.443 304.563 474.23 303.883 473.803C303.203 473.363 302.676 472.756 302.303 471.983C301.943 471.21 301.763 470.33 301.763 469.343C301.763 468.343 301.95 467.456 302.323 466.683C302.696 465.896 303.23 465.276 303.923 464.823C304.616 464.37 305.443 464.143 306.403 464.143C307.163 464.143 307.836 464.303 308.423 464.623C309.023 464.93 309.49 465.39 309.823 466.003V459.483H311.683V474.203H310.003L309.843 472.423C309.523 473.076 309.05 473.576 308.423 473.923C307.81 474.27 307.11 474.443 306.323 474.443ZM306.703 472.743C307.343 472.743 307.89 472.596 308.343 472.303C308.81 472.01 309.17 471.603 309.423 471.083C309.676 470.563 309.803 469.963 309.803 469.283C309.803 468.603 309.676 468.01 309.423 467.503C309.17 466.983 308.81 466.576 308.343 466.283C307.89 465.99 307.343 465.843 306.703 465.843C306.063 465.843 305.516 465.996 305.063 466.303C304.61 466.596 304.263 467.003 304.023 467.523C303.783 468.03 303.663 468.616 303.663 469.283C303.663 469.963 303.783 470.563 304.023 471.083C304.263 471.603 304.61 472.01 305.063 472.303C305.516 472.596 306.063 472.743 306.703 472.743ZM318.615 474.443C317.668 474.443 316.828 474.23 316.095 473.803C315.362 473.363 314.788 472.763 314.375 472.003C313.962 471.23 313.755 470.336 313.755 469.323C313.755 468.296 313.955 467.396 314.355 466.623C314.768 465.85 315.328 465.243 316.035 464.803C316.755 464.363 317.588 464.143 318.535 464.143C319.468 464.143 320.275 464.343 320.955 464.743C321.648 465.143 322.182 465.703 322.555 466.423C322.942 467.143 323.135 467.99 323.135 468.963V469.663L314.755 469.683L314.795 468.423H321.255C321.255 467.61 321.008 466.956 320.515 466.463C320.022 465.97 319.362 465.723 318.535 465.723C317.908 465.723 317.368 465.863 316.915 466.143C316.475 466.41 316.135 466.81 315.895 467.343C315.668 467.863 315.555 468.49 315.555 469.223C315.555 470.396 315.822 471.303 316.355 471.943C316.888 472.57 317.655 472.883 318.655 472.883C319.388 472.883 319.988 472.736 320.455 472.443C320.922 472.15 321.235 471.723 321.395 471.163H323.155C322.915 472.203 322.402 473.01 321.615 473.583C320.828 474.156 319.828 474.443 318.615 474.443ZM327.115 474.203H325.235V464.423H326.935L327.135 465.923C327.442 465.363 327.882 464.93 328.455 464.623C329.042 464.303 329.682 464.143 330.375 464.143C331.655 464.143 332.602 464.51 333.215 465.243C333.828 465.976 334.135 466.97 334.135 468.223V474.203H332.255V468.643C332.255 467.656 332.042 466.95 331.615 466.523C331.188 466.083 330.615 465.863 329.895 465.863C329.015 465.863 328.328 466.15 327.835 466.723C327.355 467.296 327.115 468.063 327.115 469.023V474.203ZM335.699 464.423H341.419V466.003H335.699V464.423ZM339.499 474.203H337.619V461.363H339.499V474.203ZM343.106 474.203V464.423H344.986V474.203H343.106ZM344.026 462.103C343.693 462.103 343.399 461.983 343.146 461.743C342.906 461.49 342.786 461.196 342.786 460.863C342.786 460.516 342.906 460.223 343.146 459.983C343.399 459.743 343.693 459.623 344.026 459.623C344.373 459.623 344.666 459.743 344.906 459.983C345.146 460.223 345.266 460.516 345.266 460.863C345.266 461.196 345.146 461.49 344.906 461.743C344.666 461.983 344.373 462.103 344.026 462.103ZM346.675 464.423H352.395V466.003H346.675V464.423ZM350.475 474.203H348.595V461.363H350.475V474.203ZM354.863 464.423L358.303 473.943L357.143 475.543L352.883 464.423H354.863ZM353.143 478.583V477.043H354.403C354.709 477.043 354.989 477.01 355.243 476.943C355.496 476.89 355.729 476.763 355.943 476.563C356.156 476.376 356.336 476.076 356.483 475.663L360.603 464.423H362.543L357.923 476.403C357.589 477.243 357.169 477.85 356.663 478.223C356.156 478.596 355.529 478.783 354.783 478.783C354.476 478.783 354.189 478.763 353.923 478.723C353.656 478.696 353.396 478.65 353.143 478.583Z" fill="black"/>
</svg>
