<svg width="100" height="100" viewBox="0 0 100 100" fill="none" xmlns="http://www.w3.org/2000/svg">
<path fill-rule="evenodd" clip-rule="evenodd" d="M50 3.61446C44.2852 3.61446 38.8157 4.6471 33.7651 6.53438C32.8302 6.88375 31.789 6.40904 31.4396 5.47408C31.0903 4.53912 31.565 3.49796 32.4999 3.14859C37.949 1.11237 43.8467 0 50 0C77.6142 0 100 22.3858 100 50C100 77.6142 77.6142 100 50 100C22.3858 100 0 77.6142 0 50C0 43.8467 1.11237 37.949 3.14859 32.4999C3.49796 31.565 4.53912 31.0903 5.47408 31.4396C6.40904 31.789 6.88375 32.8302 6.53438 33.7651C4.6471 38.8157 3.61446 44.2852 3.61446 50C3.61446 75.618 24.382 96.3855 50 96.3855C75.618 96.3855 96.3855 75.618 96.3855 50C96.3855 24.382 75.618 3.61446 50 3.61446Z" fill="#2B2B2B"/>
<path fill-rule="evenodd" clip-rule="evenodd" d="M49.3978 19.2766C47.2498 19.2766 45.1542 19.4925 43.1308 19.9032C42.1526 20.1018 41.1987 19.4698 41.0002 18.4916C40.8016 17.5135 41.4336 16.5596 42.4117 16.361C44.6705 15.9025 47.007 15.6621 49.3978 15.6621C68.6945 15.6621 84.3375 31.3052 84.3375 50.6019C84.3375 69.8986 68.6945 85.5416 49.3978 85.5416C30.1011 85.5416 14.458 69.8986 14.458 50.6019C14.458 47.5313 14.8545 44.5506 15.6002 41.7094C15.8535 40.744 16.8415 40.1667 17.8069 40.4201C18.7724 40.6735 19.3496 41.6615 19.0962 42.6269C18.4285 45.1712 18.0725 47.8436 18.0725 50.6019C18.0725 67.9024 32.0973 81.9272 49.3978 81.9272C66.6983 81.9272 80.7231 67.9024 80.7231 50.6019C80.7231 33.3014 66.6983 19.2766 49.3978 19.2766Z" fill="#2B2B2B"/>
<path fill-rule="evenodd" clip-rule="evenodd" d="M48.1924 31.9283C48.1924 30.9302 49.0015 30.1211 49.9996 30.1211C60.9788 30.1211 69.8792 39.0215 69.8792 50.0006C69.8792 60.9798 60.9788 69.8801 49.9996 69.8801C39.0205 69.8801 30.1201 60.9798 30.1201 50.0006C30.1201 49.0025 30.9292 48.1934 31.9273 48.1934C32.9255 48.1934 33.7346 49.0025 33.7346 50.0006C33.7346 58.9836 41.0167 66.2657 49.9996 66.2657C58.9826 66.2657 66.2647 58.9836 66.2647 50.0006C66.2647 41.0177 58.9826 33.7356 49.9996 33.7356C49.0015 33.7356 48.1924 32.9264 48.1924 31.9283Z" fill="#2B2B2B"/>
<path fill-rule="evenodd" clip-rule="evenodd" d="M18.1061 2.44225C18.6942 2.32998 19.2996 2.5162 19.723 2.93951L32.9762 16.1928C33.3456 16.5621 33.5371 17.0732 33.5013 17.5943L32.5824 31.0023L51.2782 49.6981C51.984 50.4038 51.984 51.5481 51.2782 52.2539C50.5724 52.9597 49.4281 52.9597 48.7224 52.2539L30.038 33.5695L16.4154 34.7047C15.8857 34.7488 15.3633 34.5575 14.9874 34.1816L1.73443 20.9286C1.3134 20.5076 1.12678 19.9062 1.23547 19.3208C1.34417 18.7353 1.73425 18.241 2.27835 17.9992L12.4769 13.4665L16.7862 3.50017C17.0238 2.95068 17.5181 2.55451 18.1061 2.44225ZM13.4555 16.987L6.1509 20.2334L16.9506 31.0331L26.69 30.2215L13.4555 16.987ZM29.1918 27.6117L29.8391 18.1673L19.0481 7.3763L16.0018 14.4217L29.1918 27.6117Z" fill="#2B2B2B"/>
</svg>
