<svg width="1350" height="501" viewBox="0 0 1350 501" fill="none" xmlns="http://www.w3.org/2000/svg">
<path d="M75 0.5V500.5" stroke="#525252" stroke-width="0.5"/>
<path d="M1275 0.5V500.5" stroke="#525252" stroke-width="0.5"/>
<path d="M1350 56.5L4.52995e-06 56.5" stroke="#525252" stroke-width="0.5"/>
<path d="M1350 445.5L4.52995e-06 445.5" stroke="#525252" stroke-width="0.5"/>
<circle cx="74.5" cy="56" r="12" stroke="black"/>
<circle cx="74.5" cy="445" r="12" stroke="black"/>
<circle cx="1274.5" cy="56" r="12" stroke="black"/>
<circle cx="1274.5" cy="445" r="12" stroke="black"/>
<path d="M1078.03 324.6V325.6H1079.03H1090.58C1097.28 325.6 1102.79 323.688 1107.01 319.788C1111.35 315.871 1113.48 310.587 1113.48 304.05V275.1C1113.48 270.189 1114.87 266.71 1117.49 264.457L1117.49 264.456C1120.26 262.057 1124.1 260.8 1129.13 260.8H1130.13V259.8V241.8V240.8H1129.13C1124.1 240.8 1120.26 239.593 1117.49 237.293C1114.87 234.937 1113.48 231.401 1113.48 226.5V197.55C1113.48 191.013 1111.35 185.729 1107.01 181.812C1102.79 177.912 1097.28 176 1090.58 176H1079.03H1078.03V177V194.7V195.7H1079.03H1085.48C1087.04 195.7 1088.21 196.205 1089.1 197.176L1089.11 197.192L1089.13 197.207C1089.95 198.027 1090.48 199.547 1090.48 202.05V229.65C1090.48 235.585 1091.76 240.417 1094.43 244.042L1094.44 244.056L1094.45 244.069C1096.71 246.944 1099.79 249.18 1103.62 250.8C1099.79 252.42 1096.71 254.656 1094.45 257.531L1094.44 257.539L1094.44 257.546C1091.76 261.08 1090.48 265.922 1090.48 271.95V299.55C1090.48 301.929 1089.96 303.486 1089.1 304.424C1088.21 305.395 1087.04 305.9 1085.48 305.9H1079.03H1078.03V306.9V324.6Z" stroke="black" stroke-width="2"/>
<path d="M1009.51 282.8H1008.51V283.8C1008.51 291.694 1011.54 298.178 1017.58 303.17L1017.58 303.177C1023.61 308.062 1031.71 310.45 1041.76 310.45C1048.37 310.45 1054.25 309.434 1059.39 307.378L1059.39 307.375L1059.4 307.372C1064.55 305.21 1068.6 302.102 1071.53 298.033C1074.46 293.945 1075.91 289.136 1075.91 283.65C1075.91 277.474 1074.21 272.626 1070.66 269.282C1067.28 265.906 1062.38 263.595 1056.07 262.271C1056.07 262.271 1056.07 262.271 1056.07 262.271L1042.13 259.273C1042.13 259.273 1042.13 259.273 1042.13 259.273C1039.5 258.689 1037.65 257.884 1036.47 256.924C1035.33 255.995 1034.81 254.92 1034.81 253.65C1034.81 251.939 1035.44 250.632 1036.69 249.63L1036.69 249.631L1036.69 249.626C1038.07 248.505 1039.93 247.9 1042.36 247.9C1044.97 247.9 1046.82 248.638 1048.08 249.984L1048.1 249.995L1048.11 250.007C1049.38 251.279 1050.06 253.051 1050.06 255.45V256.45H1051.06H1072.96H1073.96V255.45C1073.96 250.179 1072.67 245.533 1070.05 241.55C1067.44 237.582 1063.79 234.516 1059.14 232.345C1054.58 230.171 1049.33 229.1 1043.41 229.1C1037.31 229.1 1031.82 230.117 1026.98 232.176C1022.13 234.137 1018.23 237.041 1015.32 240.896L1015.32 240.896L1015.31 240.9C1012.46 244.699 1011.06 249.318 1011.06 254.7C1011.06 261.464 1012.81 266.758 1016.46 270.407L1016.46 270.412L1016.47 270.417C1020.05 273.896 1025.4 276.355 1032.4 277.877L1046.2 280.877L1046.2 280.877C1047.56 281.168 1048.63 281.51 1049.44 281.891C1050.25 282.276 1050.74 282.672 1051 283.038L1051.02 283.061L1051.04 283.083C1051.84 284.057 1052.16 284.941 1052.16 285.75C1052.16 287.29 1051.5 288.549 1050.04 289.583C1048.59 290.604 1046.19 291.2 1042.66 291.2C1039.29 291.2 1036.84 290.475 1035.18 289.165C1033.52 287.852 1032.59 286.069 1032.41 283.723L1032.34 282.8H1031.41H1009.51Z" stroke="black" stroke-width="2"/>
<path d="M973.485 307.501V308.501H974.485H997.585H998.585V307.501V232.501V231.501H997.585H974.485H973.485V232.501V307.501ZM975.714 217.744L975.727 217.758L975.741 217.772C978.533 220.456 981.934 221.801 985.885 221.801C989.744 221.801 993.05 220.449 995.742 217.758C998.531 214.969 999.935 211.564 999.935 207.601C999.935 203.64 998.532 200.28 995.735 197.587C993.045 194.9 989.741 193.551 985.885 193.551C981.934 193.551 978.533 194.896 975.741 197.58L975.734 197.587L975.727 197.594C973.03 200.291 971.685 203.649 971.685 207.601C971.685 211.552 973.03 214.952 975.714 217.744Z" stroke="black" stroke-width="2"/>
<path d="M897.014 282.8H896.014V283.8C896.014 291.694 899.044 298.178 905.076 303.17L905.084 303.177C911.113 308.062 919.21 310.45 929.264 310.45C935.865 310.45 941.745 309.434 946.885 307.378L946.893 307.375L946.901 307.372C952.049 305.21 956.105 302.102 959.026 298.033C961.961 293.945 963.414 289.136 963.414 283.65C963.414 277.474 961.713 272.626 958.16 269.282C954.779 265.906 949.881 263.595 943.572 262.271C943.571 262.271 943.57 262.271 943.569 262.271L929.631 259.273C929.63 259.273 929.628 259.273 929.627 259.273C927.001 258.689 925.149 257.884 923.97 256.924C922.83 255.995 922.314 254.92 922.314 253.65C922.314 251.939 922.937 250.632 924.188 249.63L924.188 249.631L924.194 249.626C925.574 248.505 927.432 247.9 929.864 247.9C932.468 247.9 934.322 248.638 935.584 249.984L935.595 249.995L935.607 250.007C936.878 251.279 937.564 253.051 937.564 255.45V256.45H938.564H960.464H961.464V255.45C961.464 250.179 960.169 245.533 957.549 241.55C954.939 237.582 951.291 234.516 946.64 232.345C942.084 230.171 936.833 229.1 930.914 229.1C924.806 229.1 919.322 230.117 914.48 232.176C909.633 234.137 905.734 237.041 902.816 240.896L902.816 240.896L902.814 240.9C899.964 244.699 898.564 249.318 898.564 254.7C898.564 261.464 900.308 266.758 903.957 270.407L903.962 270.412L903.967 270.417C907.552 273.896 912.902 276.355 919.901 277.877L933.701 280.877L933.704 280.877C935.059 281.168 936.129 281.51 936.937 281.891C937.75 282.276 938.239 282.672 938.505 283.038L938.522 283.061L938.54 283.083C939.337 284.057 939.664 284.941 939.664 285.75C939.664 287.29 939.001 288.549 937.537 289.583C936.089 290.604 933.691 291.2 930.164 291.2C926.791 291.2 924.343 290.475 922.683 289.165C921.021 287.852 920.091 286.069 919.911 283.723L919.84 282.8H918.914H897.014Z" stroke="black" stroke-width="2"/>
<path d="M810.765 248.635L810.762 248.64C807.157 254.716 805.372 261.798 805.372 269.85C805.372 277.902 807.157 284.984 810.762 291.06L810.762 291.06L810.768 291.071C814.463 297.126 819.497 301.85 825.852 305.233L825.858 305.236C832.318 308.62 839.631 310.3 847.772 310.3C855.913 310.3 863.178 308.62 869.542 305.233C875.898 301.85 880.883 297.124 884.479 291.065C888.186 284.988 890.022 277.905 890.022 269.85C890.022 261.797 888.186 254.714 884.481 248.638C880.887 242.479 875.901 237.702 869.542 234.317C863.178 230.93 855.913 229.25 847.772 229.25C839.631 229.25 832.318 230.93 825.858 234.314L825.858 234.314L825.852 234.317C819.493 237.702 814.458 242.479 810.765 248.635ZM856.712 254.21L856.724 254.217L856.736 254.224C859.264 255.628 861.228 257.636 862.641 260.272C864.049 262.901 864.772 266.033 864.772 269.7C864.772 273.363 864.05 276.549 862.637 279.284C861.225 281.918 859.257 283.979 856.724 285.483C854.198 286.883 851.225 287.6 847.772 287.6C844.319 287.6 841.346 286.883 838.82 285.483C836.285 283.977 834.264 281.913 832.751 279.272C831.342 276.54 830.622 273.358 830.622 269.7C830.622 266.038 831.343 262.911 832.747 260.284C834.26 257.641 836.278 255.629 838.808 254.224L838.82 254.217L838.832 254.21C841.356 252.715 844.325 251.95 847.772 251.95C851.219 251.95 854.188 252.715 856.712 254.21Z" stroke="black" stroke-width="2"/>
<path d="M768.992 307.501V308.501H769.992H793.092H794.092V307.501V232.501V231.501H793.092H769.992H768.992V232.501V307.501ZM771.222 217.744L771.235 217.758L771.249 217.772C774.041 220.456 777.441 221.801 781.392 221.801C785.252 221.801 788.558 220.449 791.249 217.758C794.038 214.969 795.442 211.564 795.442 207.601C795.442 203.64 794.04 200.28 791.243 197.587C788.552 194.9 785.249 193.551 781.392 193.551C777.441 193.551 774.041 194.896 771.249 197.58L771.242 197.587L771.235 197.594C768.538 200.291 767.192 203.649 767.192 207.601C767.192 211.552 768.537 214.952 771.222 217.744Z" stroke="black" stroke-width="2"/>
<path d="M697.386 308.5H698.386H719.286C727.376 308.5 734.265 307.338 739.922 304.973L739.93 304.969C745.692 302.5 750.064 298.874 752.986 294.077C756.002 289.29 757.486 283.548 757.486 276.9C757.486 269.829 755.69 263.946 752.023 259.333C749.535 256.115 746.268 253.681 742.256 252.015C745.901 250.091 748.874 247.532 751.151 244.33C754.491 239.632 756.136 233.92 756.136 227.25C756.136 217.501 752.839 209.709 746.191 203.994C739.655 198.29 730.643 195.5 719.286 195.5H698.386H697.386H691.236H690.236H673.086H672.086V196.5V307.5V308.5H673.086H690.236H691.236H697.386ZM717.936 285.2H698.386V263.35H717.936C722.2 263.35 725.278 264.32 727.33 266.105L727.347 266.12L727.365 266.134C729.468 267.799 730.586 270.324 730.586 273.9C730.586 277.807 729.497 280.598 727.471 282.453C725.422 284.229 722.3 285.2 717.936 285.2ZM716.736 240.95H698.386V218.8H716.736C721 218.8 724.078 219.77 726.13 221.555C728.153 223.314 729.236 225.953 729.236 229.65C729.236 233.454 728.149 236.201 726.112 238.062C724.06 239.935 720.989 240.95 716.736 240.95Z" stroke="black" stroke-width="2"/>
<path d="M598.151 305.212L598.158 305.216C604.225 308.712 611.1 310.45 618.757 310.45C629.219 310.45 638.033 307.959 645.136 302.915L645.144 302.909C652.256 297.756 656.503 290.872 657.845 282.304L658.026 281.15H656.857H635.707H634.961L634.748 281.866C634.038 284.263 632.398 286.165 629.698 287.561C626.98 288.967 623.5 289.7 619.207 289.7C613.393 289.7 609.267 288.107 606.619 285.102C605.009 283.141 603.866 280.488 603.234 277.098L656.562 276.85L657.557 276.845V275.85V270C657.557 261.676 655.984 254.46 652.794 248.387C649.609 242.223 645.075 237.479 639.203 234.181C633.324 230.779 626.345 229.1 618.307 229.1C610.65 229.1 603.822 230.837 597.852 234.337C591.893 237.83 587.216 242.663 583.831 248.818L583.831 248.818L583.828 248.823C580.537 254.891 578.907 261.91 578.907 269.85C578.907 277.697 580.59 284.716 583.981 290.882L583.986 290.89L583.991 290.899C587.476 296.947 592.2 301.723 598.151 305.212ZM632.576 260.9H603.636C603.853 260.045 604.104 259.249 604.39 258.511L604.39 258.511L604.394 258.501C605.532 255.466 607.206 253.314 609.38 251.952C611.679 250.575 614.683 249.85 618.457 249.85C622.988 249.85 626.425 251.004 628.893 253.197L628.901 253.204L628.909 253.211C631.133 255.106 632.37 257.638 632.576 260.9Z" stroke="black" stroke-width="2"/>
<path d="M487.413 291.592L487.417 291.601L487.422 291.61C490.502 297.564 494.776 302.206 500.243 305.506C505.723 308.815 512.158 310.45 519.51 310.45C525.042 310.45 530.046 309.374 534.499 307.199L534.507 307.195C538.069 305.414 540.91 303.229 542.993 300.625L543.868 307.624L543.977 308.5H544.86H566.61H567.61V307.5V194.4V193.4H566.61H543.51H542.51V194.4V236.811C540.378 234.76 537.682 233.07 534.447 231.728C530.315 229.973 525.832 229.1 521.01 229.1C513.257 229.1 506.471 230.836 500.691 234.346L500.691 234.346L500.684 234.35C495.017 237.853 490.642 242.748 487.564 249.006C484.483 255.169 482.96 262.326 482.96 270.45C482.96 278.473 484.433 285.529 487.413 291.592ZM540.084 278.967L540.084 278.967L540.078 278.978C538.67 281.608 536.656 283.671 534.019 285.179C531.492 286.582 528.516 287.3 525.06 287.3C521.613 287.3 518.644 286.536 516.12 285.04C513.583 283.537 511.613 281.476 510.198 278.841C508.883 276.205 508.21 273.118 508.21 269.55C508.21 265.983 508.883 262.895 510.198 260.26C511.613 257.625 513.583 255.564 516.12 254.061C518.644 252.565 521.613 251.8 525.06 251.8C528.507 251.8 531.476 252.565 534 254.061L534.019 254.072L534.038 254.082C536.664 255.489 538.672 257.496 540.078 260.123L540.085 260.135L540.092 260.147C541.591 262.77 542.36 265.893 542.36 269.55C542.36 273.102 541.594 276.232 540.084 278.967Z" stroke="black" stroke-width="2"/>
<path d="M396.36 248.635L396.358 248.64C392.753 254.716 390.968 261.798 390.968 269.85C390.968 277.902 392.753 284.984 396.358 291.06L396.358 291.06L396.364 291.071C400.059 297.126 405.093 301.85 411.448 305.233L411.454 305.236C417.914 308.62 425.227 310.3 433.368 310.3C441.509 310.3 448.774 308.62 455.138 305.233C461.493 301.85 466.479 297.124 470.075 291.065C473.781 284.988 475.618 277.905 475.618 269.85C475.618 261.797 473.782 254.714 470.077 248.638C466.482 242.479 461.497 237.702 455.138 234.317C448.774 230.93 441.509 229.25 433.368 229.25C425.227 229.25 417.914 230.93 411.454 234.314L411.454 234.314L411.448 234.317C405.088 237.702 400.054 242.479 396.36 248.635ZM442.308 254.21L442.32 254.217L442.332 254.224C444.859 255.628 446.824 257.636 448.236 260.272C449.645 262.901 450.368 266.033 450.368 269.7C450.368 273.363 449.646 276.549 448.233 279.284C446.82 281.918 444.853 283.979 442.32 285.483C439.794 286.883 436.821 287.6 433.368 287.6C429.915 287.6 426.941 286.883 424.416 285.483C421.88 283.977 419.859 281.913 418.346 279.272C416.937 276.54 416.218 273.358 416.218 269.7C416.218 266.038 416.939 262.911 418.343 260.284C419.856 257.641 421.874 255.629 424.403 254.224L424.416 254.217L424.428 254.21C426.952 252.715 429.92 251.95 433.368 251.95C436.815 251.95 439.784 252.715 442.308 254.21Z" stroke="black" stroke-width="2"/>
<path d="M300.964 303.264L300.972 303.269C309.249 307.969 319.026 310.299 330.266 310.299C339.69 310.299 348.185 308.576 355.734 305.108C363.274 301.643 369.456 296.743 374.26 290.408C379.167 284.068 382.279 276.71 383.604 268.356L383.787 267.199H382.616H357.416H356.652L356.451 267.936C355.016 273.2 352.014 277.348 347.413 280.416C342.908 283.387 337.36 284.899 330.716 284.899C324.979 284.899 320.019 283.59 315.801 281.004C311.679 278.317 308.451 274.522 306.124 269.581C303.897 264.638 302.766 258.786 302.766 251.999C302.766 245.003 303.9 239.104 306.125 234.267L306.128 234.26C308.355 229.323 311.529 225.584 315.643 222.999C319.861 220.412 324.872 219.099 330.716 219.099C337.266 219.099 342.661 220.564 346.961 223.431L346.97 223.437C351.355 226.297 354.316 230.39 355.855 235.774L356.062 236.499H356.816H382.466H383.607L383.458 235.368C382.337 226.914 379.428 219.548 374.715 213.297C370.01 207.059 363.927 202.257 356.486 198.891C349.133 195.421 340.736 193.699 331.316 193.699C320.168 193.699 310.342 196.133 301.869 201.031C293.403 205.827 286.821 212.616 282.134 221.378C277.443 230.148 275.116 240.416 275.116 252.149C275.116 263.975 277.34 274.287 281.826 283.055L281.828 283.059C286.314 291.724 292.696 298.466 300.964 303.264Z" stroke="black" stroke-width="2"/>
<path d="M218.897 259.8V260.8H219.897C225.041 260.8 228.871 262.06 231.53 264.445L231.537 264.451L231.545 264.457C234.157 266.71 235.547 270.189 235.547 275.1V304.05C235.547 310.589 237.687 315.875 242.027 319.792C246.34 323.684 251.842 325.6 258.447 325.6H269.997H270.997V324.6V306.9V305.9H269.997H263.547C261.995 305.9 260.824 305.395 259.935 304.424C259.075 303.486 258.547 301.929 258.547 299.55V271.95C258.547 265.919 257.22 261.073 254.439 257.539C252.254 254.657 249.227 252.42 245.406 250.8C249.23 249.179 252.258 246.94 254.443 244.056C257.216 240.429 258.547 235.591 258.547 229.65V202.05C258.547 199.547 259.085 198.027 259.905 197.207L259.92 197.192L259.935 197.176C260.824 196.205 261.995 195.7 263.547 195.7H269.997H270.997V194.7V177V176H269.997H258.447C251.842 176 246.34 177.916 242.027 181.808C237.687 185.725 235.547 191.011 235.547 197.55V226.5C235.547 231.404 234.16 234.943 231.537 237.299C228.878 239.587 225.045 240.8 219.897 240.8H218.897V241.8V259.8Z" stroke="black" stroke-width="2"/>
</svg>
