<svg width="115" height="110" viewBox="0 0 115 110" fill="none" xmlns="http://www.w3.org/2000/svg">
<path fill-rule="evenodd" clip-rule="evenodd" d="M45.4725 30.9925C26.3867 34.4918 11.2221 46.5206 3.1296 56.5467C2.5191 57.3031 1.41102 57.4214 0.654642 56.8109C-0.101736 56.2003 -0.21999 55.0923 0.390516 54.3359C8.87133 43.8287 24.7267 31.2175 44.8377 27.5302C65.0743 23.8198 89.3281 29.2003 114.325 54.1968C115.012 54.8841 115.012 55.9985 114.325 56.6858C113.637 57.3731 112.523 57.3731 111.836 56.6858C87.552 32.4023 64.4325 27.5162 45.4725 30.9925Z" fill="#2B2B2B"/>
<path fill-rule="evenodd" clip-rule="evenodd" d="M69.3684 79.8886C88.4541 76.3893 103.619 64.3605 111.711 54.3344C112.322 53.578 113.43 53.4597 114.186 54.0702C114.943 54.6808 115.061 55.7888 114.45 56.5452C105.969 67.0524 90.1141 79.6636 70.0032 83.3509C49.7665 87.0613 25.5128 81.6808 0.516261 56.6843C-0.171064 55.997 -0.171064 54.8826 0.516261 54.1953C1.20359 53.508 2.31795 53.508 3.00527 54.1953C27.2888 78.4788 50.4084 83.3649 69.3684 79.8886Z" fill="#2B2B2B"/>
<path fill-rule="evenodd" clip-rule="evenodd" d="M57.6394 79.2004C70.7617 79.2004 81.3994 68.5627 81.3994 55.4404C81.3994 42.3181 70.7617 31.6804 57.6394 31.6804C44.5171 31.6804 33.8794 42.3181 33.8794 55.4404C33.8794 68.5627 44.5171 79.2004 57.6394 79.2004ZM57.6394 82.7204C72.7057 82.7204 84.9194 70.5067 84.9194 55.4404C84.9194 40.3741 72.7057 28.1604 57.6394 28.1604C42.573 28.1604 30.3594 40.3741 30.3594 55.4404C30.3594 70.5067 42.573 82.7204 57.6394 82.7204Z" fill="#2B2B2B"/>
<path fill-rule="evenodd" clip-rule="evenodd" d="M57.6401 48.4002C61.5282 48.4002 64.6801 51.5522 64.6801 55.4402C64.6801 59.3283 61.5282 62.4802 57.6401 62.4802C53.752 62.4802 50.6001 59.3283 50.6001 55.4402C50.6001 51.5522 53.752 48.4002 57.6401 48.4002ZM57.6401 44.8802C63.4722 44.8802 68.2001 49.6081 68.2001 55.4402C68.2001 61.2724 63.4722 66.0002 57.6401 66.0002C51.808 66.0002 47.0801 61.2724 47.0801 55.4402C47.0801 49.6081 51.808 44.8802 57.6401 44.8802Z" fill="#2B2B2B"/>
<path fill-rule="evenodd" clip-rule="evenodd" d="M97.0213 9.9132C97.8631 10.3992 98.1515 11.4756 97.6655 12.3174L88.6455 27.9405C88.1595 28.7823 87.0831 29.0707 86.2413 28.5847C85.3995 28.0987 85.1111 27.0223 85.5971 26.1805L94.6171 10.5574C95.1031 9.71561 96.1795 9.42719 97.0213 9.9132Z" fill="#2B2B2B"/>
<path fill-rule="evenodd" clip-rule="evenodd" d="M97.0203 100.747C97.8621 100.261 98.1505 99.1845 97.6645 98.3427L88.6445 82.7197C88.1585 81.8779 87.0821 81.5894 86.2403 82.0754C85.3985 82.5615 85.1101 83.6379 85.5961 84.4797L94.6161 100.103C95.1021 100.945 96.1785 101.233 97.0203 100.747Z" fill="#2B2B2B"/>
<path fill-rule="evenodd" clip-rule="evenodd" d="M17.5988 9.9132C16.757 10.3992 16.4686 11.4756 16.9546 12.3174L25.9746 27.9405C26.4606 28.7823 27.537 29.0707 28.3788 28.5847C29.2206 28.0987 29.5091 27.0223 29.023 26.1805L20.003 10.5574C19.517 9.71561 18.4406 9.42719 17.5988 9.9132Z" fill="#2B2B2B"/>
<path fill-rule="evenodd" clip-rule="evenodd" d="M17.5988 100.747C16.757 100.261 16.4686 99.1845 16.9546 98.3427L25.9746 82.7197C26.4606 81.8779 27.537 81.5894 28.3788 82.0754C29.2206 82.5615 29.5091 83.6379 29.023 84.4797L20.003 100.103C19.517 100.945 18.4406 101.233 17.5988 100.747Z" fill="#2B2B2B"/>
<path fill-rule="evenodd" clip-rule="evenodd" d="M57.2004 0C58.1725 0 58.9604 0.787979 58.9604 1.76V19.8C58.9604 20.772 58.1725 21.56 57.2004 21.56C56.2284 21.56 55.4404 20.772 55.4404 19.8V1.76C55.4404 0.787979 56.2284 0 57.2004 0Z" fill="#2B2B2B"/>
<path fill-rule="evenodd" clip-rule="evenodd" d="M57.2004 88.4414C58.1725 88.4414 58.9604 89.2294 58.9604 90.2014V108.241C58.9604 109.213 58.1725 110.001 57.2004 110.001C56.2284 110.001 55.4404 109.213 55.4404 108.241V90.2014C55.4404 89.2294 56.2284 88.4414 57.2004 88.4414Z" fill="#2B2B2B"/>
</svg>
