<svg width="80" height="80" viewBox="0 0 80 80" fill="none" xmlns="http://www.w3.org/2000/svg">
<path fill-rule="evenodd" clip-rule="evenodd" d="M11.368 26.9404C12.0892 26.1592 13.1041 25.7148 14.1673 25.7148H16.6667C17.7186 25.7148 18.5714 26.5676 18.5714 27.6196C18.5714 28.6716 17.7186 29.5244 16.6667 29.5244L14.1673 29.5244L3.80952 40.7453V76.191H76.1905V40.7453L65.8327 29.5244H62.8571C61.8052 29.5244 60.9524 28.6716 60.9524 27.6196C60.9524 26.5676 61.8052 25.7148 62.8571 25.7148H65.8327C66.8959 25.7148 67.9108 26.1592 68.632 26.9405L78.9897 38.1614C79.6393 38.8651 80 39.7876 80 40.7453V76.191C80 78.295 78.2944 80.0006 76.1905 80.0006H3.80952C1.70558 80.0006 0 78.295 0 76.191V40.7453C0 39.7876 0.3607 38.8651 1.01027 38.1614L11.368 26.9404L12.7677 28.2324L11.368 26.9404Z" fill="#525252"/>
<path fill-rule="evenodd" clip-rule="evenodd" d="M40.0002 3.80952C28.4285 3.80952 19.0478 13.1902 19.0478 24.7619C19.0478 31.2607 22.0043 37.0673 26.6526 40.9134C27.4631 41.584 27.5765 42.7847 26.9059 43.5952C26.2353 44.4057 25.0346 44.5191 24.2241 43.8485C18.7386 39.3097 15.2383 32.4437 15.2383 24.7619C15.2383 11.0863 26.3246 0 40.0002 0C53.6758 0 64.7621 11.0863 64.7621 24.7619C64.7621 32.4437 61.2618 39.3097 55.7763 43.8485C54.9658 44.5191 53.7651 44.4057 53.0945 43.5952C52.4238 42.7847 52.5372 41.584 53.3477 40.9134C57.9961 37.0673 60.9526 31.2607 60.9526 24.7619C60.9526 13.1902 51.5719 3.80952 40.0002 3.80952Z" fill="#525252"/>
<path fill-rule="evenodd" clip-rule="evenodd" d="M0 42.3813C0 41.3294 0.852791 40.4766 1.90476 40.4766H78.0952C79.1472 40.4766 80 41.3294 80 42.3813C80 43.4333 79.1472 44.2861 78.0952 44.2861H1.90476C0.852791 44.2861 0 43.4333 0 42.3813Z" fill="#525252"/>
<path fill-rule="evenodd" clip-rule="evenodd" d="M47.9804 17.8178L50.7217 15.691C53.4931 19.263 53.0929 24.357 49.7977 27.4524L43.1762 33.6727C43.1712 33.6774 43.1648 33.6835 43.1571 33.6907C43.0758 33.7676 42.8534 33.9781 42.6191 34.1585C42.3118 34.3952 41.7041 34.8096 40.8249 34.9821L40.8249 34.9821C40.2799 35.0891 39.7193 35.0891 39.1743 34.9821L39.1743 34.9821C38.2951 34.8096 37.6875 34.3952 37.3802 34.1585C37.1459 33.9781 36.9234 33.7676 36.8421 33.6907C36.8344 33.6834 36.8281 33.6774 36.823 33.6727L30.2015 27.4524C26.9063 24.357 26.5061 19.263 29.2776 15.691L29.5722 15.3113C32.1953 11.9304 36.7369 11.4161 39.9996 13.4242C43.2623 11.4161 47.8039 11.9304 50.427 15.3113L50.7217 15.691L47.9804 17.8178ZM42.7452 16.3097C44.3343 15.7281 46.245 16.1356 47.4172 17.6465L47.7118 18.0262C49.2787 20.0458 49.0525 22.9258 47.1894 24.6759L40.5679 30.8961C40.3398 31.1104 40.2258 31.2175 40.0913 31.2439C40.0308 31.2558 39.9685 31.2558 39.9079 31.2439C39.7734 31.2175 39.6594 31.1104 39.4313 30.8961L32.8098 24.6759C30.9468 22.9258 30.7205 20.0458 32.2874 18.0262L32.582 17.6465C33.7543 16.1356 35.6649 15.7281 37.254 16.3097C37.2607 16.3121 37.2673 16.3146 37.274 16.317C38.016 16.5929 38.6867 17.0851 39.1776 17.7818C39.3112 17.9713 39.4314 18.1759 39.5361 18.3953C39.7222 18.7852 40.2771 18.7852 40.4631 18.3953C40.5679 18.1759 40.6881 17.9713 40.8216 17.7818C41.3126 17.0851 41.9832 16.5929 42.7252 16.317C42.7319 16.3146 42.7385 16.3121 42.7452 16.3097Z" fill="#525252"/>
<path fill-rule="evenodd" clip-rule="evenodd" d="M39.5239 48.5703C40.5759 48.5703 41.4287 49.4231 41.4287 50.4751V69.5227C41.4287 70.5747 40.5759 71.4275 39.5239 71.4275C38.4719 71.4275 37.6191 70.5747 37.6191 69.5227V50.4751C37.6191 49.4231 38.4719 48.5703 39.5239 48.5703Z" fill="#525252"/>
<path fill-rule="evenodd" clip-rule="evenodd" d="M51.4297 59.9985C51.4297 61.0505 50.5769 61.9033 49.5249 61.9033L30.4773 61.9033C29.4253 61.9033 28.5725 61.0505 28.5725 59.9985C28.5725 58.9465 29.4253 58.0937 30.4773 58.0937L49.5249 58.0937C50.5769 58.0937 51.4297 58.9465 51.4297 59.9985Z" fill="#525252"/>
</svg>
