<svg width="80" height="80" viewBox="0 0 80 80" fill="none" xmlns="http://www.w3.org/2000/svg">
<path fill-rule="evenodd" clip-rule="evenodd" d="M35.237 14.2861C33.659 14.2861 32.3798 15.5653 32.3798 17.1432V58.5108C32.3798 59.5627 31.527 60.4155 30.4751 60.4155C29.4231 60.4155 28.5703 59.5627 28.5703 58.5108V17.1432C28.5703 13.4613 31.5551 10.4766 35.237 10.4766H44.7608C48.4427 10.4766 51.4275 13.4613 51.4275 17.1432V58.9992C51.4275 60.0511 50.5747 60.9039 49.5227 60.9039C48.4707 60.9039 47.6179 60.0511 47.6179 58.9992V17.1432C47.6179 15.5653 46.3387 14.2861 44.7608 14.2861H35.237Z" fill="#525252"/>
<path d="M39.3593 46.3563V30.4648H40.9364V46.3563H39.3593ZM35.4679 35.762C35.4679 34.9963 35.6679 34.322 36.0679 33.7391C36.4679 33.1448 37.0164 32.682 37.7136 32.3506C38.4222 32.0077 39.2279 31.8363 40.1307 31.8363C41.045 31.8363 41.8336 31.9963 42.4964 32.3163C43.1593 32.6363 43.6679 33.0877 44.0222 33.6706C44.3879 34.2534 44.5707 34.9448 44.5707 35.7448H41.8964C41.8964 35.2534 41.7364 34.8763 41.4164 34.6134C41.1079 34.3506 40.6679 34.2191 40.0964 34.2191C39.5022 34.2191 39.0336 34.3448 38.6907 34.5963C38.3479 34.8477 38.1764 35.202 38.1764 35.6591C38.1764 36.0477 38.2793 36.3563 38.485 36.5848C38.7022 36.8134 39.0507 36.9791 39.5307 37.082L41.4336 37.4763C42.5993 37.7163 43.445 38.1106 43.9707 38.6591C44.5079 39.2077 44.7764 39.9677 44.7764 40.9391C44.7764 41.7506 44.5764 42.4648 44.1764 43.082C43.7764 43.6877 43.2107 44.1563 42.4793 44.4877C41.7593 44.8191 40.9136 44.9848 39.9422 44.9848C39.005 44.9848 38.1822 44.8248 37.4736 44.5048C36.7764 44.1848 36.2336 43.7334 35.845 43.1506C35.4679 42.5563 35.2793 41.8648 35.2793 41.0763H38.0393C38.0393 41.5677 38.1993 41.9448 38.5193 42.2077C38.8507 42.4706 39.3307 42.602 39.9593 42.602C40.6107 42.602 41.125 42.4763 41.5022 42.2248C41.8907 41.9734 42.085 41.6363 42.085 41.2134C42.085 40.5048 41.6679 40.0648 40.8336 39.8934L38.8964 39.4991C37.7536 39.2706 36.8964 38.842 36.325 38.2134C35.7536 37.5848 35.4679 36.7677 35.4679 35.762Z" fill="#525252"/>
<path fill-rule="evenodd" clip-rule="evenodd" d="M20 6.66667C20 2.98477 22.9848 0 26.6667 0H53.7729C57.4548 0 60.4396 2.98477 60.4396 6.66667V53.3333C60.4396 54.3853 59.5868 55.2381 58.5348 55.2381C57.4828 55.2381 56.63 54.3853 56.63 53.3333V6.66667C56.63 5.08871 55.3509 3.80952 53.7729 3.80952H26.6667C25.0887 3.80952 23.8095 5.08871 23.8095 6.66667V53.3333C23.8095 54.3853 22.9567 55.2381 21.9048 55.2381C20.8528 55.2381 20 54.3853 20 53.3333V6.66667Z" fill="#525252"/>
<path fill-rule="evenodd" clip-rule="evenodd" d="M22.5494 26.5818C23.1227 27.4638 22.8725 28.6436 21.9905 29.2169L3.80952 41.0345V76.1913H76.1905V41.0345L58.0095 29.2169C57.1275 28.6436 56.8773 27.4638 57.4506 26.5818C58.0239 25.6997 59.2037 25.4495 60.0857 26.0228L78.2666 37.8404C79.3477 38.5431 80 39.745 80 41.0345V76.1913C80 78.2952 78.2944 80.0008 76.1905 80.0008H3.80952C1.70558 80.0008 0 78.2952 0 76.1913V41.0345C0 39.745 0.652262 38.5431 1.73338 37.8404L19.9143 26.0228C20.7963 25.4495 21.9761 25.6997 22.5494 26.5818Z" fill="#525252"/>
<path fill-rule="evenodd" clip-rule="evenodd" d="M0.344484 38.9083C0.947749 38.0465 2.13543 37.8369 2.99723 38.4402L35.6309 61.2838C38.2543 63.1201 41.746 63.1201 44.3694 61.2838L77.0031 38.4402C77.8649 37.8369 79.0526 38.0465 79.6558 38.9083C80.2591 39.7701 80.0495 40.9578 79.1877 41.5611L46.554 64.4047C42.6189 67.1592 37.3814 67.1592 33.4463 64.4047L0.812616 41.5611C-0.0491921 40.9578 -0.258782 39.7701 0.344484 38.9083Z" fill="#525252"/>
<path fill-rule="evenodd" clip-rule="evenodd" d="M28.6531 56.9349C29.2945 57.7687 29.1385 58.9646 28.3047 59.606L3.54277 78.6536C2.70896 79.295 1.51306 79.1391 0.871659 78.3052C0.230261 77.4714 0.386248 76.2755 1.22007 75.6341L25.982 56.5865C26.8158 55.9451 28.0117 56.1011 28.6531 56.9349Z" fill="#525252"/>
<path fill-rule="evenodd" clip-rule="evenodd" d="M50.8704 56.9349C50.229 57.7687 50.3849 58.9646 51.2188 59.606L75.9807 78.6536C76.8145 79.295 78.0104 79.1391 78.6518 78.3052C79.2932 77.4714 79.1372 76.2755 78.3034 75.6341L53.5415 56.5865C52.7077 55.9451 51.5118 56.1011 50.8704 56.9349Z" fill="#525252"/>
</svg>
