<svg width="110" height="98" viewBox="0 0 110 98" fill="none" xmlns="http://www.w3.org/2000/svg">
<path fill-rule="evenodd" clip-rule="evenodd" d="M69 15H9C7.89543 15 7 15.8954 7 17V74.5567L0.208331 89.1102C0.0749876 89.3782 0 89.6804 0 90V96C0 97.1046 0.89543 98 2 98H104C105.105 98 106 97.1046 106 96V90C106 89.7628 105.959 89.5352 105.883 89.3241L101 74.6754V35.7727L98.5 38.5L97 38.9091V73H11V19H69.5L69 15ZM97.5585 77H10.2739L5.14056 88H101.225L97.5585 77ZM70 23H17C15.8954 23 15 23.8954 15 25V68C15 69.1046 15.8954 70 17 70H91C92.1046 70 93 69.1046 93 68V40L89 41.0909V66H19V27H70.5L70 23ZM4 92V94H102V92H4Z" fill="#525252"/>
<path fill-rule="evenodd" clip-rule="evenodd" d="M88.4286 39.0476C98.1593 39.0476 106.048 31.1593 106.048 21.4286C106.048 11.6978 98.1593 3.80952 88.4286 3.80952C78.6978 3.80952 70.8095 11.6978 70.8095 21.4286C70.8095 31.1593 78.6978 39.0476 88.4286 39.0476ZM88.4286 42.8571C100.263 42.8571 109.857 33.2632 109.857 21.4286C109.857 9.5939 100.263 0 88.4286 0C76.5939 0 67 9.5939 67 21.4286C67 33.2632 76.5939 42.8571 88.4286 42.8571Z" fill="#525252"/>
<path d="M96.9053 14.7676V12.1426H81.9053V14.7676H86.678C88.4535 14.7676 89.9521 15.8675 90.5166 17.3926H81.9053V20.0176H90.5166C90.2374 20.7835 89.7183 21.4472 89.0308 21.9174C88.3433 22.3875 87.5213 22.6409 86.678 22.6426H81.9053V25.811L89.5225 33.1426H93.3789L85.1971 25.2676H86.678C88.2487 25.2648 89.7704 24.7412 90.9869 23.785C92.2034 22.8288 93.0405 21.4983 93.3571 20.0176H96.9053V17.3926H93.3571C93.1496 16.4369 92.7187 15.5392 92.0971 14.7676H96.9053Z" fill="#525252"/>
</svg>
