<svg width="88" height="88" viewBox="0 0 88 88" fill="none" xmlns="http://www.w3.org/2000/svg">
<g filter="url(#filter0_d_201_576)">
<path fill-rule="evenodd" clip-rule="evenodd" d="M5.77527 0.337867C6.64072 -0.260133 7.82709 -0.0433156 8.42509 0.822141C15.2048 10.634 26.7309 38.9596 20.161 75.4046C19.9744 76.4399 18.9838 77.1279 17.9486 76.9412C16.9133 76.7546 16.2253 75.7641 16.412 74.7288C22.7943 39.3239 11.5271 12.0128 5.29099 2.98769C4.69299 2.12223 4.90981 0.935866 5.77527 0.337867Z" fill="#525252"/>
<path fill-rule="evenodd" clip-rule="evenodd" d="M21.4882 5.88865C22.3536 5.29065 23.54 5.50747 24.138 6.37292C30.9848 16.282 39.0881 39.084 32.5406 75.4052C32.354 76.4405 31.3634 77.1284 30.3282 76.9418C29.2929 76.7552 28.6049 75.7646 28.7916 74.7294C35.1962 39.2006 27.1728 17.4664 21.0039 8.53847C20.4059 7.67301 20.6227 6.48665 21.4882 5.88865Z" fill="#525252"/>
<path fill-rule="evenodd" clip-rule="evenodd" d="M60.0892 39.9872C43.405 38.3967 26.7343 43.0033 20.4268 45.5493C19.4513 45.9431 18.3413 45.4715 17.9476 44.496C17.5538 43.5205 18.0254 42.4106 19.0009 42.0168C25.8613 39.2475 43.9035 34.2753 61.8361 36.3406L63.1503 36.492L71.5625 70.5734C71.8146 71.5947 71.191 72.627 70.1697 72.8791C69.1484 73.1312 68.1161 72.5076 67.864 71.4863L60.0892 39.9872Z" fill="#525252"/>
<path fill-rule="evenodd" clip-rule="evenodd" d="M62.3533 51.1974C45.2386 49.2262 27.8527 54.0088 21.3799 56.6216C20.4044 57.0154 19.2945 56.5438 18.9007 55.5683C18.5069 54.5928 18.9785 53.4828 19.954 53.0891C26.8144 50.3198 44.8566 45.3475 62.7892 47.4129C63.8342 47.5333 64.5838 48.478 64.4635 49.5231C64.3431 50.5681 63.3984 51.3177 62.3533 51.1974Z" fill="#525252"/>
<path fill-rule="evenodd" clip-rule="evenodd" d="M83.7497 65.042C84.2706 65.9559 83.952 67.1191 83.038 67.64C50.5313 86.1671 17.675 79.8563 5.13204 74.2852C4.17065 73.8582 3.73745 72.7327 4.16446 71.7713C4.59147 70.8099 5.717 70.3767 6.67839 70.8037C18.3701 75.9967 49.918 82.1318 81.1517 64.3303C82.0656 63.8094 83.2288 64.128 83.7497 65.042Z" fill="#525252"/>
</g>
<defs>
<filter id="filter0_d_201_576" x="0" y="0" width="88" height="87.9998" filterUnits="userSpaceOnUse" color-interpolation-filters="sRGB">
<feFlood flood-opacity="0" result="BackgroundImageFix"/>
<feColorMatrix in="SourceAlpha" type="matrix" values="0 0 0 0 0 0 0 0 0 0 0 0 0 0 0 0 0 0 127 0" result="hardAlpha"/>
<feOffset dy="4"/>
<feGaussianBlur stdDeviation="2"/>
<feComposite in2="hardAlpha" operator="out"/>
<feColorMatrix type="matrix" values="0 0 0 0 0 0 0 0 0 0 0 0 0 0 0 0 0 0 0.25 0"/>
<feBlend mode="normal" in2="BackgroundImageFix" result="effect1_dropShadow_201_576"/>
<feBlend mode="normal" in="SourceGraphic" in2="effect1_dropShadow_201_576" result="shape"/>
</filter>
</defs>
</svg>
