<svg width="80" height="80" viewBox="0 0 80 80" fill="none" xmlns="http://www.w3.org/2000/svg">
<path fill-rule="evenodd" clip-rule="evenodd" d="M5.71429 11.4287C4.66232 11.4287 3.80952 12.2815 3.80952 13.3334V74.2858C3.80952 75.3378 4.66232 76.1906 5.71429 76.1906H74.2857C75.3377 76.1906 76.1905 75.3378 76.1905 74.2858V13.3334C76.1905 12.2815 75.3377 11.4287 74.2857 11.4287H62.381V7.61914H74.2857C77.4416 7.61914 80 10.1775 80 13.3334V74.2858C80 77.4417 77.4416 80.0001 74.2857 80.0001H5.71429C2.55837 80.0001 0 77.4417 0 74.2858V13.3334C0 10.1775 2.55837 7.61914 5.71429 7.61914H16.6667V11.4287H5.71429Z" fill="#525252"/>
<path fill-rule="evenodd" clip-rule="evenodd" d="M25.7134 0C26.7653 0 27.6181 0.852791 27.6181 1.90476V12.381C27.6181 13.4329 26.7653 14.2857 25.7134 14.2857C24.6614 14.2857 23.8086 13.4329 23.8086 12.381V1.90476C23.8086 0.852791 24.6614 0 25.7134 0Z" fill="#525252"/>
<path fill-rule="evenodd" clip-rule="evenodd" d="M35.2368 0C36.2888 0 37.1416 0.852791 37.1416 1.90476V12.381C37.1416 13.4329 36.2888 14.2857 35.2368 14.2857C34.1848 14.2857 33.332 13.4329 33.332 12.381V1.90476C33.332 0.852791 34.1848 0 35.2368 0Z" fill="#525252"/>
<path fill-rule="evenodd" clip-rule="evenodd" d="M44.7622 0C45.8142 0 46.6669 0.852791 46.6669 1.90476V12.381C46.6669 13.4329 45.8142 14.2857 44.7622 14.2857C43.7102 14.2857 42.8574 13.4329 42.8574 12.381V1.90476C42.8574 0.852791 43.7102 0 44.7622 0Z" fill="#525252"/>
<path fill-rule="evenodd" clip-rule="evenodd" d="M54.2856 0C55.3376 0 56.1904 0.852791 56.1904 1.90476V12.381C56.1904 13.4329 55.3376 14.2857 54.2856 14.2857C53.2337 14.2857 52.3809 13.4329 52.3809 12.381V1.90476C52.3809 0.852791 53.2337 0 54.2856 0Z" fill="#525252"/>
<path fill-rule="evenodd" clip-rule="evenodd" d="M39.5223 61.905C49.2531 61.905 57.1414 54.0167 57.1414 44.286C57.1414 34.5553 49.2531 26.6669 39.5223 26.6669C29.7916 26.6669 21.9033 34.5553 21.9033 44.286C21.9033 54.0167 29.7916 61.905 39.5223 61.905ZM39.5223 65.7146C51.357 65.7146 60.9509 56.1207 60.9509 44.286C60.9509 32.4513 51.357 22.8574 39.5223 22.8574C27.6876 22.8574 18.0938 32.4513 18.0938 44.286C18.0938 56.1207 27.6876 65.7146 39.5223 65.7146Z" fill="#525252"/>
<path d="M38.5689 55.4601V34.2715H40.6718V55.4601H38.5689ZM33.3803 41.3343C33.3803 40.3134 33.647 39.4143 34.1803 38.6372C34.7137 37.8448 35.4451 37.2277 36.3746 36.7858C37.3194 36.3286 38.3937 36.1001 39.5975 36.1001C40.8165 36.1001 41.868 36.3134 42.7518 36.7401C43.6356 37.1667 44.3137 37.7686 44.786 38.5458C45.2737 39.3229 45.5175 40.2448 45.5175 41.3115H41.9518C41.9518 40.6562 41.7384 40.1534 41.3118 39.8029C40.9003 39.4524 40.3137 39.2772 39.5518 39.2772C38.7594 39.2772 38.1346 39.4448 37.6775 39.7801C37.2203 40.1153 36.9918 40.5877 36.9918 41.1972C36.9918 41.7153 37.1289 42.1267 37.4032 42.4315C37.6927 42.7362 38.1575 42.9572 38.7975 43.0943L41.3346 43.6201C42.8889 43.9401 44.0165 44.4658 44.7175 45.1972C45.4337 45.9286 45.7918 46.942 45.7918 48.2372C45.7918 49.3191 45.5251 50.2715 44.9918 51.0943C44.4584 51.902 43.7041 52.5267 42.7289 52.9686C41.7689 53.4105 40.6413 53.6315 39.346 53.6315C38.0965 53.6315 36.9994 53.4182 36.0546 52.9915C35.1251 52.5648 34.4013 51.9629 33.8832 51.1858C33.3803 50.3934 33.1289 49.4715 33.1289 48.4201H36.8089C36.8089 49.0753 37.0222 49.5782 37.4489 49.9286C37.8908 50.2791 38.5308 50.4543 39.3689 50.4543C40.2375 50.4543 40.9232 50.2867 41.426 49.9515C41.9441 49.6162 42.2032 49.1667 42.2032 48.6029C42.2032 47.6582 41.647 47.0715 40.5346 46.8429L37.9518 46.3172C36.428 46.0124 35.2851 45.441 34.5232 44.6029C33.7613 43.7648 33.3803 42.6753 33.3803 41.3343Z" fill="#525252"/>
</svg>
