<svg width="80" height="80" viewBox="0 0 80 80" fill="none" xmlns="http://www.w3.org/2000/svg">
<path fill-rule="evenodd" clip-rule="evenodd" d="M28.2913 15.6098C31.5241 15.6098 34.1449 12.989 34.1449 9.7561C34.1449 6.52321 31.5241 3.90244 28.2913 3.90244C25.0584 3.90244 22.4376 6.52321 22.4376 9.7561C22.4376 12.989 25.0584 15.6098 28.2913 15.6098ZM28.2913 19.5122C33.6794 19.5122 38.0474 15.1442 38.0474 9.7561C38.0474 4.36795 33.6794 0 28.2913 0C22.9031 0 18.5352 4.36795 18.5352 9.7561C18.5352 15.1442 22.9031 19.5122 28.2913 19.5122Z" fill="#525252"/>
<path fill-rule="evenodd" clip-rule="evenodd" d="M47.1546 4.879C45.7067 4.879 44.3886 5.60575 43.5382 6.79427C42.9111 7.67065 41.6923 7.87274 40.8159 7.24565C39.9395 6.61856 39.7375 5.39976 40.3645 4.52338C41.8874 2.39514 44.3473 0.976562 47.1546 0.976562C51.913 0.976562 55.6099 4.99853 55.6099 9.75705C55.6099 14.5156 51.913 18.5375 47.1546 18.5375C44.3473 18.5375 41.8874 17.119 40.3645 14.9907C39.7375 14.1143 39.9395 12.8955 40.8159 12.2684C41.6923 11.6414 42.9111 11.8435 43.5382 12.7198C44.3886 13.9084 45.7067 14.6351 47.1546 14.6351C49.5805 14.6351 51.7075 12.5419 51.7075 9.75705C51.7075 6.97217 49.5805 4.879 47.1546 4.879Z" fill="#525252"/>
<path fill-rule="evenodd" clip-rule="evenodd" d="M11.707 35.1214C11.707 27.578 17.8222 21.4629 25.3656 21.4629H31.2192C38.7626 21.4629 44.8778 27.578 44.8778 35.1214V44.8775C44.8778 45.9552 44.0042 46.8287 42.9265 46.8287C41.8489 46.8287 40.9753 45.9552 40.9753 44.8775V35.1214C40.9753 29.7333 36.6074 25.3653 31.2192 25.3653H25.3656C19.9774 25.3653 15.6095 29.7333 15.6095 35.1214V44.8775C15.6095 45.9552 14.7359 46.8287 13.6583 46.8287C12.5806 46.8287 11.707 45.9552 11.707 44.8775V35.1214Z" fill="#525252"/>
<path fill-rule="evenodd" clip-rule="evenodd" d="M43.9023 23.4141C43.9023 22.3365 44.7759 21.4629 45.8536 21.4629H47.8048C55.3482 21.4629 61.4633 27.578 61.4633 35.1214V44.8775C61.4633 45.9552 60.5897 46.8287 59.5121 46.8287C58.4345 46.8287 57.5609 45.9552 57.5609 44.8775V35.1214C57.5609 29.7333 53.1929 25.3653 47.8048 25.3653H45.8536C44.7759 25.3653 43.9023 24.4917 43.9023 23.4141Z" fill="#525252"/>
<path fill-rule="evenodd" clip-rule="evenodd" d="M1.95122 51.707C3.02885 51.707 3.90244 52.5806 3.90244 53.6583V78.0485C3.90244 79.1261 3.02885 79.9997 1.95122 79.9997C0.873591 79.9997 0 79.1261 0 78.0485V53.6583C0 52.5806 0.873591 51.707 1.95122 51.707Z" fill="#525252"/>
<path fill-rule="evenodd" clip-rule="evenodd" d="M18.8943 54.3438C18.2139 54.3438 17.5546 54.581 17.03 55.0144L10.622 60.3092C9.39799 61.3206 7.85979 61.8739 6.27198 61.8739H2.55864C1.48101 61.8739 0.607422 61.0003 0.607422 59.9227C0.607422 58.845 1.48101 57.9715 2.55864 57.9715H6.27198C6.95247 57.9715 7.6117 57.7343 8.13628 57.3009L14.5443 52.0061C15.7683 50.9947 17.3065 50.4414 18.8943 50.4414H45.4492L45.7874 50.5715C47.0881 51.0717 49.1816 52.1206 50.0969 54.229C51.11 56.5623 50.3321 59.2381 47.9584 62.1042C46.6992 63.6246 44.8341 64.3041 43.0664 64.3041H25.6454C24.5678 64.3041 23.6942 63.4305 23.6942 62.3529C23.6942 61.2752 24.5678 60.4016 25.6454 60.4016H43.0664C43.8861 60.4016 44.5617 60.0874 44.9529 59.615C46.9265 57.2321 46.6717 56.1387 46.5173 55.7831C46.29 55.2595 45.646 54.7526 44.7047 54.3438H18.8943Z" fill="#525252"/>
<path fill-rule="evenodd" clip-rule="evenodd" d="M74.9688 48.9071C74.4951 48.8738 73.9459 48.9226 73.4011 49.033C73.2339 49.0669 73.0194 49.1541 72.7472 49.3318L56.7301 59.7852C55.9399 60.3009 55.0513 60.6473 54.1204 60.8025L47.838 61.8495C46.775 62.0267 45.7697 61.3086 45.5926 60.2456C45.4154 59.1827 46.1335 58.1773 47.1965 58.0002L53.4788 56.9531C53.8778 56.8866 54.2586 56.7382 54.5973 56.5171L70.6144 46.0638C71.1606 45.7073 71.835 45.3687 72.6255 45.2084C73.4204 45.0472 74.3325 44.9504 75.2423 45.0143C76.1383 45.0772 77.1654 45.306 78.0618 45.9157C79.0165 46.5651 79.684 47.5557 79.9124 48.8326C80.1283 50.04 79.9361 51.3976 79.4379 52.8753C79.0445 54.0423 78.2915 54.9643 77.4675 55.6378L54.5527 74.3657C52.8103 75.7897 50.6291 76.5676 48.3788 76.5676H1.95122C0.873591 76.5676 0 75.694 0 74.6164C0 73.5388 0.873591 72.6652 1.95122 72.6652H48.3788C49.729 72.6652 51.0377 72.1984 52.0831 71.344L74.9979 52.6162C75.3902 52.2956 75.6315 51.9503 75.7399 51.6287C76.1198 50.5017 76.1296 49.8477 76.0709 49.5197C76.0247 49.2612 75.9408 49.1927 75.867 49.1425C75.735 49.0526 75.4564 48.9414 74.9688 48.9071Z" fill="#525252"/>
</svg>
