<svg width="80" height="80" viewBox="0 0 80 80" fill="none" xmlns="http://www.w3.org/2000/svg">
<path fill-rule="evenodd" clip-rule="evenodd" d="M39.6782 20C44.149 20 47.7734 16.3756 47.7734 11.9047C47.7734 7.43387 44.149 3.80951 39.6782 3.80951C35.2073 3.80951 31.583 7.43387 31.583 11.9047C31.583 16.3756 35.2073 20 39.6782 20ZM39.6782 23.8095C46.253 23.8095 51.5829 18.4795 51.5829 11.9047C51.5829 5.32993 46.253 0 39.6782 0C33.1034 0 27.7734 5.32993 27.7734 11.9047C27.7734 18.4795 33.1034 23.8095 39.6782 23.8095Z" fill="#525252"/>
<path fill-rule="evenodd" clip-rule="evenodd" d="M64.218 18.7476C66.2666 18.7476 67.9273 17.0869 67.9273 15.0383C67.9273 12.9897 66.2666 11.329 64.218 11.329C62.1694 11.329 60.5087 12.9897 60.5087 15.0383C60.5087 17.0869 62.1694 18.7476 64.218 18.7476ZM64.218 22.5571C68.3705 22.5571 71.7368 19.1908 71.7368 15.0383C71.7368 10.8858 68.3705 7.51953 64.218 7.51953C60.0655 7.51953 56.6992 10.8858 56.6992 15.0383C56.6992 19.1908 60.0655 22.5571 64.218 22.5571Z" fill="#525252"/>
<path fill-rule="evenodd" clip-rule="evenodd" d="M15.1379 18.7476C17.1865 18.7476 18.8472 17.0869 18.8472 15.0383C18.8472 12.9897 17.1865 11.329 15.1379 11.329C13.0893 11.329 11.4287 12.9897 11.4287 15.0383C11.4287 17.0869 13.0893 18.7476 15.1379 18.7476ZM15.1379 22.5571C19.2904 22.5571 22.6567 19.1908 22.6567 15.0383C22.6567 10.8858 19.2904 7.51953 15.1379 7.51953C10.9854 7.51953 7.61914 10.8858 7.61914 15.0383C7.61914 19.1908 10.9854 22.5571 15.1379 22.5571Z" fill="#525252"/>
<path fill-rule="evenodd" clip-rule="evenodd" d="M6.38773 37.2485C4.4107 40.6922 3.76039 45.0709 3.81235 48.5181C3.8282 49.5699 2.98836 50.4355 1.93651 50.4513C0.884664 50.4672 0.0191197 49.6274 0.00326524 48.5755C-0.0547089 44.7293 0.647156 39.5964 3.08396 35.3518C5.58925 30.988 9.91932 27.6189 16.7488 27.6189C21.9453 27.6189 25.6999 29.9694 28.3321 33.1974C31.3056 30.5545 35.1461 28.7911 39.835 28.7911C40.887 28.7911 41.7397 29.6438 41.7397 30.6958C41.7397 31.7478 40.887 32.6006 39.835 32.6006C36.0268 32.6006 32.9061 34.0823 30.4656 36.4077C30.5464 36.557 30.6256 36.707 30.7031 36.8576C33.2202 41.752 34.0962 47.5333 34.1541 51.3752L34.1543 51.3896V51.4039C34.1543 51.4347 34.1544 51.4661 34.1544 51.4979C34.1548 52.888 34.1554 55.302 33.4316 57.398C33.0507 58.5013 32.4282 59.6475 31.3848 60.5205C30.3098 61.4199 28.9361 61.9045 27.3026 61.9045C25.6691 61.9045 24.2954 61.4199 23.2204 60.5205C22.1769 59.6475 21.5545 58.5013 21.1735 57.398C20.4497 55.302 20.4504 52.888 20.4508 51.4979C20.4508 51.4661 20.4508 51.4347 20.4508 51.4039C20.4508 46.7281 22.0316 41.1615 25.1899 36.7222C25.3587 36.4849 25.5324 36.2504 25.7109 36.0192C23.6163 33.2475 20.7305 31.4284 16.7488 31.4284C11.4417 31.4284 8.29626 33.9242 6.38773 37.2485ZM27.814 39.6376C25.4531 43.2829 24.2603 47.7254 24.2603 51.4039C24.2603 52.896 24.278 54.7172 24.7744 56.1546C25.0118 56.8421 25.3169 57.3076 25.6648 57.5987C25.9812 57.8634 26.4626 58.095 27.3026 58.095C28.1426 58.095 28.624 57.8634 28.9403 57.5987C29.2882 57.3076 29.5934 56.8421 29.8308 56.1546C30.3255 54.7219 30.3447 52.9079 30.3448 51.4186C30.2952 48.2456 29.6093 43.6368 27.814 39.6376Z" fill="#525252"/>
<path fill-rule="evenodd" clip-rule="evenodd" d="M73.6123 37.2483C75.5893 40.692 76.2396 45.0707 76.1877 48.5179C76.1718 49.5697 77.0116 50.4352 78.0635 50.4511C79.1153 50.467 79.9809 49.6271 79.9967 48.5753C80.0547 44.729 79.3528 39.5961 76.916 35.3516C74.4107 30.9878 70.0807 27.6187 63.2512 27.6187C58.0547 27.6187 54.3001 29.9691 51.6679 33.1972C48.6944 30.5543 44.8539 28.7908 40.165 28.7908C39.113 28.7908 38.2603 29.6436 38.2603 30.6956C38.2603 31.7475 39.113 32.6003 40.165 32.6003C43.9732 32.6003 47.0939 34.082 49.5344 36.4075C49.4536 36.5568 49.3744 36.7068 49.2969 36.8574C46.7798 41.7517 45.9038 47.5331 45.8459 51.375L45.8457 51.3893V51.4037C45.8457 51.4345 45.8456 51.4658 45.8456 51.4977C45.8452 52.8878 45.8446 55.3017 46.5684 57.3978C46.9493 58.5011 47.5718 59.6473 48.6152 60.5203C49.6902 61.4196 51.0639 61.9043 52.6974 61.9043C54.3309 61.9043 55.7046 61.4196 56.7796 60.5203C57.8231 59.6473 58.4455 58.5011 58.8265 57.3978C59.5503 55.3017 59.5496 52.8878 59.5492 51.4977C59.5492 51.4658 59.5492 51.4345 59.5492 51.4037C59.5492 46.7279 57.9684 41.1613 54.8101 36.722C54.6413 36.4846 54.4676 36.2502 54.2891 36.019C56.3837 33.2473 59.2695 31.4282 63.2512 31.4282C68.5583 31.4282 71.7037 33.9239 73.6123 37.2483ZM52.186 39.6374C54.5469 43.2826 55.7397 47.7251 55.7397 51.4037C55.7397 52.8957 55.722 54.7169 55.2256 56.1544C54.9882 56.8419 54.6831 57.3074 54.3352 57.5984C54.0188 57.8631 53.5374 58.0948 52.6974 58.0948C51.8574 58.0948 51.376 57.8631 51.0597 57.5984C50.7118 57.3074 50.4066 56.8419 50.1692 56.1544C49.6745 54.7216 49.6553 52.9076 49.6552 51.4183C49.7048 48.2454 50.3907 43.6365 52.186 39.6374Z" fill="#525252"/>
<path fill-rule="evenodd" clip-rule="evenodd" d="M77.1446 60.6476C77.8389 61.4379 77.7611 62.6414 76.9708 63.3357C61.9039 76.5732 47.5933 81.0179 34.7615 79.8103C21.9827 78.6078 10.9966 71.8299 2.45874 63.2482C1.7168 62.5024 1.71988 61.2964 2.46564 60.5545C3.2114 59.8125 4.41742 59.8156 5.15937 60.5614C13.2881 68.7319 23.4925 74.9235 35.1184 76.0176C46.6913 77.1067 59.9997 73.1753 74.4564 60.4738C75.2467 59.7795 76.4502 59.8573 77.1446 60.6476Z" fill="#525252"/>
</svg>
