<svg width="80" height="80" viewBox="0 0 80 80" fill="none" xmlns="http://www.w3.org/2000/svg">
<path fill-rule="evenodd" clip-rule="evenodd" d="M76 21.2949H4V33.2949H76V21.2949ZM4 17.2949C1.79086 17.2949 0 19.0858 0 21.2949V33.2949C0 35.5041 1.79086 37.2949 4 37.2949H76C78.2091 37.2949 80 35.5041 80 33.2949V21.2949C80 19.0858 78.2091 17.2949 76 17.2949H4Z" fill="#525252"/>
<path fill-rule="evenodd" clip-rule="evenodd" d="M10.2344 33.7656V74.0009C10.2344 75.1055 11.1298 76.0009 12.2344 76.0009H68.9403C70.0448 76.0009 70.9403 75.1055 70.9403 74.0009V33.7656H74.9403V74.0009C74.9403 77.3146 72.254 80.0009 68.9403 80.0009H12.2344C8.92067 80.0009 6.23438 77.3146 6.23438 74.0009V33.7656H10.2344Z" fill="#525252"/>
<path fill-rule="evenodd" clip-rule="evenodd" d="M34.1172 53.4707C35.2218 53.4707 36.1172 54.3661 36.1172 55.4707V77.8236C36.1172 78.9282 35.2218 79.8236 34.1172 79.8236C33.0126 79.8236 32.1172 78.9282 32.1172 77.8236V55.4707C32.1172 54.3661 33.0126 53.4707 34.1172 53.4707Z" fill="#525252"/>
<path fill-rule="evenodd" clip-rule="evenodd" d="M48.2344 53.4707C49.3389 53.4707 50.2344 54.3661 50.2344 55.4707V77.8236C50.2344 78.9282 49.3389 79.8236 48.2344 79.8236C47.1298 79.8236 46.2344 78.9282 46.2344 77.8236V55.4707C46.2344 54.3661 47.1298 53.4707 48.2344 53.4707Z" fill="#525252"/>
<path fill-rule="evenodd" clip-rule="evenodd" d="M42.2258 18.5017C42.8592 19.4066 42.6392 20.6536 41.7343 21.2871C38.2516 23.7249 30.68 32.1965 30.2333 45.5976C30.1965 46.7015 29.2717 47.5667 28.1678 47.5299C27.0638 47.4931 26.1987 46.5683 26.2355 45.4643C26.73 30.6301 35.0799 21.0625 39.4404 18.0101C40.3453 17.3767 41.5924 17.5968 42.2258 18.5017Z" fill="#525252"/>
<path fill-rule="evenodd" clip-rule="evenodd" d="M38.3601 18.5017C37.7267 19.4066 37.9468 20.6536 38.8517 21.2871C42.3343 23.7249 49.9059 32.1965 50.3527 45.5976C50.3894 46.7015 51.3142 47.5667 52.4182 47.5299C53.5221 47.4931 54.3872 46.5683 54.3504 45.4643C53.856 30.6301 45.506 21.0625 41.1455 18.0101C40.2406 17.3767 38.9936 17.5968 38.3601 18.5017Z" fill="#525252"/>
<path fill-rule="evenodd" clip-rule="evenodd" d="M26.8581 4.23307C25.5252 3.80482 24.0666 3.90215 22.3365 5.07997C20.7444 6.16388 20.0631 7.21742 19.7996 8.1094C19.5327 9.01333 19.6177 10.0135 20.0388 11.1188C20.9144 13.4172 23.0582 15.6704 24.8193 17.0903C25.6792 17.7836 25.8142 19.0427 25.1209 19.9026C24.4276 20.7625 23.1685 20.8975 22.3086 20.2042C20.3442 18.6203 17.5507 15.8236 16.3008 12.5429C15.6592 10.8586 15.3844 8.93698 15.9635 6.97634C16.5461 5.00374 17.9168 3.24999 20.0855 1.7735C22.7668 -0.0519359 25.4992 -0.404906 28.0817 0.424786C30.5408 1.21486 32.6525 3.00796 34.4154 5.04825C37.9396 9.12697 40.691 14.9407 42.4458 18.8236C42.9007 19.8301 42.4535 21.0149 41.447 21.4698C40.4405 21.9247 39.2557 21.4775 38.8008 20.4709C37.0261 16.544 34.4826 11.2441 31.3887 7.66344C29.8426 5.87402 28.3144 4.70094 26.8581 4.23307Z" fill="#525252"/>
<path fill-rule="evenodd" clip-rule="evenodd" d="M52.0344 4.23307C53.3674 3.80482 54.826 3.90215 56.556 5.07997C58.1481 6.16388 58.8295 7.21742 59.0929 8.1094C59.3599 9.01333 59.2749 10.0135 58.8538 11.1188C57.9782 13.4172 55.8344 15.6704 54.0733 17.0903C53.2134 17.7836 53.0784 19.0427 53.7717 19.9026C54.465 20.7625 55.7241 20.8975 56.584 20.2042C58.5484 18.6203 61.3419 15.8236 62.5917 12.5429C63.2334 10.8586 63.5082 8.93698 62.9291 6.97634C62.3465 5.00374 60.9758 3.24999 58.8071 1.7735C56.1258 -0.0519359 53.3934 -0.404906 50.8109 0.424786C48.3518 1.21486 46.2401 3.00796 44.4772 5.04825C40.953 9.12697 38.2016 14.9407 36.4467 18.8236C35.9918 19.8301 36.439 21.0149 37.4456 21.4698C38.4521 21.9247 39.6369 21.4775 40.0918 20.4709C41.8665 16.544 44.41 11.2441 47.5038 7.66344C49.05 5.87402 50.5782 4.70094 52.0344 4.23307Z" fill="#525252"/>
</svg>
