<?xml version="1.0" encoding="utf-8"?>
<!-- Generator: Adobe Illustrator 25.0.1, SVG Export Plug-In . SVG Version: 6.00 Build 0)  -->
<svg version="1.1" id="Layer_1" xmlns="http://www.w3.org/2000/svg" xmlns:xlink="http://www.w3.org/1999/xlink" x="0px" y="0px"
	 viewBox="0 0 400 400" style="enable-background:new 0 0 400 400;" xml:space="preserve">
<g>
	<path d="M321.8,230.4c-2.7,0.1-4.9,1.2-7.1,2.6c-1.4,0.9-1.4,0.9-1.7-0.8c-0.1-0.6,0-1.3-1-1.3c-1.8,0.1-3.6,0-5.4,0
		c-0.4,0-0.7,0-0.9,0.5c-0.7,1.6-0.4,2.4,1.2,2.9c0.2,0.1,0.3,0.1,0.5,0.2c1.1,0.2,1.5,0.8,1.5,1.9c-0.1,4.6,0,9.1,0,13.7
		c0,4.3,0,8.6,0,12.9c0,0.7,0,1.5-0.9,1.5c-2.1-0.1-2.3,1.1-2.1,2.7c0,0.2-0.1,0.4-0.1,0.7c4.7,0,9.3,0,14,0
		c-0.1-0.2-0.1-0.4-0.2-0.7c-0.2-2.3-0.2-2.3-2.5-2.5c-3.2-0.4-3.2-0.4-3.2-3.7c0-1.6,0-3.2,0-5c0.5,0.3,0.7,0.4,0.9,0.5
		c6.3,4.5,14.4,2,16.8-5.4c1.4-4.2,1.5-8.4,0.6-12.7C330.9,232.6,327.7,230.2,321.8,230.4z M326.8,250.1c-1.1,3.3-3.5,4.7-6.9,4.3
		c-2.2-0.3-4.1-1.4-5.8-2.9c-0.4-0.4-0.4-0.8-0.4-1.3c0-1.9,0-3.8,0-5.7c0,0,0,0,0,0c0-1.9,0-3.8,0-5.7c0-0.7,0.2-1.1,0.7-1.5
		c1.9-1.3,4-2.3,6.2-2.6c3-0.5,5.5,1.2,6.4,4.5C328,242.8,328,246.5,326.8,250.1z"/>
	<path d="M376.2,245.7c-1.5-1.7-3.5-2.4-5.6-3c-2-0.6-4.1-0.9-6-1.9c-1.3-0.7-2.1-1.6-2-3.2c0.1-1.6,1-2.5,2.5-3.1
		c1.7-0.6,3.3-0.6,5.1-0.3c2.2,0.4,2.4,0.3,2.6,2.4c0.1,1.6,0.9,2.1,2.3,2.1c0.2,0,0.5,0,0.7,0c0.9,0.1,1.3-0.2,1.2-1.1
		c-0.1-1.4-0.1-2.9,0-4.3c0.1-1.3-0.5-1.7-1.6-2c-2.9-0.8-5.9-1.1-8.8-0.8c-3.2,0.3-6.1,1.3-7.7,4.4c-2.5,4.7-0.3,9.4,5,10.9
		c2.3,0.7,4.7,0.9,6.9,2c1.5,0.8,2.2,2,2.1,3.6c-0.1,1.7-1.3,2.9-3,3.4c-1.9,0.5-3.9,0.4-5.8,0c-2.3-0.4-2.4-0.6-2.8-2.9
		c-0.3-2.1-0.3-2.1-2.4-2.1c-0.2,0-0.5,0-0.7,0c-0.7-0.1-0.9,0.2-0.9,0.9c0,1.8,0,3.6,0,5.4c0,0.7,0.2,1,0.9,1.2
		c4.1,1.3,8.3,1.8,12.5,1c3-0.6,5.3-2.1,6.5-5.1c0.2-0.6,0-1.3,0.5-1.8c0-0.7,0-1.3,0-2C377.3,248.1,377.2,246.7,376.2,245.7z"/>
	<path d="M148,175.5c0-1.9,0-1.9-1.9-1.9c-26.8,0-53.6,0-80.4,0c-1.4,0-2.9,0.1-4.3,0.3c-10,1.4-18.4,10.5-18.4,20.4
		c-0.1,20.8,0,41.6-0.1,62.3c0,0.9,0.3,1.2,1.2,1.2c2.5,0,5-0.1,7.5,0c1.2,0,1.6-0.3,1.6-1.6c-0.1-12,0-24,0-36.1
		c0-2.8,0.6-5.4,2.1-7.7c3.2-5.2,8-7.8,14.1-7.9c9.1-0.1,18.3,0,27.4,0c1.2,0,2.3-0.2,3.3-0.8c1.9-1.2,2.8-3.7,2.2-5.7
		c-0.7-2.2-2.8-3.7-5.5-3.7c-9.2,0-18.5-0.1-27.7,0c-6.2,0.1-11.5,2.2-15.8,7.2c-0.2-1.2,0-2.1,0.1-3.1c1.4-8.2,8.2-14.8,17.1-14.6
		c8.7,0.2,17.3,0,26,0c1.2,0,2.3,0.1,3.5,0.3c8.9,1.4,14.9,11,12.3,19.6c-2.1,6.8-8.1,11.3-15.3,11.3c-9.1,0-18.2,0-27.3,0
		c-4.2,0-6.1,2-6.1,6.1c0,11.5,0,23,0,34.5c0,2.1-0.5,2,2,2c23.7,0,47.4-0.1,71.2,0.1c5.8,0,11.3-4.4,11.2-11.3
		C147.9,222.9,148,199.2,148,175.5z"/>
	<path d="M123.9,163.2c7.5,0,15.1,0,22.6,0c1.1,0,1.4-0.3,1.4-1.4c-0.1-2.4-0.1-4.8,0-7.3c0.1-1.4-0.3-1.7-1.7-1.7
		c-27.3,0-54.6,0-81.9,0c-11.1,0-20.3,4.2-27.9,12.2c-1.2,1.3-2.2,2.9-3.5,4.5c-0.2-0.9,0.1-1.5,0.2-2.1c1.3-4.1,3.1-8,5.6-11.5
		c6.4-8.7,14.9-13.6,25.9-13.6c27.1,0,54.2,0,81.4,0c0.3,0,0.6,0,0.8,0c0.8,0,1.1-0.2,0.9-1.1c-0.8-4.4-3.2-7.3-7.4-8.8
		c-0.4,0-0.7-0.1-1.1-0.1c0,0,0,0,0,0c-0.6-0.5-1.2-0.3-1.9-0.3c-26.4,0-52.8,0-79.2,0c-1.5,0-3,0-4.4,0.4c-0.2,0-0.5,0-0.7,0
		c-10.8,2-19.3,7.6-25.3,16.9c-2.4,3.7-4.1,7.8-4.8,12.2c-0.3,0.3-0.2,0.6-0.2,1c0,0.1,0,0.2,0,0.3c0,0-0.1,0-0.1,0.1
		c0,0.1,0,0.1,0,0.2c0,0.2-0.1,0.4-0.1,0.6c-0.6,1.3-0.4,2.7-0.4,4.1c0,26.6,0,53.2,0,79.8c0,1,0.1,1.9,0.6,2.8c1.2,4,4,6.2,7.8,7.1
		c1.7,0.4,1.9,0.2,1.9-1.5c0-20.3,0-40.6,0-60.9c0-1.3,0-2.5,0.2-3.8c2.1-16.2,16-28.3,32.3-28.3
		C84.6,163.2,104.3,163.2,123.9,163.2z"/>
	<path d="M198.8,169.1c1.2,0,1.8-0.5,1.8-1.7c0-3,0-6,0-8.9c0-1.7-0.3-2-1.9-2c-2.8,0-5.6,0-8.4,0c-0.9,0-1.4-0.3-1.3-1.3
		c0-1.7-0.1-3.4,0.2-5c0.3-2.2,1.5-3.4,3.7-3.7c2.1-0.4,4.2-0.2,6.3-0.2c1.1,0,1.7-0.4,1.7-1.6c0-3.6,0-7.3,0-10.9
		c0-1-0.4-1.6-1.5-1.5c-4,0.1-8-0.2-12,0.3c-7.2,1-12.4,4.5-14.4,11.8c-1,3.5-1.1,7.2-1,10.8c0,1-0.3,1.4-1.3,1.3
		c-0.9,0-1.9,0-2.8,0c-1,0-1.6,0.4-1.6,1.5c0,3.2,0,6.4,0,9.6c0,1,0.5,1.6,1.6,1.5c0.8,0,1.6,0.1,2.4,0c1.3-0.1,1.8,0.4,1.7,1.7
		c0,14.1,0,28.2,0,42.3c0,2,0.2,2.2,2.2,2.2c4.3,0,8.6,0,12.9,0c1.8,0,2-0.3,2-2c0-7.1,0-14.2,0-21.2c0-7.1,0-14.3,0-21.4
		c0-1.3,0.4-1.7,1.7-1.7C193.3,169.2,196.1,169.1,198.8,169.1z"/>
	<path d="M297.7,213.4c0,1.7,0.2,1.9,1.9,1.9c4.4,0,8.8,0,13.3,0c1.8,0,2-0.2,2-2c0-7,0-14,0-21c0-11.2,0-22.3,0-33.5
		c0-2.2-0.2-2.3-2.4-2.3c-4.2,0-8.5,0-12.7,0c-2,0-2.1,0.1-2.1,2.1c0,9.1,0,18.2,0,27.2C297.7,195.1,297.7,204.2,297.7,213.4z"/>
	<path d="M221.2,241.6c-0.4-5.7-3.4-9.6-8.4-10.9c-1.9-0.5-3.8-0.4-5.7-0.3c-5.5,0.3-9.6,3.7-10.9,9.1c-0.9,3.6-0.8,7.2,0.2,10.8
		c0.5,1.9,1.3,3.6,2.8,4.9c3.9,3.8,8.6,3.9,13.4,2.8c4.1-0.9,6.6-3.7,7.9-7.7c0.7-2.1,0.8-4.2,0.7-6.3
		C221.2,243.2,221.2,242.4,221.2,241.6z M215.7,248.9c-0.9,3.8-3.3,5.6-7.2,5.6c-3.9,0-6.1-1.5-7.2-5.2c-0.9-3.2-0.9-6.5,0.1-9.7
		c1.1-3.6,4-5.3,8.3-5c3.3,0.2,5.4,2.2,6.2,5.8C216.4,243.2,216.4,246,215.7,248.9z"/>
	<path d="M302.9,240.4c-0.4-3.2-1.2-6.3-4.1-8.2c-5.1-3.5-14.9-2.7-17.8,6c-1.3,3.9-1.3,7.8-0.3,11.7c1.3,5.1,4.6,8,9.8,8.6
		c3.2,0.3,6.4,0.1,9.5-1.1c2.5-1,2.5-0.9,1.5-3.5c-0.4-1.1-0.9-1.3-2-0.8c-2.6,1.2-5.4,1.7-8.3,1.2c-3.4-0.6-6.3-4.6-5.8-8
		c0.1-0.8,0.7-0.5,1.1-0.5c2.6,0,5.1,0,7.7,0c0,0,0,0,0,0c2.6,0,5.1,0,7.7,0c0.9,0,1.3-0.2,1.2-1.2
		C302.9,243.1,303,241.8,302.9,240.4z M295.9,241.9c-1.4,0-2.8,0-4.2,0c-1.8,0-3.5,0-5.3,0c-0.7,0-0.9-0.2-0.9-1
		c0.2-4.6,4-7.5,8.4-6.3c2.1,0.5,3.6,2.5,3.9,5.1C298.2,241.9,298.2,241.9,295.9,241.9z"/>
	<path d="M275.7,231.4c-2.8-1-5.7-1.2-8.7-1c-5.8,0.4-10,4.1-11.3,9.7c-0.7,3.1-0.7,6.2,0,9.3c1.2,5.2,4.4,8.2,9.6,8.9
		c3,0.4,6,0.2,9-0.7c2.9-0.9,3-1.2,1.6-4c-0.3-0.7-0.6-0.8-1.3-0.5c-2.2,1.1-4.6,1.5-7.1,1.2c-3-0.3-5.2-1.8-6.4-4.7
		c-0.9-2.3-1-4.6-0.8-7c0.3-5.4,3.7-8.6,8.6-8.5c3.4,0.1,3.6,0.2,4.2,3.6c0.2,1,0.5,1.2,1.4,1.2c2.5,0,2.5,0.1,2.5-2.3
		c0-0.4,0-0.8,0-1.3c0,0,0,0,0,0c0-0.7-0.1-1.4,0-2.1C277.3,232.2,276.8,231.7,275.7,231.4z"/>
	<path d="M190.9,231.3c-2.8-0.9-5.6-1-8.4-0.9c-5.3,0.3-9.4,3.5-10.9,8.5c-1.3,4.3-1.2,8.6,0.4,12.7c1.3,3.5,3.9,5.6,7.5,6.4
		c3.4,0.8,6.9,0.6,10.2-0.5c3.2-1,3.2-1,1.8-4c-0.3-0.7-0.5-0.9-1.3-0.5c-1.2,0.6-2.6,1-4,1.2c-5.4,0.9-9.2-1.6-10.1-6.8
		c-0.4-2.2-0.4-4.4,0.1-6.7c1-4.5,4.1-6.9,8.6-6.6c3.2,0.2,3.3,0.2,3.8,3.4c0.1,0.9,0.5,1.4,1.5,1.3c2.3,0,2.3,0,2.3-2.3
		c0-0.4,0-0.8,0-1.3c0-0.7-0.1-1.3,0-2C192.8,232.1,192,231.6,190.9,231.3z"/>
	<path d="M297.8,145.4c-0.2,0.2-0.2,0.4,0.1,0.6c0.2,0.7,0.8,0.7,1.4,0.7c4.7,0,9.3,0,14,0c1,0,1.5-0.4,1.5-1.4c0-3.9,0-7.8,0-11.7
		c0-1-0.5-1.4-1.5-1.4c-4.7,0-9.4,0-14.1,0c-0.7,0-1.3,0.2-1.3,1.1c-0.3,0.8-0.2,1.7-0.1,2.5C297.7,139,297.6,142.2,297.8,145.4z"/>
	<path d="M353,253.8c-0.5-0.5-1.4,0.2-2.1,0.3c-0.4,0.1-0.7,0.2-1.1,0.2c-3.7,0.6-5.3-0.3-5.4-3.5c-0.1-5.1,0-10.2-0.1-15.4
		c0-0.7,0.3-1,1-1c1.6,0,3.2,0,4.7,0c2.4,0,2.4,0,2.4-2.5c0-1-0.3-1.3-1.3-1.2c-1.9,0.1-3.8,0-5.7,0c-0.8,0-1.2-0.3-1.1-1.1
		c0-1.6,0-3.2,0-4.7c0-0.3,0.1-0.8-0.3-1c-1-0.7-2.9,0.1-3.1,1.4c-0.5,3-1.5,5.5-5,6c-0.4,0.1-0.6,0.2-0.8,0.7
		c-0.4,1.8,0.1,2.5,1.9,2.5c0.4,0,0.7,0,1.1,0c1-0.1,1.3,0.3,1.3,1.3c-0.1,2.8,0,5.6,0,8.4c0,0,0,0,0,0c0,2.8-0.1,5.6,0,8.4
		c0.1,2.9,1.7,5,4.5,5.6c3.2,0.7,6.4,0.1,9.4-1.1c0.4-0.1,0.7-0.4,0.5-0.8C353.7,255.4,353.5,254.4,353,253.8z"/>
	<path d="M252.4,254.8c-2.7-0.4-2.7-0.5-2.7-3.2c0-2.9,0-5.9,0-8.8c0-1.8,0.1-3.6-0.2-5.4c-0.6-4.7-3.8-7.2-8.4-6.9
		c-0.4,0-0.8,0-1.2,0v0c-2.1,0.2-4,0.8-5.7,2c0,0,0,0,0,0c-0.9,0.5-1.8,0.9-2.6,1.4c0-0.1-0.1-0.2-0.2-0.2c0-0.4-0.1-0.8-0.1-1.2
		c0-1.1-0.4-1.7-1.7-1.6c-1.3,0.1-2.7,0.1-4,0c-1.3-0.1-1.9,0.4-1.8,1.7c0,0.3-0.1,0.6-0.1,0.8c0.8,1.2,2.2,1,3.3,1.5
		c0.3,0.6,0.2,1.3,0.2,1.9c0,4.9,0,9.8,0,14.7c0,2.7,0,2.7-2.6,3.3c-1.5,0.3-0.7,1.5-0.9,2.3c-0.2,0.8,0.4,0.9,1,0.9
		c3.4,0,6.7,0,10.1,0c0.4,0,0.8,0.1,1-0.3c0.6-1.1-0.1-2.7-1.4-2.8c-0.3,0-0.6,0-0.8-0.1c-1.1,0-1.6-0.5-1.6-1.7
		c0.1-5,0-10.1,0-15.1c0,0,0-0.1,0-0.1c0.1-0.1,0.2-0.3,0.3-0.4c1.1-0.3,1.9-1,2.8-1.7c0,0,0,0,0,0c1.4-0.3,2.7-0.9,4.2-1.1
		c2.6-0.3,4.5,0.9,5,3.4c0.2,0.9,0.3,1.9,0.3,2.9c0,4,0,8.1,0,12.1c0,1.2-0.5,1.6-1.5,1.7c-0.3,0-0.6,0.1-1,0.1
		c-1.6,0.1-0.9,1.3-1.1,2.1c-0.2,1,0.4,1,1.2,1c3.3,0,6.5,0,9.8,0c0.5,0,1.4,0.3,1.3-0.8C253.3,256.3,254.1,255,252.4,254.8z"/>
	<path d="M205.4,201.4c0.3,2.7,0.8,5.4,2.4,7.7l0,0c0.1,0.4,0.3,0.8,0.7,1c0,0,0,0,0,0c0.1,0.6,0.5,0.9,1,1.2c0,0,0,0,0,0
		c1.3,1.6,3,2.6,4.9,3.2c0,0,0,0,0,0c0.1,0.1,0.2,0.2,0.3,0.2c5.1,1.6,10.4,1.3,15.6,1.2c1,0,1.1-0.7,1.1-1.6c0-3.3,0-6.7,0-10
		c0-3.2-0.2-3.4-3.5-3.1c0,0-0.1,0-0.1,0c-0.6,0-1.1-0.1-1.7-0.1c-1.1-0.3-2-0.9-2.8-1.8c0-0.2,0-0.4-0.3-0.6
		c-0.1-0.4-0.2-0.7-0.3-1.1c0-0.2,0-0.4-0.1-0.6c0.1-0.5,0.1-1-0.1-1.6c0-0.4,0.1-0.8,0.1-1.2c0-19,0-37.9,0-56.9
		c0-0.4-0.1-0.8-0.1-1.2c0-0.7,0.1-1.5,0.1-2.2c0-1.7-0.3-2-2-2c-4.4,0-8.8,0-13.3,0c-2.1,0-2.1,0-2.1,2.2c0,20.5,0,41,0,61.5
		C205.2,197.7,205.2,199.6,205.4,201.4z"/>
	<path d="M263.8,215.3C263.8,215.3,263.8,215.3,263.8,215.3c0.5,0,0.9-0.2,1.2-0.6c0,0,0.1,0,0.1,0l0-0.1c0.7-0.1,1.3-0.5,1.8-1
		c0,0,0.1,0,0.1,0c0.5-0.3,1.1-0.5,1.3-1.1c1.1-0.5,1.6-1.6,2.7-2.4c0,1.2,0,2.3,0,3.3c0,1.7,0.3,2,2,2c4.4,0,8.8,0,13.1,0
		c1.8,0,2.1-0.3,2.1-2.1c0-18.3,0-36.5,0-54.8c0-1.8-0.4-2.2-2.2-2.2c-4.3,0-8.7,0-13,0c-1.8,0-2.1,0.3-2.1,2.1c0,9.7,0,19.5,0,29.2
		c0,3.1,0.1,6.1-0.9,9.1c-0.1,0.1-0.2,0.3-0.3,0.4c-2.6,5.2-9.4,6.5-13.8,2.7c-1.5-1.3-2-3.1-2.7-4.8c0-0.2-0.1-0.4-0.1-0.6
		c-0.2-1.7-0.2-3.3-0.2-5c0-10.4,0-20.8,0-31.1c0-1.8-0.3-2.1-2-2.1c-4.5,0-8.9,0-13.4,0c-1.6,0-1.9,0.3-1.9,1.9
		c0,12.4,0,24.9,0,37.3c0,3.2,0.5,6.4,1.7,9.4c1.3,3.2,3.1,6.1,6.1,8.1c0,0,0,0,0,0c0.4,0.6,1,0.9,1.7,1.1c0,0,0,0,0,0
		c0.2,0.3,0.5,0.4,0.8,0.6c2.8,1.4,5.8,2,9,2.1C258.1,216.8,261.1,216.7,263.8,215.3z"/>
	<path d="M359.5,210.7c0,0,0,0.8,0,1.5c0,2.2-0.1,3.2,1.8,3.2c4.6,0,9.1,0,13.7,0c0.4,0,1,0.2,1.3-0.4c0,0,0,0,0,0
		c0.2,0,0.3-0.1,0.3-0.3c0,0,0-0.1,0-0.1l0,0.1c0.7-0.7,0.3-1.6,0.3-2.3c0-0.5,0.1-0.9,0.1-1.4c0-24.6,0-76.6,0-77.3
		c0-1.1-0.5-1.6-1.6-1.6c-4.8,0-9.5,0-14.3,0c-1.7,0-1.5,1.7-1.5,2.4c0,8.3,0,16.6,0,24.9c0,0.5,0.3,1.2-0.4,1.6c0,0,0,0,0,0
		c-0.1-0.1-3.6-3.4-4.6-3.9c-3.9-2.1-8-2.4-12.3-2.2c-8.9,0.4-15.6,5.6-18.3,14c-1.5,4.9-2,9.8-2.1,14.9c-0.1,6.1,0.1,12.1,1.8,18
		c2.1,7,6.3,12.1,13.5,14.2c4.9,1.4,9.8,1.3,14.7-0.3C353.8,214.9,359.4,211,359.5,210.7z M344.9,201.3L344.9,201.3l-0.2-0.1
		c0,0,0,0,0,0c-1.7-1.2-3.2-2.6-4-4.6c-0.6-1.7-0.9-3.6-1.3-5.4c0-0.4,0-0.8-0.1-1.1c-0.2,0-0.3,0-0.4-0.1c0.1,0,0.2,0.1,0.4,0.1
		c0-3,0-6,0-9c0-0.4,0-0.7,0.1-1.1c-0.1-0.4-0.2-0.9-0.2-1.3c0,0.4,0.1,0.8,0.2,1.3c0.3-1.6,0.7-3.2,1-4.7c0.1-0.2,0.2-0.4,0.2-0.7
		c0,0,0,0,0,0c0.9-1.8,2.2-3.2,3.9-4.3c1.1-0.3,2.2-0.6,3.3-1c0.2,0,0.4,0,0.6,0l0,0c0.5,0,1.1,0,1.6,0c0.2,0,0.4,0,0.6,0
		c3.4,0.5,6,2.2,7.5,5.4c0,0,0,0,0,0c0,0,0,0,0,0c0,0,0,0,0,0l0,0c1.5,4.3,1.4,8.8,1.3,13.2c-0.1,4.3-1,10.3-3.6,12.1
		C354.3,201.2,347.6,202.9,344.9,201.3z"/>
</g>
</svg>
