<?xml version="1.0" encoding="utf-8"?>
<!-- Generator: Adobe Illustrator 25.0.1, SVG Export Plug-In . SVG Version: 6.00 Build 0)  -->
<svg version="1.1" id="Layer_1" xmlns="http://www.w3.org/2000/svg" xmlns:xlink="http://www.w3.org/1999/xlink" x="0px" y="0px"
	 viewBox="0 0 400 400" style="enable-background:new 0 0 400 400;" xml:space="preserve">
<g>
	<path d="M130.8,162.1c-2.7-4.6-8.2-8-15.7-8c-12.5,0-22.5,10-22.5,26.1c0,16.1,10,26.3,22.5,26.3c7.5,0,12.9-3.6,15.7-8v7.2
		c0,8.6-4.7,11.7-10.6,11.7c-5.4,0-9.2-2.5-10.2-6.3H94.5c1.4,12.1,11.2,19.8,26.4,19.8c17.6,0,25.5-11.6,25.5-25.2v-50.9h-15.6
		V162.1z M119.7,192.9c-5.9,0-11.1-4.6-11.1-12.7c0-8.1,5.3-12.5,11.1-12.5c5.9,0,11.1,4.5,11.1,12.6
		C130.8,188.5,125.5,192.9,119.7,192.9z"/>
	<path d="M192.9,162.1c-2.7-4.5-8.1-8-15.7-8c-12.5,0-22.5,10-22.5,26.1s10,26.3,22.4,26.3c7.6,0,13-3.5,15.8-8v7.2h15.6v-51h-15.6
		V162.1z M181.7,192.9c-5.8,0-11.1-4.6-11.1-12.7c0-8.1,5.3-12.5,11.1-12.5c5.9,0,11.1,4.5,11.1,12.6
		C192.9,188.5,187.6,192.9,181.7,192.9z"/>
	<rect x="219.8" y="138.2" width="15.6" height="67.6"/>
	<path d="M281.8,162.1c-2.7-4.6-8.2-8-15.7-8c-12.5,0-22.5,10-22.5,26.1c0,16.1,10,26.3,22.5,26.3c7.5,0,12.9-3.6,15.7-8v7.2
		c0,8.6-4.7,11.7-10.6,11.7c-5.4,0-9.2-2.5-10.2-6.3h-15.4c1.4,12.1,11.2,19.8,26.4,19.8c17.6,0,25.5-11.6,25.5-25.2v-50.9h-15.6
		V162.1z M270.7,192.9c-5.8,0-11.1-4.6-11.1-12.7c0-8.1,5.3-12.5,11.1-12.5h0c5.9,0,11.1,4.5,11.1,12.6
		C281.8,188.5,276.5,192.9,270.7,192.9z"/>
	<path d="M343.9,162.1c-2.7-4.5-8.1-8-15.7-8c-12.5,0-22.5,10-22.5,26.1s10,26.3,22.4,26.3c7.6,0,13-3.5,15.8-8v7.2h15.6v-51h-15.6
		V162.1z M332.8,192.9c-5.9,0-11.1-4.6-11.1-12.7c0-8.1,5.3-12.5,11.1-12.5c5.9,0,11.1,4.5,11.1,12.6
		C343.9,188.5,338.6,192.9,332.8,192.9z"/>
	<rect x="370.9" y="138.2" width="15.6" height="67.6"/>
	<path d="M21.5,253.8c5.1,5.1,12.1,8,19.3,8c7.2,0,14.2-2.9,19.3-8c5.1-5.1,8-12.1,8-19.3H13.5C13.5,241.7,16.4,248.7,21.5,253.8z"
		/>
	<path d="M60.9,221c2.4,0,4.9-0.2,7.3-0.7v-71.4c-2.4-0.5-4.8-0.7-7.3-0.7c-9.7,0-18.9,3.8-25.8,10.7c-6.8,6.8-10.7,16.1-10.7,25.8
		c0,9.7,3.8,18.9,10.7,25.8C41.9,217.2,51.2,221,60.9,221z"/>
</g>
</svg>
