<?xml version="1.0" encoding="utf-8"?>
<!-- Generator: Adobe Illustrator 28.1.0, SVG Export Plug-In . SVG Version: 6.00 Build 0)  -->
<svg version="1.1" id="Layer_1" xmlns="http://www.w3.org/2000/svg" xmlns:xlink="http://www.w3.org/1999/xlink" x="0px" y="0px"
	 viewBox="0 0 400 400" style="enable-background:new 0 0 400 400;" xml:space="preserve">
<g>
	<path d="M126.9,191c0,0.4,0.1,0.6,0.4,0.6c0.3,0.1,1,0.2,2.1,0.4v8.6H116V192c1.2-0.2,1.9-0.4,2.1-0.4c0.2-0.1,0.4-0.3,0.4-0.6
		v-1.5h-8.4v1.5c0,0.4,0.1,0.6,0.4,0.6s1,0.2,2.1,0.4v19.8l-2,0.4c-0.3,0.1-0.5,0.3-0.5,0.6v1.5h8.4v-1.5c0-0.4-0.8-0.7-2.5-1V203
		h13.4v8.8l-2,0.4c-0.3,0.1-0.5,0.3-0.5,0.6v1.5h8.4v-1.5c0-0.4-0.1-0.6-0.4-0.6c-0.3-0.1-1-0.2-2.1-0.4V192l2-0.4
		c0.4-0.1,0.5-0.3,0.5-0.6v-1.5h-8.4V191z"/>
	<path d="M152.8,212.2c-0.2,0-1.2-0.2-1.7-0.3v-8.8c0-1-0.1-1.9-0.4-2.7c-0.3-0.8-0.7-1.5-1.2-2.1c-0.5-0.6-1.2-1-1.9-1.4
		c-0.8-0.3-1.6-0.5-2.6-0.5c-1.4,0-2.6,0.2-3.7,0.7c-1.1,0.5-2.2,1.2-3.1,2.1l0.6,1c0.1,0.2,0.2,0.3,0.4,0.4
		c0.2,0.1,0.3,0.2,0.5,0.2c0.3,0,0.5-0.1,0.8-0.3c0.3-0.2,0.6-0.4,1-0.6c0.4-0.2,0.8-0.5,1.3-0.6c0.5-0.2,1.1-0.3,1.9-0.3
		c1.1,0,2,0.4,2.6,1.1c0.6,0.7,0.9,1.7,0.9,3.1v1.4c-2,0-3.7,0.2-5.1,0.5c-1.4,0.3-2.5,0.7-3.3,1.2c-0.9,0.5-1.5,1.1-1.9,1.7
		c-0.4,0.6-0.6,1.3-0.6,2c0,0.8,0.1,1.5,0.4,2.1c0.3,0.6,0.6,1.1,1.1,1.5c0.4,0.4,1,0.7,1.6,0.9c0.6,0.2,1.2,0.3,1.9,0.3
		c0.7,0,1.3-0.1,1.8-0.2c0.6-0.1,1.1-0.3,1.6-0.5c0.5-0.2,0.9-0.5,1.4-0.8c0.4-0.3,0.9-0.7,1.4-1.1l0.3,1.6c0.1,0.3,0.2,0.5,0.4,0.6
		c0.2,0.1,0.4,0.1,0.7,0.1h1.1h0.3h2.2v-1.5C153.3,212.5,153.1,212.3,152.8,212.2z M148,210.1c-0.3,0.4-0.7,0.7-1.1,1
		c-0.4,0.3-0.7,0.5-1.1,0.7c-0.4,0.2-0.8,0.4-1.3,0.5s-1,0.2-1.5,0.2c-0.4,0-0.8,0-1.1-0.1c-0.3-0.1-0.6-0.3-0.9-0.5
		c-0.3-0.2-0.5-0.5-0.6-0.8c-0.2-0.3-0.2-0.7-0.2-1.2c0-0.5,0.1-0.9,0.4-1.3c0.3-0.4,0.7-0.7,1.4-1c0.6-0.3,1.4-0.5,2.4-0.7
		c1-0.2,2.2-0.3,3.6-0.3V210.1z"/>
	<path d="M162.9,212.2c-0.2,0-0.9-0.2-2-0.4v-23.1h-5.6v1.5c0,0.4,0.2,0.6,0.5,0.6c0.2,0,0.9,0.2,2,0.4v20.5l-2,0.4
		c-0.3,0.1-0.5,0.3-0.5,0.6v1.5h8.1v-1.5C163.5,212.5,163.3,212.3,162.9,212.2z"/>
	<path d="M173,212.2c-0.2,0-0.9-0.2-2-0.4v-23.1h-5.6v1.5c0,0.4,0.2,0.6,0.5,0.6c0.2,0,0.9,0.2,2,0.4v20.5l-2,0.4
		c-0.3,0.1-0.5,0.3-0.5,0.6v1.5h8.1v-1.5C173.5,212.5,173.4,212.3,173,212.2z"/>
	<path d="M203.9,212.2c-0.2,0-0.9-0.2-2-0.4v-8.7c0-2.1-0.5-3.8-1.5-4.9c-0.5-0.6-1.1-1-1.9-1.3c-0.7-0.3-1.6-0.4-2.7-0.4
		c-1.1,0-2.1,0.3-3.1,0.9c-1.1,0.6-1.8,1.6-2.3,2.8c-0.3-1.1-0.9-2-1.6-2.7c-0.7-0.7-1.7-1-2.9-1c-1.8,0-3.5,0.9-5,2.7l-0.2-1.8
		c-0.1-0.4-0.4-0.6-0.8-0.6H178h-2.5v1.5c0,0.4,0.2,0.6,0.5,0.6c0.2,0,0.9,0.2,2,0.4v12.5l-2,0.4c-0.3,0.1-0.5,0.3-0.5,0.6v1.5h8.1
		v-1.5c0-0.4-0.2-0.6-0.5-0.6c-0.1,0-0.4-0.1-1.1-0.2l-0.9-0.2v-10.6c1.2-1.5,2.5-2.3,3.9-2.3c2.2,0,3.3,1.4,3.3,4.2v11.2h5.6v-1.5
		c0-0.4-0.2-0.6-0.5-0.6c-1.1-0.2-1.8-0.4-2-0.4v-8.7c0-1.3,0.4-2.4,1.1-3.1c0.7-0.7,1.6-1.1,2.7-1.1c1.1,0,2,0.4,2.6,1.1
		s0.9,1.8,0.9,3.1v11.2h5.6v-1.5C204.4,212.5,204.2,212.3,203.9,212.2z"/>
	<path d="M221.7,212.2c-0.2,0-1.2-0.2-1.7-0.3v-8.8c0-1-0.1-1.9-0.4-2.7c-0.3-0.8-0.7-1.5-1.2-2.1s-1.2-1-1.9-1.4
		c-0.8-0.3-1.6-0.5-2.6-0.5c-1.4,0-2.6,0.2-3.7,0.7c-1.1,0.5-2.2,1.2-3.1,2.1l0.6,1c0.1,0.2,0.2,0.3,0.4,0.4
		c0.2,0.1,0.3,0.2,0.5,0.2c0.3,0,0.5-0.1,0.8-0.3c0.3-0.2,0.6-0.4,1-0.6c0.4-0.2,0.8-0.5,1.3-0.6c0.5-0.2,1.1-0.3,1.9-0.3
		c1.1,0,2,0.4,2.6,1.1c0.6,0.7,0.9,1.7,0.9,3.1v1.4c-2,0-3.7,0.2-5.1,0.5c-1.4,0.3-2.5,0.7-3.3,1.2c-0.9,0.5-1.5,1.1-1.9,1.7
		c-0.4,0.6-0.6,1.3-0.6,2c0,0.8,0.1,1.5,0.4,2.1c0.3,0.6,0.6,1.1,1.1,1.5c0.4,0.4,1,0.7,1.6,0.9c0.6,0.2,1.2,0.3,1.9,0.3
		c0.7,0,1.3-0.1,1.8-0.2c0.6-0.1,1.1-0.3,1.6-0.5c0.5-0.2,1-0.5,1.4-0.8c0.4-0.3,0.9-0.7,1.4-1.1l0.3,1.6c0.1,0.3,0.2,0.5,0.4,0.6
		s0.4,0.1,0.7,0.1h1.1h0.3h2.2v-1.5C222.2,212.5,222,212.3,221.7,212.2z M217,210.1c-0.3,0.4-0.7,0.7-1.1,1
		c-0.4,0.3-0.7,0.5-1.1,0.7c-0.4,0.2-0.8,0.4-1.3,0.5c-0.5,0.1-1,0.2-1.5,0.2c-0.4,0-0.8,0-1.1-0.1c-0.3-0.1-0.6-0.3-0.9-0.5
		c-0.3-0.2-0.5-0.5-0.6-0.8c-0.2-0.3-0.2-0.7-0.2-1.2c0-0.5,0.1-0.9,0.4-1.3c0.3-0.4,0.7-0.7,1.4-1c0.6-0.3,1.4-0.5,2.4-0.7
		c1-0.2,2.2-0.3,3.6-0.3V210.1z"/>
	<path d="M229.8,200.4l-0.2-2.7c0-0.3-0.1-0.5-0.3-0.7c-0.1-0.1-0.4-0.2-0.7-0.2h-1.8h-2.5v1.5c0,0.4,0.2,0.6,0.5,0.6
		c0.2,0,0.9,0.2,2,0.4v12.5l-2,0.4c-0.3,0.1-0.5,0.3-0.5,0.6v1.5h8.1v-1.5c0-0.4-0.2-0.6-0.5-0.6c-1-0.2-1.7-0.3-2-0.4v-8.7
		c1-2.4,2.5-3.7,4.5-3.7c0.6,0,1.1,0.1,1.4,0.2c0.3,0.1,0.6,0.2,0.8,0.2c0.2,0,0.4-0.1,0.5-0.4l0.4-2.3c-0.7-0.4-1.5-0.6-2.4-0.6
		C232.8,196.5,231.1,197.8,229.8,200.4z"/>
	<path d="M256.8,212.2c-0.1,0-0.5-0.1-1.1-0.2l-0.9-0.2l-4.9-6.2c-0.3-0.5-0.6-0.8-1-1.1c0.3-0.2,0.7-0.5,1-0.9l4.1-4.4
		c1.1-0.2,1.9-0.4,2.2-0.4c0.3-0.1,0.4-0.3,0.4-0.6v-1.5h-0.2h-2.8h-4.3v1.5c0,0.4,0.2,0.6,0.5,0.6c0.1,0,0.3,0.1,0.6,0.1
		c0.1,0,0.3,0,0.4,0.1l-4,4.3c-0.3,0.3-0.7,0.5-1.1,0.5h-0.8v-15.1h-3.1h-2.5v1.5c0,0.4,0.2,0.6,0.5,0.6c0.2,0,0.9,0.2,2,0.4v20.5
		l-2,0.4c-0.3,0.1-0.5,0.3-0.5,0.6v1.5h8.1v-1.5c0-0.4-0.2-0.6-0.5-0.6c-1.2-0.2-1.9-0.4-2-0.4V206h0.9c0.3,0,0.6,0,0.8,0.1
		c0.2,0.1,0.3,0.2,0.5,0.5l5.8,7.2c0.3,0.4,0.7,0.6,1.2,0.6h3.3v-1.5C257.3,212.5,257.1,212.3,256.8,212.2z"/>
	<path d="M278.8,201.2c-0.8-0.4-2.3-0.9-4.4-1.6c-0.7-0.2-1.4-0.5-1.9-0.9c-1.3-0.7-1.9-1.7-1.9-2.9c0-1.1,0.4-2.1,1.2-2.7
		c0.8-0.8,2-1.1,3.4-1.1c1.2,0,2.5,0.2,4.1,0.7c0.2,2,0.3,3,0.3,3.1c0.1,0.4,0.3,0.6,0.7,0.6h1.7v-5.7c-2.4-0.9-4.7-1.4-7-1.4
		c-2.3,0-4.1,0.7-5.6,2.1c-1.3,1.3-2,2.9-2,4.7c0,2,0.6,3.5,1.9,4.6c0.6,0.5,1.2,0.9,1.9,1.2c0.7,0.3,2.2,0.8,4.4,1.5
		c0.7,0.2,1.3,0.5,1.9,0.8c1.2,0.7,1.9,1.7,1.9,3.1c0,1.4-0.4,2.5-1.3,3.3c-0.4,0.4-1,0.7-1.6,0.9c-0.6,0.2-1.5,0.3-2.6,0.3
		c-1.1,0-2.5-0.3-4.2-1c0,0,0-0.5-0.1-1.5c-0.1-1-0.1-1.6-0.2-1.7c-0.1-0.4-0.3-0.6-0.7-0.6H267v6.2l1,0.3c0.7,0.2,1.6,0.4,2.8,0.7
		c1.2,0.2,2.3,0.3,3.4,0.3c2.6,0,4.6-0.8,6.2-2.3c1.4-1.4,2.2-3.3,2.2-5.6C282.6,204.2,281.3,202.3,278.8,201.2z"/>
	<path d="M297.5,198.5c-0.6-0.7-1.4-1.2-2.3-1.5s-1.9-0.5-2.9-0.5c-1.3,0-2.4,0.2-3.4,0.7c-1,0.4-1.9,1.1-2.6,1.8
		c-0.7,0.8-1.2,1.7-1.6,2.8c-0.4,1.1-0.6,2.2-0.6,3.4c0,1.5,0.2,2.9,0.6,4c0.4,1.2,1,2.2,1.7,2.9c0.7,0.8,1.6,1.4,2.7,1.8
		c1,0.4,2.1,0.6,3.4,0.6c0.6,0,1.3-0.1,1.9-0.2c0.6-0.1,1.3-0.3,1.9-0.5c0.6-0.2,1.2-0.5,1.7-0.8c0.5-0.3,1-0.7,1.4-1.2l-0.9-1.1
		c-0.1-0.2-0.3-0.3-0.6-0.3c-0.2,0-0.4,0.1-0.7,0.3c-0.3,0.2-0.6,0.4-1,0.6c-0.4,0.2-0.9,0.4-1.5,0.6c-0.6,0.2-1.2,0.3-2,0.3
		c-0.8,0-1.6-0.1-2.3-0.4c-0.7-0.3-1.3-0.7-1.7-1.2c-0.5-0.6-0.9-1.2-1.1-2.1c-0.3-0.8-0.4-1.8-0.5-2.9h11.7c0.3,0,0.5-0.1,0.6-0.2
		c0.1-0.2,0.2-0.5,0.2-1c0-1.3-0.2-2.4-0.5-3.3C298.7,200,298.2,199.2,297.5,198.5z M287.3,203.6c0.2-1.5,0.7-2.7,1.6-3.6
		s2-1.3,3.5-1.3c0.7,0,1.3,0.1,1.9,0.4c0.6,0.2,1,0.6,1.4,1c0.4,0.4,0.7,1,0.9,1.5c0.2,0.6,0.3,1.3,0.3,2H287.3z"/>
	<path d="M307.1,200.4l-0.2-2.7c0-0.3-0.1-0.5-0.3-0.7c-0.1-0.1-0.4-0.2-0.7-0.2h-1.8h-2.5v1.5c0,0.4,0.2,0.6,0.5,0.6
		c0.2,0,0.9,0.2,2,0.4v12.5l-2,0.4c-0.3,0.1-0.5,0.3-0.5,0.6v1.5h8.1v-1.5c0-0.4-0.2-0.6-0.5-0.6c-1-0.2-1.7-0.3-2-0.4v-8.7
		c1-2.4,2.5-3.7,4.5-3.7c0.6,0,1.1,0.1,1.4,0.2c0.3,0.1,0.6,0.2,0.8,0.2s0.4-0.1,0.5-0.4l0.4-2.3c-0.7-0.4-1.5-0.6-2.4-0.6
		C310.1,196.5,308.3,197.8,307.1,200.4z"/>
	<path d="M327.7,196.8v1.5c0,0.4,0.2,0.6,0.5,0.6c1.1,0.2,1.7,0.3,2,0.4l-3.8,9.4c-0.2,0.5-0.4,1.4-0.7,2.5c-0.2-1.1-0.4-2-0.6-2.5
		l-3.7-9.5c1.1-0.2,1.7-0.3,1.9-0.4c0.3-0.1,0.5-0.3,0.5-0.6v-1.5H316v1.5c0,0.4,0.2,0.6,0.5,0.6c0,0,0.3,0.1,0.7,0.1
		c0.4,0.1,0.8,0.2,1,0.2l6.2,15.1h2.8l6.2-15.1c1-0.2,1.6-0.3,1.7-0.3c0.3-0.1,0.5-0.3,0.5-0.6v-1.5h-1.2H327.7z"/>
	<path d="M345.2,212.2c-0.3-0.1-2-0.4-2-0.4v-15.1h-5.6v1.5c0,0.3,0.2,0.6,0.5,0.6c0.3,0.1,2,0.4,2,0.4v12.5c0,0-1.7,0.3-2,0.4
		c-0.3,0.1-0.5,0.3-0.5,0.6v1.5h8.1v-1.5C345.8,212.6,345.5,212.3,345.2,212.2z"/>
	<path d="M340.2,192.8c0.2,0.2,0.4,0.4,0.7,0.5c0.3,0.1,0.5,0.2,0.8,0.2c0.3,0,0.6-0.1,0.9-0.2c0.3-0.1,0.5-0.3,0.7-0.5
		c0.2-0.2,0.4-0.4,0.5-0.7c0.1-0.3,0.2-0.5,0.2-0.8c0-0.3-0.1-0.6-0.2-0.9c-0.1-0.3-0.3-0.5-0.5-0.7c-0.2-0.2-0.4-0.4-0.7-0.5
		c-0.3-0.1-0.6-0.2-0.9-0.2c-0.3,0-0.6,0.1-0.8,0.2c-0.3,0.1-0.5,0.3-0.7,0.5c-0.2,0.2-0.4,0.4-0.5,0.7c-0.1,0.3-0.2,0.6-0.2,0.9
		c0,0.3,0.1,0.6,0.2,0.8C339.8,192.3,340,192.6,340.2,192.8z"/>
	<path d="M360.2,210.5c-0.2,0-0.5,0.1-0.7,0.3c-1.1,1-2.4,1.5-3.9,1.5c-1.6,0-2.8-0.6-3.7-1.7c-0.9-1.2-1.4-2.8-1.4-4.9
		c0-2.1,0.4-3.7,1.3-4.9c0.5-0.6,1-1,1.6-1.3c0.6-0.3,1.3-0.4,1.9-0.5c0.6,0,1.3,0,2,0.1c0.3,0,0.7,0.2,1.3,0.3c0,0,0,0.4,0.1,1.2
		c0.1,0.7,0.1,1.2,0.1,1.3c0.1,0.3,0.3,0.5,0.6,0.5h1.4v-4.6c-2.1-0.9-3.9-1.3-5.2-1.3c-2.6,0-4.7,0.9-6.2,2.6
		c-1.4,1.6-2.1,3.8-2.1,6.5c0,2.8,0.7,5,2.2,6.7c1.4,1.6,3.3,2.4,5.5,2.4c2.9,0,5-0.9,6.5-2.7l-0.9-1.1
		C360.6,210.6,360.5,210.5,360.2,210.5z"/>
	<path d="M377.4,198.5c-0.6-0.7-1.4-1.2-2.3-1.5s-1.9-0.5-2.9-0.5c-1.3,0-2.4,0.2-3.4,0.7c-1,0.4-1.9,1.1-2.6,1.8
		c-0.7,0.8-1.2,1.7-1.6,2.8c-0.4,1.1-0.6,2.2-0.6,3.4c0,1.5,0.2,2.9,0.6,4c0.4,1.2,1,2.2,1.7,2.9c0.7,0.8,1.6,1.4,2.7,1.8
		c1,0.4,2.1,0.6,3.4,0.6c0.6,0,1.3-0.1,1.9-0.2s1.3-0.3,1.9-0.5c0.6-0.2,1.2-0.5,1.7-0.8c0.5-0.3,1-0.7,1.4-1.2l-0.9-1.1
		c-0.1-0.2-0.3-0.3-0.6-0.3c-0.2,0-0.4,0.1-0.7,0.3c-0.3,0.2-0.6,0.4-1,0.6c-0.4,0.2-0.9,0.4-1.5,0.6c-0.6,0.2-1.2,0.3-2,0.3
		c-0.8,0-1.6-0.1-2.3-0.4c-0.7-0.3-1.3-0.7-1.7-1.2c-0.5-0.6-0.9-1.2-1.1-2.1c-0.3-0.8-0.4-1.8-0.5-2.9h11.7c0.3,0,0.5-0.1,0.6-0.2
		c0.1-0.2,0.2-0.5,0.2-1c0-1.3-0.2-2.4-0.5-3.3C378.6,200,378.1,199.2,377.4,198.5z M367.1,203.6c0.2-1.5,0.7-2.7,1.6-3.6
		s2-1.3,3.5-1.3c0.7,0,1.3,0.1,1.9,0.4c0.6,0.2,1,0.6,1.4,1c0.4,0.4,0.7,1,0.9,1.5c0.2,0.6,0.3,1.3,0.3,2H367.1z"/>
	<path d="M392.4,205.9c-0.4-0.3-0.9-0.6-1.5-0.9c-0.5-0.2-1.1-0.4-1.7-0.6c-0.6-0.2-1.3-0.4-2.2-0.7c-0.9-0.3-1.5-0.7-2-1.2
		c-0.3-0.3-0.4-0.7-0.4-1.3c0-0.6,0.3-1.1,0.9-1.6c0.6-0.5,1.4-0.7,2.4-0.7h0c0.8,0,1.7,0.1,2.7,0.4c0.1,1.5,0.2,2.2,0.2,2.3
		c0.1,0.3,0.3,0.5,0.6,0.5h1.4v-3.3v-1.2c-1.8-0.6-3.4-0.9-4.6-0.9c-2.1,0-3.8,0.5-5,1.5c-1.1,1-1.6,2.1-1.6,3.6
		c0,1.4,0.5,2.5,1.4,3.3c0.4,0.4,1,0.7,1.6,0.9c0.6,0.3,1.7,0.6,3.2,1.1c0.6,0.2,1,0.4,1.5,0.6c0.4,0.2,0.8,0.5,1,0.8
		c0.3,0.3,0.4,0.8,0.4,1.5c0,0.7-0.3,1.3-0.9,1.8c-0.7,0.6-1.6,0.9-2.7,0.9c-1.4,0-2.6-0.2-3.6-0.7c-0.1-1.4-0.2-2.1-0.2-2.2
		c-0.1-0.3-0.2-0.4-0.5-0.4h-1.2v4.6c1.9,0.6,3.8,1,5.7,1c1.9,0,3.4-0.6,4.6-1.6c1.1-1,1.7-2.4,1.7-4
		C393.9,207.7,393.4,206.7,392.4,205.9z"/>
	<path d="M50.8,155.4c-24.7,0-44.6,20-44.6,44.6s20,44.6,44.6,44.6s44.6-20,44.6-44.6S75.4,155.4,50.8,155.4z M15.9,217.8v0.6
		c-2.9-5.5-4.5-11.7-4.5-18.3c0-6.7,1.7-12.9,4.6-18.4c0.1,0.3,0.3,0.5,0.6,0.6c0.5,0.1,1.6,0.3,3.5,0.7V216l-3.3,0.7
		C16.2,216.8,15.9,217.2,15.9,217.8z M65.9,197.4c0.9,0.8,2,1.5,3.2,2c1.2,0.5,3.6,1.4,7.3,2.5c1.2,0.4,2.2,0.9,3.2,1.4
		c2.1,1.2,3.1,2.9,3.1,5.1c0,2.3-0.7,4.1-2.2,5.5c-0.7,0.7-1.6,1.2-2.7,1.6c-1,0.4-2.5,0.6-4.3,0.6c-1.8,0-4.2-0.5-7-1.6
		c0,0-0.1-0.9-0.2-2.5c-0.1-1.7-0.2-2.6-0.3-2.9c-0.1-0.7-0.5-1-1.2-1h-2.8v10.4l1.7,0.6c1.1,0.4,2.7,0.7,4.7,1.1
		c2,0.4,3.9,0.6,5.7,0.6c4.3,0,7.7-1.3,10.3-3.8c2.4-2.4,3.6-5.5,3.6-9.3c0-4.4-2.1-7.5-6.3-9.4c-1.4-0.6-3.8-1.5-7.3-2.6
		c-1.2-0.4-2.3-0.9-3.2-1.4c-2.1-1.2-3.1-2.8-3.1-4.9c0-1.9,0.7-3.4,2-4.6c1.4-1.3,3.3-1.9,5.8-1.9c2,0,4.3,0.4,6.9,1.1
		c0.3,3.3,0.4,5.1,0.5,5.2c0.1,0.7,0.5,1,1.2,1H87v-5.6c2,4.7,3.2,10,3.2,15.4c0,21.7-17.7,39.4-39.4,39.4
		c-14.3,0-26.9-7.7-33.8-19.2h12.9v-2.5c0-0.6-1.4-1.2-4.2-1.7v-14.7h22.4V216l-3.3,0.7c-0.6,0.1-0.9,0.5-0.9,1.1v2.5H58v-2.5
		c0-0.6-0.2-0.9-0.7-1c-0.5-0.1-1.6-0.3-3.5-0.7v-33.1l3.3-0.7c0.6-0.1,0.9-0.5,0.9-1.1v-2.5H44v2.5c0,0.6,0.2,0.9,0.7,1
		c0.5,0.1,1.6,0.3,3.5,0.7v14.3H25.7v-14.3c2-0.4,3.1-0.6,3.6-0.7c0.4-0.1,0.6-0.4,0.6-1v-2.5H17.7c7-10.9,19.2-18.1,33.1-18.1
		c14.3,0,26.8,7.7,33.8,19.1c-3.1-1-6.2-1.5-9.2-1.5c-3.8,0-6.9,1.2-9.3,3.5c-2.2,2.2-3.3,4.8-3.3,7.9
		C62.7,192.9,63.8,195.5,65.9,197.4z"/>
</g>
</svg>
