<?xml version="1.0" encoding="utf-8"?>
<!-- Generator: Adobe Illustrator 25.0.1, SVG Export Plug-In . SVG Version: 6.00 Build 0)  -->
<svg version="1.1" id="Layer_1" xmlns="http://www.w3.org/2000/svg" xmlns:xlink="http://www.w3.org/1999/xlink" x="0px" y="0px"
	 viewBox="0 0 400 400" style="enable-background:new 0 0 400 400;" xml:space="preserve">
<style type="text/css">
	.st0{fill:#0C0C0C;}
</style>
<g>
	<path class="st0" d="M38.7,291.3c1.1-1.4,1.6-3.2,1.6-5.3c0-2.8-1-5.1-2.9-6.7c-1.9-1.6-4.6-2.4-8-2.4h-10v26.7h2.8v-8.5h7.2
		c0.7,0,1.5,0,2.1-0.1l6.1,8.6h3.1l-6.5-9.2C36.2,293.8,37.7,292.8,38.7,291.3z M29.3,292.7h-7.1v-13.4h7.1c2.6,0,4.7,0.6,6.1,1.7
		c1.4,1.2,2.1,2.8,2.1,5c0,2.1-0.7,3.8-2.1,4.9C34,292.1,32,292.7,29.3,292.7z"/>
	<polygon class="st0" points="59.5,291.2 73.4,291.2 73.4,288.8 59.5,288.8 59.5,279.3 75,279.3 75,276.9 56.7,276.9 56.7,303.6 
		75.6,303.6 75.6,301.2 59.5,301.2 	"/>
	<path class="st0" d="M105,290.5c-1.2-0.5-2.8-0.9-4.8-1.4c-1.7-0.4-3-0.8-4-1.1c-1-0.3-1.8-0.8-2.4-1.5c-0.6-0.6-1-1.5-1-2.6
		c0-1.4,0.6-2.6,1.8-3.5c1.2-0.9,2.9-1.4,5.3-1.4c1.2,0,2.5,0.2,3.7,0.6c1.3,0.4,2.5,0.9,3.6,1.7l1-2.3c-1.1-0.7-2.3-1.3-3.8-1.7
		c-1.5-0.4-3-0.6-4.5-0.6c-2.2,0-4,0.3-5.5,1c-1.5,0.7-2.6,1.5-3.3,2.7c-0.7,1.1-1.1,2.3-1.1,3.7c0,1.7,0.4,3,1.3,3.9
		c0.9,1,1.9,1.7,3.1,2.2c1.2,0.5,2.8,1,4.8,1.5c1.7,0.4,3,0.8,3.9,1.1c0.9,0.3,1.7,0.8,2.4,1.5c0.6,0.6,1,1.5,1,2.6
		c0,1.4-0.6,2.5-1.8,3.4c-1.2,0.9-3,1.3-5.4,1.3c-1.7,0-3.4-0.3-5-0.9c-1.6-0.6-2.9-1.4-3.9-2.3l-1.1,2.2c1,1,2.4,1.9,4.2,2.5
		c1.8,0.6,3.7,1,5.7,1c2.2,0,4-0.3,5.5-1c1.5-0.6,2.6-1.5,3.3-2.6c0.7-1.1,1.1-2.3,1.1-3.7c0-1.6-0.4-2.9-1.3-3.9
		C107.2,291.7,106.2,291,105,290.5z"/>
	<path class="st0" d="M144,278.4c-2.1-1.2-4.5-1.8-7.2-1.8s-5,0.6-7.2,1.8c-2.2,1.2-3.8,2.8-5,4.9c-1.2,2.1-1.8,4.4-1.8,6.9
		c0,2.6,0.6,4.9,1.8,6.9c1.2,2.1,2.9,3.7,5,4.9c2.2,1.2,4.5,1.8,7.2,1.8s5-0.6,7.2-1.8c2.1-1.2,3.8-2.8,5-4.9c1.2-2.1,1.8-4.4,1.8-7
		c0-2.6-0.6-4.9-1.8-7C147.8,281.2,146.1,279.6,144,278.4z M146.6,295.9c-1,1.7-2.3,3-4,4c-1.7,1-3.6,1.4-5.7,1.4
		c-2.1,0-4-0.5-5.7-1.4c-1.7-1-3.1-2.3-4-4c-1-1.7-1.5-3.6-1.5-5.7c0-2.1,0.5-4,1.5-5.7c1-1.7,2.3-3,4-4c1.7-1,3.6-1.4,5.7-1.4
		c2.1,0,4,0.5,5.7,1.4c1.7,1,3,2.3,4,4c1,1.7,1.5,3.6,1.5,5.7C148.1,292.3,147.6,294.2,146.6,295.9z"/>
	<path class="st0" d="M186.3,291.3c1.1-1.4,1.6-3.2,1.6-5.3c0-2.8-1-5.1-2.9-6.7c-1.9-1.6-4.6-2.4-8-2.4h-10v26.7h2.8v-8.5h7.2
		c0.7,0,1.5,0,2.1-0.1l6.1,8.6h3.1l-6.5-9.2C183.7,293.8,185.2,292.8,186.3,291.3z M176.9,292.7h-7.1v-13.4h7.1
		c2.6,0,4.7,0.6,6.1,1.7c1.4,1.2,2.1,2.8,2.1,5c0,2.1-0.7,3.8-2.1,4.9C181.5,292.1,179.5,292.7,176.9,292.7z"/>
	<polygon class="st0" points="199.7,279.3 209.1,279.3 209.1,303.6 211.9,303.6 211.9,279.3 221.3,279.3 221.3,276.9 199.7,276.9 	
		"/>
	<polygon class="st0" points="261.5,300 253.6,276.9 251,276.9 243,299.9 235.3,276.9 232.4,276.9 241.4,303.6 244.4,303.6 
		252.2,280.8 260,303.6 263,303.6 272,276.9 269.3,276.9 	"/>
	<polygon class="st0" points="289.7,291.2 303.6,291.2 303.6,288.8 289.7,288.8 289.7,279.3 305.2,279.3 305.2,276.9 286.9,276.9 
		286.9,303.6 305.8,303.6 305.8,301.2 289.7,301.2 	"/>
	<path class="st0" d="M330.1,276.9l-12.2,26.7h2.9l3.2-7.1h14.9l3.2,7.1h3l-12.2-26.7H330.1z M325.1,294.2l6.4-14.4l6.4,14.4H325.1z
		"/>
	<path class="st0" d="M378.6,291.3c1.1-1.4,1.6-3.2,1.6-5.3c0-2.8-1-5.1-2.9-6.7c-1.9-1.6-4.6-2.4-8-2.4h-10v26.7h2.8v-8.5h7.2
		c0.7,0,1.5,0,2.1-0.1l6.1,8.6h3.1l-6.5-9.2C376,293.8,377.6,292.8,378.6,291.3z M369.2,292.7h-7.1v-13.4h7.1c2.6,0,4.7,0.6,6.1,1.7
		c1.4,1.2,2.1,2.8,2.1,5c0,2.1-0.7,3.8-2.1,4.9C373.9,292.1,371.8,292.7,369.2,292.7z"/>
	<path class="st0" d="M289.2,248.2c17.7,0,35.3,0,53,0c0.9,0,2.5,0.6,2.5-0.6c0.1-1.6-1.6-0.9-2.5-1c-6.3-0.3-12.3-1.6-17.1-6.1
		c-3.5-3.3-5.8-7.3-7.8-11.5c-7.9-16.8-15-34-22.5-51.1c-11.7-26.7-23.3-53.5-34.9-80.2c-0.4-1-0.9-1.5-2-1.5c-3.3,0-6.6,0.1-10,0
		c-1.4,0-1.5,0.5-1,1.6c1.2,2.5,2.2,5.1,3.5,7.6c0.9,1.7,0.7,3.2,0,4.9c-11.4,26-22.7,52.1-34.1,78.1c-5.8,13.2-11.1,26.6-17.6,39.4
		c-5.5,10.9-13.2,18.8-26.4,18.7c-0.6,0-1.5,0.1-1.4,0.8c0.1,1.2,1.3,0.8,2,0.8c21.3,0,42.6,0,63.9,0c0.8,0,2,0.3,2-0.9
		c0-1.2-1.2-0.9-2-0.9c-3.9-0.1-7.8-0.3-11.7-1c-9.3-1.8-14-7.3-13.9-16.7c0.1-7.2,2.2-14.1,4.2-21c0.4-1.5,1.4-1.3,2.5-1.3
		c12.6,0,25.2,0,37.8,0c10.6,0,21.1,0,31.7,0c2.6,0,5.7-0.9,7.8,0.4c2.1,1.3,2.2,4.6,3.3,7c0,0.1,0.1,0.1,0.1,0.2
		c2.6,7.1,6,14,7.7,21.5c1.1,4.8-0.6,7.8-5.3,9.5c-3.8,1.3-7.7,1.4-11.6,1.6c-0.9,0-2.5-0.3-2.5,0.8
		C286.6,248.8,288.2,248.2,289.2,248.2z M291.9,204.2c-12.2-0.1-24.5,0-36.7,0c-12.1,0-24.2-0.1-36.2,0c-2.2,0-2.6-0.6-1.9-2.6
		c2.7-8.2,5.6-16.4,8.6-24.5c8.1-21.4,16.9-42.6,26-63.6c0.3-0.6,0.2-1.6,1-1.6c1-0.1,0.9,1.1,1.2,1.7
		c13.5,29.3,26.9,58.6,39.5,88.3C294.2,203.8,293.9,204.2,291.9,204.2z"/>
	<path class="st0" d="M160,246.5c-0.1-0.1-0.2-0.3-0.4-0.4c-1.7-2.7-70.4-86.3-72.6-88.4c-0.3-0.4-0.5-1-0.8-1.3
		c-1.5-1.3-1.4-2.4,0.1-3.7c0.9-0.8,25.8-29,29.6-32.9c2.4-2.6,11.9-9.8,14.5-11.5c2.3-1.5,10.7-6.4,22-9.4c2.5-0.7,5.1-0.9,7.6-1.4
		l0,0c0.6-0.3,0.6-0.6,0-0.9c-0.2-0.6-0.7-0.4-1.1-0.4c-19.5,0-39,0-58.6,0c-0.7,0-1.8-0.2-1.7,0.9c0.1,1,1.1,0.8,1.8,0.8
		c4.2-0.1,12.3,0.7,14.9,8.7c1.3,4-0.5,9.6-4.7,15c-0.3,0.4-27.6,32-31.7,37.1c-3.3,3-22.9,25-25.6,28.6c-0.1,0.1-0.2,0.2-0.3,0.4
		c-1.5,0.8-1.9,2.8-3.8,3.5c-0.1-0.7-0.1-1.2-0.1-1.7c0-22.7,0-45.4,0-68.2c0-3.9,0.6-7.7,1.7-11.4c2.3-7.9,7.6-11.8,15.8-11.8
		c0.8,0,1.7,0,2.5,0c0.7,0,1.2-0.3,1.2-1c-0.1-0.7-0.6-0.8-1.2-0.8c-0.4,0-0.8,0-1.1,0c-16.5,0-32.9,0-49.4,0c-0.3,0-0.6,0-0.9,0
		c-0.7,0-1.5-0.1-1.4,1c0.1,1,0.9,0.9,1.5,0.9c1.1,0,2.1,0,3.2,0c6.3,0.1,10.9,3,13.6,8.8c2.1,4.6,2.8,9.6,2.8,14.5
		c0.1,34.2,0.1,68.4,0,102.6c0,3.6-0.6,7.2-1.7,10.7c-2.3,7.8-7.5,11.8-15.6,11.7c-0.9,0-1.8,0-2.7,0c-0.6,0-1.1,0.2-1.1,0.8
		c-0.1,0.8,0.5,1,1.2,1.1c0.5,0,0.9,0,1.4,0c16.3,0,32.6,0,48.9,0c0.5,0,1.1,0,1.6,0c0.6-0.1,1-0.4,1-1c0-0.6-0.5-0.9-1.1-0.9
		c-0.8,0-1.7,0-2.5,0c-9.2,0.4-13.9-4.8-16-12.3c-0.7-2.5-1.1-5.1-1.6-7.7c0-0.2,0-0.4,0-0.6c0-9.6,0.1-19.2,0-28.8
		c0-1.5,0.4-2.5,1.4-3.7c2.4-2.9,23.7-26.9,24.8-28.3c1.2-1.6,2-1.3,3.2,0.1c2.4,2.9,64.2,78.3,65.7,79.7c0.1,0.4,0.4,0.7,0.7,0.8
		c0.2,0.8,0.8,1.4,1.5,1.9c0.3,1,1.1,0.8,1.8,0.8c3.8,0,7.6,0,11.4,0c0.5,0,1.2,0.3,1.3-0.5C161.1,247.2,160.6,246.8,160,246.5z"/>
	<rect x="372.2" y="96.2" class="st0" width="11.5" height="152.1"/>
</g>
</svg>
