<?xml version="1.0" encoding="utf-8"?>
<!-- Generator: Adobe Illustrator 28.1.0, SVG Export Plug-In . SVG Version: 6.00 Build 0)  -->
<svg version="1.1" id="Layer_1" xmlns="http://www.w3.org/2000/svg" xmlns:xlink="http://www.w3.org/1999/xlink" x="0px" y="0px"
	 viewBox="0 0 400 400" style="enable-background:new 0 0 400 400;" xml:space="preserve">
<g>
	<path d="M35.7,172.3C20.4,172.3,8,184.7,8,200c0,15.3,12.4,27.7,27.7,27.7s27.7-12.4,27.7-27.7C63.4,184.7,51,172.3,35.7,172.3z
		 M35.7,221.7c-12,0-21.7-9.7-21.7-21.7c0-12,9.7-21.7,21.7-21.7S57.4,188,57.4,200C57.4,212,47.7,221.7,35.7,221.7z"/>
	<path d="M95,178.3c6.6,0,13.1,3.1,17.1,8.4l4.7-3.7c-5.2-6.7-13.4-10.7-21.9-10.7c-15.3,0-27.7,12.4-27.7,27.7
		c0,15.3,12.4,27.7,27.7,27.7c8.1,0,15.8-3.5,21.1-9.7l-4.6-3.9c-4.1,4.8-10.1,7.6-16.5,7.6c-12,0-21.7-9.7-21.7-21.7
		C73.3,188,83.1,178.3,95,178.3z"/>
	<path d="M290.9,186.7l4.7-3.7c-5.2-6.7-13.4-10.7-21.9-10.7c-15.3,0-27.7,12.4-27.7,27.7c0,15.3,12.4,27.7,27.7,27.7
		c8.1,0,15.8-3.5,21.1-9.7l-4.6-3.9c-4.1,4.8-10.1,7.6-16.5,7.6c-12,0-21.7-9.7-21.7-21.7c0-12,9.7-21.7,21.7-21.7
		C280.4,178.3,286.8,181.4,290.9,186.7z"/>
	<path d="M234.2,221.8c-8.9-2-16.1-8.7-18.6-17.6l-0.1-0.5H210l-0.1,0.5c-2.4,8.9-9.7,15.6-18.6,17.6v-46.5h-6v53.3l3.2-0.3
		c10.2-0.9,19.3-6.8,24.2-15.5c5,8.7,14,14.6,24.2,15.5l3.2,0.3v-53.3h-6V221.8z"/>
	<path d="M172.5,200c0,12-9.7,21.7-21.7,21.7s-21.7-9.7-21.7-21.7v-24.7h-6V200c0,15.3,12.4,27.7,27.7,27.7s27.7-12.4,27.7-27.7
		v-24.7h-6V200z"/>
	<path d="M329.2,172.3c-15.3,0-27.7,12.4-27.7,27.7v25.3h6V200c0-12,9.7-21.7,21.7-21.7c12,0,21.7,9.7,21.7,21.7v25.3h6V200
		C356.9,184.7,344.5,172.3,329.2,172.3z"/>
	<path d="M364.4,200v25.3h6V200c0-12,9.9-21.7,22.1-21.7v-6C377,172.3,364.4,184.7,364.4,200z"/>
	<rect x="318.7" y="197.3" width="21.3" height="6"/>
	<rect x="262.5" y="197.3" width="21.3" height="6"/>
</g>
</svg>
