<?xml version="1.0" encoding="utf-8"?>
<!-- Generator: Adobe Illustrator 25.0.1, SVG Export Plug-In . SVG Version: 6.00 Build 0)  -->
<svg version="1.1" id="Layer_1" xmlns="http://www.w3.org/2000/svg" xmlns:xlink="http://www.w3.org/1999/xlink" x="0px" y="0px"
	 viewBox="0 0 400 400" style="enable-background:new 0 0 400 400;" xml:space="preserve">
<g>
	<path d="M37.5,304.1l-1.3-2l-6.2-9.3c2.4-0.6,4.2-1.5,5.5-2.9c1.3-1.3,1.9-3,1.9-5.1c0-2.3-0.8-3.9-2.4-4.8
		c-0.8-0.4-1.8-0.7-2.8-0.9c-1-0.2-2.1-0.3-3.4-0.3l-2.1,0l-2.4,0.1l-2.6,0.1l-3.9-0.1l-1.6,0v1.4l1.6,0c0.2,0,0.4,0,0.6,0.1
		c0.1,0,0.2,0.1,0.3,0.1c0.1,0.1,0.2,0.1,0.2,0.1c0.3,0.1,0.5,0.4,0.7,0.7c0.2,0.4,0.2,0.9,0.2,1.6V303c0,0.9-0.2,1.5-0.5,1.9
		c-0.4,0.4-0.7,0.6-1,0.6l-0.9,0.1c-0.1,0-0.2,0-0.3,0h-0.5h-0.5v1.4l2.8-0.1l2.7-0.1l2.8,0.1l2.7,0.1v-1.4l-1.2-0.1l-0.9,0
		c-0.3-0.1-0.5-0.1-0.6-0.2c-0.3-0.1-0.5-0.4-0.7-0.7c-0.2-0.4-0.3-0.9-0.3-1.6v-15.3c0.1-0.6,0.1-1.2,0.1-1.9c0-0.5,0-1.3,0-2.5
		c0-0.4,0-0.8,0-1.2c0-0.4,0-0.8,0-1.1c1.4-0.5,2.7-0.8,3.9-0.8c0.5,0,0.8,0,1,0c0.1,0,0.3,0,0.4,0c0.1,0,0.3,0.1,0.4,0.1
		c0.6,0.1,1.1,0.3,1.4,0.4c0.9,0.5,1.6,1.1,2,1.9c0.5,0.8,0.7,1.7,0.7,2.8c0,1.3-0.3,2.4-0.8,3.4c-0.6,1-1.4,1.7-2.3,2.2
		c-1,0.5-2.2,0.8-3.7,0.8l-1.5-0.1l-0.2,0.6c1.4,1.5,2.7,3.2,3.9,5.1l6.4,9.5l2.6-0.2c0.5,0.1,0.9,0.1,1.2,0.1c0.1,0,0.2,0,0.3,0
		h0.5h0.6v-1.4c-0.8-0.1-1.4-0.3-1.9-0.6C38.1,304.8,37.8,304.4,37.5,304.1z"/>
	<path d="M70.6,305.6c-0.3-0.1-0.4-0.2-0.5-0.2c-0.4-0.3-0.7-0.6-0.8-0.8c-0.2-0.4-0.4-0.8-0.6-1.2l-0.5-1.3l-9.4-23.3h-1.3
		l-0.8,2.1l-1,2.4l-1.1,2.6l-5.1,12.3l-1,2.4l-0.9,2.1l-0.8,1.8c-0.3,0.5-0.7,0.9-1.1,1c-0.5,0.1-1.1,0.2-1.9,0.2v1.4l4.4-0.2
		l2.2,0.1l2.2,0.1v-1.4l-2.5-0.2c-0.5,0-0.7-0.3-0.7-0.9c0-0.4,0.2-1,0.5-1.9c0.2-0.7,0.6-1.6,1-2.8l1-2.4h10.8l2.1,5.5
		c0.4,1,0.6,1.6,0.6,1.8c0,0.4-0.1,0.6-0.4,0.6c-0.3,0.1-0.6,0.1-1.1,0.1l-1.8,0v1.4l2.3-0.1l2.7-0.1l2.8,0.1l2.3,0.1v-1.4l-0.8,0
		L70.6,305.6z M52.6,295.9l4.7-11.9l4.7,11.9H52.6z"/>
	<path d="M82.8,279l-1.1,0l-2.7-0.1l-2.8-0.1v1.4l1.6,0c0.3,0,0.7,0.1,1.1,0.2c0.3,0.2,0.6,0.4,0.8,0.8c0.2,0.4,0.2,0.9,0.2,1.6
		v22.3c0,1.6,0,2.8-0.1,3.6c-0.1,0.9-0.3,1.6-0.4,1.9c-0.2,0.5-0.4,0.9-0.8,1c-0.3,0.2-0.8,0.3-1.3,0.3c-0.7,0-1.4-0.2-2.1-0.7
		l-0.4,0.2l0,1.2v0.2v0.2l0,1.4l1,0.1c0.9,0,1.9-0.3,2.7-0.9c0.9-0.5,1.7-1.3,2.4-2.1c0.7-0.9,1.2-1.8,1.6-2.7
		c0.4-0.8,0.6-1.7,0.8-2.7c0.1-1,0.2-2.6,0.2-4.7v-18.8c0-0.6,0.1-1.1,0.2-1.5c0.1-0.4,0.3-0.6,0.6-0.8c0.3-0.1,0.5-0.2,0.7-0.2
		l0.7,0l1.5,0v-1.4l-2.7,0.1L82.8,279z"/>
	<path d="M110.7,302.1l-0.6,2.4c-0.8,0.3-1.6,0.5-2.3,0.6c-0.7,0.1-1.8,0.1-3.3,0.1l-2.7-0.1c-0.5,0-1,0-1.5,0c-0.1,0-0.3,0-0.7,0
		c-0.4,0-0.7,0-0.9,0l0-0.4v-0.4c0-0.1,0-1.1,0-3v-2.8v-4.8c0.7-0.1,1.8-0.2,3.3-0.2l2.2,0l1.5,0.1c0.8,0.1,1.2,0.3,1.4,0.6
		c0.3,0.4,0.4,0.9,0.4,1.5l0.1,0.9v0.7h1.3l-0.1-4.6l0.1-4.6h-1.3v0.7l-0.1,0.9l-0.1,0.7l-0.2,0.5c-0.1,0.3-0.3,0.5-0.7,0.6
		c-0.3,0.1-0.6,0.2-0.8,0.2l-0.9,0.1h-0.7c-0.2,0-0.4,0-0.7,0H102l-2-0.1c-0.2,0-0.4,0-0.7,0h-0.6v-4l0-3.4l0-3.4
		c1.3-0.2,2.9-0.2,4.8-0.2l2,0.1l1.6,0.1c0.8,0.1,1.7,0.3,2.5,0.6c0.1,1.1,0.2,2.3,0.2,3.6h1.3l0-1.8l0.2-1.6
		c0.1-0.5,0.1-0.9,0.2-1.4c0.1-0.2,0.1-0.4,0.2-0.6c0.1-0.2,0.1-0.5,0.2-0.6L109,279l-1.3-0.1l-5.5,0.1l-5.5,0.1l-2.5-0.1l-2.9-0.1
		v1.3l1.6,0c0.5,0.1,0.9,0.2,1.1,0.3c0.3,0.1,0.5,0.4,0.7,0.7c0.2,0.4,0.3,0.9,0.3,1.6V303c0,0.9-0.2,1.5-0.5,1.9
		c-0.4,0.4-0.7,0.6-1,0.6l-0.9,0.1c-0.1,0-0.2,0-0.3,0h-0.5h-0.5v1.4l1.6,0l3.9-0.1l4.8,0.1l3.6,0.1l2.6,0c1.3,0,2.6-0.1,4.1-0.2
		c0-1.9,0.2-4.1,0.5-6.6h-1.3L110.7,302.1z"/>
	<path d="M133.2,292.6c-0.9-0.6-2.1-1-3.7-1.1l-4.8-0.6c-1.6-0.2-2.8-0.7-3.7-1.5c-0.9-0.7-1.3-2-1.3-3.7c0-1.1,0.3-2.1,0.9-2.9
		c0.6-0.9,1.4-1.5,2.3-1.9c0.9-0.4,2.1-0.6,3.5-0.6c3.8,0,5.7,1.3,5.7,3.9v1.6h1.3l0.1-1.9l0.1-1.2c0-0.7,0.2-1.5,0.4-2.3
		c-2.5-1.1-4.9-1.7-7.2-1.7c-0.9,0-1.7,0.1-2.3,0.2c-0.9,0.1-1.5,0.3-2,0.4c-1.3,0.4-2.3,1-3.2,1.7c-0.9,0.8-1.6,1.7-2.1,2.7
		c-0.5,1.1-0.7,2.3-0.7,3.6c0,2.6,0.7,4.4,2.1,5.3c1.3,0.9,3.3,1.5,6.1,1.8c2.7,0.3,4.6,0.7,5.8,1.2c1.3,0.6,1.9,1.9,1.9,3.9
		c0,1.2-0.3,2.3-0.9,3.3c-0.6,1-1.5,1.7-2.6,2.3c-0.6,0.3-1.2,0.5-1.8,0.6c-0.6,0.1-1.3,0.2-2.1,0.2c-1.2,0-2.3-0.2-3.3-0.5
		c-1-0.3-1.8-0.8-2.5-1.3c-0.3-0.3-0.5-0.7-0.6-1c-0.1-0.3-0.1-1-0.1-2.1v-1H117l-0.1,3.4c0,0.2,0,0.5-0.1,0.9v0.1
		c0,0.1,0,0.3,0,0.5c-0.1,0.4-0.1,0.7-0.1,1.1l0.5,0.2c0.3,0.2,0.6,0.3,0.8,0.3l0.3,0.1c0.4,0.1,0.7,0.2,0.9,0.3l1.1,0.3
		c0.1,0,0.3,0.1,0.5,0.1l0.2,0h0.5c0.5,0.1,1.4,0.2,2.5,0.2c1.6,0,3.1-0.2,4.6-0.7c1.4-0.5,2.6-1.2,3.7-2.1c1-0.9,1.8-2,2.4-3.2
		c0.5-1.2,0.8-2.6,0.8-4c0-0.9-0.2-1.9-0.7-2.8C134.4,293.7,133.9,293,133.2,292.6z"/>
	<path d="M165,279l-1.1,0l-2.7-0.1l-1.6,0l-1.1,0v1.4l1.8,0c0.2,0,0.4,0,0.6,0.1l0.6,0.2c0.2,0.1,0.4,0.4,0.6,0.7
		c0.1,0.4,0.2,0.9,0.2,1.6v8.3l-0.8,0.1h-0.5l-3.3,0.1h-3.2l-6.6-0.1l-0.5,0l-0.7,0v-8.3c0-0.6,0.1-1.1,0.2-1.5
		c0.1-0.4,0.3-0.6,0.6-0.8c0.3-0.1,0.5-0.2,0.7-0.2l0.7,0l1.5,0v-1.4l-2.7,0.1l-1.6,0l-1.1,0l-2.7-0.1l-2.8-0.1v1.4l1.6,0
		c0.2,0,0.4,0,0.6,0.1c0.1,0,0.2,0.1,0.3,0.1c0.1,0.1,0.2,0.1,0.2,0.1c0.3,0.1,0.5,0.4,0.7,0.7c0.2,0.4,0.2,0.9,0.2,1.6V303
		c0,0.9-0.2,1.5-0.5,1.9c-0.4,0.4-0.7,0.6-1,0.6l-0.9,0.1c-0.1,0-0.2,0-0.3,0h-0.5h-0.5v1.4l2.8-0.1l2.7-0.1l2.8,0.1l2.7,0.1v-1.4
		l-1.2-0.1l-0.9,0c-0.3-0.1-0.5-0.1-0.6-0.2c-0.3-0.1-0.5-0.4-0.7-0.7c-0.2-0.4-0.3-0.9-0.3-1.6v-10l1.2-0.1l2.8-0.1
		c0.6,0,1.2,0,1.8,0h2l3.7,0.1l2.9,0l1.2,0.1v10c0,0.8-0.1,1.4-0.4,1.8c-0.3,0.4-0.6,0.6-1.1,0.6l-1.1,0.1c-0.1,0-0.2,0-0.3,0h-0.3
		h-0.5v1.4l2.8-0.1l2.7-0.1l2.8,0.1l2.7,0.1v-1.4c-0.1,0-0.2,0-0.3,0h-0.3h-0.8c-0.7-0.1-1.2-0.2-1.4-0.3c-0.3-0.2-0.5-0.5-0.7-0.9
		c-0.1-0.3-0.2-0.8-0.2-1.5v-20.2c0-0.6,0.1-1.1,0.2-1.5c0.1-0.4,0.3-0.6,0.6-0.8c0.3-0.1,0.5-0.2,0.7-0.2l0.7,0l1.5,0v-1.4
		l-2.7,0.1L165,279z"/>
	<path d="M198.9,307l2.7,0.1v-1.4l-1.9-0.1c-0.6-0.1-1.1-0.3-1.4-0.6c-0.3-0.4-0.4-1-0.4-2v-16.2l0.1-3.4l0.1-2.7l4.5,0.1l1.9,0
		c0.4,0,0.7,0.2,0.9,0.6l0.1,0.2l0.1,0.1c0,0,0,0.1,0,0.2c0,0.1,0,0.1,0,0.2c0.1,0.2,0.1,0.5,0.1,0.9l0.2,2.3h1.1l0-1.2V283
		c0-0.1,0-0.2,0-0.5c0-0.1,0-0.3,0-0.5c0.1-0.5,0.1-0.9,0.1-1.2c0-0.1,0-0.3,0-0.4c0-0.2,0-0.3,0-0.4v-0.9v-0.2l-1,0l-4.6,0.1
		l-2.8,0h-2.8H195h-2l-2.3,0l-4.6-0.1l-1,0c0.2,1.9,0.2,3.2,0.2,4.1l0,2.3h1.2l0.1-1.4l0.2-1.3l0.2-1.1l0,0c0.1-0.3,0.2-0.5,0.3-0.5
		c0.2-0.1,0.3-0.2,0.5-0.2c0.2,0,0.5,0,0.9,0c0.4,0,0.8,0,1,0h1h1c0.3,0,0.6,0,0.9,0h1.9l0,1.9l0.1,2.4v1.9V303
		c0,0.9-0.1,1.5-0.4,1.9c-0.3,0.3-0.6,0.5-0.8,0.6c-0.1,0-0.2,0-0.3,0c-0.1,0-0.2,0.1-0.3,0.1c-0.2,0-0.3,0-0.6,0
		c-0.1,0-0.2,0-0.3,0h-0.4h-0.6v1.4l2.8-0.1l2.7-0.1L198.9,307z"/>
	<path d="M239.3,278.9l-4.6,0.2l-2.3-0.1l-2.3-0.1v1.4l1.8,0c0.2,0,0.4,0,0.6,0.1l0.6,0.2c0.2,0.1,0.4,0.4,0.6,0.7
		c0.1,0.4,0.2,0.9,0.2,1.6v11.4c0,2.2-0.1,3.9-0.3,5.2c-0.2,1.2-0.5,2.1-1,2.8c-0.6,0.9-1.5,1.5-2.7,1.9c-1.3,0.5-2.6,0.7-4.1,0.7
		c-1.5,0-2.9-0.2-4.1-0.7c-1.1-0.4-2-1.1-2.6-1.9c-0.3-0.4-0.5-0.9-0.7-1.4l0-0.2c-0.1-0.4-0.2-0.6-0.2-0.8l0-1.1l0-1.9l0-1.7v-12.2
		c0-0.8,0.1-1.4,0.3-1.8c0.3-0.4,0.5-0.6,0.8-0.7c0.4-0.1,1-0.1,1.8-0.1l0.8,0v-1.4L219,279l-1.6,0l-1.1,0l-2.7-0.1l-1.6,0l-1.1,0
		v1.4l1.7,0l0.5,0.1l0.5,0.2c0.3,0.1,0.6,0.4,0.7,0.7c0.2,0.4,0.3,0.9,0.3,1.6v10.2v3.2v0.8c0,0.2,0,0.5,0,0.8v1.7l0.1,1l0.1,0.9
		l0.2,0.7l0.3,0.7c0.6,1.4,1.7,2.5,3.5,3.3c1.7,0.8,3.8,1.2,6.3,1.2c1.8,0,3.5-0.3,5-0.8c1.4-0.5,2.6-1.3,3.5-2.4
		c0.2-0.2,0.4-0.4,0.6-0.8c0.2-0.3,0.4-0.5,0.5-0.7c0.3-0.6,0.5-1.2,0.6-1.8c0.1-0.5,0.2-0.9,0.2-1.2c0-0.1,0-0.2,0-0.4
		c0-0.2,0-0.3,0-0.4v-0.6l0-1.5l0-2.6v-11.4c0-0.7,0.1-1.3,0.2-1.6c0.1-0.3,0.3-0.6,0.6-0.7c0.3-0.1,0.5-0.2,0.7-0.2l0.7,0l1.5,0
		V278.9z"/>
	<path d="M264.1,306.7l0.1-0.6c0.4-3.5,0.6-5.6,0.7-6.3h-1.2l-1.1,4.7c-0.8,0.2-1.5,0.4-2.2,0.5l-1.2,0.2c-0.1,0-0.3,0-0.4,0h-0.4
		h-0.5l-1.8,0l-2.1,0l-1.6,0l-1.6-0.1l0-0.3v-0.3v-0.4l0-1.9v-2.1v-1.7v-15.5c0-0.6,0.1-1.1,0.2-1.5c0.1-0.4,0.3-0.6,0.6-0.8
		c0.3-0.1,0.5-0.2,0.7-0.2l0.7,0l0.8-0.1h0.7v-1.3l-2.7,0.1l-2.8,0.1l-2.7-0.1l-2.8-0.1v1.3l1.6,0c0.5,0.1,0.9,0.2,1.1,0.3
		c0.3,0.1,0.5,0.4,0.7,0.7c0.2,0.4,0.3,0.9,0.3,1.6V303c0,0.7,0,1.2-0.1,1.5c-0.1,0.4-0.3,0.6-0.4,0.8c-0.3,0.2-0.7,0.5-1.2,0.8v0.9
		l1.4-0.1l1.6-0.1l1.3,0l5.9,0.1l2.6,0l1.8,0.1c0.1,0,0.3,0,0.5,0h0.5l1.2,0l0.8-0.1L264.1,306.7z"/>
	<path d="M285.3,292.6c-0.9-0.6-2.1-1-3.7-1.1l-4.8-0.6c-1.6-0.2-2.8-0.7-3.7-1.5c-0.9-0.7-1.3-2-1.3-3.7c0-1.1,0.3-2.1,0.9-2.9
		c0.6-0.9,1.4-1.5,2.3-1.9c0.9-0.4,2.1-0.6,3.5-0.6c3.8,0,5.7,1.3,5.7,3.9v1.6h1.3l0.1-1.9l0.1-1.2c0-0.7,0.2-1.5,0.4-2.3
		c-2.5-1.1-4.9-1.7-7.2-1.7c-0.9,0-1.7,0.1-2.3,0.2c-0.9,0.1-1.5,0.3-2,0.4c-1.3,0.4-2.3,1-3.2,1.7c-0.9,0.8-1.6,1.7-2.1,2.7
		c-0.5,1.1-0.7,2.3-0.7,3.6c0,2.6,0.7,4.4,2.1,5.3c1.3,0.9,3.3,1.5,6.1,1.8c2.7,0.3,4.6,0.7,5.8,1.2c1.3,0.6,1.9,1.9,1.9,3.9
		c0,1.2-0.3,2.3-0.9,3.3c-0.6,1-1.5,1.7-2.6,2.3c-0.6,0.3-1.2,0.5-1.8,0.6c-0.6,0.1-1.3,0.2-2.1,0.2c-1.2,0-2.3-0.2-3.3-0.5
		c-1-0.3-1.8-0.8-2.5-1.3c-0.3-0.3-0.5-0.7-0.6-1c-0.1-0.3-0.1-1-0.1-2.1v-1h-1.3l-0.1,3.4c0,0.2,0,0.5-0.1,0.9v0.1
		c0,0.1,0,0.3,0,0.5c-0.1,0.4-0.1,0.7-0.1,1.1l0.5,0.2c0.3,0.2,0.6,0.3,0.8,0.3l0.3,0.1c0.4,0.1,0.7,0.2,0.9,0.3l1.1,0.3
		c0.1,0,0.3,0.1,0.5,0.1l0.2,0h0.5c0.5,0.1,1.4,0.2,2.5,0.2c1.6,0,3.1-0.2,4.6-0.7c1.4-0.5,2.6-1.2,3.7-2.1c1-0.9,1.8-2,2.4-3.2
		c0.5-1.2,0.8-2.6,0.8-4c0-0.9-0.2-1.9-0.7-2.8C286.5,293.7,285.9,293,285.3,292.6z"/>
	<path d="M298.1,279l-1.1,0l-2.7-0.1l-2.8-0.1v1.4l1.6,0c0.2,0,0.4,0,0.6,0.1c0.1,0,0.2,0.1,0.3,0.1c0.1,0.1,0.2,0.1,0.2,0.1
		c0.3,0.1,0.5,0.4,0.7,0.7c0.2,0.4,0.2,0.9,0.2,1.6V303c0,0.9-0.2,1.5-0.5,1.9c-0.4,0.4-0.7,0.6-1,0.6l-0.9,0.1c-0.1,0-0.2,0-0.3,0
		H292h-0.5v1.4l2.8-0.1l2.7-0.1l2.8,0.1l2.7,0.1v-1.4l-1.2-0.1l-0.9,0c-0.3-0.1-0.5-0.1-0.6-0.2c-0.3-0.1-0.5-0.4-0.7-0.7
		c-0.2-0.4-0.3-0.9-0.3-1.6v-20.2c0-0.6,0.1-1.1,0.2-1.5c0.1-0.4,0.3-0.6,0.6-0.8c0.3-0.1,0.5-0.2,0.7-0.2l0.7,0l1.5,0v-1.4
		l-2.7,0.1L298.1,279z"/>
	<path d="M333.2,305.6c-0.3-0.1-0.4-0.2-0.5-0.2c-0.4-0.3-0.7-0.6-0.8-0.8c-0.2-0.4-0.4-0.8-0.6-1.2l-0.5-1.3l-9.4-23.3H320
		l-0.8,2.1l-1,2.4l-1.1,2.6l-5.1,12.3l-1,2.4l-0.9,2.1l-0.8,1.8c-0.3,0.5-0.7,0.9-1.1,1c-0.5,0.1-1.1,0.2-1.9,0.2v1.4l4.4-0.2
		l2.2,0.1l2.2,0.1v-1.4l-2.5-0.2c-0.5,0-0.7-0.3-0.7-0.9c0-0.4,0.2-1,0.5-1.9c0.2-0.7,0.6-1.6,1-2.8l1-2.4h10.8l2.1,5.5
		c0.4,1,0.6,1.6,0.6,1.8c0,0.4-0.1,0.6-0.4,0.6c-0.3,0.1-0.6,0.1-1.1,0.1l-1.8,0v1.4l2.3-0.1l2.7-0.1l2.8,0.1l2.3,0.1v-1.4l-0.8,0
		L333.2,305.6z M315.1,295.9l4.7-11.9l4.7,11.9H315.1z"/>
	<path d="M362,279l-2.3-0.1v1.3h0.7l0.8,0.1h0.3c0.1,0,0.1,0,0.3,0l0.3,0c0.3,0,0.4,0.1,0.6,0.2c0.3,0.2,0.5,0.5,0.7,0.8
		c0.1,0.2,0.2,0.8,0.2,1.5v19.7l-1.5-1.7l-2-2.5l-1.5-2l-6.4-8.3l-3.2-4.2l-3.7-5l-0.7,0.1l-0.7,0.1l-2.5-0.1l-2.9-0.1v1.3l1.6,0
		c0.5,0.1,0.9,0.2,1.1,0.3c0.3,0.1,0.5,0.4,0.7,0.7c0.2,0.4,0.3,0.9,0.3,1.6V303c0,0.9-0.2,1.5-0.5,1.9c-0.4,0.4-0.7,0.6-1,0.6
		l-0.9,0.1c-0.1,0-0.2,0-0.3,0H339h-0.5v1.4l4.6-0.2l2.3,0.1l2.2,0.1v-1.4l-1.2-0.1l-0.9,0c-0.3-0.1-0.5-0.1-0.6-0.2
		c-0.3-0.1-0.5-0.4-0.7-0.7c-0.2-0.4-0.3-0.9-0.3-1.6v-19.7l13.4,17.5l2.5,3.2l0.7,0.9l0.8,1.1c0.2,0.3,0.5,0.5,0.9,0.8
		c0.4,0.1,0.8,0.3,1.4,0.4c0.7,0.2,1.3,0.3,1.8,0.3l-0.2-2.8l0-1.8l-0.1-2l0-2v-16c0-0.6,0.1-1.1,0.2-1.5c0.2-0.4,0.4-0.7,0.6-0.8
		c0.3-0.1,0.5-0.2,0.7-0.2l0.7,0l0.8-0.1h0.7v-1.3l-4.6,0.2L362,279z"/>
	<path d="M380.3,281.3c0.1-0.4,0.3-0.6,0.6-0.8c0.3-0.1,0.5-0.2,0.7-0.2l0.7,0l1.5,0v-1.4l-2.7,0.1l-1.6,0l-1.1,0l-2.7-0.1l-2.8-0.1
		v1.4l1.6,0c0.2,0,0.4,0,0.6,0.1c0.1,0,0.2,0.1,0.3,0.1c0.1,0.1,0.2,0.1,0.2,0.1c0.3,0.1,0.5,0.4,0.7,0.7c0.2,0.4,0.2,0.9,0.2,1.6
		V303c0,0.9-0.2,1.5-0.5,1.9c-0.4,0.4-0.7,0.6-1,0.6l-0.9,0.1c-0.1,0-0.2,0-0.3,0h-0.5h-0.5v1.4l2.8-0.1l2.7-0.1l2.8,0.1l2.7,0.1
		v-1.4l-1.2-0.1l-0.9,0c-0.3-0.1-0.5-0.1-0.6-0.2c-0.3-0.1-0.5-0.4-0.7-0.7c-0.2-0.4-0.3-0.9-0.3-1.6v-20.2
		C380.1,282.3,380.2,281.7,380.3,281.3z"/>
	<polygon points="117.6,328.4 120,328.4 120,322 122.9,322 122.9,320.5 120,320.5 120,316.2 124.1,316.2 124.1,314.7 117.6,314.7 	
		"/>
	<rect x="129.5" y="314.7" width="2.4" height="13.7"/>
	<polygon points="144.5,323.1 140.4,314.7 138.6,314.7 138.6,328.4 141,328.4 141,319.3 145.2,328.4 146.9,328.4 146.9,314.7 
		144.5,314.7 	"/>
	<polygon points="153.5,328.4 160,328.4 160,326.9 155.8,326.9 155.8,322 158.8,322 158.8,320.5 155.8,320.5 155.8,316.2 160,316.2 
		160,314.7 153.5,314.7 	"/>
	<path d="M174.8,324.9c0,0.4,0,0.8-0.1,1c-0.1,0.2-0.2,0.4-0.4,0.6c-0.2,0.1-0.4,0.2-0.7,0.3c-0.3,0-0.7,0.1-1.2,0.1v1.5h1.2
		c0.7,0,1.3-0.1,1.8-0.2c0.5-0.1,0.8-0.3,1.1-0.6c0.3-0.3,0.4-0.6,0.5-1c0.1-0.4,0.1-0.9,0.1-1.5v-10.2h-2.4V324.9z"/>
	<polygon points="183.8,328.4 190.3,328.4 190.3,326.9 186.1,326.9 186.1,322 189.1,322 189.1,320.5 186.1,320.5 186.1,316.2 
		190.3,316.2 190.3,314.7 183.8,314.7 	"/>
	<polygon points="205.5,321 204.9,324.9 204.3,321 203.2,314.7 200.8,314.7 199.6,321 199,324.9 198.4,321 197.2,314.7 194.8,314.7 
		197.8,328.4 200.2,328.4 201.4,322 202,318.1 202.6,322 203.7,328.4 206.1,328.4 209.1,314.7 206.7,314.7 	"/>
	<polygon points="214.6,328.4 221.1,328.4 221.1,326.9 216.9,326.9 216.9,322 219.9,322 219.9,320.5 216.9,320.5 216.9,316.2 
		221.1,316.2 221.1,314.7 214.6,314.7 	"/>
	<polygon points="229.1,314.7 226.7,314.7 226.7,328.4 233.2,328.4 233.2,326.9 229.1,326.9 	"/>
	<polygon points="240.9,314.7 238.5,314.7 238.5,328.4 245,328.4 245,326.9 240.9,326.9 	"/>
	<polygon points="250.3,328.4 256.9,328.4 256.9,326.9 252.7,326.9 252.7,322 255.7,322 255.7,320.5 252.7,320.5 252.7,316.2 
		256.9,316.2 256.9,314.7 250.3,314.7 	"/>
	<path d="M270.3,320.4c0.4-0.5,0.5-1.2,0.5-2c0-1.3-0.4-2.2-1.3-2.8c-0.9-0.6-2.2-0.8-4-0.8h-3v13.7h2.4V322h1.8l2.4,6.3h2.4
		l-2.7-6.8C269.4,321.3,269.9,320.9,270.3,320.4z M267.7,320c-0.5,0.3-1.2,0.5-2.2,0.5h-0.6v-4.4h0.6c1,0,1.7,0.2,2.2,0.5
		c0.5,0.3,0.7,0.9,0.7,1.7S268.2,319.7,267.7,320z"/>
	<polygon points="280.2,321.5 277.8,314.7 275.4,314.7 279,324 279,328.4 281.4,328.4 281.4,324 284.9,314.7 282.6,314.7 	"/>
	<path d="M179,112.5l-12.9-0.3l-5.4-0.1v3.6l5.5,0.1c0.5,0,1.2,0.1,2,0.2c0.3,0.1,0.6,0.1,1.2,0.2c0.3,0.1,0.6,0.2,0.6,0.2
		c0.9,0.3,1.7,0.9,2.3,1.9c0.5,0.9,0.8,2.4,0.8,4.3v10.9l-19.1-0.2l-4.2-0.1c0.6,5,1,8.8,1,11.2l-0.2,6.4h5l0.5-3.7l0.6-3.6l0.6-2.9
		l0.2-0.1c0.4-0.8,0.8-1.3,1.1-1.4c0.6-0.3,1.3-0.5,1.9-0.5c0.6-0.1,1.9-0.1,3.9-0.1c1.7,0,3.2,0,4.4-0.1h4h0.2v37.8
		c0,2.3-0.5,3.9-1.5,4.9c-1.2,1-2.3,1.5-3.3,1.6l-3.1,0.3c-0.3,0-0.7,0-1,0.1h-1.7h-1.8v3.6l9.2-0.2l9.1-0.2l9.2,0.2l1,0v12.3
		c0,2.3-0.6,4-1.8,5c-1.3,0.9-2.4,1.4-3.4,1.5c-0.3,0.1-0.8,0.1-1.3,0.1c-0.5,0.1-1,0.1-1.3,0.2c-0.6,0.1-1.5,0.1-2.4,0.1
		c-0.5,0-1,0-1.5,0.1H176h-2.4v3.7l11.6-0.2l11.5-0.2l11.6,0.2l11.5,0.2V206l-8.1-0.2c-2.7-0.2-4.6-0.7-5.8-1.5
		c-1.2-1-1.8-2.8-1.8-5.4V163l20.1,23.7l8.8-0.4c1.7,0.2,3.1,0.3,4.1,0.3c0.3,0,0.7,0,1.2,0.1h1.5h2v-3.6c-2.7-0.4-4.8-0.9-6.3-1.5
		c-1.6-0.9-2.9-1.8-3.8-2.8l-4.5-5.3l-20.7-24.7c8-1.5,14.1-4,18.4-7.6c1-0.9,1.9-1.8,2.7-2.7l4,0.1c1.8,0,3.1,0.6,3.9,1.8l0.5,0.7
		l0.3,0.3c0.1,0.1,0.2,0.3,0.2,0.5c0.1,0.2,0.2,0.4,0.2,0.5c0.3,0.5,0.5,1.3,0.5,2.3l0.6,6.1h4.8l-0.2-3.3v-3.1
		c0.1-0.2,0.2-0.7,0.2-1.3c0-0.4,0.1-0.8,0.2-1.3c0.2-1.3,0.3-2.4,0.3-3.2c0.1-0.4,0.2-0.8,0.2-1.2c0-0.4,0.1-0.8,0.2-1.2V134v-0.7
		l-4.2,0.1l-8.8,0.1c0.6-1.8,0.9-3.7,0.9-5.7c0-6.2-2.7-10.4-8-12.7c-2.8-1.1-5.9-2-9.3-2.5c-3.2-0.5-7-0.8-11.2-0.8l-7.2,0.1
		l-8,0.2L179,112.5z M189.2,154.8v27.8c-0.4-0.1-0.7-0.2-1-0.2c-0.9-0.3-1.7-0.9-2.4-1.9c-0.6-0.9-0.9-2.4-0.9-4.3v-37.9h3.9l0.2,5
		l0.3,6.5V154.8z M215.5,138.8c-2,2.6-4.6,4.5-7.8,5.8c-1,0.4-2.1,0.8-3.3,1.1l0-0.1l0.3-7.4l11.1,0.1
		C215.7,138.5,215.6,138.6,215.5,138.8z M198.7,115.7c1.5,0,2.6,0,3.2,0.1c0.4,0.1,0.9,0.1,1.3,0.1c0.4,0.1,0.9,0.1,1.3,0.2
		c2,0.4,3.6,0.8,4.7,1.2c3.1,1.3,5.3,3,6.8,5c1.5,2.1,2.3,4.6,2.3,7.4c0,1.4-0.1,2.7-0.4,3.9l-9.3,0.1h-11.8h-5h-6.6
		c0.1-1,0.2-2.1,0.2-3.3c0.1-1.3,0.1-3.5,0.1-6.5c0-1,0-2,0.1-3.1c0.1-1,0.1-2,0.1-3C190.2,116.4,194.5,115.7,198.7,115.7z"/>
	<polygon points="154.4,86.7 191.3,86.7 191.3,71.6 145.7,71.6 97.9,154.5 115.2,154.5 	"/>
	<polygon points="278.1,154.5 295.4,154.5 247.6,71.6 204.2,71.6 204.2,86.7 238.9,86.7 	"/>
	<polygon points="116.5,167.4 99.1,167.4 145.7,248.1 191.3,248.1 191.3,233.1 154.4,233.1 	"/>
	<polygon points="238.9,233.1 204.2,233.1 204.2,248.1 247.6,248.1 294.2,167.4 276.8,167.4 	"/>
</g>
</svg>
