<?xml version="1.0" encoding="utf-8"?>
<!-- Generator: Adobe Illustrator 28.1.0, SVG Export Plug-In . SVG Version: 6.00 Build 0)  -->
<svg version="1.1" id="Layer_1" xmlns="http://www.w3.org/2000/svg" xmlns:xlink="http://www.w3.org/1999/xlink" x="0px" y="0px"
	 viewBox="0 0 400 400" style="enable-background:new 0 0 400 400;" xml:space="preserve">
<g>
	<path d="M5.1,128.4v28.7h124.2c11.6-15.5,29.4-26.2,49.7-28.2c0.1,0,5.2-0.4,7.2-0.4c23.3,0,43.9,11.2,56.9,28.6h151.9v-28.7H5.1z
		 M30.4,136.8h-6.5v16.9h-4.4v-16.9H13v-3.5h17.4V136.8z M48.8,153.8h-4.1v-8.6h-7.9v8.6h-4.2v-20.5h4.2v8.3h7.9v-8.3h4.1V153.8z
		 M68.3,136.7h-7c-1.5,0-2.7,0.4-3.5,1.2c-0.8,0.8-1.2,2.1-1.2,3.7h11.7v3.4H56.5c0,1.9,0.4,3.3,1.3,4.1c0.8,0.7,1.9,1.1,3.5,1.1h7
		v3.5h-7.1c-2.9,0-5.2-0.8-6.8-2.3c-1.8-1.7-2.6-4.2-2.6-7.6c0-4,0.8-6.7,2.5-8.4c1.5-1.5,3.8-2.2,7-2.2h7V136.7z"/>
	<path d="M380.7,259c0-1.7-1-2.5-2.9-2.5h-6.3v4.9h6.2c0.9,0,1.6-0.2,2.1-0.5C380.4,260.6,380.7,259.9,380.7,259z"/>
	<path d="M379.8,252.5c0.6-0.4,0.9-1,0.9-1.9c0-1.6-1-2.4-2.9-2.4h-6.3v4.8h6.2C378.7,253,379.4,252.8,379.8,252.5z"/>
	<path d="M186.2,270.2c-24.3,0-45.7-12.2-58.4-30.8H5.1v32.2h389.8v-32.2H244.6C231.8,258,210.4,270.2,186.2,270.2z M367.3,244.6
		h10.4c2.4,0,4.1,0.3,5.2,0.9c1.5,0.9,2.3,2.4,2.3,4.7c0,1.1-0.2,2-0.7,2.7c-0.5,0.7-1.3,1.4-2.4,2c1.1,0.5,1.9,1.1,2.4,1.8
		c0.5,0.7,0.7,1.6,0.7,2.7c0,1.8-0.4,3.1-1.1,4c-1,1.2-2.9,1.7-5.6,1.7h-11.1V244.6z M345.7,244.6h4.1v13.3c0,1.2,0.2,2.1,0.7,2.8
		c0.7,1,2,1.5,4,1.5c1.7,0,2.9-0.4,3.6-1.1c0.7-0.8,1-2.1,1-4.1v-12.3h4.1V258c0,2-0.4,3.5-1.3,4.6c-1.4,1.7-3.8,2.6-7.4,2.6
		c-4,0-6.6-1-7.9-3c-0.6-1-0.9-2.5-0.9-4.7V244.6z M329.5,244.6h4.1v12.4c0,1.5,0.2,2.6,0.7,3.3c0.7,1,2,1.6,4,1.6h5v3.3h-6
		c-2.9,0-4.9-0.7-6.1-2.1c-1.1-1.3-1.7-3.3-1.7-6.2V244.6z M312.2,247.6c1.6-2.1,4.1-3.1,7.5-3.1h7v3.4h-7c-1.9,0-3.3,0.7-4.1,2.1
		c-0.6,1.1-0.9,2.7-0.9,4.7v1c0,1.6,0.2,2.9,0.7,3.7c0.8,1.4,2.2,2.1,4.3,2.1h7v3.4h-7.1c-2.9,0-5.2-0.8-6.8-2.3
		c-1.8-1.7-2.6-4.2-2.6-7.6C310.2,251.9,310.9,249.4,312.2,247.6z"/>
	<path d="M42.5,197.3c1-1.5,1.5-3.6,1.5-6.1c0-3.8-1-6.5-3.1-8.1c-1.9-1.5-4.7-2.2-8.7-2.2H14.7v34.2h6.9v-13.5h8.5l7.5,13.5h7.7
		l-8.2-14.4C39.6,200.2,41.3,199,42.5,197.3z M35.1,195.2c-0.8,0.4-2.3,0.5-4.6,0.5h-8.8v-8.9h8.7c2.3,0,4,0.3,5,0.9
		c1,0.6,1.6,1.8,1.6,3.4C37,193.3,36.3,194.6,35.1,195.2z"/>
	<path d="M64,186.6h11.6v-5.8H63.9c-5.3,0-9.2,1.2-11.7,3.7c-2.8,2.8-4.3,7.5-4.3,14.1c0,5.7,1.5,9.9,4.4,12.7
		c2.7,2.6,6.5,3.8,11.4,3.8h11.9v-5.8H64c-2.6,0-4.6-0.6-5.8-1.8c-1.5-1.4-2.3-3.7-2.3-6.9h19.7v-5.8H56.1c0-2.8,0.7-4.9,2-6.2
		C59.4,187.3,61.4,186.6,64,186.6z"/>
	<polygon points="113.2,180.9 105.8,180.9 95.3,206.7 85,180.9 77.2,180.9 91.9,215.1 99.1,215.1 	"/>
	<path d="M267.5,180.9h-6.9v20.4c0,4.8,0.9,8.2,2.8,10.4c2,2.3,5.4,3.5,10.2,3.5h10.1v-5.5h-8.4c-3.3,0-5.6-0.9-6.7-2.6
		c-0.8-1.1-1.1-3-1.1-5.4v-1.9V180.9z"/>
	<polygon points="300.9,206.7 290.6,180.9 282.8,180.9 297.5,215.1 304.7,215.1 318.8,180.9 311.4,180.9 	"/>
	<path d="M334.7,186.6h11.6v-5.8h-11.7c-5.3,0-9.2,1.2-11.7,3.7c-2.8,2.8-4.3,7.5-4.3,14.1c0,5.7,1.5,9.9,4.4,12.7
		c2.7,2.6,6.5,3.8,11.4,3.8h11.9v-5.8h-11.6c-2.6,0-4.6-0.6-5.8-1.8c-1.5-1.4-2.3-3.7-2.3-6.9h19.7v-5.8h-19.6c0-2.8,0.7-4.9,2-6.2
		C330.1,187.3,332.1,186.6,334.7,186.6z"/>
	<path d="M380.5,197.3c1-1.5,1.5-3.6,1.5-6.1c0-3.8-1-6.5-3.1-8.1c-1.9-1.5-4.7-2.2-8.7-2.2h-17.5v34.2h6.9v-13.5h8.5l7.5,13.5h7.7
		l-8.2-14.4C377.6,200.2,379.4,199,380.5,197.3z M373.1,195.2c-0.8,0.4-2.3,0.5-4.6,0.5h-8.8v-8.9h8.7c2.3,0,4,0.3,5,0.9
		c1,0.6,1.6,1.8,1.6,3.4C375,193.3,374.4,194.6,373.1,195.2z"/>
	<path d="M186.2,201.9c1.4,0,2.5-1.1,2.5-2.5c0-1.4-1.1-2.5-2.5-2.5c-1.4,0-2.5,1.1-2.5,2.5C183.6,200.8,184.8,201.9,186.2,201.9z"
		/>
	<path d="M186.2,222.3c12.7,0,22.9-10.3,22.9-22.9c0-12.7-10.3-22.9-22.9-22.9c-12.7,0-22.9,10.3-22.9,22.9
		C163.2,212.1,173.5,222.3,186.2,222.3z M186.2,194.6c2.7,0,4.8,2.2,4.8,4.8c0,2.7-2.2,4.8-4.8,4.8c-2.7,0-4.8-2.2-4.8-4.8
		C181.3,196.7,183.5,194.6,186.2,194.6z"/>
	<path d="M186.2,266.6c37.1,0,67.2-30.1,67.2-67.2c0-37.1-30.1-67.2-67.2-67.2c-37.1,0-67.2,30.1-67.2,67.2
		C119,236.5,149.1,266.6,186.2,266.6z M155.3,194.1c1.8-11.7,11-21.7,22.5-24.4c-4.4,1.5-8.5,3.8-11.8,6.9
		c-10.4,9.2-13.2,25.4-6.8,37.7C155.5,208.4,154.2,201,155.3,194.1z M242.5,225.4c-7.1,15.5-21.1,27.7-37.4,32.7
		c1-0.4,3.5-1.3,4.5-1.7c0.9-0.4,3.4-1.6,4.3-2c1.3-0.7,2.8-1.6,4.1-2.4c5.8-3.6,11.1-8.2,15.4-13.5c11.5-13.8,16.4-32.8,13.2-50.5
		c-0.7-4.2-1.9-8.3-3.4-12.2C250,191.4,249.7,209.9,242.5,225.4z M203.6,253.5c1-0.4,3.2-1.2,4.1-1.6c0.8-0.4,3.1-1.5,4-1.9
		c1.5-0.9,3.6-2,5-3c22.9-14.9,32-44.2,21.9-69.5C252,208,235.5,243.7,203.6,253.5z M221.9,239.8c-5.7,5.1-12.6,8.8-19.9,11.1
		c0.9-0.4,3.1-1.2,4-1.5c0.8-0.4,3.1-1.4,3.9-1.8c0.9-0.5,2.9-1.7,3.7-2.1c0.8-0.5,2.7-1.9,3.5-2.4c20.6-15.2,28.4-42.2,18.9-66
		C245.6,198.5,239.7,224.4,221.9,239.8z M200.9,245.4c1.4-0.5,3.4-1.2,4.7-1.9c0,0,2.3-1.1,2.3-1.1c0.8-0.4,2.5-1.5,3.3-1.9
		c0.6-0.4,2.5-1.7,3.1-2.1c0.7-0.5,2.3-1.8,2.9-2.3c0.6-0.5,2.2-2,2.7-2.6c1-1.1,2.5-2.6,3.3-3.7c0,0,1.6-2,1.6-2
		c0.5-0.7,1.7-2.4,2.1-3.1c0.4-0.7,1.4-2.5,1.9-3.3c6.6-12.6,7.3-28,1.9-41.2C242.3,206.6,228.3,237.2,200.9,245.4z M215.8,232.8
		c-4.7,4.2-10.3,7.1-16.2,8.9c0.8-0.3,2.5-1,3.2-1.3c0.6-0.3,2.5-1.2,3.1-1.5c1.1-0.7,2.9-1.6,4-2.4c18.1-11.8,25.1-34.9,17-54.9
		C235,199.2,230.3,220.3,215.8,232.8z M214.5,231.3c-4.5,4-9.9,6.8-15.5,8.5c0.7-0.3,2.4-0.9,3.1-1.2c0.6-0.3,2.4-1.1,3-1.4
		c0.7-0.4,2.2-1.3,2.9-1.7c17.8-11.1,25.1-33.7,17.1-53.1C232.9,199,228.3,219.5,214.5,231.3z M207.2,227.4c-3.9,3-8.6,4.9-13.4,5.9
		c2.3-0.7,4.7-1.4,6.8-2.6c0.9-0.4,2.3-1.2,3.2-1.7c13.8-8.4,20.1-26,15-41.2C224.5,201.6,219.3,218.7,207.2,227.4z M206.8,222.7
		c-3.3,2.9-7.3,5-11.5,6.2c3.1-1.1,6-2.6,8.6-4.6c11.6-8.4,16.1-24.7,10.3-37.8C220.4,198.4,217,214.1,206.8,222.7z M210.6,199.4
		c0,13.5-10.9,24.4-24.4,24.4c-13.5,0-24.4-10.9-24.4-24.4c0-13.5,10.9-24.4,24.4-24.4C199.7,175,210.6,185.9,210.6,199.4z
		 M179.3,165.3c-5,1.3-9.8,3.5-13.8,6.7c-12.5,9.3-17.1,27.1-11.1,41.5c-8.5-17-0.1-38.8,17.4-46c1-0.4,2.6-1,3.7-1.3
		C176.8,165.8,178.1,165.6,179.3,165.3z M158.3,168c-14.2,12.6-18.2,34.3-9.7,51.2c-11.6-20-3.5-46.6,16.9-57.1
		c1.2-0.6,3-1.5,4.3-1.9c1.4-0.6,3-1,4.5-1.5C168.4,160.7,162.9,163.7,158.3,168z M157,166.5c-14.9,13.1-19,36-10.2,53.6
		c-10.1-17.5-5.8-41.1,9.6-54.2c3.7-3.3,8-5.9,12.6-7.6c1.5-0.7,3.1-1,4.7-1.5C167.5,158.8,161.7,162,157,166.5z M143.3,221.6
		c-12.8-22.8-3.7-52.7,19.4-64.7c2.3-1.2,4.9-2.4,7.4-3.1l2.6-0.8C144,162.3,130.1,194.6,143.3,221.6z M168.6,140.2
		c0,0-3.2,1.2-3.2,1.2l-1.6,0.6l-1.5,0.7c-1.8,0.7-4.3,2.1-6,3c-28.3,15.8-39.6,52.4-25.3,81.5C112.9,193.4,131.6,150.2,168.6,140.2
		z M161.3,148.1c2.7-1.2,5.9-2.4,8.8-3.2c-2.9,1-5.9,2.2-8.6,3.6c-28.1,14.1-39.7,48.5-25.9,76.8
		C120.3,197.2,132.4,161.5,161.3,148.1z M163,150.6c2.7-1.2,5.7-2.3,8.6-3.1c-2.8,1-5.8,2.1-8.4,3.5c-27.3,13.8-38.5,47.1-25.2,74.6
		C123.2,198.3,135,163.6,163,150.6z"/>
</g>
</svg>
