<?xml version="1.0" encoding="utf-8"?>
<!-- Generator: Adobe Illustrator 25.0.1, SVG Export Plug-In . SVG Version: 6.00 Build 0)  -->
<svg version="1.1" id="Layer_1" xmlns="http://www.w3.org/2000/svg" xmlns:xlink="http://www.w3.org/1999/xlink" x="0px" y="0px"
	 viewBox="0 0 400 400" style="enable-background:new 0 0 400 400;" xml:space="preserve">
<g>
	<path d="M385.2,194.6c0.2-0.1,0.3-0.2,0.5-0.4c0.2-0.3,0.3-0.6,0.3-0.9c0-0.3-0.1-0.7-0.2-0.9c-0.2-0.4-0.6-0.7-1-0.8
		c-0.4-0.1-0.9-0.1-1.2,0.2c-0.3,0.2-0.5,0.4-0.7,0.7c-0.1,0.3-0.2,0.6-0.2,0.9c0,0.3,0.2,0.6,0.4,0.9c0.2,0.2,0.5,0.4,0.8,0.5
		c0,0,0,0,0,0c1.2,8.4,0.8,16.9-1.3,25l-3.5-0.9c-0.1,0-0.2,0-0.2,0c-0.1,0-0.2,0-0.2,0.1c-0.1,0-0.1,0.1-0.2,0.2
		c-0.1,0.1-0.1,0.1-0.1,0.2c0,0,0,0,0,0c-3.4,12.8-11.1,24-21.7,31.9c-0.1-0.1-0.3-0.2-0.5-0.2c-0.4-0.1-0.9-0.1-1.2,0.2
		c-0.3,0.2-0.5,0.4-0.7,0.7c-0.1,0.3-0.2,0.6-0.2,0.9c0,0.3,0.2,0.6,0.4,0.9c0.2,0.2,0.5,0.4,0.8,0.5c0.3,0.1,0.6,0.1,1,0
		c0.3-0.1,0.6-0.3,0.8-0.6c0.2-0.3,0.3-0.6,0.3-0.9c0-0.1,0-0.3,0-0.4c10.7-7.9,18.5-19.2,22.1-32l2.8,0.8c-0.2,0.7-0.4,1.4-0.6,2
		c-2.9,9.2-7.8,17.5-14.4,24.5c0,0-0.1-0.1-0.1-0.1c-0.4-0.1-0.9-0.1-1.2,0.2c-0.3,0.2-0.5,0.4-0.7,0.7c-0.1,0.3-0.2,0.6-0.2,0.9
		c0,0.3,0.2,0.6,0.4,0.9c0.2,0.2,0.5,0.4,0.8,0.5c0.3,0.1,0.6,0.1,1,0c0.3-0.1,0.6-0.3,0.8-0.6c0.2-0.3,0.3-0.6,0.3-0.9
		c0-0.3,0-0.5-0.2-0.8c6.7-7.1,11.8-15.6,14.7-24.9c0.3-0.9,0.5-1.7,0.7-2.6c0,0,0,0,0,0c0,0,0,0,0-0.1
		C386,212.3,386.6,203.3,385.2,194.6z"/>
	<path d="M372.5,195.3c-1.5-8.3-5-16.2-10.2-22.8c0.1-0.2,0.2-0.4,0.2-0.7c0-0.3-0.1-0.7-0.2-0.9c-0.2-0.4-0.6-0.7-1-0.8
		c-0.4-0.1-0.9-0.1-1.2,0.2c-0.3,0.2-0.5,0.4-0.7,0.7c-0.1,0.3-0.2,0.6-0.2,0.9c0,0.3,0.2,0.6,0.4,0.9c0.2,0.2,0.5,0.4,0.8,0.5
		c0.3,0.1,0.6,0.1,0.8,0c1.5,1.9,2.9,3.8,4,5.9c2.8,4.9,4.8,10.2,5.8,15.7l-2.9,0.5c-1-5.2-2.8-10.2-5.5-14.7
		c-4.2-7.2-10.1-13-17-17.1c0,0,0,0,0,0c-0.1-0.1-0.1-0.1-0.2-0.2c-0.1,0-0.2-0.1-0.2-0.1c0,0,0,0,0,0c-7.7-4.4-16.5-6.6-25.6-6.1
		c0-0.1,0-0.1-0.1-0.2c-0.2-0.4-0.6-0.7-1-0.8c-0.4-0.1-0.9-0.1-1.2,0.2c-0.3,0.2-0.5,0.4-0.7,0.7c-0.1,0.3-0.2,0.6-0.2,0.9
		c0,0.3,0.2,0.6,0.4,0.9c0.2,0.2,0.5,0.4,0.8,0.5c0.3,0.1,0.6,0.1,1,0c0.3-0.1,0.6-0.3,0.8-0.6c0.1-0.1,0.2-0.3,0.2-0.4
		c8.7-0.4,17.2,1.7,24.6,5.8l-1.5,2.5c-5.8-3.2-12.3-5.1-19-5.4c-6.4-0.3-12.7,0.9-18.6,3.4c-0.2-0.2-0.4-0.3-0.7-0.4
		c-0.4-0.1-0.9-0.1-1.2,0.2c-0.3,0.2-0.5,0.4-0.7,0.7c-0.1,0.3-0.2,0.6-0.2,0.9c0,0.3,0.2,0.6,0.4,0.9c0.2,0.2,0.5,0.4,0.8,0.5
		c0.3,0.1,0.6,0.1,1,0s0.6-0.3,0.8-0.6c0.2-0.3,0.3-0.6,0.3-0.9c0,0,0-0.1,0-0.1c5.7-2.4,11.8-3.5,18-3.3c6.7,0.3,13.2,2.2,19,5.5
		l0,0c0.1,0,0.1,0.1,0.2,0.1c0.1,0,0.3,0,0.4-0.1c0.1-0.1,0.2-0.1,0.2-0.2l1.8-3.1c6.6,3.9,12.3,9.5,16.3,16.4
		c2.7,4.6,4.5,9.6,5.4,14.8c0,0,0,0.1,0,0.1c0,0.1,0,0.2,0.1,0.2c0,0.1,0.1,0.1,0.2,0.2c0.1,0,0.2,0.1,0.2,0.1c0.1,0,0.2,0,0.3,0
		l4.2-0.7c0.1,0,0.1,0,0.2-0.1c0.1-0.1,0.2-0.2,0.3-0.3C372.5,195.5,372.5,195.4,372.5,195.3L372.5,195.3L372.5,195.3z"/>
	<path d="M353.1,165c0,0.2-0.1,0.4,0,0.5c0,0.3,0.2,0.6,0.4,0.9c0.2,0.2,0.5,0.4,0.8,0.5c0.3,0.1,0.6,0.1,1,0
		c0.3-0.1,0.6-0.3,0.8-0.6c0.2-0.3,0.3-0.6,0.3-0.9c0-0.3-0.1-0.7-0.2-0.9c-0.2-0.4-0.6-0.7-1-0.8s-0.9-0.1-1.2,0.2c0,0,0,0-0.1,0.1
		c-16.4-13-39.3-14.8-57.6-4.3c-2.2,1.3-4.3,2.8-6.3,4.3c-0.1-0.1-0.2-0.1-0.3-0.2c-0.4-0.1-0.9-0.1-1.2,0.2
		c-0.3,0.2-0.5,0.4-0.7,0.7c-0.1,0.3-0.2,0.6-0.2,0.9c0,0.3,0.2,0.6,0.4,0.9c0.2,0.2,0.5,0.4,0.8,0.5c0.3,0.1,0.6,0.1,1,0
		c0.3-0.1,0.6-0.3,0.8-0.6c0.2-0.3,0.3-0.6,0.3-0.9c0-0.2,0-0.4-0.1-0.6c1.9-1.5,4-3,6.1-4.2C314.7,150.5,337,152.3,353.1,165z"/>
	<path d="M345.5,245c14-8.1,22.9-23,23.5-39.3c0.3-0.1,0.5-0.3,0.7-0.5c0.2-0.3,0.3-0.6,0.3-0.9c0-0.3-0.1-0.7-0.2-0.9
		c-0.2-0.4-0.6-0.7-1-0.8c-0.4-0.1-0.9-0.1-1.2,0.2c-0.3,0.2-0.5,0.4-0.7,0.7c-0.1,0.3-0.2,0.6-0.2,0.9c0,0.3,0.2,0.6,0.4,0.9
		c0.2,0.2,0.3,0.3,0.6,0.4c-0.5,15.8-9.2,30.3-22.9,38.2c-4.6,2.7-9.7,4.5-15,5.5l0.2,1.3C335.5,249.6,340.7,247.7,345.5,245z"/>
	<path d="M342.7,240.2c-8.1,4.7-17.4,6.4-26.6,5.1c0-0.1-0.1-0.3-0.2-0.4c-0.2-0.4-0.6-0.7-1-0.8c-0.4-0.1-0.9-0.1-1.2,0.2
		c-0.3,0.2-0.5,0.4-0.7,0.7c-0.1,0.3-0.2,0.6-0.2,0.9c0,0.3,0.2,0.6,0.4,0.9c0.2,0.2,0.5,0.4,0.8,0.5c0.3,0.1,0.6,0.1,1,0
		c0.3-0.1,0.6-0.3,0.8-0.6c0-0.1,0.1-0.1,0.1-0.2c9.5,1.3,19.1-0.5,27.4-5.3c20-11.5,27.2-36.9,16.5-57.1c0,0,0,0,0,0
		c0.2-0.3,0.3-0.6,0.3-0.9c0-0.3-0.1-0.7-0.2-0.9c-0.2-0.4-0.6-0.7-1-0.8c-0.4-0.1-0.9-0.1-1.2,0.2c-0.3,0.2-0.5,0.4-0.7,0.7
		c-0.1,0.3-0.2,0.6-0.2,0.9c0,0.3,0.2,0.6,0.4,0.9c0.2,0.2,0.5,0.4,0.8,0.5c0.2,0.1,0.4,0.1,0.6,0
		C369.1,204.4,362.1,229,342.7,240.2z"/>
	<path d="M294.6,148c0.3,0.1,0.6,0.1,1,0s0.6-0.3,0.8-0.6c0.2-0.2,0.3-0.5,0.3-0.7c9.1-4,19.1-5.8,29.1-5.2c0.1,0,0.3,0,0.4-0.1
		c0.1,0,0.2-0.1,0.2-0.2c0.1-0.1,0.1-0.2,0.1-0.3l0.4-3.6c13.8,1.1,27,6.3,37.7,15.1l-2.2,2.8c-0.1,0.1-0.1,0.3-0.1,0.4
		c0,0.2,0.1,0.3,0.2,0.4c0,0,0.1,0,0.1,0l0,0c5.6,4.7,10.3,10.3,13.9,16.6c0.2,0.4,0.4,0.8,0.6,1.2c-0.1,0.1-0.1,0.2-0.2,0.3
		c-0.1,0.3-0.2,0.6-0.2,0.9c0,0.3,0.2,0.6,0.4,0.9c0.2,0.2,0.5,0.4,0.8,0.5c0.3,0.1,0.6,0.1,1,0c0.3-0.1,0.6-0.3,0.8-0.6
		c0.2-0.3,0.3-0.6,0.3-0.9c0-0.3-0.1-0.7-0.2-0.9c-0.2-0.4-0.6-0.7-1-0.8c-0.2-0.1-0.4-0.1-0.6,0c-0.2-0.4-0.4-0.8-0.6-1.2
		c-3.6-6.3-8.3-11.9-13.8-16.6l2.1-2.7c0.1-0.1,0.1-0.1,0.1-0.2c0-0.1,0-0.2,0-0.3c0-0.1,0-0.2-0.1-0.2c0-0.1-0.1-0.1-0.1-0.2
		l0.1-0.1l-0.3-0.3c-11.1-9.1-24.7-14.5-39-15.5c-0.1,0-0.1-0.1-0.2-0.1c-0.1,0-0.2,0-0.3,0c-0.1,0-0.2,0.1-0.2,0.1
		c-0.1,0.1-0.1,0.1-0.2,0.2c0,0.1-0.1,0.2-0.1,0.2l-0.4,3.6c-9.9-0.5-19.8,1.3-28.9,5.3c-0.2-0.3-0.5-0.5-0.9-0.6
		c-0.4-0.1-0.9-0.1-1.2,0.2c-0.3,0.2-0.5,0.4-0.7,0.7c-0.1,0.3-0.2,0.6-0.2,0.9c0,0.3,0.2,0.6,0.4,0.9
		C294,147.8,294.3,148,294.6,148z"/>
	<path d="M288.4,156.7c0-0.1,0-0.3,0-0.4c1.4-1,2.8-1.9,4.3-2.8c15.4-8.9,33.1-10,48.7-4.5l-1,2.8c-10.6-3.7-22-4.1-32.8-1.2
		c-0.2-0.3-0.5-0.5-0.9-0.6c-0.4-0.1-0.9-0.1-1.2,0.2c-0.3,0.2-0.5,0.4-0.7,0.7c-0.1,0.3-0.2,0.6-0.2,0.9c0,0.3,0.2,0.6,0.4,0.9
		c0.2,0.2,0.5,0.4,0.8,0.5c0.3,0.1,0.6,0.1,1,0c0.3-0.1,0.6-0.3,0.8-0.6c0.2-0.2,0.3-0.5,0.3-0.7c10.8-2.9,22.1-2.4,32.6,1.4
		c0,0,0,0,0,0c0.1,0,0.2,0,0.3,0c0.1,0,0.2,0,0.3-0.1c0.1-0.1,0.2-0.2,0.3-0.3l1.2-3.4c12.3,4.6,23.1,13.3,30.1,25.5
		c4.9,8.5,7.5,18,7.8,27.8c0,0-0.1,0-0.1,0c-0.3,0.2-0.5,0.4-0.7,0.7c-0.1,0.3-0.2,0.6-0.2,0.9c0,0.3,0.2,0.6,0.4,0.9
		c0.2,0.2,0.5,0.4,0.8,0.5c0.3,0.1,0.6,0.1,1,0c0.3-0.1,0.6-0.3,0.8-0.6c0.2-0.3,0.3-0.6,0.3-0.9c0-0.3-0.1-0.7-0.2-0.9
		c-0.2-0.3-0.5-0.5-0.8-0.7c-0.2-10-3-19.8-8-28.4c-16.5-28.6-53.2-38.4-81.7-21.9c-1.5,0.9-3,1.8-4.4,2.8c-0.1-0.1-0.3-0.2-0.4-0.2
		c-0.4-0.1-0.9-0.1-1.2,0.2c-0.3,0.2-0.5,0.4-0.7,0.7c-0.1,0.3-0.2,0.6-0.2,0.9c0,0.3,0.2,0.6,0.4,0.9c0.2,0.2,0.5,0.4,0.8,0.5
		c0.3,0.1,0.6,0.1,1,0c0.3-0.1,0.6-0.3,0.8-0.6C288.2,157.3,288.4,157,288.4,156.7z"/>
	<path d="M342.6,258.3c-0.4-0.1-0.9-0.1-1.2,0.2c-0.3,0.2-0.5,0.4-0.7,0.7c-0.1,0.2-0.1,0.4-0.1,0.6c-10.9,3.7-22.6,4.1-33.8,1
		c-1.2-0.3-2.3-0.7-3.5-1.1c0-0.2-0.1-0.5-0.2-0.7c-0.2-0.4-0.6-0.7-1-0.8c-0.4-0.1-0.9-0.1-1.2,0.2c-0.3,0.2-0.5,0.4-0.7,0.7
		c-0.1,0.3-0.2,0.6-0.2,0.9c0,0.3,0.2,0.6,0.4,0.9c0.2,0.2,0.5,0.4,0.8,0.5c0.3,0.1,0.6,0.1,1,0c0.3-0.1,0.5-0.3,0.7-0.5
		c1.2,0.4,2.3,0.8,3.5,1.1c11.3,3.1,23.3,2.7,34.5-1.1c0,0,0,0,0,0c0.2,0.2,0.5,0.4,0.8,0.5c0.3,0.1,0.6,0.1,1,0
		c0.3-0.1,0.6-0.3,0.8-0.6c0.2-0.3,0.3-0.6,0.3-0.9c0-0.3-0.1-0.7-0.2-0.9C343.4,258.7,343,258.4,342.6,258.3z"/>
	<path d="M371.4,219c0.3-0.1,0.6-0.3,0.8-0.6c0.2-0.3,0.3-0.6,0.3-0.9c0-0.3-0.1-0.7-0.2-0.9c-0.2-0.4-0.6-0.7-1-0.8
		c-0.4-0.1-0.9-0.1-1.2,0.2c-0.3,0.2-0.5,0.4-0.7,0.7c-0.1,0.3-0.2,0.6-0.2,0.9c0,0.3,0.2,0.6,0.4,0.9c0.1,0.1,0.1,0.1,0.2,0.2
		c-1.8,6-4.7,11.6-8.6,16.5c-0.3-0.1-0.7-0.1-1,0c-0.3,0.1-0.6,0.3-0.8,0.6c-0.2,0.3-0.3,0.6-0.3,0.9c0,0.3,0.1,0.6,0.2,0.9
		c0.2,0.3,0.4,0.5,0.7,0.6c0.3,0.1,0.6,0.2,0.9,0.1c0.3,0,0.6-0.2,0.9-0.4c0.2-0.2,0.4-0.5,0.5-0.8c0.1-0.3,0.1-0.7-0.1-1
		c0-0.1-0.1-0.1-0.1-0.2c4-5.1,7-10.8,8.8-16.9C371.1,219,371.3,219,371.4,219z"/>
	<path d="M354.3,151.4c0.2,0.2,0.5,0.4,0.8,0.5c0.3,0.1,0.6,0.1,1,0c0.3-0.1,0.6-0.3,0.8-0.6c0.2-0.3,0.3-0.6,0.3-0.9
		c0-0.3-0.1-0.7-0.2-0.9c-0.2-0.4-0.6-0.7-1-0.8c-0.4-0.1-0.9-0.1-1.2,0.2c-0.1,0.1-0.2,0.1-0.2,0.2c-5.5-3.2-11.4-5.6-17.5-7.1
		c0-0.2-0.1-0.4-0.2-0.6c-0.2-0.4-0.6-0.7-1-0.8c-0.4-0.1-0.9-0.1-1.2,0.2c-0.3,0.2-0.5,0.4-0.7,0.7c-0.1,0.3-0.2,0.6-0.2,0.9
		c0,0.3,0.2,0.6,0.4,0.9c0.2,0.2,0.5,0.4,0.8,0.5c0.3,0.1,0.6,0.1,1,0c0.3-0.1,0.6-0.3,0.8-0.6c0,0,0,0,0,0c6.1,1.5,11.9,3.8,17.2,7
		c0,0.1,0,0.2,0,0.3C354,150.8,354.1,151.1,354.3,151.4z"/>
	<path d="M349.7,252.3c10.6-6.1,18.9-15.6,23.6-27c4.5-10.9,5.4-22.9,2.6-34.3c0.1-0.1,0.2-0.2,0.3-0.3c0.2-0.3,0.3-0.6,0.3-0.9
		s-0.1-0.7-0.2-0.9c-0.2-0.4-0.6-0.7-1-0.8c-0.4-0.1-0.9-0.1-1.2,0.2c-0.3,0.2-0.5,0.4-0.7,0.7c-0.1,0.3-0.2,0.6-0.2,0.9
		c0,0.3,0.2,0.6,0.4,0.9c0.2,0.2,0.5,0.4,0.8,0.5c0.1,0,0.1,0,0.2,0c2.1,8.8,2.1,18-0.2,26.7c-2.4,9.2-7.3,17.7-14,24.4
		c-3.2,3.3-6.9,6.1-10.8,8.4l-1.8-3.1c0-0.1-0.1-0.1-0.2-0.2c-0.1-0.1-0.1-0.1-0.2-0.1c-0.1,0-0.2,0-0.2,0c-0.1,0-0.2,0-0.2,0.1
		c-7.2,4.1-15.3,6.4-23.6,6.6c0,0,0-0.1-0.1-0.1c-0.2-0.4-0.6-0.7-1-0.8c-0.4-0.1-0.9-0.1-1.2,0.2c-0.3,0.2-0.5,0.4-0.7,0.7
		c-0.1,0.3-0.2,0.6-0.2,0.9c0,0.3,0.2,0.6,0.4,0.9c0.2,0.2,0.5,0.4,0.8,0.5c0.3,0.1,0.6,0.1,1,0s0.6-0.3,0.8-0.6
		c0.1-0.1,0.2-0.3,0.2-0.4c8.3-0.2,16.4-2.5,23.6-6.5l1.5,2.6c-3.9,2.2-8.1,3.9-12.5,5.1c-8.7,2.4-17.9,2.4-26.7,0.3
		c0-0.2-0.1-0.4-0.2-0.5c-0.2-0.4-0.6-0.7-1-0.8c-0.4-0.1-0.9-0.1-1.2,0.2c-0.3,0.2-0.5,0.4-0.7,0.7c-0.1,0.3-0.2,0.6-0.2,0.9
		c0,0.3,0.2,0.6,0.4,0.9c0.2,0.2,0.5,0.4,0.8,0.5c0.3,0.1,0.6,0.1,1,0c0.3-0.1,0.6-0.3,0.8-0.6c0,0,0,0,0,0c6.6,1.6,13.4,2,20.2,1.1
		C336.4,258.4,343.4,256,349.7,252.3C349.7,252.3,349.7,252.3,349.7,252.3C349.7,252.3,349.7,252.3,349.7,252.3z"/>
	<path d="M325,233.6c28-12.6,26.9-45.5,26.9-45.5s-7.8,0.5-26.9-14.4c-19,15-26.9,14.4-26.9,14.4S297,221,325,233.6z M329.2,200.6
		c-0.3,0.6-0.8,1.1-1.3,1.5l1,10.7H325h0h-3.7l1-10.5c-0.6-0.4-1.1-0.9-1.5-1.6c-0.4-0.6-0.5-1.4-0.5-2.1c0-2.5,2.1-4.5,4.7-4.5
		c2.6,0,4.7,2,4.7,4.5C329.7,199.3,329.5,200,329.2,200.6z"/>
	<path d="M28,229.8c-5,0-8.9-3.3-10.2-8.3l-3.9,1c1.7,6.5,7,11.3,14.1,11.3c7.7,0,14.8-5.5,14.8-14.5c0-19.6-22.9-10.6-22.9-24.2
		c0-6.4,5.5-8.6,8.6-8.6c2.9,0,5.8,1.6,7.7,4.2l3.2-2.4c-2.5-3.5-6.5-5.9-10.9-5.9c-4.3,0-12.7,3.1-12.7,12.7
		c0,17.5,22.9,8.1,22.9,24.2C38.7,225.8,33.8,229.8,28,229.8z"/>
	<path d="M62.5,234c2.9,0,5.7-0.8,8.1-2.3c2.4-1.5,4.5-3.6,5.8-6.1l-3.5-2c-2.2,4.2-5.7,6.3-10.4,6.3c-2.6,0-5.1-0.8-7.1-2.4
		l20.5-18c-3.2-4.7-7.7-7.2-13.4-7.2c-2.1,0-4.1,0.4-6.1,1.2c-1.9,0.8-3.7,2-5.1,3.4c-1.5,1.5-2.6,3.2-3.4,5.1s-1.2,4-1.2,6.1
		C46.7,227,53.7,234,62.5,234z M62.5,206.4c2.9,0,5.5,1,7.7,2.9l-17.5,15.5c-1.3-2-2-4.3-1.9-6.6C50.8,211.5,55.9,206.4,62.5,206.4z
		"/>
	<path d="M93.6,206.4c3.6,0,6.7,1.5,9,4.2l3.1-2.5c-3.1-3.8-7.2-5.7-12.2-5.7c-2.1,0-4.1,0.4-6.1,1.2c-1.9,0.8-3.7,2-5.1,3.4
		c-1.5,1.5-2.6,3.2-3.4,5.1c-0.8,1.9-1.2,4-1.2,6.1c0,8.8,7,15.9,15.8,15.9c4.8,0,8.9-1.9,12-5.5l-3.3-2.5c-2.3,2.6-5.3,4-8.8,4
		c-6.8,0-11.8-5.1-11.8-11.8C81.9,211.5,87,206.4,93.6,206.4z"/>
	<path d="M129.1,222c0,1.1-0.2,2.1-0.6,3.1c-0.4,1-1,1.9-1.7,2.6c-0.7,0.8-1.6,1.4-2.6,1.8c-1,0.4-2,0.6-3.1,0.6s-2.1-0.2-3.1-0.6
		c-1-0.4-1.9-1-2.6-1.8c-0.7-0.8-1.3-1.7-1.7-2.6c-0.4-1-0.6-2-0.6-3.1v-18.9h-4V222c0,1.6,0.3,3.1,0.9,4.6c0.6,1.5,1.5,2.8,2.6,3.9
		c1.1,1.1,2.4,2,3.9,2.6c1.5,0.6,3,0.9,4.6,0.9c3.3,0,6.2-1.2,8.5-3.6l3.5,2.8v-30h-4V222z"/>
	<path d="M149.2,202.3c-3.3,0-6.1,1.2-8.4,3.5l-3.3-2.7v30h4V214c0-1,0.2-2,0.6-2.9c0.4-0.9,0.9-1.8,1.7-2.5
		c0.7-0.7,1.6-1.3,2.5-1.7c0.9-0.4,1.9-0.6,2.9-0.6c0.7,0,1.5,0.1,2.2,0.3l1.8-3.6C151.9,202.5,150.6,202.3,149.2,202.3z"/>
	<path d="M181.5,225.6l-3.5-2c-2.2,4.2-5.7,6.3-10.4,6.3c-2.6,0-5.1-0.8-7.1-2.4l20.5-18c-3.2-4.7-7.7-7.2-13.4-7.2
		c-2.1,0-4.1,0.4-6.1,1.2c-1.9,0.8-3.7,2-5.1,3.4c-1.5,1.5-2.6,3.2-3.4,5.1s-1.2,4-1.2,6.1c0,8.8,7,15.9,15.8,15.9
		c2.9,0,5.7-0.8,8.1-2.3C178.2,230.3,180.2,228.2,181.5,225.6z M155.9,218.1c0-6.6,5.2-11.8,11.8-11.8c2.9,0,5.5,1,7.7,2.9
		l-17.5,15.5C156.5,222.8,155.8,220.5,155.9,218.1z"/>
	<polygon points="185.4,195.4 189.5,195.4 189.5,191.4 185.4,191.4 	"/>
	<polygon points="185.4,233.1 189.5,233.1 189.5,203.1 185.4,203.1 	"/>
	<path d="M214.8,205.8c-1.1-1.1-2.4-2-3.9-2.6c-1.4-0.6-3-0.9-4.6-0.9c-3.3,0-6.1,1.2-8.5,3.5l-3.4-2.8v30h4v-18.9c0-1,0.2-2,0.6-3
		c0.4-0.9,0.9-1.8,1.7-2.5c1.5-1.6,3.4-2.4,5.6-2.4c2.2,0,4,0.8,5.6,2.3c1.6,1.5,2.4,3.3,2.4,5.6v18.9h4v-18.9
		c0-1.6-0.3-3.1-0.9-4.6C216.9,208.2,216,206.9,214.8,205.8z"/>
	<polygon points="229.8,192.7 225.7,194.7 225.7,203.2 220.3,203.2 220.3,207.3 225.7,207.3 225.7,233.1 229.8,233.1 229.8,207.3 
		235.1,207.3 235.1,203.2 229.8,203.2 	"/>
	<path d="M251.7,230c-2.6,0-5.1-0.8-7.1-2.4l20.5-18c-3.2-4.7-7.7-7.2-13.4-7.2c-2.1,0-4.1,0.4-6.1,1.2c-1.9,0.8-3.7,2-5.1,3.4
		c-1.5,1.5-2.6,3.2-3.4,5.1s-1.2,4-1.2,6.1c0,8.8,7,15.9,15.8,15.9c2.9,0,5.7-0.8,8.1-2.3c2.5-1.5,4.5-3.6,5.8-6.1l-3.5-2
		C259.9,227.8,256.4,230,251.7,230z M239.9,218.1c0-6.6,5.2-11.8,11.8-11.8c2.9,0,5.5,1,7.7,2.9l-17.5,15.5
		C240.6,222.8,239.9,220.5,239.9,218.1z"/>
	<rect x="269.5" y="183.3" width="4" height="49.8"/>
	<rect x="279.1" y="191.4" width="4" height="4"/>
	<rect x="279.1" y="203.1" width="4" height="30"/>
	<path d="M16.7,246.7c0-1,1-1.5,2.4-1.5c1.1,0,2.2,0.3,3.1,0.9l0.5-1.2c-1.1-0.7-2.3-1-3.6-1c-2.3,0-3.9,1.1-3.9,2.9
		c0,4,6.4,2.5,6.3,5.5c0,1.1-1,1.8-2.6,1.8c-1.4,0-2.7-0.6-3.8-1.6l-0.6,1.1c1.2,1.1,2.7,1.7,4.3,1.7c2.4,0,4.1-1.2,4.1-3.1
		C23.1,248.1,16.7,249.6,16.7,246.7z"/>
	<path d="M29.8,246.7c-2.5,0-4.2,1.8-4.2,4.3c0,2.5,1.7,4.3,4.2,4.3c1.4,0,2.6-0.5,3.4-1.4l-0.7-0.7c-0.3,0.4-0.7,0.6-1.2,0.8
		c-0.5,0.2-0.9,0.3-1.4,0.3c-1.7,0-2.9-1.1-3.1-2.8h6.9C33.9,248.6,32.6,246.7,29.8,246.7z M26.9,250.4c0.2-1.6,1.3-2.7,3-2.7
		c1.7,0,2.8,1.1,2.8,2.7H26.9z"/>
	<path d="M40.3,254.2c-1.8,0-3-1.3-3-3.2c0-1.9,1.3-3.2,3-3.2c0.5,0,0.9,0.1,1.4,0.2c0.4,0.2,0.8,0.4,1.2,0.8l0.7-0.9
		c-0.8-0.8-1.9-1.3-3.3-1.3c-2.4,0-4.2,1.8-4.2,4.3c0,2.5,1.7,4.3,4.2,4.3c1.5,0,2.6-0.5,3.4-1.5l-0.7-0.7
		C42.3,253.8,41.4,254.2,40.3,254.2z"/>
	<path d="M53,250.9c0,1.8-1,3.1-2.8,3.2c-1.5,0-2.4-0.9-2.4-2.4v-4.9h-1.3v5.2c0,2,1.2,3.3,3.2,3.3c1.5,0,2.7-0.6,3.2-2v1.9h1.3
		v-8.5H53V250.9z"/>
	<path d="M59.5,248.6v-1.9h-1.3v8.5h1.3v-4.5c0.1-1.7,1.3-2.8,3-2.8v-1.2C61.1,246.7,60.1,247.4,59.5,248.6z"/>
	<path d="M65.8,243.5c-0.2,0-0.4,0.1-0.6,0.2c-0.2,0.2-0.2,0.4-0.2,0.6c0,0.2,0.1,0.4,0.2,0.6c0.2,0.2,0.4,0.2,0.6,0.2
		c0.2,0,0.4-0.1,0.6-0.2c0.2-0.2,0.2-0.4,0.2-0.6c0-0.2-0.1-0.4-0.2-0.6C66.2,243.6,66,243.5,65.8,243.5z"/>
	<rect x="65.2" y="246.7" width="1.2" height="8.5"/>
	<path d="M75,246.7c-1.6,0-2.7,0.6-3.3,1.9v-1.9h-1.3v8.5h1.3v-4.5c0.1-1.6,1.2-2.8,2.9-2.8c1.5,0,2.4,0.9,2.4,2.4v4.9h1.3V250
		C78.2,247.9,77,246.7,75,246.7z"/>
	<path d="M88.1,248.5c-0.6-1.1-1.7-1.8-3.2-1.8c-2.3,0-3.8,1.7-3.8,4.1c0,2.4,1.6,4.1,3.9,4.1c1.4,0,2.5-0.6,3.1-1.8v1.3
		c0,1.8-1.2,2.9-3.1,2.9c-1.1,0-2.1-0.4-2.9-1.1l-0.6,0.9c1,0.8,2.2,1.2,3.5,1.2c2.6,0,4.3-1.6,4.3-4v-7.6h-1.3V248.5z M85.2,253.8
		c-1.7,0-2.9-1.3-2.9-3c0-1.8,1.2-3,2.9-3c1.7,0,2.9,1.3,2.9,3h0C88.1,252.5,86.9,253.8,85.2,253.8z"/>
	<path d="M101.4,254.1c-0.7,0-1.1-0.4-1.1-1.4V248h2.7v-1h-2.7v-2.2h-1.2v2.2h-1.2v1h1.2v4.9c0,1.7,0.9,2.4,2.2,2.4
		c0.7,0,1.4-0.2,1.9-0.6l-0.4-1C102.4,253.9,101.9,254.1,101.4,254.1z"/>
	<path d="M110.6,246.7c-1.6,0-2.7,0.6-3.3,2v-5.4h-1.3v12h1.3v-4.2c0-1.9,1.1-3.1,2.9-3.2c1.5,0,2.4,0.9,2.4,2.4v4.9h1.3V250
		C113.9,247.9,112.7,246.7,110.6,246.7z"/>
	<path d="M120.9,246.7c-2.5,0-4.2,1.8-4.2,4.3c0,2.5,1.7,4.3,4.2,4.3c1.4,0,2.6-0.5,3.4-1.4l-0.7-0.7c-0.3,0.4-0.7,0.6-1.2,0.8
		c-0.5,0.2-0.9,0.3-1.4,0.3c-1.7,0-2.9-1.1-3.1-2.8h6.9C125.1,248.6,123.7,246.7,120.9,246.7z M118,250.4c0.2-1.6,1.3-2.7,3-2.7
		c1.7,0,2.8,1.1,2.8,2.7H118z"/>
	<path d="M138.4,243.9h-4.6v11.3h4.5c3.3,0,5.9-2.4,5.9-5.6C144.2,246.4,141.7,243.9,138.4,243.9z M138.4,254h-3.3v-8.9h3.2
		c2.5,0,4.5,1.9,4.5,4.5C142.9,252.1,140.9,254,138.4,254z"/>
	<path d="M147.9,243.5c-0.2,0-0.4,0.1-0.6,0.2c-0.2,0.2-0.2,0.4-0.2,0.6c0,0.2,0.1,0.4,0.2,0.6c0.2,0.2,0.4,0.2,0.6,0.2
		c0.2,0,0.4-0.1,0.6-0.2c0.2-0.2,0.2-0.4,0.2-0.6c0-0.2-0.1-0.4-0.2-0.6C148.3,243.6,148.1,243.5,147.9,243.5z"/>
	<rect x="147.3" y="246.7" width="1.2" height="8.5"/>
	<path d="M158.7,248.5c-0.6-1.1-1.7-1.8-3.2-1.8c-2.3,0-3.8,1.7-3.8,4.1c0,2.4,1.6,4.1,3.9,4.1c1.4,0,2.5-0.6,3.1-1.8v1.3
		c0,1.8-1.2,2.9-3.1,2.9c-1.1,0-2.1-0.4-2.9-1.1l-0.6,0.9c1,0.8,2.2,1.2,3.5,1.2c2.6,0,4.3-1.6,4.3-4v-7.6h-1.3V248.5z M155.8,253.8
		c-1.7,0-2.9-1.3-2.9-3c0-1.8,1.2-3,2.9-3c1.7,0,2.9,1.3,2.9,3C158.7,252.5,157.5,253.8,155.8,253.8z"/>
	<path d="M164.4,243.5c-0.2,0-0.4,0.1-0.6,0.2c-0.2,0.2-0.2,0.4-0.2,0.6c0,0.2,0.1,0.4,0.2,0.6c0.2,0.2,0.4,0.2,0.6,0.2
		c0.2,0,0.4-0.1,0.6-0.2c0.2-0.2,0.2-0.4,0.2-0.6c0-0.2-0.1-0.4-0.2-0.6C164.8,243.6,164.6,243.5,164.4,243.5z"/>
	<rect x="163.7" y="246.7" width="1.2" height="8.5"/>
	<path d="M171.6,254.1c-0.7,0-1.1-0.4-1.1-1.4V248h2.7v-1h-2.7v-2.2h-1.2v2.2h-1.2v1h1.2v4.9c0,1.7,0.9,2.4,2.2,2.4
		c0.7,0,1.4-0.2,1.9-0.6l-0.4-1C172.6,253.9,172.1,254.1,171.6,254.1z"/>
	<path d="M179.4,246.7c-1.5,0-2.4,0.4-3.5,1.1l0.5,0.9c0.9-0.6,1.8-1,2.7-1c1.5,0,2.3,0.8,2.3,2v0.5h-2.8c-2,0-3.2,0.9-3.2,2.4
		c0,1.5,1.1,2.6,2.9,2.6c1.4,0,2.4-0.5,3.1-1.4v1.3h1.2l0-5.6C182.7,247.8,181.5,246.7,179.4,246.7z M181.5,252.3
		c-0.3,1.2-1.4,1.9-2.9,1.9c-1.2,0-2-0.6-2-1.6c0-1,0.7-1.4,2.2-1.4h2.6V252.3z"/>
	<rect x="186.5" y="243.3" width="1.3" height="12"/>
	<polygon points="199,250.1 204.6,250.1 204.6,248.9 199,248.9 199,245.1 205.3,245.1 205.3,243.9 197.7,243.9 197.7,255.2 
		205.5,255.2 205.5,254 199,254 	"/>
	<path d="M213.5,246.7c-1.6,0-2.7,0.6-3.3,1.9v-1.9h-1.3v8.5h1.3v-4.5c0.1-1.6,1.2-2.8,2.9-2.8c1.5,0,2.4,0.9,2.4,2.4v4.9h1.3V250
		C216.7,247.9,215.5,246.7,213.5,246.7z"/>
	<path d="M223.1,254.1c-0.7,0-1.1-0.4-1.1-1.4V248h2.7v-1H222v-2.2h-1.2v2.2h-1.2v1h1.2v4.9c0,1.7,0.9,2.4,2.2,2.4
		c0.7,0,1.4-0.2,1.9-0.6l-0.4-1C224.1,253.9,223.6,254.1,223.1,254.1z"/>
	<path d="M230.9,246.7c-2.5,0-4.2,1.8-4.2,4.3c0,2.5,1.7,4.3,4.2,4.3c1.4,0,2.6-0.5,3.4-1.4l-0.7-0.7c-0.3,0.4-0.8,0.6-1.2,0.8
		c-0.5,0.2-0.9,0.3-1.4,0.3c-1.7,0-2.9-1.1-3.1-2.8h6.9C235,248.6,233.6,246.7,230.9,246.7z M227.9,250.4c0.2-1.6,1.3-2.7,3-2.7
		c1.7,0,2.8,1.1,2.8,2.7H227.9z"/>
	<path d="M239.2,248.6v-1.9H238v8.5h1.3v-4.5c0.1-1.7,1.3-2.8,3-2.8v-1.2C240.8,246.7,239.8,247.4,239.2,248.6z"/>
	<path d="M249.5,246.7c-1.5,0-2.7,0.7-3.3,1.9v-1.8H245v11.6h1.3v-4.9c0.6,1.2,1.8,1.9,3.3,1.9c2.4,0,4-1.8,4-4.3
		C253.6,248.5,251.9,246.7,249.5,246.7z M249.3,254.2c-1.8,0-3-1.3-3-3.2c0-1.9,1.3-3.2,3-3.2c1.8,0,3,1.4,3,3.2h0
		C252.3,252.8,251.1,254.2,249.3,254.2z"/>
	<path d="M258,248.6v-1.9h-1.3v8.5h1.3v-4.5c0.1-1.7,1.3-2.8,3-2.8v-1.2C259.6,246.7,258.5,247.4,258,248.6z"/>
	<path d="M264.3,243.5c-0.2,0-0.4,0.1-0.6,0.2c-0.2,0.2-0.2,0.4-0.2,0.6c0,0.2,0.1,0.4,0.2,0.6c0.2,0.2,0.4,0.2,0.6,0.2
		c0.2,0,0.4-0.1,0.6-0.2c0.2-0.2,0.2-0.4,0.2-0.6c0-0.2-0.1-0.4-0.2-0.6C264.7,243.6,264.5,243.5,264.3,243.5z"/>
	<rect x="263.7" y="246.7" width="1.2" height="8.5"/>
	<path d="M269.4,248.9c0-0.8,0.7-1.1,1.7-1.1c0.8,0,1.6,0.2,2.3,0.7l0.5-1c-0.8-0.5-1.8-0.8-2.7-0.8c-1.5,0-3,0.7-3,2.3
		c0,3,4.7,2,4.7,4c0,0.8-0.8,1.2-1.8,1.2c-1,0-2-0.4-2.8-1.1l-0.5,0.9c0.8,0.8,2,1.2,3.3,1.2c1.6,0,3.1-0.7,3.1-2.4
		C274.1,249.8,269.4,250.8,269.4,248.9z"/>
	<path d="M280.5,246.7c-2.5,0-4.2,1.8-4.2,4.3c0,2.5,1.7,4.3,4.2,4.3c1.4,0,2.6-0.5,3.4-1.4l-0.7-0.7c-0.3,0.4-0.8,0.6-1.2,0.8
		c-0.5,0.2-0.9,0.3-1.4,0.3c-1.7,0-2.9-1.1-3.1-2.8h6.9C284.6,248.6,283.2,246.7,280.5,246.7z M277.5,250.4c0.2-1.6,1.3-2.7,3-2.7
		c1.7,0,2.8,1.1,2.8,2.7H277.5z"/>
</g>
</svg>
