<?xml version="1.0" encoding="utf-8"?>
<!-- Generator: Adobe Illustrator 28.1.0, SVG Export Plug-In . SVG Version: 6.00 Build 0)  -->
<svg version="1.1" id="Layer_1" xmlns="http://www.w3.org/2000/svg" xmlns:xlink="http://www.w3.org/1999/xlink" x="0px" y="0px"
	 viewBox="0 0 400 400" style="enable-background:new 0 0 400 400;" xml:space="preserve">
<g>
	<path d="M146.1,165.4c8.7-9,20.6-21.2,29.9-26.4c9.6-5.3,16.8-8.6,20.7-7.4c0.4,0.1,0.7,0.3,1,0.5c0.3,0.2,0.5,0.5,0.6,0.7
		c0.3,0.7,0.3,1.1,0.7,1.5c0.4,0.4,1.8,0.8,2.2-0.4c0.4-1.2-1.1-2.8-2.8-3.6c-1.7-0.7-5-0.3-5.8-0.1c-4.2,0.8-10,3.5-17.2,7.5
		c-9.5,5.3-21.5,17.6-30.2,26.6c-2.7,2.8-5.1,5.3-7.1,7.2c-1.5,1.4-3.3,3.2-5.2,5.1c-3.7,3.6-7.9,7.8-12.2,11.8
		c0.3-4.1,0.3-8.2,0.5-12.2c2.5-2.1,4.7-4,6.7-5.6l2.6-2.2c4.5-3.8,6.8-6.8,8.2-9.4c0.6-0.9,1.2-1.9,1.7-3c1.7-4-0.1-6.8-4.4-6.7
		c-12.4,0-16.9,12.7-17.4,23.1c-0.1,1.6-0.2,3.1-0.3,4.7c-7,5.8-15.8,12.9-25.3,19.8c0.3-4.8-1.4-10.3-4.6-13.8
		c-4.1-4.6-7.9-6.7-17.8-6.6c-9.9,0.1-18.4,9.5-20.1,18.2c-1.4,6.8-1.4,16.2,5.3,24.6c-8.9,4.5-25.5,9.2-35,8.7
		c-4.2-0.2-7-0.9-8.7-2c-0.6-0.5-1.4-1.8-1.7-2.3c-0.9-1.6-1.1-2.3-2.1-2.1c-1,0.2-1.1,1.4-0.6,2.6c0.5,1.3,4.8,5.1,12.7,5.1
		c0.5,0,1,0,1.5,0c9.9,0,26.1-4.6,34.7-9c0.7,0.8,1.4,1.6,2.2,2.3l0.2-0.2c5.8,5.6,14.2,8.6,22.3,8.1c11.5-0.3,21.8-7.2,29.1-15.7
		c3.6-4.3,7.2-9.1,8.7-14.7c0.8-3.2,1.2-6.5,1.5-9.9c4.6-4.3,9.3-8.9,13.3-12.8c1.9-1.9,3.7-3.6,5.2-5.1
		C141,170.7,143.4,168.3,146.1,165.4z M121.4,172.8c0.2-9.1,3.8-20.9,14.6-21.1c5.9-0.6,2,6,0.2,8.5c-2,2.7-4.3,5.2-6.7,7.6l-2.4,2
		c-1.7,1.4-3.6,3.1-5.8,4.9C121.3,174.1,121.4,173.4,121.4,172.8z M56.9,219c-6.5-8.1-6.5-17.3-5.2-23.8c1.7-8.3,9.7-17.2,18.9-17.2
		c9.6-0.1,12.9,1.8,16.9,6.2c3.2,3.5,4.8,9.3,4.2,13.9c-11.3,8.1-20.1,12.9-27.3,16.8c-2.4,1.3-4.7,2.5-6.7,3.7
		C57.4,218.7,57.1,218.8,56.9,219z M91.3,199.8c0,0.1-0.1,0.3-0.1,0.4c-0.5,1.4-1.1,2.2-1.9,2.4c-0.6,0.2-1.3,0-1.8-0.2
		C88.7,201.7,90,200.8,91.3,199.8z M117.1,194.5c-0.4,3.5-1.1,6.9-2.8,10c-5.2,9.2-13,17.6-22.8,21.8c-10.4,4.7-23.4,3.2-32-4.1
		l0.2-0.2c-0.7-0.7-1.4-1.4-2-2.1c0.2-0.1,0.4-0.2,0.6-0.3c2-1.2,4.3-2.4,6.7-3.7c5.9-3.2,12.9-7,21.4-12.6c0.5,0.3,1.4,0.7,2.4,0.7
		l-0.1,0c0,0,2,2.9,6.6,2.9c2.2,0,5-0.7,8.5-2.7c3.9-2.3,8.6-6.1,13.5-10.5C117.1,193.9,117.1,194.2,117.1,194.5z M117.4,191.7
		c-5.2,4.8-10.3,9-14.4,11.4c-7.9,4.7-11.8,1.8-12.9,0.6c1-0.5,1.8-1.5,2.3-3c0.2-0.6,0.4-1.2,0.5-1.9c0.3-0.2,0.6-0.4,0.8-0.6
		c9.1-6.6,17.6-13.5,24.5-19.2C118,183.2,117.8,187.5,117.4,191.7z"/>
	<path d="M391.1,231.1c-0.6,0.3-0.7,0.6-3,1.3c-1.8,0.6-4.1,1-8.8,0.6c-10.9-0.8-37.4-7.3-47.1-10.4c0.6-0.8,1.2-1.5,1.7-2.3
		c3-4,9.5-12.2,11.9-16.7c1.4-2.8,2.1-4,2.8-7.1c0.3-1.4,0.2-2.1-0.8-2.1c-0.3,0-0.9,0-1.2,0.6c-0.1,0.2-0.2,0.4-0.3,0.6
		c-2,1.3-9.1,5.9-14.2,8.2c-5.9,2.8-9.1,4.2-12.5,2.9c-3.3-1.3,1.7-8.1,3.8-10.4c2.1-2.3,3-3.4,3.3-4.5c0.3-1.1-1-2.1-3-1.2
		c-2,0.9-6.6,8.1-7.4,11.2c-0.1,0.4-0.2,0.9-0.2,1.3c-4.8,3.3-13.2,9.2-20.2,11.5c-1.6-0.1-3.1-0.2-4.5-0.2c-0.1,0-0.2,0-0.2,0
		c-1.2,0-2.5,0.1-3.7,0.1c-0.6-0.4-1.2-0.9-1.6-1.5c-1.6-3.3-0.4-8.2,1.6-13c9.5-5,24.3-16.3,33.7-24.7c7.6-6.8,15.5-16,23-25.9
		c1-1.3,2-2.6,2.9-3.9c1.4-2.1,3.1-4.9,3.9-7.4c1.3-4.7-0.2-6.7-4.7-5.2c-3.6,1.3-7.8,4.1-10.9,6.2c-11.8,8.7-22.2,19.2-31.6,30.5
		c-7.1,8.4-14.5,18-18.8,28.2c-0.4,1-0.7,1.9-1,2.9c-4,3.7-9.8,9.7-13.1,12.5c-15.5,11.9-28.6,12.4-21.5-11c0.3-0.8,0.6-1.7,0.9-2.5
		l0.1,0.2c0.2-0.1,21-10.1,40.4-29.8c14.5-14.7,24.9-26.7,30.3-35.1c0.7-1,1.4-2,2-3.1c1.6-3,5.8-12.7-0.9-12.1
		c-6.4,1.7-14,6.6-19.9,11c-12.1,9.1-22.4,20.2-32,31.9c-7.1,8.8-13.8,18-19.2,28.1c-1.5,3.1-2.9,6.2-4,9.4
		c-10.6,4.3-18,8.5-26.1,8.5c-3,0-3.7-1.9-3.7-2.7c0-2.7,0.3-5.3,4.3-10.2c0.5-0.6,1.1-1.7,0.9-2.2c-0.8-1.8-2.1-1.4-2.7-0.7
		c-0.4,0.5-1.4,1.7-2.3,3.3c-13.2,10-20.3,12.1-24.6,12.1c-1.4,0-1.6-1.4-1.6-2.1c0-2.7,5.2-8,9.6-12.7c0.5-0.6,0.5-0.9,0.4-1.5
		c-0.1-0.6-0.8-1.4-1.8-1.1c-1,0.2-1.1,0.5-1.4,0.8c-0.9,1-6.2,5.4-8.4,10.1c-4.7,3.3-13.4,8.9-24.7,8.9c-6.4,0-8.8-5.7-9.4-9.2
		c1.6,0.3,4.9,0.6,8.3-0.9c4.7-2,6-7.6,5-8.6c-1-1-3.2-1.1-5.5-0.4c-2.3,0.7-11.4,6.5-12.8,7.9c-1.4,1.3-6.4,5.6-8.1,6.4
		c-1.3,0.7,1.7-4.1,3.6-6.7c1.6-0.7,5.4-2.7,13.4-8.2c12.1-8.4,21-16.2,31.6-25.1c10.6-8.9,16.2-17.2,19.1-20.8
		c2.9-3.7,3.5-7.7,3.6-10.1c0.1-2.4-3.1-2.5-6.5-1.3c-3.5,1.2-17.7,10.2-25.4,16.9c-7.7,6.7-17.4,16.9-22,23.1
		c-4.5,6.2-10.6,14-13.4,18.8c-2.8,4.8-5.3,9.8-5.9,11.9c-0.6,2.1-0.4,3.3,0.7,3.4c1,0.1,9-6.2,11-7.9c-0.1,3.2,2.5,12,12.7,12
		c10.6,0,19-4.8,24-8.2c-0.3,1.4-0.3,2.8,0.3,4.1c0.4,0.9,1.6,1.7,3,1.7c6.1,0,14.2-4.1,24.1-11.4c-1.2,2.7-1.9,6-0.6,9.3
		c0.6,1.5,2.7,2.5,4.1,2.5c11.2,0,18.1-5.6,26.6-8.3c-1.1,3.6-1.8,7.4-1.8,11.2c0,7.6,4.4,12.2,12,10c6.5-1.9,12.1-5.9,16.9-10.6
		c1.2-1.2,4.6-4.9,5.8-6.1c1.2-1.2,2.6-2.6,4-4c-0.4,1.9-0.7,3.9-0.8,6c-0.2,3,0.5,5.2,1.7,6.6c-10.2,1.2-20.4,4.8-27.3,9.9
		c-8.8,6.6-14.7,18.3-15.7,26c-1.4,10.9,0.4,19,5.2,23.9c1.7,1.9,3.7,3.5,6.2,4.5c9.5,3.6,19.8-0.5,28.2-5.1
		c6.6-3.9,12.2-9,17.9-14.2c12.5-11.6,22-22.8,32.3-36.4c9.4,3.1,36.6,9.8,47.8,10.6c7,0.5,10.4-0.6,12-1.6c1-0.6,1.5-1.3,1.6-1.8
		C392.9,230.1,391.4,230.9,391.1,231.1z M293.5,188.9c3.7-6.1,8.2-11.8,12.9-17.3c10.4-12.5,22.2-23.4,35.3-33
		c3.1-2.4,10.4-7,7.6,0.4c-0.3,0.9-0.7,1.7-1.1,2.5c-1.3,2.7-3,5.3-4.9,7.6c-6.1,7.6-15.6,18-23,25.2c-8.7,8.5-22.3,18.4-31.5,23.4
		C290.4,194.3,292.2,191.1,293.5,188.9z M259.7,182.6c8.2-12.4,17.7-24,27.9-34.8c5.1-5.4,10.5-10.5,16.4-15.1
		c5.6-4.3,11.5-8.6,18.2-11.1c0.6-0.2,1.2-0.3,1.7-0.1c1.2,0.8,0.9,2.5,0.7,3.9c-0.1,0.6-0.2,1.2-0.4,1.8c0,0.1-0.1,0.2-0.1,0.3
		c-2.4,7.5-14.4,22.4-33.9,42c-17.2,17.3-35.3,27.1-39.3,29.1C253.3,192.9,256.3,187.7,259.7,182.6z M150.6,192.5
		c1.9-2.8,12.7-19.2,24.7-30.9c12-11.6,13.4-12.5,17.3-15.4c3.9-2.9,11.9-8.4,14.3-9.7c2.4-1.4,4.4-1.8,5-1.3
		c0.7,0.5,0.3,5.4-3.6,10.5c-4,5.2-12.5,14.4-17,18.4c-4.6,4.1-18.9,16.1-26.3,21.5c-6.8,5-12.7,9.3-16.7,10.7
		C148.8,195.6,149.4,194.4,150.6,192.5z M154.4,198.9c1.4-1.2,4.9-4.2,7.8-5.3c3.6-1.4,5.1-0.6,4.7,0.6c-0.4,1.1-2.6,4.2-6.6,5.2
		C157.4,200,155.4,199.3,154.4,198.9z M323.8,228.3c-3.9,4.4-7.2,9.2-11.2,13.6c-7.1,7.9-15,15.4-22.9,22.5
		c-3.7,3.3-7.5,6.4-11.8,8.7c-9.8,5.5-18.8,7-25.3,4.1c-0.7-0.3-1.4-0.7-2.1-1.1c-0.1-0.1-0.2-0.1-0.3-0.2c-0.2-0.1-0.3-0.2-0.5-0.4
		c-0.3-0.2-0.5-0.4-0.7-0.6c0,0-0.1-0.1-0.1-0.1c-1.7-1.4-3.1-3.3-4.2-5.6c0-0.1-0.1-0.2-0.1-0.3c0-0.1-0.1-0.2-0.1-0.3
		c-2.3-5.3-2.3-12-1.5-17.8c1-7.4,6.6-18.8,15.2-25.2c6.9-5.1,17.3-8.7,27.7-9.8c2.8,2.1,7.4,1.7,11.6,0c10,1,22.7,4,31,6.6
		C326.9,224.5,325.4,226.5,323.8,228.3z M329.2,221.5c-7.8-2.5-19.7-5.4-29.6-6.5c0.3-0.1,0.6-0.3,0.8-0.5c3.3-1.7,6.3-3.8,9.3-5.9
		c2.3-1.6,4.5-3.4,6.6-5.1c-0.1,2.5,1,4.7,4.6,5.1c4.3,0.5,13.7-5,19.1-7.9c2.6-1.4,4.5-2.6,5.8-3.6c0,0.1-0.1,0.2-0.1,0.2
		c-2.6,5.9-6,9.5-9.7,14.8C333.7,215.1,331.5,218.3,329.2,221.5z"/>
</g>
</svg>
