<?xml version="1.0" encoding="utf-8"?>
<!-- Generator: Adobe Illustrator 25.0.1, SVG Export Plug-In . SVG Version: 6.00 Build 0)  -->
<svg version="1.1" id="Layer_1" xmlns="http://www.w3.org/2000/svg" xmlns:xlink="http://www.w3.org/1999/xlink" x="0px" y="0px"
	 viewBox="0 0 400 400" style="enable-background:new 0 0 400 400;" xml:space="preserve">
<g>
	<path d="M66.3,188.6c11.8,2.1,25.7-1,32.8-6.4c7.1-5.3,12.3-15.7,10.7-21.3c-1.6-5.6-17-9.3-27.6-16.2c-10.6-6.9-3.6-21.2,6.2-32.9
		s30-24.4,34.6-24.4c4.6,0,1.7,5.3-0.8,11.1c-2.5,5.8-10.3,14.1-11.6,22.6c-1.3,8.4,3.8,12,5.2,11c1.2-0.9,4-5.8,5.3-9.1
		c1.3-3.3,12.2-18.9,13.5-25.2c1.3-6.3-1.8-11.2-6-15.3c-4.2-4.1-6.5-6.6-19.6-1.8c-13.1,4.8-35.4,28.9-40.3,38.2
		c-4.8,9.3-7.2,22.5-0.1,30.6c7.1,8.1,25.6,14.6,29.1,16.8c3.4,2.2,3.9,10.2-7.1,13.3c-11,3.1-23.4-3.1-30.8-9
		c-7.4-5.9-19.7-2.8-17.2,1.6C45.3,176.5,54.5,186.5,66.3,188.6z"/>
	<path d="M107.8,217.6c1.3-6.3-1.8-11.2-6-15.3c-4.2-4.1-6.5-6.6-19.6-1.8c-13.1,4.8-35.4,28.9-40.3,38.2
		c-4.8,9.3-7.2,22.5-0.1,30.6c7.1,8.1,25.6,14.6,29.1,16.8c3.4,2.2,3.9,10.2-7.1,13.3c-11,3.1-23.4-3.1-30.8-9
		c-7.4-5.9-19.7-2.8-17.2,1.6c2.6,4.4,11.8,14.3,23.5,16.4c11.8,2.1,25.7-1,32.8-6.4s12.3-15.7,10.7-21.3c-1.6-5.6-17-9.3-27.6-16.2
		c-10.6-6.9-3.6-21.2,6.2-32.9c9.8-11.8,30-24.4,34.6-24.4c4.6,0,1.7,5.3-0.8,11.1c-2.5,5.8-10.3,14.1-11.6,22.6
		c-1.3,8.4,3.8,12,5.2,11c1.2-0.9,4-5.8,5.3-9.1C95.7,239.4,106.5,223.8,107.8,217.6z"/>
	<path d="M117.8,173c1.8,7,7,9,15.4,6.5c8.4-2.6,18.5-17.9,18.5-17.9c-0.9,8,0.6,11.9,7,14.1c6.5,2.3,15.7-2.8,15.7-2.8
		s-9,22.7-9.4,27.2c-0.4,4.6,1.5,9.8,3.1,9.6c1.6-0.2,1.7-1.1,3.8-6.2c2.1-5,15.9-34.2,18.7-39.5c0.8-1.5,2.3-4.8,4-8.7
		c0.6,3.4,2.6,7.6,7.3,11.4c6.9,5.5,29.4,1.2,36.4-2.8c4.5-2.6,10.8-10.4,14.8-15.7c1.1,4.5,4.1,7.9,11.1,11.2
		c11.8,5.6,30.9-10.9,36.8-16.6c6-5.7,20.5-29.5,25.4-42.2c0,0,12.8-2.2,18.2-7.8c-0.3,0.4-10.6,14.4-15.2,23.5
		c-4.7,9.2-8.6,21.6-3.4,29.5c5.3,7.9,15.8,4.8,22.5,0.5c6.7-4.3,12.7-16.1,14.1-20.4c1.4-4.2-0.1-7.7-1.5-7.7
		c-1.5,0.1-1.2,1.8-2.3,5.4c-1.1,3.5-7.6,17.8-15.4,21.1c-7.8,3.3-10.6-3.7-9.7-9.7c0.9-5.9,5.8-17,11.2-24.2
		c5.4-7.3,10.8-13.5,11.8-16.5c1.1-3,0.2-7.5-1.6-11c-1.8-3.5-3.7-4.1-4.9-3c-1.3,1-9.2,9-20,11.9c0,0,1.8-5.6,2.7-9.5
		c0.9-3.9,1.8-8.6-0.1-10.8c-1.9-2.1-9.6,4.3-13.5,10.5c-4,6.2-3.9,12.4-3.2,15.1c0.7,2.7,4.1,3.3,4.1,3.3s-2.3,11.4-11.3,24.2
		c-8.9,12.9-18.4,23.2-25.9,26.8c-7.5,3.6-12,4-16,0c-3.9-4.1-2.6-15.2-0.9-22c0,0,6.1,5.3,16.3,2.4c10.2-2.9,19.2-16.4,21-26.3
		c1.8-9.9-5.8-16.7-11.2-17.5c-5.4-0.8-19.2,7.6-24.9,14.7c-5.6,7.1-14,22.8-14.7,33.7c0,0.6-0.1,1.2-0.1,1.8
		c-3.7,5.9-14.4,20.9-30.6,25.3c0,0,10.2-8.1,18.1-28.9c8-20.8,4.7-27.1,3.5-30.4c-1.1-3.3-4.6-8-12.2-5.1c-5.4,2-10.6,5.6-14.1,8.5
		c0.1-0.6,0.2-1.1,0.2-1.5c-0.2-5.3-3.8-7-5.1-4.7c-1.3,2.4-15.2,27.1-18.2,33.8c-3,6.7-13.4,26.9-20.3,31.6
		c-6.9,4.7-10.3,3.1-11.7-0.7c-1.3-3.8,3.4-14.1,8.1-21.7c4.7-7.7,14.6-25.3,14-32.3c-0.7-7-3.7-8.8-5.8-6.8s-13.9,25.6-16.6,31.5
		c-2.8,5.9-10.7,19.8-17.6,27.7c-6.8,7.9-14.2,12.1-15.4,6.8c-1.1-5.2,3.1-15,5.8-21c2.6-6,14.2-21.3,15.8-29.1
		c1.5-7.9-3.7-12.6-6.3-9.8c-2.6,2.8-16.4,27.2-18.9,32.8C122.7,150.3,116,166,117.8,173z M281,104.5c6.8-7.3,12.3-9.7,13.6-8.5
		c1.2,1.1-3,13-6.8,18.9c-3.8,5.9-12.6,15.4-19.9,10.8C267.8,125.6,274.1,111.8,281,104.5z M208.8,129.8c5.4-10.1,13.2-20.1,19-23.4
		c5.8-3.2,8.2-2.4,6.7,9.6c-1.2,10-12.9,33.9-17.1,38.9c-4.2,5-9,9.2-14,5.6C198.6,157,203.4,139.9,208.8,129.8z"/>
	<path d="M383.9,228.5c-0.9-0.2-2.9,0.9-4,3c-1,2.2-2.8,5.6-10.2,13.1c-7.2,7.4-17.6,14-17.9,14.2c2.5-6,11.5-25.6,15.8-33.8
		c4.4-8.2,10.4-21,10.4-27.4s-3.9-8.4-5.6-5.9c-1.7,2.5-14.3,26-18.1,33.9c-3.8,7.9-11.3,22.6-16.4,28.2c-5.1,5.6-14.2,8.4-14.2,2.8
		c0-5.5,3.6-13.2,6.3-19c2.7-5.8,9-15.4,12.2-22c3.2-6.6,4.6-14.6,2.3-17.8c-2.3-3.2-4.7-2.8-6.7,0.6c-2.1,3.4-16.6,30.9-18.6,36.1
		c-0.8,2.1-2.7,7.5-3.9,13.2c-1.7,2.4-3.3,4.8-4.7,6.5c-4.6,5.9-11.2,11.7-16.4,11.1c-5.2-0.6-4.3-9.3-3.8-14.8
		c0.5-5.5,5.8-16.2,5.8-16.2s13.3-10.8,25.1-27.1c11.8-16.2,14.2-28.4,15.2-34.4c1-6-3.8-12.2-5.2-13.2c-1.4-1-5.3,0.9-10.3,6.8
		c-4.9,5.9-27.1,40.3-32.8,58.5c-3.4,10.8-6.7,18.3-8.1,24.8c-2.6,3.4-5.5,7.8-7.7,10.7c-4.6,5.9-11.2,11.7-16.4,11.1
		c-5.2-0.6-4.3-9.3-3.8-14.8c0.5-5.5,5.8-16.2,5.8-16.2s13.3-10.8,25.1-27.1c11.8-16.2,14.2-28.4,15.2-34.4c1-6-3.8-12.2-5.2-13.2
		c-1.4-1-5.3,0.9-10.3,6.8c-4.9,5.9-27.1,40.3-32.8,58.5c-2.7,8.5-5.3,15-7,20.6c-4.6,7.2-16.5,24.3-27.4,26.5
		c-13.9,2.8-17.5-7-11.9-25c0,0,4.4,7.3,19.1,2.1c14.7-5.2,19.4-24.8,18.5-31.9c-1-7.1-9.8-10.6-14.9-10.4
		c-5.1,0.3-22.4,11.1-29.6,25.9c-4.5,9.2-7.1,18.7-7.6,26.1c-2.9,5.3-6.4,11-9.5,13.5c-6.6,5.4-11,8.4-15.3,3.5s3.3-18.1,8.1-24.8
		c4.8-6.7,12.4-22.4,11.5-29.1c-0.9-6.7-4.4-6.3-7.8-5.6c-3.4,0.8-17,11.1-21.9,17.2c0,0,2.4-11.9-4.1-13.4
		c-6.5-1.5-20.9,10.4-28.2,20c0,0,2.2-4.7,2-9.6c-0.1-4.9-2.3-7.3-3.3-7.6c-1-0.3-10,15.2-15.2,25.6c-5.2,10.4-15.2,28.5-15.7,34.3
		c-0.5,5.8,1.3,10.6,4.2,11.9c2.9,1.3,7.5-14.1,12.9-25.2c5.4-11.1,19.3-29.6,25.7-34.4c6.5-4.8,12-8.2,9.5-2.3
		c-2.5,5.9-13.3,22.8-17.1,29.6c-3.8,6.8-6.5,13.3-6.5,19c0,5.7,2.2,9.5,4.2,10c2,0.5,4.2-6.6,7-12.8c2.8-6.2,12.7-22.9,21.5-34.4
		c8.9-11.5,19.1-19.2,21.5-18.9c2.4,0.4-3,7-8.6,16.8c-5.6,9.9-13,23-12.9,30.8c0.1,7.7,7.1,14.1,17.6,10.9
		c7.7-2.3,16.2-9.9,21.2-16.1c0.2,0.6,0.4,1.1,0.7,1.5c3.5,6.2,14.4,12.8,32.2,4.9c9.1-4,15.2-9.6,19-14c0.2,0.7,0.3,1.4,0.6,2.1
		c3.4,10.4,16,9.5,21.4,6.2c4.5-2.8,13-10.3,16.4-14.3c0.1,0.6,0.3,1.3,0.5,1.9c3.4,10.4,16,9.5,21.4,6.2c3.3-2,8.6-6.5,12.6-10.4
		c0.4,4.3,2.1,7.5,6.3,7.9c12.1,1.2,20.5-10.5,20.8-10.8l-4.9,12.5c0,0-3.9,2.5-15.2,9.3c-11.3,6.8-20.9,25.1-21.6,34.1
		c-0.8,9,4.4,16.3,7.3,17c2.9,0.6,6.8-0.6,10.5-4c3.7-3.4,12.7-14.6,20.1-30.8c7.5-16.2,11.3-26.6,11.3-26.6
		c14.8-6.6,29.2-21.3,32.7-27.5C384.8,233.1,384.8,228.7,383.9,228.5z M313.9,198.1c3.2-5.2,14-21.6,15.1-22.1
		c1.1-0.6,1.2,1.2,0,5.7c-1.2,4.5-6.8,14.2-12,23.3c-5,8.9-17.3,20.5-17.6,20.8C299.6,225.4,310.7,203.3,313.9,198.1z M275.6,204.3
		c3.2-5.2,14-21.6,15.1-22.1c1.1-0.6,1.2,1.2,0,5.7c-1.2,4.5-6.8,14.2-12,23.3c-5,8.9-17.3,20.5-17.6,20.8
		C261.3,231.7,272.4,209.5,275.6,204.3z M221.5,226.4c9.7-8.1,11-6.8,10.5-3c-0.5,3.8-7.6,14.7-11.5,19.7c-3.9,5.1-9.6,9.7-15.3,6.5
		C205.2,249.6,211.8,234.5,221.5,226.4z M320.8,301.8c-2.8,5.6-10.9,15.7-13.9,17.2c-3,1.5,1.4-13.4,4.2-19c2.8-5.6,14.6-20,22-24.3
		C333.1,275.8,323.6,296.3,320.8,301.8z"/>
</g>
</svg>
