<?xml version="1.0" encoding="utf-8"?>
<!-- Generator: Adobe Illustrator 25.0.1, SVG Export Plug-In . SVG Version: 6.00 Build 0)  -->
<svg version="1.1" id="Layer_1" xmlns="http://www.w3.org/2000/svg" xmlns:xlink="http://www.w3.org/1999/xlink" x="0px" y="0px"
	 viewBox="0 0 400 400" style="enable-background:new 0 0 400 400;" xml:space="preserve">
<g>
	<path d="M388.5,256c-1.3,0.9-2.9,1.4-4.4,1.8c-4.4,1.1-7.3-0.8-7.8-5.3c-0.1-0.9-0.1-1.9-0.1-2.9c0-14.3,0.1-28.6,0-42.9
		c-0.1-5.9-2.3-11.1-7-14.9c-3.7-3.1-8.1-4.7-12.9-5.3c-8.1-1-15.9-0.6-23.3,3.3c-6.3,3.4-9.9,10.1-8.9,16.7c0.3,2,1.2,3.7,3.4,4.4
		c2,0.6,4.1,0.6,6.1,0.4c3-0.4,4.8-2.6,4.7-5.7c0-0.9-0.2-1.9-0.3-2.8c-0.3-2.1-0.7-4.3-0.6-6.5c0.1-2.9,1.4-5.1,4.1-6.2
		c4-1.8,8.2-1.9,12.5-1.2c4.2,0.7,6.7,3.4,7.7,7.5c1.2,5,1.1,10,0.6,15c-0.5,5.1-3.6,8.1-8.3,9.8c-2.5,0.9-5.1,1.8-7.6,2.7
		c-5.3,1.9-10.9,3-16.1,5.2c-10.1,4.2-13.1,11.9-10.6,22c1.3,5.1,7.9,9.6,13.9,9.6c4.3,0,8.6,0,12.9,0c1.4,0,2.8-0.4,4.2-0.9
		c5-1.8,8.7-5.1,10.7-10.1c0.1-0.3,0.2-0.8,0.6-0.8c0.5,0,0.5,0.6,0.6,1c0.4,2,1.3,3.8,2.4,5.5c2.2,3.4,5.1,5.6,9.4,5.3
		c1.6-0.1,3.3-0.1,4.9,0c3.8,0.2,7.4-0.1,10.5-2.6c0.1-0.1,0.3,0,0.4,0c0-0.6,0-1.3,0-1.9C389.6,255.5,389.1,255.5,388.5,256z
		 M361.5,241.6c-0.7,5.5-2.6,10.4-7.3,13.9c-3.7,2.8-13,3.8-17.4-0.4c-1.9-1.9-3-4.1-3.4-6.7c-0.8-4.9-0.9-9.7,2-14.1
		c2-3.1,4.9-5.1,8.2-6.5c4.3-1.8,8.7-3.4,13-5.2c2-0.8,4-1.7,5.2-4.1c0.1,0.5,0.2,0.6,0.2,0.8C361.8,226.8,362.4,234.2,361.5,241.6z
		"/>
	<path d="M195,256.1c-2.1,0-4.2,0-6.4-0.1c-3-0.2-4.8-2.1-4.8-5c0-8,0-16,0-24c0-12.7,0-25.3,0.1-38c0-0.9-0.1-1.4-1.2-1.4
		c-8.2,0-16.3,0-24.5-0.1c-0.9,0-1.3,0.3-1.3,1.2c0,1.1,0.6,1.1,1.3,1.1c3.2,0,6.5,0.1,9.7,0c1.5-0.1,1.8,0.5,1.8,1.9
		c-0.1,19.6-0.1,39.1-0.1,58.7c0,3.5-2,5.5-5.5,5.6c-2.3,0-4.7,0-7,0c-4.5,0-6.4-1.8-6.4-6.3c0-11.8,0-23.5,0.1-35.3
		c0-9.2,0.1-18.4,0.1-27.7c0-15.4,0-30.7,0.1-46.1c0-0.9-0.2-1.2-1.2-1.2c-8.2,0-16.3,0-24.5-0.1c-0.8,0-1.3,0.1-1.2,1.1
		c0,1,0.3,1.3,1.3,1.3c3.2-0.1,6.5,0.1,9.7-0.1c1.5-0.1,1.8,0.5,1.8,1.9c-0.1,20.5-0.1,40.9-0.2,61.4c0,13.6-0.1,27.1-0.1,40.7
		c0,0.6,0.1,1.3-0.1,1.9c-1.9,5.4-7.6,9.9-13.4,9.8c-3-0.1-4.5-1.5-5.1-4.5c-0.2-1.2-0.3-2.4-0.3-3.6c0-13.9,0.1-27.8,0-41.7
		c0-8.8-3.5-15.8-11.8-19.3c-10.1-4.3-20.5-4.2-30.5,0.5c-5.9,2.7-9.5,7.4-10,14.2c-0.4,5.1,1.5,7.4,6.6,7.8
		c4.8,0.4,8.9-1.3,7.7-8.1c-0.1-0.3-0.1-0.6-0.2-0.9c-0.3-1.9-0.6-3.9-0.6-5.8c0-3.3,1.6-5.5,4.6-6.7c3.5-1.4,7.2-1.7,10.9-1.2
		c5.1,0.6,8.2,3.7,9,8.8c0.7,4.3,0.7,8.5,0.4,12.8c-0.4,5.3-3.1,8.9-8,10.7c-4.3,1.6-8.6,3.1-12.9,4.4c-4.7,1.5-9.6,2.6-14,5
		c-5,2.8-8.2,6.8-8.5,12.7c-0.1,2.8-0.9,5.4-2.2,7.9c-2.9,5.9-7.6,8.5-13.7,7.8c-3.1-0.4-5.1-2.2-6.3-4.9c-1-2.1-1.5-4.4-1.5-6.8
		c-0.2-6.6-0.1-13.2,0-19.9c0.1-11.7,0.1-23.4,0.1-35.1c0-1.2,0.3-1.6,1.6-1.6c6.5,0.1,13,0.1,19.6,0.1c1,0,1.4-0.1,1.4-1.3
		c0-1.2-0.7-1.1-1.4-1.1c-6.5,0-12.9-0.1-19.4,0c-1.3,0-1.7-0.3-1.7-1.7c0.1-6.4,0.1-12.7,0.1-19.1c0-0.5,0.3-1.1-0.3-1.6
		c-4.4,2.9-9,2.5-13.9,1.1c0,0.6,0,1.2,0,1.8c0,5.9-0.1,11.9,0,17.8c0,1.2-0.3,1.6-1.5,1.6c-3.3-0.1-6.7,0-10,0
		c-1,0-1.3,0.3-1.3,1.3c0,1,0.5,1.1,1.3,1.1c3.2,0,6.5,0.1,9.7,0c1.5,0,1.8,0.5,1.8,1.9c-0.1,15.9-0.1,31.9-0.2,47.9
		c0,2.2-0.1,4.5,0.2,6.7c0.8,5.1,2.9,9.4,7.7,11.7c6.1,3,12.7,3.2,19.3,2.1c5-0.9,8.5-4,10.9-8.5c0.2-0.3,0.2-0.8,0.7-0.8
		c0.3,0,0.3,0.3,0.3,0.5c1.6,4,4.9,6.2,8.8,7.7c4.9,1.9,10,1.8,15.1,1.5c7.9-0.5,14.2-3.6,17.5-11.3c0.1-0.3,0.2-1,1-0.9
		c0.1,0.3,0.2,0.7,0.3,1c1.9,7,5.6,10.6,12.3,11.2c4.1,0.4,8.3,0.6,12.1-1.4c3-1.5,5.6-3.5,8.1-6c0,1.5,0,2.9,0,4.4
		c0,0.9,0.3,1.2,1.1,1.1c0.5,0,1,0,1.4,0c18.7,0,37.3,0.1,56,0.1c0.8,0,1.6,0.1,1.6-1.2C196.6,256,195.9,256.1,195,256.1z
		 M103.1,240.8c-0.7,5.4-2.4,10.2-6.9,13.8c-4.1,3.2-13.6,3.8-17.4,0.2c-1.6-1.5-2.8-3.3-3.4-5.4c-0.9-3.5-1.2-7.1-0.4-10.7
		c1.3-6.1,5.5-9.5,11-11.7c4.3-1.7,8.6-3.4,12.9-5.2c1.8-0.7,3.4-1.7,4.8-3.4c0,1.2,0,2.4,0,3.6C103.4,228.2,104,234.5,103.1,240.8z
		"/>
	<path d="M321,256.5c-2,0.1-4,0.1-6,0c-3.7-0.2-5.4-2.1-5.4-5.8c0-13.7,0-27.5,0.1-41.2c0-1.7,0-3.4-0.2-5.1
		c-0.7-6.5-3.5-11.6-9.5-14.8c-5.7-3.1-11.9-3.9-18.2-3.3c-9,0.8-16.3,4.9-21.5,12.4c-1.2,1.7-2.1,3.6-3.1,5.6
		c-0.5-0.3-0.4-0.7-0.4-1c0-13.8,0.1-27.6,0.1-41.3c0-6.9,0-13.9,0-20.8c0-1-0.2-1.4-1.3-1.4c-8.1,0-16.1,0-24.2,0
		c-0.9,0-1.4,0.1-1.4,1.3c0,1.2,0.8,1,1.5,1c3.1,0,6.3,0.1,9.4,0c1.5-0.1,1.9,0.4,1.9,1.9c-0.1,19.2-0.2,38.5-0.2,57.7
		c0,12.7-0.2,25.4,0,38.2c0.1,3.9-0.9,7.2-3,10.3c-2.4,3.6-5.1,7-9.6,8.1c-6.2,1.4-10.2-0.5-12.1-6.3c-0.7-2.3-1-4.7-1-7.1
		c0-17.6,0.1-35.3,0.1-52.9c0-1.4,0.4-1.7,1.7-1.7c6.4,0.1,12.8,0.1,19.2,0.1c0.8,0,1.7,0.2,1.7-1.2c0-1.4-0.9-1.1-1.7-1.1
		c-5.9,0-11.9-0.1-17.8-0.1c-3,0-3.1-0.1-3-3.1c0-6,0-12,0.1-18c0-0.8,0-1.4-1.1-0.7c-3.6,2.2-7.6,2.1-11.5,1.1
		c-1.2-0.3-1.6-0.3-1.6,1.1c0,6-0.1,12,0,18c0,1.3-0.3,1.8-1.7,1.7c-3.2-0.1-6.4-0.1-9.5-0.1c-0.8,0-1.5-0.1-1.6,1.1
		c0,1.4,0.8,1.2,1.6,1.2c3.2,0,6.5,0,9.7,0c1.1,0,1.5,0.4,1.4,1.5c-0.1,2-0.1,4-0.1,6c0,6.8,0,13.6,0,20.3c0,8.8-0.2,17.6,0.1,26.4
		c0.2,8.6,4.8,14,13.1,15.8c3.8,0.8,7.6,0.3,11.4,0.5c2.8,0.1,5.3-0.8,7.7-2.2c3.2-1.9,5.1-5,7.2-8.2c0.4,0.5,0.3,1,0.3,1.4
		c0,1.9,0.1,3.8,0,5.7c0,1,0.2,1.4,1.3,1.4c8.1,0,16.2,0,24.3,0.1c0.9,0,1.3-0.2,1.3-1.2c0-1.1-0.6-1.1-1.4-1.1
		c-1.8,0-3.6,0.1-5.4,0c-4.2-0.2-5.9-2.1-5.9-6.2c0-10.4,0.1-20.9,0.1-31.3c0-5.9,1.3-11.5,4.2-16.6c5.1-8.7,12.4-13.9,22.8-13.8
		c4.4,0.1,7.8,1.9,9.9,6c1.2,2.4,1.8,5,1.8,7.7c0,16.4-0.1,32.9-0.1,49.3c0,2.3-1.3,4-3.6,4.6c-1,0.3-2,0.4-3,0.4
		c-1.6,0-3.2,0-4.8,0c-0.9,0-1.4,0.2-1.4,1.2c0,1.1,0.6,1.1,1.4,1.1c12.3,0,24.7,0,37,0.1c0.9,0,1.2-0.2,1.2-1.1
		C322.3,256.7,322,256.4,321,256.5z"/>
	<path d="M176.6,158c5,0,8.8-3.9,8.7-8.8c-0.1-5-3.9-8.7-8.8-8.7c-5,0-8.7,4-8.7,9C168,154.2,171.9,158.1,176.6,158z"/>
</g>
</svg>
