<?xml version="1.0" encoding="utf-8"?>
<!-- Generator: Adobe Illustrator 28.1.0, SVG Export Plug-In . SVG Version: 6.00 Build 0)  -->
<svg version="1.1" id="Layer_1" xmlns="http://www.w3.org/2000/svg" xmlns:xlink="http://www.w3.org/1999/xlink" x="0px" y="0px"
	 viewBox="0 0 400 400" style="enable-background:new 0 0 400 400;" xml:space="preserve">
<g>
	<path d="M299.4,264c-1.8-0.7-3.9-1.1-6.2-1.1c-2.5,0-4.7,0.4-6.6,1.1c-1.9,0.8-3.4,1.8-4.4,3.3c-1,1.4-1.6,3-1.6,4.9h3.8
		c0-1.9,0.8-3.4,2.3-4.5c1.5-1.1,3.7-1.6,6.4-1.6c1.5,0,2.9,0.2,4.2,0.7c1.3,0.4,2.3,1.2,3,2.3c0.7,1.1,1.1,2.6,1.1,4.5v0.9
		l-10.3,0.8c-3.6,0.3-6.4,1.2-8.5,2.8c-2,1.6-3.1,3.7-3.1,6.3c0,2.5,0.9,4.5,2.7,6c1.8,1.5,4.4,2.3,7.7,2.3c2.6,0,4.9-0.5,6.9-1.5
		c2-1,3.5-2.4,4.5-4.2l0.6,5h3.4v-18.4c0-2.5-0.5-4.5-1.6-6.1S301.2,264.8,299.4,264z M301.3,279c0,3.2-0.9,5.7-2.7,7.7
		c-1.8,2-4.4,2.9-7.8,2.9c-2.2,0-3.9-0.4-5.2-1.3c-1.3-0.9-2-2.2-2-4c0-1.6,0.6-3,1.9-4.1c1.3-1.1,3.4-1.8,6.3-2l9.4-0.7V279z"/>
	<polygon points="133.4,262.7 105.4,262.7 105.4,270.2 115.7,270.2 115.7,290.7 123.2,290.7 123.2,270.2 133.4,270.2 	"/>
	<polygon points="190.5,262.7 162.5,262.7 162.5,270.2 172.7,270.2 172.7,290.7 180.2,290.7 180.2,270.2 190.5,270.2 	"/>
	<polygon points="151,262.7 144.9,262.7 142.4,262.7 132.1,290.7 141.3,290.7 147.9,271.5 154.6,290.7 163.8,290.7 153.5,262.7 	"/>
	<polygon points="208,262.7 201.9,262.7 199.4,262.7 189.2,290.7 198.3,290.7 205,271.5 211.6,290.7 220.8,290.7 210.6,262.7 	"/>
	<path d="M61.4,277c1.7-0.5,3-1.3,3.9-2.3c1-1.1,1.6-2.6,1.6-4.4c0-2.2-0.9-3.9-2.8-5.2c-1.9-1.3-4.5-1.9-7.7-1.9H47h-2.3h-0.8v27.7
		h0.8H47H57c2.1,0,4-0.3,5.6-0.9c1.6-0.6,2.8-1.4,3.7-2.5c0.9-1.1,1.3-2.4,1.3-3.8c0-1.8-0.6-3.3-1.7-4.5
		C64.8,278.2,63.3,277.4,61.4,277z M47,265.4h9.3c2.4,0,4.2,0.4,5.6,1.3c1.3,0.9,2,2.2,2,3.8c0,1.7-0.6,3-1.8,4
		c-1.2,1-3,1.4-5.2,1.4H47V265.4z M62.6,287.3c-1.3,1-3.1,1.4-5.5,1.4H47v-10.6h10.2c2.3,0,4.2,0.5,5.5,1.4c1.3,0.9,2,2.2,2,3.9
		C64.5,285,63.9,286.3,62.6,287.3z"/>
	<path d="M83.3,275.5c-0.2,0.3-0.4,0.5-0.5,0.7c-0.1,0.1-0.2,0.3-0.2,0.4c0,0.1-0.2,0.3-0.3,0.5c-0.2-0.3-0.4-0.6-0.5-0.8
		c-0.2-0.3-0.3-0.5-0.5-0.8l-8.7-12.3h-3.4l11.6,16v11.7h3v-11.7l11.4-16h-3.3L83.3,275.5z"/>
	<path d="M271.5,264.6c-2.1-1.1-4.5-1.7-7.3-1.7c-2.9,0-5.5,0.6-7.7,1.9c-2.2,1.3-3.9,3-5.1,5.3c-1.2,2.2-1.8,4.8-1.8,7.8
		c0,2.9,0.6,5.5,1.9,7.7c1.3,2.2,3,4,5.3,5.2c2.2,1.3,4.9,1.9,7.8,1.9c3.6,0,6.6-0.8,8.9-2.3c2.3-1.6,3.9-3.8,4.7-6.7h-3.9
		c-0.6,1.9-1.6,3.4-3.3,4.4c-1.6,1-3.7,1.5-6.3,1.5c-3.5,0-6.3-1.1-8.2-3.2c-1.8-1.9-2.7-4.6-2.9-8h24.6v-2c0-2.7-0.6-5-1.8-7
		C275.2,267.3,273.6,265.8,271.5,264.6z M253.7,275.5c0.2-1.5,0.6-2.9,1.2-4.1c0.9-1.7,2.1-3,3.7-3.9c1.6-0.9,3.5-1.3,5.7-1.3
		c2.9,0,5.3,0.9,7.1,2.6c1.8,1.7,2.7,4,2.7,6.8H253.7z"/>
	<polygon points="251.3,262.9 228.9,262.9 228.9,266.3 238.3,266.3 238.3,292 242,292 242,266.3 251.3,266.3 	"/>
	<path d="M77.6,206.5c0,19.8,20.8,34.7,48.4,34.7s48.4-14.9,48.4-34.7c0-18.1-10-30.3-28.2-35.3c14-5.7,23.6-17.2,23.6-30.4
		c0-20.8-17.2-34.3-43.8-34.3c-25.8,0-43.8,14.1-43.8,34.3c0,13.4,9.8,24.9,24.1,30.6C88.4,176.6,77.6,189.2,77.6,206.5z
		 M88.5,140.8c0-16.5,15.4-28,37.5-28c23.1,0,37.5,10.7,37.5,28c0,15.4-16.8,28-37.5,28S88.5,156.2,88.5,140.8z M126,175.1
		c27.1,0,42.1,11.1,42.1,31.4c0,15.9-18.5,28.4-42.1,28.4s-42.1-12.5-42.1-28.4C83.9,187.1,100,175.1,126,175.1z"/>
	<path d="M357.9,171.2c14-5.7,23.6-17.2,23.6-30.4c0-20.8-17.2-34.3-43.8-34.3c-25.8,0-43.8,14.1-43.8,34.3
		c0,13.4,9.8,24.9,24.1,30.6c-17.9,5.2-28.6,17.8-28.6,35.1c0,19.8,20.8,34.7,48.4,34.7c27.6,0,48.4-14.9,48.4-34.7
		C386,188.4,376,176.2,357.9,171.2z M300.1,140.8c0-16.5,15.4-28,37.5-28c23.1,0,37.5,10.7,37.5,28c0,15.4-16.8,28-37.5,28
		C317,168.8,300.1,156.2,300.1,140.8z M337.7,234.8c-23.6,0-42.1-12.5-42.1-28.4c0-19.4,16.1-31.4,42.1-31.4
		c27.1,0,42.1,11.1,42.1,31.4C379.7,222.4,361.2,234.8,337.7,234.8z"/>
	<path d="M201.2,226.3c8,9.1,20.8,14.9,35.5,14.9c24.8,0,44.2-16.4,44.2-37.4c0-25.8-16.1-40.6-44.2-40.6
		c-22.2,0-37.9,10.9-42.6,28.7c-0.8-4.6-1.2-8.9-1.2-12.4c0-32.3,13.4-66.9,51.1-66.9c10.6,0,18.8,2.2,26.5,7.2l3.4-5.3
		c-8.8-5.7-18-8.2-29.9-8.2c-34.9,0-57.5,28.7-57.5,73.2C186.6,190.6,190.9,215.6,201.2,226.3L201.2,226.3z M236.7,169.5
		c24.4,0,37.8,12.2,37.8,34.3c0,17.7-16.3,31-37.8,31c-13.2,0-23.7-5.5-31.1-12.9c-3.5-3.5-6.8-11.7-6.8-18.2
		C199.1,182.6,213.4,169.5,236.7,169.5z"/>
	<polygon points="45.1,241.2 51.5,241.2 51.5,106.3 14,106.3 14,112.6 45.1,112.6 	"/>
</g>
</svg>
