<?xml version="1.0" encoding="utf-8"?>
<!-- Generator: Adobe Illustrator 28.1.0, SVG Export Plug-In . SVG Version: 6.00 Build 0)  -->
<svg version="1.1" id="Layer_1" xmlns="http://www.w3.org/2000/svg" xmlns:xlink="http://www.w3.org/1999/xlink" x="0px" y="0px"
	 viewBox="0 0 400 400" style="enable-background:new 0 0 400 400;" xml:space="preserve">
<style type="text/css">
	.st0{fill:#FEFDFD;}
</style>
<path class="st0" d="M278.2,183c-3.4,0-6.7,0-10.1,0c-1,0-1.3-0.3-1.3-1.3c0.4-9.6,0.8-19.2,3.6-28.5c0.6-2.1,1.5-4.1,2.8-5.9
	c3-4.2,7.4-4.3,10.5-0.2c2.3,3,3.2,6.6,3.8,10.2c1.4,8,1.8,16,1.8,24.1c0,1.4-0.5,1.7-1.8,1.6C284.5,183,281.4,183,278.2,183
	C278.2,183,278.2,183,278.2,183z"/>
<g>
	<path d="M245.8,149.6c0-5.3-1.1-10-6.2-12.9c-3.6-2-7.4-2.8-11.5-2.4c-6.7,0.6-12.8,3.1-18.7,6.1c-1.2,0.6-2,0.7-3.1-0.3
		c-2-1.9-4.3-3.4-6.8-4.7c-0.8-0.4-1.4-0.6-2.1,0c-2.8,2-5.6,3.9-8.4,5.8c-0.6,0.4-0.9,0.8-0.3,1.5c2,2.8,2.3,6,2.3,9.4
		c0,26.4,0,52.7-0.1,79.1c0,2,0.6,2.4,2.4,2.3c3.8-0.1,7.5-0.2,11.3,0c2.1,0.1,2.7-0.5,2.7-2.7c-0.1-26.1,0-52.2-0.1-78.2
		c0-1.5,0.4-2.5,1.6-3.4c3.2-2.5,6.7-4.2,10.7-5c5.5-1.1,10.3,1.9,10.2,8.1c-0.2,26.3-0.1,52.6-0.2,78.9c0,1.7,0.4,2.4,2.2,2.3
		c4.1-0.1,8.1-0.1,12.2,0c1.8,0.1,2.1-0.6,2.1-2.2C245.8,217.5,245.9,163.1,245.8,149.6z"/>
	<path d="M124.9,152.9c0,26,0,52-0.1,78c0,1.9,0.4,2.6,2.4,2.5c3.8-0.2,7.5-0.2,11.3,0c2.1,0.1,2.6-0.6,2.6-2.6c-0.1-26,0-52-0.1-78
		c0-1.6,0.5-2.7,1.7-3.6c3.2-2.6,6.8-4.3,10.9-5.1c5.6-1,10.2,1.9,10.1,8.1c-0.2,26.1-0.1,52.3-0.1,78.4c0,2.7,0,2.7,2.8,2.7
		c3.7,0,7.4-0.1,11.1,0c1.9,0.1,2.5-0.4,2.5-2.4c-0.1-13.9-0.1-69.6-0.2-83.5c0-5.6-2.8-9.5-8-11.7c-3.2-1.3-6.6-1.8-10-1.4
		c-6.5,0.7-12.5,3.1-18.3,6.1c-1.3,0.6-2.1,0.6-3.1-0.4c-2-1.9-4.3-3.4-6.8-4.7c-0.7-0.3-1.2-0.6-2-0.1c-2.8,2-5.7,4-8.6,5.9
		c-0.5,0.3-1,0.6-0.4,1.3C124.8,145.6,124.9,149.2,124.9,152.9z"/>
	<path d="M103.2,229c4.7-4.3,7.7-9.6,9.5-15.6c5.2-17.6,5.1-35.4,1.4-53.2c-1.5-7-4.2-13.6-9.3-19c-8.8-9.2-22.6-9.3-31.5-0.3
		c-3.1,3.2-5.4,7-7.1,11.1c-4.2,10.4-5,21.3-5.2,32.5c0.2,6.6,0.4,13.3,1.7,20c1.5,8.3,4.1,16.2,9.9,22.7
		C80.6,236.1,94.3,237,103.2,229z M79.9,155.9c0.7-3.5,1.7-7,3.6-10.2c3.1-5.2,7.8-5.2,10.9,0.1c2.9,5,3.8,10.5,4.6,16.1
		c1.1,7.6,1.5,15.2,1.4,22.9c-0.1,10.3-0.5,20.6-3,30.6c-0.7,2.9-1.7,5.7-3.4,8.2c-2.9,4.2-6.9,4.3-9.9,0.2
		c-2.7-3.7-3.8-8.1-4.5-12.5C76.5,192.8,76.4,174.3,79.9,155.9z"/>
	<path d="M263.4,223.5c2.7,3.8,6.1,7.2,10.3,8.8c11,4.2,21.3,1.7,30.9-4.6c0.6-0.4,1-0.9,1-1.7c0-3.5,0-7.1,0-11
		c-1.6,1.3-2.9,2.3-4.2,3.2c-5,3.3-10.4,5.6-16.5,4.4c-7.5-1.5-11.4-7.1-13.8-13.7c-1.8-4.9-1.9-10-1.8-15.1c0-1.7,0.6-2.1,2.2-2.1
		c11.2,0.1,22.3,0,33.5,0.1c2.1,0,2.5-0.6,2.5-2.6c0-7.2-0.1-14.5-1-21.7c-0.8-6.5-1.7-13.1-4.2-19.2c-3.2-7.7-8.8-12.5-17.1-13.6
		c-8.4-1.1-15.2,1.7-20.3,8.5c-3.6,4.8-5.9,10.2-7.3,15.9c-3.4,14.1-3.9,28.4-2.1,42.7C256.4,209.6,258.7,217,263.4,223.5z
		 M273.3,151.3c0.6-2.2,1.6-4.2,2.9-6.1c3.1-4.4,7.7-4.5,11-0.2c2.4,3.1,3.3,6.9,4,10.7c1.4,8.3,1.8,16.6,1.8,25
		c0,1.5-0.6,1.7-1.8,1.7c-3.3-0.1-6.5,0-9.8,0c0,0,0,0,0-0.1c-3.5,0-7,0-10.5,0c-1,0-1.4-0.3-1.3-1.3C270,171,270.4,161,273.3,151.3
		z"/>
	<path d="M48.3,181.5c-5.7-9-12.3-17.4-17.7-26.6c-2.3-3.8-4.1-7.8-4.8-12.2c-1.2-7.5,2.4-12.8,9.9-14.2c5.8-1.1,11.3-0.4,16.6,2.1
		c1.2,0.6,1.9,0.7,1.9-1.1c-0.1-3-0.1-6,0-9c0-1.2-0.4-1.7-1.5-2.1c-6.7-2-13.4-3.1-20.4-2c-9.1,1.5-16.7,5.3-20.7,14.1
		c-3.4,7.4-2.8,15-0.2,22.4c2.3,6.6,6.4,12.2,10.2,17.9c5.2,7.9,10.9,15.4,15.5,23.7c2.7,4.9,4.3,10,4.1,15.6
		c-0.2,6-3.5,10.2-9.3,11.6c-2.1,0.5-17.2-1.4-22.5-4c0,3.8,0,7.3,0,10.8c0,1,0.4,1.4,1.2,1.7c8.2,3.4,16.8,5,25.6,3.4
		c10.4-1.9,17.6-7.6,20.5-18.1c1.6-5.7,1.2-11.4-0.1-17.1C55.1,192.3,51.6,186.9,48.3,181.5z"/>
	<path d="M342.9,227.1c-6.5-0.9-9.9-4.6-9.9-11.1c0-15.2,0-64,0-73.1c0-1.5,0.2-2.2,1.9-2c2.3,0.2,4.7,0,7,0c3.9,0,3.8,0,3.8-3.8
		c0-1.6-0.6-1.9-2-1.8c-3.1,0.1-6.1-0.1-9.2,0c-1.3,0-1.7-0.3-1.7-1.7c0.1-4.5,0-9,0-13.4c0-1.9-1.3-2.7-3-1.9
		c-0.7,0.3-0.9,1.1-1.2,1.7c-4.8,7.5-10.5,13.8-19.7,15.8c-0.3,0.1-0.8,0.1-0.8,0.5c0,1.4-0.3,2.9,0.1,4.2c0.3,1,1.8,0.3,2.7,0.4
		c1.1,0.1,2.3,0.2,3.4,0c2-0.3,2.3,0.5,2.3,2.3c-0.1,12.9,0,64,0,76.5c0,6.3,2.6,10.3,8.5,12.7c6.2,2.4,12.6,2.5,19.1,1
		c0.5-0.1,1.1-0.2,1.2-0.7c0.3-1.6,0.4-3.3,0-4.8C345.3,226.9,343.8,227.3,342.9,227.1z"/>
	<path d="M385,193.1c-4.8-7.9-10.4-15.2-15.4-23c-2.4-3.8-4.7-7.6-5.7-12.1c-1.6-7.7,1.5-12.4,9.3-13.7c4.5-0.8,8.8-0.1,12.9,1.8
		c1.4,0.7,1.8,0.4,1.8-1.2c-0.1-2.1-0.1-4.3,0-6.4c0.1-1.2-0.4-1.8-1.5-2.1c-3.4-1-6.8-2-10.4-2.1c-6.3-0.2-12.3,0.8-17.6,4.6
		c-7.1,5-9.8,13.5-7.6,23.2c1.3,5.8,4.6,10.6,7.7,15.5c4.9,7.6,10.4,14.7,14.9,22.6c2.4,4.2,3.9,8.6,3.9,13.5
		c-0.1,5.8-3.2,9.7-8.9,10.7c-1.6,0.3-13.8-1.3-18.2-3.5c0,3.2,0,6,0,8.9c0,0.7,0.2,1.3,0.9,1.5c6.4,2.2,12.8,3.7,19.6,3
		c12.5-1.3,20.1-9.8,20.2-22.4C390.8,205,388.5,198.9,385,193.1z"/>
	<polygon points="91.9,255.6 62.8,255.6 62.8,263.3 73.5,263.3 73.5,284.7 81.3,284.7 81.3,263.3 91.9,263.3 	"/>
	<polygon points="151.2,255.6 122.1,255.6 122.1,263.3 132.8,263.3 132.8,284.7 140.6,284.7 140.6,263.3 151.2,263.3 	"/>
	<polygon points="110.2,255.6 103.9,255.6 101.2,255.6 90.6,284.7 100.1,284.7 107,264.7 113.9,284.7 123.5,284.7 112.8,255.6 	"/>
	<polygon points="169.5,255.6 163.2,255.6 160.5,255.6 149.9,284.7 159.4,284.7 166.3,264.7 173.2,284.7 182.8,284.7 172.2,255.6 	
		"/>
	<path d="M25.2,269.2c1.1-0.6,1.9-1.4,2.6-2.6c0.7-1.2,1-2.5,1-3.9c0-1.6-0.4-3-1.2-4.2c-0.8-1.2-1.7-2.1-2.8-2.6
		c-1.1-0.5-3.1-0.7-5.8-0.7H8.9V285h8.6c3.7,0,6.1-0.1,7.1-0.4c1.5-0.4,2.7-1.3,3.8-2.8c1.1-1.5,1.6-3.3,1.6-5.5
		c0-1.8-0.4-3.3-1.3-4.6S26.7,269.7,25.2,269.2z M14,260.1h2.9c2.7,0,4.3,0.1,4.9,0.2c0.6,0.1,1,0.5,1.4,1c0.4,0.5,0.6,1.3,0.6,2.1
		c0,1-0.2,1.8-0.7,2.3c-0.5,0.6-1.2,0.9-2,1.1c-0.5,0.1-1.7,0.1-3.7,0.1H14V260.1z M24.2,278.4c-0.4,0.6-0.9,1-1.5,1.2
		c-0.6,0.2-1.9,0.3-4,0.3H14v-8h4.1c2.2,0,3.6,0.1,4.3,0.4c0.7,0.2,1.3,0.7,1.7,1.3c0.4,0.6,0.6,1.4,0.6,2.4
		C24.8,277,24.6,277.8,24.2,278.4z"/>
	<polygon points="42.3,267 36.4,255.2 30.4,255.2 39.6,272.4 39.6,285 44.7,285 44.7,272.5 53.9,255.2 48.1,255.2 	"/>
	<path d="M207.7,278.8c-1,1-2.3,1.5-3.7,1.5c-1.9,0-3.5-0.8-4.7-2.4c-1.2-1.6-1.8-4.3-1.8-8c0-3.6,0.6-6.2,1.9-7.8
		c1.2-1.6,2.8-2.4,4.8-2.4c1.4,0,2.6,0.4,3.6,1.3c1,0.9,1.7,2.1,2,3.7l5.3-1.4c-0.7-2.6-1.7-4.6-3.1-5.9c-2-1.9-4.5-2.8-7.5-2.8
		c-3.7,0-6.6,1.2-8.7,3.7c-2.5,2.9-3.7,6.9-3.7,11.9c0,4.8,1.2,8.6,3.7,11.5c2.1,2.5,5,3.7,8.4,3.7c2.8,0,5.1-0.8,7-2.3
		c1.9-1.5,3.2-4,4-7.3L210,274C209.5,276.2,208.8,277.8,207.7,278.8z"/>
	<path d="M231.5,254.7c-2.6,0-4.8,0.6-6.7,1.7s-3.3,2.8-4.5,5.1c-1.1,2.3-1.7,5.2-1.7,8.8c0,4.9,1.3,8.7,3.8,11.5
		c2.2,2.5,5.3,3.7,9.1,3.7c3.8,0,6.8-1.2,9-3.7c2.5-2.8,3.8-6.7,3.8-11.7c0-4.9-1.2-8.7-3.6-11.4C238.4,256,235.3,254.7,231.5,254.7
		z M236.8,277.8c-1.4,1.7-3.1,2.6-5.2,2.6c-2.1,0-3.8-0.9-5.3-2.6c-1.4-1.7-2.1-4.3-2.1-7.7c0-3.5,0.7-6.1,2.1-7.7
		c1.4-1.7,3.1-2.5,5.3-2.5s3.9,0.8,5.3,2.5c1.3,1.7,2,4.2,2,7.7C238.9,273.5,238.2,276.1,236.8,277.8z"/>
	<polygon points="248.6,285 253.9,285 253.9,272.3 265.1,272.3 265.1,267.3 253.9,267.3 253.9,260.2 266.8,260.2 266.8,255.2 
		248.6,255.2 	"/>
	<polygon points="271.2,285 276.6,285 276.6,272.3 287.7,272.3 287.7,267.3 276.6,267.3 276.6,260.2 289.4,260.2 289.4,255.2 
		271.2,255.2 	"/>
	<polygon points="299.2,271.9 312.5,271.9 312.5,266.8 299.2,266.8 299.2,260.2 313.5,260.2 313.5,255.2 293.9,255.2 293.9,285 
		314,285 314,280 299.2,280 	"/>
	<polygon points="323.9,271.9 337.2,271.9 337.2,266.8 323.9,266.8 323.9,260.2 338.3,260.2 338.3,255.2 318.6,255.2 318.6,285 
		338.7,285 338.7,280 323.9,280 	"/>
</g>
</svg>
