<?xml version="1.0" encoding="utf-8"?>
<!-- Generator: Adobe Illustrator 25.0.1, SVG Export Plug-In . SVG Version: 6.00 Build 0)  -->
<svg version="1.1" id="Layer_1" xmlns="http://www.w3.org/2000/svg" xmlns:xlink="http://www.w3.org/1999/xlink" x="0px" y="0px"
	 viewBox="0 0 400 400" style="enable-background:new 0 0 400 400;" xml:space="preserve">
<g>
	<path d="M113.9,118.5c0-6.7-6.5-12.7-15.4-12.7H82.4v48.9h12.5v-37.6h3.2c2.8,0,4.9,1.4,4.9,3.8c0,2.5-2.1,3.9-5,3.9h-1.4v8.9
		l4.8,0c3.7,0,5.7,1.7,5.7,4.6c0,3.2-2.9,4.7-5.8,4.7h-4.7v11.8h6.7c9.8,0,16.3-7.2,16.3-14.9c0-7.4-5.9-12.6-11.1-12.6
		C110.5,127.2,113.9,123.6,113.9,118.5z"/>
	<path d="M162.1,121.7c0-8.8-7.6-15.9-18.1-15.9h-18.6l0.1,48.9h13v-15.5h-0.1v-21.7h5.3c2.7,0,5.3,1.9,5.3,4.9c0,3-2.5,4.9-5.3,4.9
		l-3.6,0v8.8l11.5,18.6h15.2l-13.1-19.6C158.4,132.9,162.1,127.8,162.1,121.7z"/>
	<polygon points="184.8,149 201.4,149 197.3,139.5 188.9,139.5 194,127.9 199,139.5 198.9,139.5 203,149 203.1,149 205.6,154.7 
		219.8,154.7 197,105.2 190.9,105.2 168.1,154.7 182.3,154.7 	"/>
	<polygon points="225,154.8 238,154.8 238,132.5 225,120.1 	"/>
	<path d="M267.2,30.9c-4.3-1.7-8.6-3.2-13-4.6v103.4l-25.1-24.3H225v13.2l13,12.4v-0.1l3.1,3l22.1,21.4h4.1V42.9
		c19.7,8.5,37.9,20.7,53.5,36.3c32.3,32.3,50,75.1,50,120.7c0,45.6-17.8,88.5-50,120.7c-32.3,32.3-75.1,50-120.7,50
		c-6.8,0-13.5-0.4-20.2-1.2v11.3c6.6,0.7,13.3,1.1,20.2,1.1c100.5,0,182-81.5,182-182C382,123.3,334.4,57.6,267.2,30.9z"/>
	<path d="M292,105.8l-16,0v48.9h12.7V118h3c8.8,0,14.1,4.7,14.1,12.3c0,7.6-5.3,12.2-14,12.2h-1.4v12.2h1.6
		c16.6,0,26.8-9.2,26.8-24.4C318.8,115.1,308.6,105.8,292,105.8z"/>
	<path d="M55,218.8c-4.1,0-7.9-1.8-9.9-4.8l-7.9,7.7c2.5,5.4,9.8,9,17.8,9c9.8,0,18.5-5.8,18.5-15.1c0-7.2-5.1-11.9-12.7-15.1
		c-5.3-2.2-8.7-2.9-8.7-5.2c0-1.7,1.9-3,4.6-3c2.3,0,6.1,1.1,7.6,3.7l7.5-7.2c-1.9-4.8-7.7-8.3-15.2-8.3c-9.3,0-17.3,6-17.3,14.5
		c0,7.4,5.3,11.4,11.5,14.1c4.8,2.1,9.8,4.3,9.8,6.9C60.5,217.8,57.8,218.8,55,218.8z"/>
	<path d="M104.6,192.4c3.6,0,7.6,1.8,10.6,4.5l7.5-9.6c-5-4.5-11.8-7.3-18.1-7.4c-15.2,0-26.9,11.1-26.9,25.6
		c0,15.4,12.9,25.5,26.7,25.5c7.4,0,13.7-2.9,18.3-7.2l-7.4-9.9c-3.1,2.8-6.8,4.8-10.9,4.8c-7,0-13.5-5.6-13.5-13.2
		C90.8,198.2,97.1,192.4,104.6,192.4z"/>
	<polygon points="159.8,224.3 159.9,224.3 162.3,230 176.5,230 153.8,180.5 147.6,180.5 124.9,230 139.1,230 141.6,224.3 
		158.1,224.3 154,214.8 145.7,214.8 150.7,203.2 155.7,214.8 155.7,214.8 	"/>
	<polygon points="213.4,217.8 194.7,217.8 194.7,181.1 181.7,181.1 181.7,230 213.4,230 	"/>
	<rect x="233.6" y="200" width="14.1" height="10.8"/>
	<polygon points="251,181.1 219.3,181.1 219.3,230 251,230 251,217.8 232.1,217.8 232.1,193.2 251,193.2 	"/>
	<rect x="132" y="255.7" width="13" height="48.9"/>
	<polygon points="196.1,290.3 196.1,255.6 183.1,255.6 183.1,277.9 	"/>
	<path d="M166.8,280.7l25.2,24.4h4.1v-13.2l-15.2-14.5h0.1l-23-22.3h-4.2v109.3c-27.9-7.8-53.5-22.7-74.6-43.7
		c-32.3-32.3-50-75.1-50-120.7c0-45.6,17.8-88.5,50-120.7c32.3-32.3,75.1-50,120.7-50c14.1,0,27.9,1.7,41.2,5V22.7
		C228,19.7,214.2,18,200,18C99.5,18,18,99.5,18,200c0,84.5,57.6,155.6,135.8,176c4.3,1.1,8.6,2.1,13,2.9c0,0,0,0,0,0v-11.4
		c0,0,0,0,0,0V280.7z"/>
	<path d="M229.7,267c3.6,0,7.6,1.8,10.6,4.5l7.5-9.6c-5-4.6-11.8-7.3-18.1-7.4c-15.2,0-26.9,11.1-26.9,25.6
		c0,15.4,12.9,25.5,26.7,25.5c7.4,0,13.7-2.9,18.3-7.2l-7.4-9.9c-3.2,2.8-6.8,4.8-10.9,4.8c-7,0-13.5-5.6-13.5-13.2
		C215.9,272.7,222.2,267,229.7,267z"/>
	<path d="M268.6,298.7c0-4.1-3.7-7.5-8-7.5c-4.4,0-8,3.4-8,7.5c0,4.2,3.6,7.6,8,7.6C265,306.3,268.6,302.9,268.6,298.7z"/>
	<path d="M276.9,181.1v31.1c0,11.2,9.1,19.1,20.3,19.1c11.2,0,20.3-7.9,20.3-19.1v-31.1h-13.1v31.1c0,4-3.6,6.8-7.3,6.8
		c-3.7,0-7.2-2.7-7.2-6.8v-31.1H276.9z"/>
	<path d="M344.4,203.6l-4,0v12h4c10.3,0,18.5-7.9,18.5-17.3c0-9.6-8.4-17.1-18.5-17.1h-18.5V230h13v-36.9h5.5c3.5,0,5.9,2.3,5.9,5.2
		C350.3,201.3,347.9,203.7,344.4,203.6z"/>
</g>
</svg>
