<svg width="110" height="108" viewBox="0 0 110 108" fill="none" xmlns="http://www.w3.org/2000/svg">
<path fill-rule="evenodd" clip-rule="evenodd" d="M18.2357 28.6461C14.7497 25.1601 14.7497 19.5083 18.2357 16.0224L27.9462 6.31185C31.4321 2.82591 37.084 2.82591 40.5699 6.31185L58.0489 23.7908C58.8533 24.5953 58.8533 25.8995 58.0489 26.704C57.2444 27.5084 55.9402 27.5084 55.1357 26.704L37.6567 9.22501C35.7797 7.34796 32.7364 7.34796 30.8594 9.22501L21.1488 18.9355C19.2718 20.8126 19.2718 23.8559 21.1488 25.7329L38.6278 43.2119C39.4322 44.0163 39.4322 45.3206 38.6278 46.125C37.8234 46.9295 36.5191 46.9295 35.7146 46.125L18.2357 28.6461Z" fill="#2B2B2B"/>
<path fill-rule="evenodd" clip-rule="evenodd" d="M24.062 34.4705C23.2576 33.666 23.2576 32.3618 24.062 31.5573L43.4831 12.1363C44.2876 11.3318 45.5918 11.3318 46.3963 12.1363C47.2007 12.9407 47.2007 14.245 46.3963 15.0494L26.9752 34.4705C26.1708 35.2749 24.8665 35.2749 24.062 34.4705Z" fill="#2B2B2B"/>
<path fill-rule="evenodd" clip-rule="evenodd" d="M52.2232 32.53C51.4187 33.3344 50.1145 33.3344 49.31 32.53L37.6574 20.8773C36.8529 20.0729 36.8529 18.7686 37.6574 17.9642C38.4618 17.1597 39.7661 17.1597 40.5705 17.9642L52.2232 29.6168C53.0276 30.4213 53.0276 31.7255 52.2232 32.53Z" fill="#2B2B2B"/>
<path fill-rule="evenodd" clip-rule="evenodd" d="M65.0132 56.9714C64.2088 57.7758 62.9045 57.7758 62.1001 56.9714L51.0853 45.9566C50.2808 45.1521 50.2808 43.8479 51.0853 43.0434C51.8897 42.239 53.194 42.239 53.9984 43.0434L65.0132 54.0582C65.8177 54.8627 65.8177 56.167 65.0132 56.9714Z" fill="#2B2B2B"/>
<path fill-rule="evenodd" clip-rule="evenodd" d="M96.8921 62.6316C97.6965 63.436 97.6965 64.7403 96.8921 65.5447L77.471 84.9658C76.6665 85.7702 75.3623 85.7702 74.5578 84.9658C73.7534 84.1613 73.7534 82.8571 74.5578 82.0526L93.9789 62.6316C94.7833 61.8271 96.0876 61.8271 96.8921 62.6316Z" fill="#2B2B2B"/>
<path fill-rule="evenodd" clip-rule="evenodd" d="M76.4995 56.8064C77.3039 56.002 78.6082 56.002 79.4126 56.8064L91.0653 68.4591C91.8697 69.2635 91.8697 70.5678 91.0653 71.3722C90.2608 72.1767 88.9566 72.1767 88.1521 71.3722L76.4995 59.7196C75.695 58.9151 75.695 57.6109 76.4995 56.8064Z" fill="#2B2B2B"/>
<path fill-rule="evenodd" clip-rule="evenodd" d="M60.9624 68.4597C61.7669 67.6552 63.0712 67.6552 63.8756 68.4597L76.943 81.5271L95.1017 83.1779L93.4509 65.0192L82.3256 53.8939C81.5212 53.0894 81.5212 51.7852 82.3256 50.9807C83.1301 50.1763 84.4343 50.1763 85.2388 50.9807L96.8914 62.6334C97.2322 62.9741 97.4427 63.4235 97.4863 63.9034L99.4284 85.2666C99.4837 85.8755 99.2658 86.4774 98.8335 86.9097C98.4012 87.342 97.7993 87.5599 97.1904 87.5046L75.8273 85.5625C75.3474 85.5188 74.8979 85.3083 74.5572 84.9676L60.9624 71.3728C60.158 70.5684 60.158 69.2641 60.9624 68.4597Z" fill="#2B2B2B"/>
<path fill-rule="evenodd" clip-rule="evenodd" d="M100.775 17.9634C100.775 17.9634 101.261 14.5647 98.3475 11.6515C95.4344 8.73838 92.0357 9.22391 92.0357 9.22391C83.102 10.3892 74.8804 16.6687 71.158 20.391L47.3672 44.1818C42.8087 48.7404 42.8087 56.1312 47.3672 60.6897C51.9258 65.2483 59.3166 65.2483 63.8751 60.6897L87.666 36.8989C91.5502 33.3384 98.4447 25.7318 100.775 17.9634ZM84.7528 33.9858C84.795 33.9436 84.8381 33.9023 84.8821 33.862C88.5467 30.5028 94.5419 23.7669 96.6821 17.2473C96.6753 17.1086 96.6571 16.9234 96.614 16.7079C96.4981 16.1283 96.2084 15.3387 95.4344 14.5647C94.6604 13.7907 93.8708 13.501 93.2912 13.3851C92.9921 13.3253 92.7513 13.3134 92.6123 13.3134C92.5698 13.3134 92.5389 13.3145 92.5211 13.3154C84.9218 14.3255 77.5232 19.8521 74.0712 23.3042L50.2804 47.095C47.3308 50.0446 47.3308 54.8269 50.2804 57.7766C53.23 60.7262 58.0123 60.7262 60.962 57.7766L84.7528 33.9858Z" fill="#2B2B2B"/>
<path fill-rule="evenodd" clip-rule="evenodd" d="M32.8542 51.5101C37.6266 50.0507 42.464 50.532 45.5206 51.4309C46.612 51.752 47.2365 52.897 46.9155 53.9884C46.5945 55.0798 45.4495 55.7044 44.3581 55.3834C41.912 54.6639 37.9129 54.2713 34.059 55.4498C30.3529 56.5832 26.7112 59.1798 24.6104 64.6111C24.0691 68.2007 22.6216 73.4696 19.9328 77.9852C18.2639 80.7878 16.0194 83.4477 13.1047 85.1493C20.34 87.406 29.0454 88.7787 36.4123 87.2471C41.0754 86.2776 45.0961 84.1702 47.951 80.4832C50.8132 76.7866 52.6841 71.2692 52.5907 63.1419C52.5776 62.0044 53.4892 61.0716 54.6268 61.0585C55.7643 61.0454 56.6971 61.957 56.7102 63.0946C56.811 71.8637 54.7936 78.3752 51.2085 83.0054C47.6159 87.6451 42.6301 90.1624 37.2509 91.2807C26.6171 93.4914 14.043 90.3343 5.78562 86.8662C4.8945 86.4919 4.38343 85.5484 4.55676 84.5976C4.73008 83.6467 5.54119 82.9442 6.50704 82.9085C10.7436 82.7516 13.9837 79.9235 16.393 75.8774C18.7922 71.8483 20.108 67.0032 20.5659 63.7975C20.587 63.6499 20.624 63.5051 20.6763 63.3655C23.2492 56.5044 27.9795 53.0009 32.8542 51.5101Z" fill="#2B2B2B"/>
</svg>
