<svg width="160" height="52" viewBox="0 0 160 52" fill="none" xmlns="http://www.w3.org/2000/svg">
<path d="M135.299 51.2693L135.35 51.2436L135.394 51.2069C140.293 47.1449 145.418 41.7196 150.77 34.9397L150.77 34.9397L150.773 34.9354C156.02 28.1386 158.762 22.0446 158.885 16.6697L158.885 16.6697L158.885 16.6584C158.885 11.3441 157.372 7.27198 154.267 4.53923L154.267 4.53916L154.259 4.53289C151.074 1.83784 147.16 0.499999 142.548 0.499999L142.548 0.499999L142.547 0.499999L142.546 0.499999L142.546 0.499999L142.545 0.499999L142.544 0.499999L142.544 0.499999L142.543 0.499999L142.542 0.499999L142.541 0.499999L142.541 0.499999L142.54 0.499999L142.539 0.499999L142.539 0.499999L142.538 0.499999L142.537 0.499999L142.536 0.499999L142.536 0.499999L142.535 0.499999L142.534 0.499999L142.534 0.499999L142.533 0.499999L142.532 0.499999L142.531 0.499999L142.531 0.499999L142.53 0.499999L142.529 0.499999L142.528 0.499999L142.528 0.499999L142.527 0.499999L142.526 0.499999L142.526 0.499999L142.525 0.499999L142.524 0.499999L142.523 0.499999L142.523 0.499999L142.522 0.499999L142.521 0.499999L142.52 0.499999L142.52 0.499999L142.519 0.499999L142.518 0.499999L142.517 0.499999L142.517 0.499999L142.516 0.499999L142.515 0.499999L142.514 0.499999L142.514 0.499999L142.513 0.499999L142.512 0.499999L142.511 0.499999L142.51 0.499999L142.51 0.499999L142.509 0.499999L142.508 0.499999L142.507 0.499999L142.507 0.499999L142.506 0.499999L142.505 0.499999L142.504 0.499999L142.504 0.499999L142.503 0.499999L142.502 0.499999L142.501 0.499999L142.5 0.499999L142.5 0.499999L142.499 0.499999L142.498 0.499999L142.497 0.499999L142.496 0.499999L142.496 0.499999L142.495 0.499999L142.494 0.499999L142.493 0.499999L142.493 0.499999L142.492 0.499999L142.491 0.499999L142.49 0.499999L142.489 0.499999L142.489 0.499999L142.488 0.499999L142.487 0.499999L142.486 0.499999L142.485 0.499999L142.484 0.499999L142.484 0.499999L142.483 0.499999L142.482 0.499999L142.481 0.499999L142.48 0.499999L142.48 0.499999L142.479 0.499999L142.478 0.499999L142.477 0.499999L142.476 0.499999L142.475 0.499999L142.475 0.499999L142.474 0.499999L142.473 0.499999L142.472 0.499999L142.471 0.499999L142.471 0.499999L142.47 0.499999L142.469 0.499999L142.468 0.499999L142.467 0.499999L142.466 0.499999L142.465 0.499999L142.465 0.499999L142.464 0.499999L142.463 0.499999L142.462 0.499999L142.461 0.499999L142.46 0.499999L142.46 0.499999L142.459 0.499999L142.458 0.499999L142.457 0.499999L142.456 0.499999L142.455 0.499999L142.454 0.499999L142.454 0.499999L142.453 0.499999L142.452 0.499999L142.451 0.499999L142.45 0.499999L142.449 0.499999L142.448 0.499999L142.448 0.499999L142.447 0.499999L142.446 0.499999L142.445 0.499999L142.444 0.499999L142.443 0.499999L142.442 0.499999L142.441 0.499999L142.441 0.499999L142.44 0.499999L142.439 0.499999L142.438 0.499999L142.437 0.499999L142.436 0.499999L142.435 0.499999L142.434 0.499999L142.433 0.499999L142.433 0.499999L142.432 0.499999L142.431 0.499999L142.43 0.499999L142.429 0.499999L142.428 0.499999L142.427 0.499999L142.426 0.499999L142.425 0.499999L142.424 0.499999L142.424 0.499999L142.423 0.499999L142.422 0.499999L142.421 0.499999L142.42 0.499999L142.419 0.499999L142.418 0.499999L142.417 0.499999L142.416 0.499999L142.415 0.499999L142.414 0.499999L142.413 0.499999L142.413 0.499999L142.412 0.499999L142.411 0.499999L142.41 0.499999L142.409 0.499999L142.408 0.499999L142.407 0.499999L142.406 0.499999L142.405 0.499999L142.404 0.499999L142.403 0.499999L142.402 0.499999L142.401 0.499999L142.4 0.499999L142.399 0.499999L142.399 0.499999L142.398 0.499999L142.397 0.499999L142.396 0.499999L142.395 0.499999L142.394 0.499999L142.393 0.499999L142.392 0.499999L142.391 0.499999L142.39 0.499999L142.389 0.499999L142.388 0.499999L142.387 0.499999L142.386 0.499999L142.385 0.499999L142.384 0.499999L142.383 0.499999L142.382 0.499999L142.381 0.499999L142.38 0.499999L142.379 0.499999L142.378 0.499999L142.377 0.499999L142.376 0.499999L142.376 0.499999L142.375 0.499999L142.374 0.499999L142.373 0.499999L142.372 0.499999L142.371 0.499999L142.37 0.499999L142.369 0.499999L142.368 0.499999L142.367 0.499999L142.366 0.499999L142.365 0.499999L142.364 0.499999L142.363 0.499999L142.362 0.499999L142.361 0.499999L142.36 0.499999L142.359 0.499999L142.358 0.499999L142.357 0.499999L142.356 0.499999L142.355 0.499999L142.354 0.499999L142.353 0.499999L142.352 0.499999L142.351 0.499999L142.35 0.499999L142.349 0.499999L142.348 0.499999L142.347 0.499999L142.346 0.499999L142.345 0.499999L142.344 0.499999L142.343 0.499999L142.342 0.499999L142.341 0.499999L142.339 0.499999L142.338 0.499999L142.337 0.499999L142.336 0.499999L142.335 0.499999L142.334 0.499999L142.333 0.499999L142.332 0.499999L142.331 0.499999L142.33 0.499999L142.329 0.499999L142.328 0.499999L142.327 0.499999L142.326 0.499999L142.325 0.499999L142.324 0.499999L142.323 0.499999L142.322 0.499999L142.321 0.499999L142.32 0.499999L142.319 0.499999L142.318 0.499999L142.317 0.499999L142.316 0.499999L142.314 0.499999L142.313 0.499999L142.312 0.499999L142.311 0.499999L142.31 0.499999L142.309 0.499999L142.308 0.499999L142.307 0.499999L142.306 0.499999L142.305 0.499999L142.304 0.499999L142.303 0.499999L142.302 0.499999L142.301 0.499999L142.3 0.499999L142.298 0.499999L142.297 0.499999L142.296 0.499999L142.295 0.499999L142.294 0.499999L142.293 0.499999L142.292 0.499999L142.291 0.499999L142.29 0.499999L142.289 0.499999L142.288 0.499999L142.287 0.499999L142.285 0.499999L142.284 0.499999L142.283 0.499999L142.282 0.499999L142.281 0.499999L142.28 0.499999L142.279 0.499999L142.278 0.499999L142.277 0.499999L142.276 0.499999L142.274 0.499999L142.273 0.499999L142.272 0.499999L142.271 0.499999L142.27 0.499999L142.269 0.499999L142.268 0.499999L142.267 0.499999L142.266 0.499999L142.264 0.499999L142.263 0.499999L142.262 0.499999L142.261 0.499999L142.26 0.499999L142.259 0.499999L142.258 0.499999L142.257 0.499999L142.255 0.499999L142.254 0.499999L142.253 0.499999L142.252 0.499999L142.251 0.499999L142.25 0.499999L142.249 0.499999L142.247 0.499999L142.246 0.499999L142.245 0.499999L142.244 0.499999L142.243 0.499999L142.242 0.499999L142.241 0.499999L142.239 0.499999L142.238 0.499999L142.237 0.499999L142.236 0.499999L142.235 0.499999L142.234 0.499999L142.233 0.499999L142.231 0.499999L142.23 0.499999L142.229 0.499999L142.228 0.499999L142.227 0.499999L142.226 0.499999L142.224 0.499999L142.223 0.499999L142.222 0.499999L142.221 0.499999L142.22 0.499999L142.219 0.499999L142.217 0.499999L142.216 0.499999L142.215 0.499999L142.214 0.499999L142.213 0.499999L142.211 0.499999L142.21 0.499999L142.209 0.499999L142.208 0.499999L142.207 0.499999L142.206 0.499999L142.204 0.499999L142.203 0.499999L142.202 0.499999L142.201 0.499999L142.2 0.499999L142.198 0.499999L142.197 0.499999L142.196 0.499999L142.195 0.499999L142.194 0.499999L142.192 0.499999L142.191 0.499999L142.19 0.499999L142.189 0.499999L142.188 0.499999L142.186 0.499999L142.185 0.499999L142.184 0.499999L142.183 0.499999L142.181 0.499999L142.18 0.499999L142.179 0.499999L142.178 0.499999L142.177 0.499999L142.175 0.499999L142.174 0.499999L142.173 0.499999L142.172 0.499999L142.17 0.499999L142.169 0.499999L142.168 0.499999L142.167 0.499999L142.166 0.499999L142.164 0.499999L142.163 0.499999L142.162 0.499999L142.161 0.499999L142.159 0.499999L142.158 0.499999L142.157 0.499999L142.156 0.499999L142.154 0.499999L142.153 0.499999L142.152 0.499999L142.151 0.499999L142.149 0.499999L142.148 0.499999L142.147 0.499999L142.146 0.499999L142.144 0.499999L142.143 0.499999L142.142 0.499999L142.141 0.499999L142.139 0.499999L142.138 0.499999L142.137 0.499999L142.136 0.499999L142.134 0.499999L142.133 0.499999L142.132 0.499999L142.13 0.499999L142.129 0.499999L142.128 0.499999L142.127 0.499999L142.125 0.499999L142.124 0.499999L142.123 0.499999L142.122 0.499999L142.12 0.499999L142.119 0.499999L142.118 0.499999L142.116 0.499999L142.115 0.499999L142.114 0.499999L142.113 0.499999L142.111 0.499999L142.11 0.499999L142.109 0.499999L142.107 0.499999L142.106 0.499999L142.105 0.499999L142.103 0.499999L142.102 0.499999L142.101 0.499999L142.1 0.499999L142.098 0.499999L142.097 0.499999L142.096 0.499999L142.094 0.499999L142.093 0.499999L142.092 0.499999L142.09 0.499999L142.089 0.499999L142.088 0.499999L142.086 0.499999L142.085 0.499999L142.084 0.499999L142.082 0.499999L142.081 0.499999L142.08 0.499999L142.078 0.499999L142.077 0.499999L142.076 0.499999L142.075 0.499999L142.073 0.499999L142.072 0.499999L142.071 0.499999L142.069 0.499999L142.068 0.499999L142.067 0.499999L142.065 0.499999L142.064 0.499999L142.062 0.499999L142.061 0.499999L142.06 0.499999L142.058 0.499999L142.057 0.499999L142.056 0.499999L142.054 0.499999L142.053 0.499999L142.052 0.499999L142.05 0.499999L142.049 0.499999L142.048 0.499999L142.046 0.499999L142.045 0.499999L142.044 0.499999L142.042 0.499999L142.041 0.499999L142.039 0.499999L142.038 0.499999L142.037 0.499999L142.035 0.499999L142.034 0.499999L142.033 0.499999L142.031 0.499999L142.03 0.499999L142.028 0.499999L142.027 0.499999L142.026 0.499999L142.024 0.499999L142.023 0.499999L142.022 0.499999L142.02 0.499999L142.019 0.499999L142.017 0.499999L142.016 0.499999L142.015 0.499999C138.192 0.499998 134.863 1.98574 132.049 4.92063C129.12 7.85072 127.636 11.2354 127.636 15.0569C127.636 18.9599 128.798 22.2824 131.138 24.9923C133.296 27.4906 135.934 29.2012 139.045 30.1168C133.995 36.9746 129.285 42.8757 124.914 47.8219L124.566 48.2154L124.976 48.5435C125.326 48.8235 125.866 49.1115 126.557 49.4123C127.258 49.7169 128.148 50.0483 129.223 50.4067C130.297 50.7648 131.2 51.036 131.929 51.2182C132.648 51.3979 133.231 51.5 133.652 51.5C134.019 51.5 134.338 51.4848 134.603 51.4517C134.859 51.4197 135.104 51.3666 135.299 51.2693ZM101.847 51.2693L101.899 51.2433L101.943 51.2062C109.102 45.2406 115.245 38.202 120.373 30.0929L120.375 30.0898C123.726 24.7049 125.433 19.7494 125.433 15.2349C125.433 10.8338 123.898 7.25222 120.815 4.53923L120.815 4.53916L120.807 4.53289C117.625 1.83997 113.771 0.499996 109.274 0.499996L109.274 0.499996L109.273 0.499996L109.272 0.499996L109.272 0.499996L109.271 0.499996L109.27 0.499996L109.27 0.499996L109.269 0.499996L109.268 0.499996L109.267 0.499996L109.267 0.499996L109.266 0.499996L109.265 0.499996L109.265 0.499996L109.264 0.499996L109.263 0.499996L109.262 0.499996L109.262 0.499996L109.261 0.499996L109.26 0.499996L109.26 0.499996L109.259 0.499996L109.258 0.499996L109.257 0.499996L109.257 0.499996L109.256 0.499996L109.255 0.499996L109.254 0.499996L109.254 0.499996L109.253 0.499996L109.252 0.499996L109.252 0.499996L109.251 0.499996L109.25 0.499996L109.249 0.499996L109.249 0.499996L109.248 0.499996L109.247 0.499996L109.246 0.499996L109.246 0.499996L109.245 0.499996L109.244 0.499996L109.243 0.499996L109.243 0.499996L109.242 0.499996L109.241 0.499996L109.24 0.499996L109.24 0.499996L109.239 0.499996L109.238 0.499996L109.237 0.499996L109.236 0.499996L109.236 0.499996L109.235 0.499996L109.234 0.499996L109.233 0.499996L109.233 0.499996L109.232 0.499996L109.231 0.499996L109.23 0.499996L109.23 0.499996L109.229 0.499996L109.228 0.499996L109.227 0.499996L109.226 0.499996L109.226 0.499996L109.225 0.499996L109.224 0.499996L109.223 0.499996L109.222 0.499996L109.222 0.499996L109.221 0.499996L109.22 0.499996L109.219 0.499996L109.218 0.499996L109.218 0.499996L109.217 0.499996L109.216 0.499996L109.215 0.499996L109.214 0.499996L109.214 0.499996L109.213 0.499996L109.212 0.499996L109.211 0.499996L109.21 0.499996L109.21 0.499996L109.209 0.499996L109.208 0.499996L109.207 0.499996L109.206 0.499996L109.206 0.499996L109.205 0.499996L109.204 0.499996L109.203 0.499996L109.202 0.499996L109.201 0.499996L109.201 0.499996L109.2 0.499996L109.199 0.499996L109.198 0.499996L109.197 0.499996L109.196 0.499996L109.196 0.499996L109.195 0.499996L109.194 0.499996L109.193 0.499996L109.192 0.499996L109.191 0.499996L109.191 0.499996L109.19 0.499996L109.189 0.499996L109.188 0.499996L109.187 0.499996L109.186 0.499996L109.186 0.499996L109.185 0.499996L109.184 0.499996L109.183 0.499996L109.182 0.499996L109.181 0.499996L109.18 0.499996L109.18 0.499996L109.179 0.499996L109.178 0.499996L109.177 0.499996L109.176 0.499996L109.175 0.499996L109.174 0.499996L109.173 0.499996L109.173 0.499996L109.172 0.499996L109.171 0.499996L109.17 0.499996L109.169 0.499996L109.168 0.499996L109.167 0.499996L109.166 0.499996L109.166 0.499996L109.165 0.499996L109.164 0.499996L109.163 0.499996L109.162 0.499996L109.161 0.499996L109.16 0.499996L109.159 0.499996L109.159 0.499996L109.158 0.499996L109.157 0.499996L109.156 0.499996L109.155 0.499996L109.154 0.499996L109.153 0.499996L109.152 0.499996L109.151 0.499996L109.15 0.499996L109.149 0.499996L109.149 0.499996L109.148 0.499996L109.147 0.499996L109.146 0.499996L109.145 0.499996L109.144 0.499996L109.143 0.499996L109.142 0.499996L109.141 0.499996L109.14 0.499996L109.139 0.499996L109.139 0.499996L109.138 0.499996L109.137 0.499996L109.136 0.499996L109.135 0.499996L109.134 0.499996L109.133 0.499996L109.132 0.499996L109.131 0.499996L109.13 0.499996L109.129 0.499996L109.128 0.499996L109.127 0.499996L109.126 0.499996L109.125 0.499996L109.125 0.499996L109.124 0.499996L109.123 0.499996L109.122 0.499996L109.121 0.499996L109.12 0.499996L109.119 0.499996L109.118 0.499996L109.117 0.499996L109.116 0.499996L109.115 0.499996L109.114 0.499996L109.113 0.499996L109.112 0.499996L109.111 0.499996L109.11 0.499996L109.109 0.499996L109.108 0.499996L109.107 0.499996L109.106 0.499996L109.105 0.499996L109.104 0.499996L109.103 0.499996L109.102 0.499996L109.101 0.499996L109.101 0.499996L109.1 0.499996L109.099 0.499996L109.098 0.499996L109.097 0.499996L109.096 0.499996L109.095 0.499996L109.094 0.499996L109.093 0.499996L109.092 0.499996L109.091 0.499996L109.09 0.499996L109.089 0.499996L109.088 0.499996L109.087 0.499996L109.086 0.499996L109.085 0.499996L109.084 0.499996L109.083 0.499996L109.082 0.499996L109.081 0.499996L109.08 0.499996L109.079 0.499996L109.078 0.499996L109.077 0.499996L109.076 0.499996L109.075 0.499996L109.074 0.499996L109.073 0.499996L109.072 0.499996L109.071 0.499996L109.07 0.499996L109.069 0.499996L109.068 0.499996L109.066 0.499996L109.065 0.499996L109.064 0.499996L109.063 0.499996L109.062 0.499996L109.061 0.499996L109.06 0.499996L109.059 0.499996L109.058 0.499996L109.057 0.499996L109.056 0.499996L109.055 0.499996L109.054 0.499996L109.053 0.499996L109.052 0.499996L109.051 0.499996L109.05 0.499996L109.049 0.499996L109.048 0.499996L109.047 0.499996L109.046 0.499996L109.045 0.499996L109.044 0.499996L109.043 0.499996L109.042 0.499996L109.04 0.499996L109.039 0.499996L109.038 0.499996L109.037 0.499996L109.036 0.499996L109.035 0.499996L109.034 0.499996L109.033 0.499996L109.032 0.499996L109.031 0.499996L109.03 0.499996L109.029 0.499996L109.028 0.499996L109.027 0.499996L109.026 0.499996L109.024 0.499996L109.023 0.499996L109.022 0.499996L109.021 0.499996L109.02 0.499996L109.019 0.499996L109.018 0.499996L109.017 0.499996L109.016 0.499996L109.015 0.499996L109.014 0.499996L109.013 0.499996L109.011 0.499996L109.01 0.499996L109.009 0.499996L109.008 0.499996L109.007 0.499996L109.006 0.499996L109.005 0.499996L109.004 0.499996L109.003 0.499996L109.002 0.499996L109 0.499996L108.999 0.499996L108.998 0.499996L108.997 0.499996L108.996 0.499996L108.995 0.499996L108.994 0.499996L108.993 0.499996L108.992 0.499996L108.99 0.499996L108.989 0.499996L108.988 0.499996L108.987 0.499996L108.986 0.499996L108.985 0.499996L108.984 0.499996L108.983 0.499996L108.981 0.499996L108.98 0.499996L108.979 0.499996L108.978 0.499996L108.977 0.499996L108.976 0.499996L108.975 0.499996L108.973 0.499996L108.972 0.499996L108.971 0.499996L108.97 0.499996L108.969 0.499996L108.968 0.499996L108.967 0.499996L108.965 0.499996L108.964 0.499996L108.963 0.499996L108.962 0.499996L108.961 0.499996L108.96 0.499996L108.959 0.499996L108.957 0.499996L108.956 0.499996L108.955 0.499996L108.954 0.499996L108.953 0.499996L108.952 0.499996L108.95 0.499996L108.949 0.499996L108.948 0.499996L108.947 0.499996L108.946 0.499996L108.945 0.499996L108.943 0.499996L108.942 0.499996L108.941 0.499996L108.94 0.499996L108.939 0.499996L108.937 0.499996L108.936 0.499996L108.935 0.499996L108.934 0.499996L108.933 0.499996L108.932 0.499996L108.93 0.499996L108.929 0.499996L108.928 0.499996L108.927 0.499996L108.926 0.499996L108.924 0.499996L108.923 0.499996L108.922 0.499996L108.921 0.499996L108.92 0.499996L108.918 0.499996L108.917 0.499996L108.916 0.499996L108.915 0.499996L108.914 0.499996L108.912 0.499996L108.911 0.499996L108.91 0.499996L108.909 0.499996L108.907 0.499996L108.906 0.499996L108.905 0.499996L108.904 0.499996L108.903 0.499996L108.901 0.499996L108.9 0.499996L108.899 0.499996L108.898 0.499996L108.896 0.499996L108.895 0.499996L108.894 0.499996L108.893 0.499996L108.892 0.499996L108.89 0.499996L108.889 0.499996L108.888 0.499996L108.887 0.499996L108.885 0.499996L108.884 0.499996L108.883 0.499996L108.882 0.499996L108.88 0.499996L108.879 0.499996L108.878 0.499996L108.877 0.499996L108.875 0.499996L108.874 0.499996L108.873 0.499996L108.872 0.499996L108.87 0.499996L108.869 0.499996L108.868 0.499996L108.867 0.499996L108.865 0.499996L108.864 0.499996L108.863 0.499996L108.862 0.499996L108.86 0.499996L108.859 0.499996L108.858 0.499996L108.856 0.499996L108.855 0.499996L108.854 0.499996L108.853 0.499996L108.851 0.499996L108.85 0.499996L108.849 0.499996L108.848 0.499996L108.846 0.499996L108.845 0.499996L108.844 0.499996L108.842 0.499996L108.841 0.499996L108.84 0.499996L108.839 0.499996L108.837 0.499996L108.836 0.499996L108.835 0.499996L108.833 0.499996L108.832 0.499996L108.831 0.499996L108.829 0.499996L108.828 0.499996L108.827 0.499996L108.826 0.499996L108.824 0.499996L108.823 0.499996L108.822 0.499996L108.82 0.499996L108.819 0.499996L108.818 0.499996L108.816 0.499996L108.815 0.499996L108.814 0.499996L108.812 0.499996L108.811 0.499996L108.81 0.499996L108.808 0.499996L108.807 0.499996L108.806 0.499996L108.804 0.499996L108.803 0.499996L108.802 0.499996L108.8 0.499996L108.799 0.499996L108.798 0.499996L108.796 0.499996L108.795 0.499996L108.794 0.499996L108.792 0.499996L108.791 0.499996L108.79 0.499996L108.788 0.499996L108.787 0.499996L108.786 0.499996L108.784 0.499996L108.783 0.499996L108.782 0.499996L108.78 0.499996L108.779 0.499996L108.778 0.499996L108.776 0.499996L108.775 0.499996L108.774 0.499996L108.772 0.499996L108.771 0.499996L108.77 0.499996L108.768 0.499996L108.767 0.499996L108.765 0.499996L108.764 0.499996L108.763 0.499996L108.761 0.499996L108.76 0.499996L108.759 0.499996L108.757 0.499996L108.756 0.499996L108.754 0.499996L108.753 0.499996L108.752 0.499996L108.75 0.499996L108.749 0.499996L108.748 0.499996L108.746 0.499996L108.745 0.499996L108.743 0.499996L108.742 0.499996L108.741 0.499996C104.81 0.499995 101.421 1.91858 98.6006 4.73897L98.6005 4.73889L98.5932 4.74657C95.7794 7.68263 94.3616 11.1266 94.3616 15.0569C94.3616 19.069 95.5183 22.3951 97.8633 24.9917C99.9184 27.4998 102.509 29.2127 105.624 30.1256C102.125 35.3036 97.5234 41.2035 91.8139 47.8266L91.5658 48.1143L91.7766 48.4304C91.9008 48.6168 92.1054 48.7639 92.3023 48.882C92.5147 49.0095 92.7858 49.1419 93.1077 49.2799C93.7507 49.5554 94.6398 49.8714 95.7675 50.2277C96.8959 50.6432 97.8402 50.9582 98.5969 51.1701C99.3435 51.3791 99.9485 51.5 100.378 51.5C100.975 51.5 101.496 51.4449 101.847 51.2693Z" stroke="black"/>
<path d="M24.086 0.730717L24.0346 0.756397L23.9904 0.793052C19.0921 4.85505 13.9672 10.2804 8.61468 17.0603L8.61465 17.0603L8.61132 17.0646C3.36464 23.8614 0.622287 29.9554 0.500132 35.3303L0.500003 35.3303L0.500003 35.3416C0.500003 40.6559 2.0127 44.728 5.11809 47.4608L5.11803 47.4608L5.12543 47.4671C8.31049 50.1622 12.2249 51.5 16.8363 51.5L16.837 51.5L16.8377 51.5L16.8384 51.5L16.8391 51.5L16.8398 51.5L16.8405 51.5L16.8412 51.5L16.8419 51.5L16.8426 51.5L16.8433 51.5L16.844 51.5L16.8447 51.5L16.8455 51.5L16.8462 51.5L16.8469 51.5L16.8476 51.5L16.8483 51.5L16.849 51.5L16.8498 51.5L16.8505 51.5L16.8512 51.5L16.8519 51.5L16.8526 51.5L16.8534 51.5L16.8541 51.5L16.8548 51.5L16.8556 51.5L16.8563 51.5L16.857 51.5L16.8578 51.5L16.8585 51.5L16.8592 51.5L16.86 51.5L16.8607 51.5L16.8615 51.5L16.8622 51.5L16.8629 51.5L16.8637 51.5L16.8644 51.5L16.8652 51.5L16.8659 51.5L16.8667 51.5L16.8674 51.5L16.8682 51.5L16.869 51.5L16.8697 51.5L16.8705 51.5L16.8712 51.5L16.872 51.5L16.8728 51.5L16.8735 51.5L16.8743 51.5L16.875 51.5L16.8758 51.5L16.8766 51.5L16.8774 51.5L16.8781 51.5L16.8789 51.5L16.8797 51.5L16.8805 51.5L16.8812 51.5L16.882 51.5L16.8828 51.5L16.8836 51.5L16.8844 51.5L16.8851 51.5L16.8859 51.5L16.8867 51.5L16.8875 51.5L16.8883 51.5L16.8891 51.5L16.8899 51.5L16.8907 51.5L16.8915 51.5L16.8923 51.5L16.893 51.5L16.8938 51.5L16.8946 51.5L16.8954 51.5L16.8963 51.5L16.8971 51.5L16.8979 51.5L16.8987 51.5L16.8995 51.5L16.9003 51.5L16.9011 51.5L16.9019 51.5L16.9027 51.5L16.9035 51.5L16.9044 51.5L16.9052 51.5L16.906 51.5L16.9068 51.5L16.9076 51.5L16.9085 51.5L16.9093 51.5L16.9101 51.5L16.9109 51.5L16.9118 51.5L16.9126 51.5L16.9134 51.5L16.9143 51.5L16.9151 51.5L16.9159 51.5L16.9168 51.5L16.9176 51.5L16.9184 51.5L16.9193 51.5L16.9201 51.5L16.921 51.5L16.9218 51.5L16.9227 51.5L16.9235 51.5L16.9244 51.5L16.9252 51.5L16.9261 51.5L16.9269 51.5L16.9278 51.5L16.9286 51.5L16.9295 51.5L16.9303 51.5L16.9312 51.5L16.9321 51.5L16.9329 51.5L16.9338 51.5L16.9347 51.5L16.9355 51.5L16.9364 51.5L16.9373 51.5L16.9381 51.5L16.939 51.5L16.9399 51.5L16.9408 51.5L16.9416 51.5L16.9425 51.5L16.9434 51.5L16.9443 51.5L16.9451 51.5L16.946 51.5L16.9469 51.5L16.9478 51.5L16.9487 51.5L16.9496 51.5L16.9505 51.5L16.9514 51.5L16.9523 51.5L16.9531 51.5L16.954 51.5L16.9549 51.5L16.9558 51.5L16.9567 51.5L16.9576 51.5L16.9585 51.5L16.9594 51.5L16.9603 51.5L16.9613 51.5L16.9622 51.5L16.9631 51.5L16.964 51.5L16.9649 51.5L16.9658 51.5L16.9667 51.5L16.9676 51.5L16.9686 51.5L16.9695 51.5L16.9704 51.5L16.9713 51.5L16.9722 51.5L16.9732 51.5L16.9741 51.5L16.975 51.5L16.9759 51.5L16.9769 51.5L16.9778 51.5L16.9787 51.5L16.9797 51.5L16.9806 51.5L16.9815 51.5L16.9825 51.5L16.9834 51.5L16.9843 51.5L16.9853 51.5L16.9862 51.5L16.9872 51.5L16.9881 51.5L16.9891 51.5L16.99 51.5L16.991 51.5L16.9919 51.5L16.9929 51.5L16.9938 51.5L16.9948 51.5L16.9957 51.5L16.9967 51.5L16.9977 51.5L16.9986 51.5L16.9996 51.5L17.0005 51.5L17.0015 51.5L17.0025 51.5L17.0034 51.5L17.0044 51.5L17.0054 51.5L17.0063 51.5L17.0073 51.5L17.0083 51.5L17.0093 51.5L17.0102 51.5L17.0112 51.5L17.0122 51.5L17.0132 51.5L17.0142 51.5L17.0151 51.5L17.0161 51.5L17.0171 51.5L17.0181 51.5L17.0191 51.5L17.0201 51.5L17.0211 51.5L17.0221 51.5L17.0231 51.5L17.0241 51.5L17.0251 51.5L17.0261 51.5L17.0271 51.5L17.0281 51.5L17.0291 51.5L17.0301 51.5L17.0311 51.5L17.0321 51.5L17.0331 51.5L17.0341 51.5L17.0351 51.5L17.0361 51.5L17.0371 51.5L17.0381 51.5L17.0392 51.5L17.0402 51.5L17.0412 51.5L17.0422 51.5L17.0432 51.5L17.0443 51.5L17.0453 51.5L17.0463 51.5L17.0473 51.5L17.0484 51.5L17.0494 51.5L17.0504 51.5L17.0515 51.5L17.0525 51.5L17.0535 51.5L17.0546 51.5L17.0556 51.5L17.0566 51.5L17.0577 51.5L17.0587 51.5L17.0598 51.5L17.0608 51.5L17.0619 51.5L17.0629 51.5L17.064 51.5L17.065 51.5L17.0661 51.5L17.0671 51.5L17.0682 51.5L17.0692 51.5L17.0703 51.5L17.0713 51.5L17.0724 51.5L17.0735 51.5L17.0745 51.5L17.0756 51.5L17.0766 51.5L17.0777 51.5L17.0788 51.5L17.0798 51.5L17.0809 51.5L17.082 51.5L17.0831 51.5L17.0841 51.5L17.0852 51.5L17.0863 51.5L17.0874 51.5L17.0884 51.5L17.0895 51.5L17.0906 51.5L17.0917 51.5L17.0928 51.5L17.0939 51.5L17.095 51.5L17.096 51.5L17.0971 51.5L17.0982 51.5L17.0993 51.5L17.1004 51.5L17.1015 51.5L17.1026 51.5L17.1037 51.5L17.1048 51.5L17.1059 51.5L17.107 51.5L17.1081 51.5L17.1092 51.5L17.1103 51.5L17.1114 51.5L17.1126 51.5L17.1137 51.5L17.1148 51.5L17.1159 51.5L17.117 51.5L17.1181 51.5L17.1192 51.5L17.1204 51.5L17.1215 51.5L17.1226 51.5L17.1237 51.5L17.1248 51.5L17.126 51.5L17.1271 51.5L17.1282 51.5L17.1294 51.5L17.1305 51.5L17.1316 51.5L17.1328 51.5L17.1339 51.5L17.135 51.5L17.1362 51.5L17.1373 51.5L17.1385 51.5L17.1396 51.5L17.1407 51.5L17.1419 51.5L17.143 51.5L17.1442 51.5L17.1453 51.5L17.1465 51.5L17.1476 51.5L17.1488 51.5L17.1499 51.5L17.1511 51.5L17.1522 51.5L17.1534 51.5L17.1546 51.5L17.1557 51.5L17.1569 51.5L17.1581 51.5L17.1592 51.5L17.1604 51.5L17.1616 51.5L17.1627 51.5L17.1639 51.5L17.1651 51.5L17.1662 51.5L17.1674 51.5L17.1686 51.5L17.1698 51.5L17.171 51.5L17.1721 51.5L17.1733 51.5L17.1745 51.5L17.1757 51.5L17.1769 51.5L17.1781 51.5L17.1792 51.5L17.1804 51.5L17.1816 51.5L17.1828 51.5L17.184 51.5L17.1852 51.5L17.1864 51.5L17.1876 51.5L17.1888 51.5L17.19 51.5L17.1912 51.5L17.1924 51.5L17.1936 51.5L17.1948 51.5L17.196 51.5L17.1972 51.5L17.1984 51.5L17.1997 51.5L17.2009 51.5L17.2021 51.5L17.2033 51.5L17.2045 51.5L17.2057 51.5L17.207 51.5L17.2082 51.5L17.2094 51.5L17.2106 51.5L17.2118 51.5L17.2131 51.5L17.2143 51.5L17.2155 51.5L17.2168 51.5L17.218 51.5L17.2192 51.5L17.2205 51.5L17.2217 51.5L17.2229 51.5L17.2242 51.5L17.2254 51.5L17.2267 51.5L17.2279 51.5L17.2291 51.5L17.2304 51.5L17.2316 51.5L17.2329 51.5L17.2341 51.5L17.2354 51.5L17.2366 51.5L17.2379 51.5L17.2391 51.5L17.2404 51.5L17.2417 51.5L17.2429 51.5L17.2442 51.5L17.2454 51.5L17.2467 51.5L17.248 51.5L17.2492 51.5L17.2505 51.5L17.2518 51.5L17.253 51.5L17.2543 51.5L17.2556 51.5L17.2569 51.5L17.2581 51.5L17.2594 51.5L17.2607 51.5L17.262 51.5L17.2632 51.5L17.2645 51.5L17.2658 51.5L17.2671 51.5L17.2684 51.5L17.2697 51.5L17.271 51.5L17.2722 51.5L17.2735 51.5L17.2748 51.5L17.2761 51.5L17.2774 51.5L17.2787 51.5L17.28 51.5L17.2813 51.5L17.2826 51.5L17.2839 51.5L17.2852 51.5L17.2865 51.5L17.2878 51.5L17.2891 51.5L17.2905 51.5L17.2918 51.5L17.2931 51.5L17.2944 51.5L17.2957 51.5L17.297 51.5L17.2983 51.5L17.2997 51.5L17.301 51.5L17.3023 51.5L17.3036 51.5L17.3049 51.5L17.3063 51.5L17.3076 51.5L17.3089 51.5L17.3103 51.5L17.3116 51.5L17.3129 51.5L17.3143 51.5L17.3156 51.5L17.3169 51.5L17.3183 51.5L17.3196 51.5L17.3209 51.5L17.3223 51.5L17.3236 51.5L17.325 51.5L17.3263 51.5L17.3277 51.5L17.329 51.5L17.3304 51.5L17.3317 51.5L17.3331 51.5L17.3344 51.5L17.3358 51.5L17.3371 51.5L17.3385 51.5L17.3399 51.5L17.3412 51.5L17.3426 51.5L17.3439 51.5L17.3453 51.5L17.3467 51.5L17.348 51.5L17.3494 51.5L17.3508 51.5L17.3522 51.5L17.3535 51.5L17.3549 51.5L17.3563 51.5L17.3577 51.5L17.359 51.5L17.3604 51.5L17.3618 51.5L17.3632 51.5L17.3646 51.5L17.3659 51.5L17.3673 51.5L17.3687 51.5L17.3701 51.5C21.1927 51.5 24.5216 50.0143 27.3359 47.0794C30.2644 44.1493 31.7491 40.7646 31.7491 36.9431C31.7491 33.0401 30.5871 29.7176 28.2467 27.0077C26.0891 24.5094 23.4503 22.7988 20.3398 21.8832C25.3894 15.0254 30.0997 9.12425 34.4707 4.17807L34.8185 3.78458L34.4084 3.45653C34.0584 3.17653 33.5192 2.88847 32.8275 2.58772C32.1269 2.28313 31.237 1.9517 30.1617 1.59327C29.0876 1.23524 28.1846 0.96404 27.4558 0.78183C26.737 0.602131 26.1535 0.499998 25.7331 0.499998C25.3655 0.499998 25.0465 0.515202 24.7814 0.548342C24.5255 0.580329 24.2807 0.633355 24.086 0.730717ZM57.538 0.730714L57.4861 0.756666L57.4415 0.793818C50.2828 6.7594 44.1394 13.798 39.0116 21.9071L39.0096 21.9102C35.6591 27.2951 33.952 32.2506 33.952 36.7651C33.952 41.1661 35.4871 44.7478 38.57 47.4608L38.57 47.4608L38.5774 47.4671C41.7599 50.16 45.614 51.5 50.1103 51.5L50.111 51.5L50.1117 51.5L50.1124 51.5L50.1131 51.5L50.1138 51.5L50.1145 51.5L50.1152 51.5L50.1159 51.5L50.1166 51.5L50.1173 51.5L50.1181 51.5L50.1188 51.5L50.1195 51.5L50.1202 51.5L50.1209 51.5L50.1216 51.5L50.1223 51.5L50.1231 51.5L50.1238 51.5L50.1245 51.5L50.1252 51.5L50.126 51.5L50.1267 51.5L50.1274 51.5L50.1281 51.5L50.1289 51.5L50.1296 51.5L50.1303 51.5L50.1311 51.5L50.1318 51.5L50.1325 51.5L50.1333 51.5L50.134 51.5L50.1347 51.5L50.1355 51.5L50.1362 51.5L50.137 51.5L50.1377 51.5L50.1385 51.5L50.1392 51.5L50.14 51.5L50.1407 51.5L50.1415 51.5L50.1422 51.5L50.143 51.5L50.1437 51.5L50.1445 51.5L50.1453 51.5L50.146 51.5L50.1468 51.5L50.1475 51.5L50.1483 51.5L50.1491 51.5L50.1498 51.5L50.1506 51.5L50.1514 51.5L50.1522 51.5L50.1529 51.5L50.1537 51.5L50.1545 51.5L50.1553 51.5L50.156 51.5L50.1568 51.5L50.1576 51.5L50.1584 51.5L50.1592 51.5L50.1599 51.5L50.1607 51.5L50.1615 51.5L50.1623 51.5L50.1631 51.5L50.1639 51.5L50.1647 51.5L50.1655 51.5L50.1663 51.5L50.1671 51.5L50.1679 51.5L50.1687 51.5L50.1695 51.5L50.1703 51.5L50.1711 51.5L50.1719 51.5L50.1727 51.5L50.1735 51.5L50.1743 51.5L50.1751 51.5L50.1759 51.5L50.1768 51.5L50.1776 51.5L50.1784 51.5L50.1792 51.5L50.18 51.5L50.1808 51.5L50.1817 51.5L50.1825 51.5L50.1833 51.5L50.1841 51.5L50.185 51.5L50.1858 51.5L50.1866 51.5L50.1875 51.5L50.1883 51.5L50.1891 51.5L50.19 51.5L50.1908 51.5L50.1916 51.5L50.1925 51.5L50.1933 51.5L50.1942 51.5L50.195 51.5L50.1958 51.5L50.1967 51.5L50.1975 51.5L50.1984 51.5L50.1992 51.5L50.2001 51.5L50.2009 51.5L50.2018 51.5L50.2027 51.5L50.2035 51.5L50.2044 51.5L50.2052 51.5L50.2061 51.5L50.207 51.5L50.2078 51.5L50.2087 51.5L50.2095 51.5L50.2104 51.5L50.2113 51.5L50.2122 51.5L50.213 51.5L50.2139 51.5L50.2148 51.5L50.2157 51.5L50.2165 51.5L50.2174 51.5L50.2183 51.5L50.2192 51.5L50.2201 51.5L50.2209 51.5L50.2218 51.5L50.2227 51.5L50.2236 51.5L50.2245 51.5L50.2254 51.5L50.2263 51.5L50.2272 51.5L50.2281 51.5L50.229 51.5L50.2299 51.5L50.2308 51.5L50.2317 51.5L50.2326 51.5L50.2335 51.5L50.2344 51.5L50.2353 51.5L50.2362 51.5L50.2371 51.5L50.238 51.5L50.2389 51.5L50.2398 51.5L50.2407 51.5L50.2417 51.5L50.2426 51.5L50.2435 51.5L50.2444 51.5L50.2453 51.5L50.2463 51.5L50.2472 51.5L50.2481 51.5L50.249 51.5L50.25 51.5L50.2509 51.5L50.2518 51.5L50.2528 51.5L50.2537 51.5L50.2546 51.5L50.2556 51.5L50.2565 51.5L50.2574 51.5L50.2584 51.5L50.2593 51.5L50.2603 51.5L50.2612 51.5L50.2621 51.5L50.2631 51.5L50.264 51.5L50.265 51.5L50.2659 51.5L50.2669 51.5L50.2678 51.5L50.2688 51.5L50.2698 51.5L50.2707 51.5L50.2717 51.5L50.2726 51.5L50.2736 51.5L50.2746 51.5L50.2755 51.5L50.2765 51.5L50.2775 51.5L50.2784 51.5L50.2794 51.5L50.2804 51.5L50.2813 51.5L50.2823 51.5L50.2833 51.5L50.2843 51.5L50.2852 51.5L50.2862 51.5L50.2872 51.5L50.2882 51.5L50.2892 51.5L50.2902 51.5L50.2911 51.5L50.2921 51.5L50.2931 51.5L50.2941 51.5L50.2951 51.5L50.2961 51.5L50.2971 51.5L50.2981 51.5L50.2991 51.5L50.3001 51.5L50.3011 51.5L50.3021 51.5L50.3031 51.5L50.3041 51.5L50.3051 51.5L50.3061 51.5L50.3071 51.5L50.3081 51.5L50.3091 51.5L50.3101 51.5L50.3112 51.5L50.3122 51.5L50.3132 51.5L50.3142 51.5L50.3152 51.5L50.3162 51.5L50.3173 51.5L50.3183 51.5L50.3193 51.5L50.3203 51.5L50.3214 51.5L50.3224 51.5L50.3234 51.5L50.3244 51.5L50.3255 51.5L50.3265 51.5L50.3275 51.5L50.3286 51.5L50.3296 51.5L50.3307 51.5L50.3317 51.5L50.3327 51.5L50.3338 51.5L50.3348 51.5L50.3359 51.5L50.3369 51.5L50.338 51.5L50.339 51.5L50.3401 51.5L50.3411 51.5L50.3422 51.5L50.3432 51.5L50.3443 51.5L50.3454 51.5L50.3464 51.5L50.3475 51.5L50.3485 51.5L50.3496 51.5L50.3507 51.5L50.3517 51.5L50.3528 51.5L50.3539 51.5L50.3549 51.5L50.356 51.5L50.3571 51.5L50.3582 51.5L50.3592 51.5L50.3603 51.5L50.3614 51.5L50.3625 51.5L50.3636 51.5L50.3646 51.5L50.3657 51.5L50.3668 51.5L50.3679 51.5L50.369 51.5L50.3701 51.5L50.3712 51.5L50.3723 51.5L50.3733 51.5L50.3744 51.5L50.3755 51.5L50.3766 51.5L50.3777 51.5L50.3788 51.5L50.3799 51.5L50.381 51.5L50.3821 51.5L50.3832 51.5L50.3844 51.5L50.3855 51.5L50.3866 51.5L50.3877 51.5L50.3888 51.5L50.3899 51.5L50.391 51.5L50.3921 51.5L50.3933 51.5L50.3944 51.5L50.3955 51.5L50.3966 51.5L50.3977 51.5L50.3989 51.5L50.4 51.5L50.4011 51.5L50.4023 51.5L50.4034 51.5L50.4045 51.5L50.4056 51.5L50.4068 51.5L50.4079 51.5L50.4091 51.5L50.4102 51.5L50.4113 51.5L50.4125 51.5L50.4136 51.5L50.4148 51.5L50.4159 51.5L50.4171 51.5L50.4182 51.5L50.4193 51.5L50.4205 51.5L50.4216 51.5L50.4228 51.5L50.424 51.5L50.4251 51.5L50.4263 51.5L50.4274 51.5L50.4286 51.5L50.4297 51.5L50.4309 51.5L50.4321 51.5L50.4332 51.5L50.4344 51.5L50.4356 51.5L50.4367 51.5L50.4379 51.5L50.4391 51.5L50.4403 51.5L50.4414 51.5L50.4426 51.5L50.4438 51.5L50.445 51.5L50.4462 51.5L50.4473 51.5L50.4485 51.5L50.4497 51.5L50.4509 51.5L50.4521 51.5L50.4533 51.5L50.4545 51.5L50.4556 51.5L50.4568 51.5L50.458 51.5L50.4592 51.5L50.4604 51.5L50.4616 51.5L50.4628 51.5L50.464 51.5L50.4652 51.5L50.4664 51.5L50.4676 51.5L50.4688 51.5L50.47 51.5L50.4713 51.5L50.4725 51.5L50.4737 51.5L50.4749 51.5L50.4761 51.5L50.4773 51.5L50.4785 51.5L50.4798 51.5L50.481 51.5L50.4822 51.5L50.4834 51.5L50.4846 51.5L50.4859 51.5L50.4871 51.5L50.4883 51.5L50.4895 51.5L50.4908 51.5L50.492 51.5L50.4932 51.5L50.4945 51.5L50.4957 51.5L50.497 51.5L50.4982 51.5L50.4994 51.5L50.5007 51.5L50.5019 51.5L50.5032 51.5L50.5044 51.5L50.5057 51.5L50.5069 51.5L50.5081 51.5L50.5094 51.5L50.5107 51.5L50.5119 51.5L50.5132 51.5L50.5144 51.5L50.5157 51.5L50.5169 51.5L50.5182 51.5L50.5195 51.5L50.5207 51.5L50.522 51.5L50.5233 51.5L50.5245 51.5L50.5258 51.5L50.5271 51.5L50.5283 51.5L50.5296 51.5L50.5309 51.5L50.5322 51.5L50.5334 51.5L50.5347 51.5L50.536 51.5L50.5373 51.5L50.5385 51.5L50.5398 51.5L50.5411 51.5L50.5424 51.5L50.5437 51.5L50.545 51.5L50.5463 51.5L50.5476 51.5L50.5489 51.5L50.5501 51.5L50.5514 51.5L50.5527 51.5L50.554 51.5L50.5553 51.5L50.5566 51.5L50.5579 51.5L50.5592 51.5L50.5606 51.5L50.5619 51.5L50.5632 51.5L50.5645 51.5L50.5658 51.5L50.5671 51.5L50.5684 51.5L50.5697 51.5L50.571 51.5L50.5724 51.5L50.5737 51.5L50.575 51.5L50.5763 51.5L50.5776 51.5L50.579 51.5L50.5803 51.5L50.5816 51.5L50.583 51.5L50.5843 51.5L50.5856 51.5L50.5869 51.5L50.5883 51.5L50.5896 51.5L50.591 51.5L50.5923 51.5L50.5936 51.5L50.595 51.5L50.5963 51.5L50.5977 51.5L50.599 51.5L50.6003 51.5L50.6017 51.5L50.603 51.5L50.6044 51.5L50.6057 51.5L50.6071 51.5L50.6084 51.5L50.6098 51.5L50.6112 51.5L50.6125 51.5L50.6139 51.5L50.6152 51.5L50.6166 51.5L50.618 51.5L50.6193 51.5L50.6207 51.5L50.6221 51.5L50.6234 51.5L50.6248 51.5L50.6262 51.5L50.6275 51.5L50.6289 51.5L50.6303 51.5L50.6317 51.5L50.6331 51.5L50.6344 51.5L50.6358 51.5L50.6372 51.5L50.6386 51.5L50.64 51.5L50.6414 51.5L50.6427 51.5L50.6441 51.5C54.5751 51.5 57.9638 50.0814 60.7842 47.261L60.7842 47.2611L60.7916 47.2534C63.6053 44.3174 65.0231 40.8734 65.0231 36.943C65.0231 32.931 63.8664 29.6049 61.5214 27.0083C59.4664 24.5002 56.8753 22.7873 53.7608 21.8744C57.2593 16.6963 61.8614 10.7965 67.5709 4.17343L67.8189 3.8857L67.6082 3.56962C67.4839 3.38323 67.2793 3.2361 67.0824 3.11795C66.8701 2.99053 66.599 2.8581 66.277 2.72013C65.6341 2.44458 64.7449 2.12862 63.6173 1.7723C62.4888 1.35676 61.5446 1.0418 60.7878 0.829899C60.0413 0.620857 59.4363 0.499995 59.0071 0.499995C58.4096 0.499995 57.8892 0.555111 57.538 0.730714Z" stroke="black"/>
</svg>
