<svg width="100" height="100" viewBox="0 0 100 100" fill="none" xmlns="http://www.w3.org/2000/svg">
<path fill-rule="evenodd" clip-rule="evenodd" d="M50 3.6147C44.2852 3.6147 38.8157 4.64734 33.7651 6.53462C32.8302 6.884 31.789 6.40929 31.4396 5.47433C31.0903 4.53937 31.565 3.49821 32.4999 3.14883C37.949 1.11262 43.8467 0.000244141 50 0.000244141C77.6142 0.000244141 100 22.386 100 50.0002C100 77.6145 77.6142 100 50 100C22.3858 100 0 77.6145 0 50.0002C0 43.8469 1.11237 37.9493 3.14859 32.5002C3.49796 31.5652 4.53912 31.0905 5.47408 31.4399C6.40904 31.7893 6.88375 32.8304 6.53438 33.7654C4.6471 38.8159 3.61446 44.2854 3.61446 50.0002C3.61446 75.6183 24.382 96.3858 50 96.3858C75.618 96.3858 96.3855 75.6183 96.3855 50.0002C96.3855 24.3822 75.618 3.6147 50 3.6147Z" fill="#2B2B2B"/>
<path fill-rule="evenodd" clip-rule="evenodd" d="M49.3978 19.2768C47.2498 19.2768 45.1542 19.4927 43.1308 19.9035C42.1526 20.102 41.1987 19.47 41.0002 18.4919C40.8016 17.5137 41.4336 16.5598 42.4117 16.3612C44.6705 15.9027 47.007 15.6624 49.3978 15.6624C68.6945 15.6624 84.3375 31.3054 84.3375 50.6021C84.3375 69.8988 68.6945 85.5419 49.3978 85.5419C30.1011 85.5419 14.458 69.8988 14.458 50.6021C14.458 47.5315 14.8545 44.5508 15.6002 41.7096C15.8535 40.7442 16.8415 40.167 17.8069 40.4203C18.7724 40.6737 19.3496 41.6617 19.0962 42.6271C18.4285 45.1714 18.0725 47.8438 18.0725 50.6021C18.0725 67.9026 32.0973 81.9274 49.3978 81.9274C66.6983 81.9274 80.7231 67.9026 80.7231 50.6021C80.7231 33.3016 66.6983 19.2768 49.3978 19.2768Z" fill="#2B2B2B"/>
<path fill-rule="evenodd" clip-rule="evenodd" d="M48.1924 31.9286C48.1924 30.9305 49.0015 30.1213 49.9996 30.1213C60.9788 30.1213 69.8792 39.0217 69.8792 50.0009C69.8792 60.98 60.9788 69.8804 49.9996 69.8804C39.0205 69.8804 30.1201 60.98 30.1201 50.0009C30.1201 49.0028 30.9292 48.1936 31.9273 48.1936C32.9255 48.1936 33.7346 49.0028 33.7346 50.0009C33.7346 58.9838 41.0167 66.2659 49.9996 66.2659C58.9826 66.2659 66.2647 58.9838 66.2647 50.0009C66.2647 41.0179 58.9826 33.7358 49.9996 33.7358C49.0015 33.7358 48.1924 32.9267 48.1924 31.9286Z" fill="#2B2B2B"/>
<path fill-rule="evenodd" clip-rule="evenodd" d="M18.1061 2.44249C18.6942 2.33023 19.2996 2.51644 19.723 2.93975L32.9762 16.193C33.3456 16.5624 33.5371 17.0734 33.5013 17.5945L32.5824 31.0025L51.2782 49.6983C51.984 50.4041 51.984 51.5484 51.2782 52.2541C50.5724 52.9599 49.4281 52.9599 48.7224 52.2541L30.038 33.5697L16.4154 34.7049C15.8857 34.7491 15.3633 34.5577 14.9874 34.1818L1.73443 20.9288C1.3134 20.5078 1.12678 19.9064 1.23547 19.321C1.34417 18.7356 1.73425 18.2413 2.27835 17.9995L12.4769 13.4667L16.7862 3.50041C17.0238 2.95093 17.5181 2.55475 18.1061 2.44249ZM13.4555 16.9872L6.1509 20.2337L16.9506 31.0333L26.69 30.2217L13.4555 16.9872ZM29.1918 27.612L29.8391 18.1675L19.0481 7.37654L16.0018 14.4219L29.1918 27.612Z" fill="#2B2B2B"/>
</svg>
