<svg width="182" height="182" viewBox="0 0 182 182" fill="none" xmlns="http://www.w3.org/2000/svg">
<path d="M40.7949 55.4778L55.481 40.7917L133.263 118.573C137.168 122.479 137.168 128.81 133.263 132.716L132.719 133.26C128.814 137.165 122.482 137.165 118.577 133.26L40.7949 55.4778Z" fill="#FADB81"/>
<path d="M50.585 45.6865L55.4803 40.7912L135.438 120.749C138.141 123.452 138.141 127.836 135.438 130.539L50.585 45.6865Z" fill="#F7C95E"/>
<path d="M44.7111 90.7244L93.0119 42.4236L84.5267 33.9383C76.0414 43.729 67.5561 39.5951 64.7821 36.7123L27.7406 73.7538V78.3228L39.8158 90.398L44.7111 90.7244Z" fill="#333D49"/>
<path d="M27.7406 78.3228L39.8158 90.398L44.7111 90.7244L46.5061 88.9294L29.5355 71.9589L27.7406 73.7538V78.3228Z" fill="#3F4A58"/>
<path d="M42.2649 138.536C38.2095 134.48 38.2095 127.905 42.2649 123.85L119.775 46.3398L134.461 61.0259L56.951 138.536C52.8955 142.591 46.3204 142.591 42.2649 138.536Z" fill="#F57656"/>
<path d="M42.2649 138.536C38.2095 134.48 38.2095 127.905 42.2649 123.85L43.7335 122.381L58.4196 137.067L56.951 138.536C52.8955 142.591 46.3204 142.591 42.2649 138.536Z" fill="#3F4A58"/>
<path d="M56.9507 138.536L58.4193 137.068L53.524 132.172C50.5215 137.264 44.7667 138.536 42.2646 138.536C46.3201 142.592 52.8953 142.592 56.9507 138.536Z" fill="#333D49"/>
<rect x="43.7334" y="122.382" width="6.92308" height="20.7692" transform="rotate(-45 43.7334 122.382)" fill="#EFEFEF"/>
<rect x="53.5234" y="132.171" width="6.92308" height="6.92308" transform="rotate(-45 53.5234 132.171)" fill="#CBCBCB"/>
<rect x="129.564" y="56.1301" width="6.92308" height="100.615" transform="rotate(45 129.564 56.1301)" fill="#D25A3A"/>
<path d="M119.774 46.3397L134.46 61.0258L138.539 42.2603L119.774 46.3397Z" fill="#EFEFEF"/>
<path d="M132.374 43.6L138.54 42.2596L137.199 48.4254L132.374 43.6Z" fill="#444B5B"/>
<path d="M137.234 48.4605L134.46 61.0252L129.565 56.1299L135.603 46.8291L137.234 48.4605Z" fill="#CBCBCB"/>
</svg>
