<?xml version="1.0" encoding="utf-8"?>
<!-- Generator: Adobe Illustrator 28.1.0, SVG Export Plug-In . SVG Version: 6.00 Build 0)  -->
<svg version="1.1" id="Layer_1" xmlns="http://www.w3.org/2000/svg" xmlns:xlink="http://www.w3.org/1999/xlink" x="0px" y="0px"
	 viewBox="0 0 400 400" style="enable-background:new 0 0 400 400;" xml:space="preserve">
<g>
	<path d="M58,238.3c-1-5,1.2-15.1-1.1-30c-2.3-14.9-5-18.2-7.1-18.4c-2.1-0.2-7.3,0.1-14.8,9c-7.5,8.9-15.7,21.5-19.9,32.8
		c-4.3,11.3-8.3,22.5-4,25c4.2,2.5,10.4,0,10.4,0s-0.2-1.5-0.7-4.9c-0.5-3.4,1-10.7,1-10.7c10.3-0.5,25.6-4.3,25.6-4.3
		s-0.2,5.4,0.4,8.8c0.6,3.4,1.3,6.8,6.7,7.4c5.4,0.6,8-5.2,8-5.2C60.6,247.3,58.9,243.3,58,238.3z M46.7,229.1c0,0-17.1,3.3-21.9,4
		c0,0,6.3-15.2,10.9-22.1c4.6-6.9,6.4-8.9,7.9-8.9C45.1,202.1,46.9,212.9,46.7,229.1z"/>
	<path d="M101.3,199.8c-4.6-0.6-14.9,1.4-21.3,9.1c-6.4,7.8-10.3,16.3-10.2,24.7c0.1,5.9,5.1,15.3,15,16.1
		c10,0.9,21.4-8.6,21.5-11.9c0.1-3.3-3.5-6-3.5-6c-1.2,4-8.3,10.4-14.3,9.7c-6.1-0.7-8.6-10.6-7-18.3c1.6-7.8,10.1-16.7,14.7-16.6
		c4.9,0,6.2,7.5,6.2,7.5c3.6-1,6.7-3.8,6.9-7.5C109.5,203,105.9,200.4,101.3,199.8z"/>
	<path d="M324.6,170.4c-4.6-0.6-14.9,1.4-21.4,9.1c-6.4,7.7-10.3,16.3-10.2,24.6c0.1,5.9,5.1,15.2,15,16.1
		c10,0.8,21.4-8.6,21.5-11.9c0.1-3.3-3.5-5.9-3.5-5.9c-1.2,4-8.3,10.4-14.3,9.7c-4.9-0.6-7.5-7.1-7.5-13.7
		c20.5,0.1,25.3-4.8,28.3-12.2c1.9-4.8,0.7-8.7-0.3-10.9C330.9,172.2,327.4,170.8,324.6,170.4z M324.3,182.9c-0.2,4-1.1,7.1-7.4,8.8
		c-4.5,1.2-9.2,1-11.8,0.7c2.2-7.4,9-14.4,13.3-14.9C324.2,176.8,324.4,181.9,324.3,182.9z"/>
	<path d="M132.3,204.4c1.9,0,9.4-1,9.4-1c2.5-3,4.1-8.5,4.1-8.5c-3.7,1.3-11.8,2.2-11.8,2.2c1.1-6.2,4.1-12.4,4.1-12.4
		c-1.6-2.3-9.1-1.2-10.7,1.9c-1.6,3.2-3.1,11.3-3.1,11.3l-5.7,0.5c-2,1.5-4.5,7-4.5,7l8.7-0.2c0,0-6.5,25.1-5.2,30
		c1.3,4.9,3.8,9.5,11.7,8.5c7.9-1,14-7.1,14-9.9c0-2.8-3.2-5.3-3.2-5.3c-0.6,1.8-5.6,8-9.6,7.4c-4-0.6-3.8-7.2-2.3-14.5
		C129.8,214.2,132.3,204.4,132.3,204.4z"/>
	<path d="M153,196.5c0,0,2.5,1.5,1.9,6.8c-0.6,5.2-4,23.6-4.4,27.9c-0.4,4.4,0.1,8,3,8.7c2.9,0.7,7.5-2.1,9.3-4.1c0,0-2-2.2-1.8-6.7
		c0.2-4.6,3-18.1,4-23.6c1-5.5,1.9-8.1,0.6-11.5C164.3,190.7,155.5,191.5,153,196.5z"/>
	<path d="M165.7,170.9c-2.1,0-6.2,1.5-7.9,6c-1.3,3.5,0.7,6.3,3.1,6.6c3.6,0.4,7.5-4.1,8-6.5C169.5,173.9,168.2,170.9,165.7,170.9z"
		/>
	<path d="M223.3,187.8c0,0,2.5,1.5,1.9,6.8c-0.6,5.2-4,23.6-4.4,27.9s0.1,8,3,8.7c2.9,0.7,7.5-2.1,9.3-4.1c0,0-2-2.2-1.8-6.7
		c0.2-4.6,3-18.1,4-23.6c1-5.5,1.9-8.1,0.6-11.5C234.6,182.1,225.8,182.8,223.3,187.8z"/>
	<path d="M236,162.2c-2.1,0-6.2,1.5-7.9,6c-1.3,3.5,0.7,6.3,3.1,6.6c3.6,0.4,7.5-4.1,8-6.5C239.7,165.3,238.5,162.2,236,162.2z"/>
	<path d="M193.6,180.2c1.9-0.4,5.6-1.1,10-1.3c6.3-0.2,13.3-0.9,16.9-4.8c2.7-2.9,0.3-7.2-0.8-8.5c-1.1,0.8-8.8,5.1-15.1,4.9
		c-6.3-0.2-11.9-0.7-17.4,1.2c-1.9,0.7-4.6,2.2-5.7,4.3c0,0,2.2,1.3,1.6,6.4c-0.6,5.1-8.1,40.5-8.4,44.8c-0.4,4.3,0,8.1,2.9,8.8
		c2.9,0.7,8.1-0.9,9.6-3.5c-1.4-0.4-2.6-1.3-2.2-5.9c0.2-2.3,1.7-10.9,3.4-19.6c2.5,0.1,5.6,0.1,8.5-0.3c6.1-0.7,12-2.4,13.6-5.6
		c1.7-3.3,0.7-6-0.5-6.6c-0.5,0.9-1.4,1.9-6.5,3.4c-3.6,1-9.7,1-13.5,1.1c1.1-5.5,2-10,2.3-11.9
		C192.7,184.6,193.3,182.3,193.6,180.2z"/>
	<path d="M373.3,164.2c-3.3-0.5-8.4,0-13.1,6.2c-2.3,3.1-4.6,6.9-6.2,9.9c0.9-5.4,1.6-8.1,0.3-11.3c-1.3-3.3-8.8-2.2-11.3,2.8
		c0,0,2.5,1.5,1.9,6.8c-0.6,5.2-4,22.8-4.8,27.9c-0.6,4.3,0.2,7.7,3.2,8.4c2.9,0.7,7.8-1.7,9.6-3.7c0,0-2-2.2-1.8-6.7
		c0.1-2.7,0.8-8.5,1.5-13.8c3.1-7.5,8.1-13.8,10.2-15.1c2.9-1.8,4.7-1.3,6.1-0.2c1.5,1.1,1.5,4.3,1.5,4.3c5.8-0.7,7.2-5.6,7.3-8.2
		C377.7,168.7,376.6,164.7,373.3,164.2z"/>
	<path d="M278.6,176.3c-5.5-0.4-14.8,5.4-20.3,14c1.1-5.9,2.1-11,2.5-12.9c1-5.5,2.6-10.1,0.9-13.6c-1.6-3.2-9-2.7-11.5,2.3
		c0,0,2.2,1.3,1.6,6.5c-0.6,5.2-8.1,41.2-8.4,45.5c-0.4,4.4,0,8.3,2.9,9c2.9,0.7,8.1-0.9,9.6-3.5c-1.4-0.5-2.6-1.4-2.2-6
		c0-0.5,0.1-1.2,0.3-2.1c1.1,2.9,3.7,8.3,8.7,10.3c7,2.8,17.1-9,20.6-14.3c3.5-5.3,4.7-16,5.3-22
		C288.9,183.5,284.8,176.8,278.6,176.3z M274.9,207.1c-2.6,7-7.9,12.6-12.4,11.7c-3.9-0.8-6.2-5.3-7.5-10.6c0.5-2.6,1-5.6,1.6-8.6
		c2.1-3.2,6-9,9.2-12.3c4.6-4.7,10-4.9,11.2-0.1C278.2,191.8,277.5,200.1,274.9,207.1z"/>
	<path d="M383.6,151.6c-0.2-0.1-0.4-0.3-0.7-0.4c0.8-0.1,1.5-0.4,1.9-0.8c0.4-0.4,0.6-1,0.6-1.6c0-0.5-0.1-0.9-0.4-1.3
		c-0.2-0.4-0.6-0.7-1-0.8c-0.4-0.2-1-0.2-1.8-0.2h-3.9v8.8h1.2v-3.9h1.4c0.3,0,0.5,0,0.6,0c0.2,0,0.4,0.1,0.5,0.2
		c0.2,0.1,0.4,0.3,0.6,0.6c0.2,0.3,0.5,0.7,0.8,1.2l1.2,1.8h1.5l-1.5-2.4C384.2,152.3,383.9,151.9,383.6,151.6z M382,150.2h-2.5
		v-2.9h2.8c0.7,0,1.1,0.1,1.4,0.4c0.3,0.3,0.5,0.6,0.5,1c0,0.3-0.1,0.5-0.2,0.8c-0.2,0.2-0.4,0.4-0.7,0.5
		C382.9,150.2,382.5,150.2,382,150.2z"/>
	<path d="M382.2,142.2c-4.7,0-8.6,3.8-8.6,8.6c0,4.7,3.8,8.6,8.6,8.6c4.7,0,8.6-3.8,8.6-8.6C390.7,146,386.9,142.2,382.2,142.2z
		 M382.2,157.8c-3.9,0-7.1-3.2-7.1-7.1c0-3.9,3.2-7.1,7.1-7.1c3.9,0,7.1,3.2,7.1,7.1C389.3,154.7,386.1,157.8,382.2,157.8z"/>
</g>
</svg>
