<?xml version="1.0" encoding="utf-8"?>
<!-- Generator: Adobe Illustrator 25.0.1, SVG Export Plug-In . SVG Version: 6.00 Build 0)  -->
<svg version="1.1" id="Layer_1" xmlns="http://www.w3.org/2000/svg" xmlns:xlink="http://www.w3.org/1999/xlink" x="0px" y="0px"
	 viewBox="0 0 400 400" style="enable-background:new 0 0 400 400;" xml:space="preserve">
<g id="_x23_ae285dff">
	<path id="path5" d="M65.1,154.4c5.4,9.3,10.9,18.6,16.2,27.9c-8.7,15.3-17.2,30.6-26.2,45.7c-3.4,5.8-6.8,11.7-10.2,17.5
		c-11,0.1-22,0.1-33,0c0.3-0.8,0.7-1.5,1.1-2.2C30.4,213.7,47.8,184.1,65.1,154.4z"/>
	<path id="path7" d="M297.1,182.1c6.1,11.4,12.2,22.7,18.3,34.1c-2.1,0-4.3-0.1-6.4,0c-1.4-2.5-2.7-5.1-4.1-7.6
		c-5.4-0.2-10.8-0.1-16.2-0.1c-1.3,2.6-2.7,5.1-4.1,7.7c-2.1,0-4.2,0-6.3,0C284.4,204.7,290.6,193.3,297.1,182.1 M291.3,203.6
		c3.7,0.1,7.4,0,11.1,0.1c-1.8-3.4-3.5-7-5.5-10.3C295,196.7,293.2,200.2,291.3,203.6z"/>
	<path id="path9" d="M318.9,182c9.2,8,18.4,16,27.5,24.1c0.3-7.3,0-14.7,0.2-22c2,0,3.9,0.1,5.9,0.1c-0.1,11.3,0,22.6,0,33.9
		c-6-5-11.8-10.3-17.8-15.4c-3.3-2.8-6.6-5.7-9.8-8.7c-0.1,7.4,0,14.8-0.1,22.3c-2,0-3.9,0-5.9,0C318.9,204.7,318.8,193.4,318.9,182
		z"/>
	<path id="path11" d="M124.6,216.1c6.4-11.3,12.5-22.8,19-34c6.1,11.4,12.1,22.7,18.3,34c-2.2,0.1-4.4,0-6.5,0
		c-1.3-2.5-2.7-5.1-3.9-7.6c-5.4-0.1-10.9,0-16.3,0c-1.4,2.6-2.7,5.2-4.2,7.7C128.8,216.1,126.7,216.2,124.6,216.1 M137.8,203.6
		c3.7,0,7.4,0,11.1,0c-1.9-3.4-3.5-7-5.5-10.3C141.5,196.8,139.7,200.2,137.8,203.6z"/>
	<path id="path13" d="M215,185c3.1-1.5,6.7-1.7,10.1-1.1c2.9,0.6,5.2,2.7,7,5c-1.6,0.8-3.1,1.6-4.7,2.5c-2.1-3.3-7.1-4.3-10.1-1.8
		c-1.6,1.1-1.5,4,0.3,4.9c4.1,2.2,9,2.7,12.6,5.8c3.7,3.1,3.5,9.3,0.1,12.6c-3.7,3.7-9.4,4.5-14.3,3.1c-4.1-1-7.1-4.8-7.7-8.9
		c2-0.4,4-0.8,5.9-1.1c0.2,1.9,1,4,2.8,5c2.9,1.5,7,1.2,9-1.6c1.4-1.9,1-4.8-0.9-6.2c-4-2.7-9.3-2.8-12.9-6.2
		c-1.9-1.6-2.7-4.3-2-6.7C210.9,187.9,212.9,186.1,215,185z"/>
	<path id="path15" d="M163.8,184.3c2.2-0.3,4.5-0.2,6.7-0.2c2.4,3.6,4.8,7.1,7.2,10.7c2.5-3.5,5-7.1,7.5-10.7c2.3-0.1,4.6-0.1,6.9,0
		c-3.7,5.1-7.3,10.1-11,15.2c3.7,5.6,7.8,11.1,11.4,16.8c-2.2,0-4.4,0-6.6,0c-2.8-4-5.6-8-8.4-12.1c-2.9,4-5.8,8-8.6,12.1
		c-2.2,0-4.4,0-6.7,0c3.9-5.7,7.9-11.2,11.9-16.7C170.8,194.4,167.3,189.3,163.8,184.3z"/>
	<path id="path17" d="M197.5,184.2c2-0.1,4-0.1,5.9,0c0,10.7,0,21.3,0,32c-2,0-4,0-6,0C197.5,205.5,197.5,194.8,197.5,184.2z"/>
	<path id="path19" d="M255.3,184.1c5.1,0.2,10.5-0.7,15.2,1.8c4.6,2.4,5.6,9.7,1.4,12.9c2.6,1,5.2,3,5.9,5.9c1.1,3.6-0.9,7.5-4,9.3
		c-5.7,3.1-12.3,1.7-18.5,2.1C255.1,205.5,255.3,194.8,255.3,184.1 M261.1,188.7c0,3,0,6.1,0,9.1c2.2-0.1,4.6,0,6.5-1.3
		c1.9-1.7,1.8-5.2-0.3-6.8C265.5,188.6,263.2,188.7,261.1,188.7 M261.2,202.1c0,3.1,0,6.2,0,9.3c3-0.2,6.1,0.4,8.9-1.1
		c2.4-1.2,2.9-5.1,0.6-6.7C268,201.5,264.4,202.1,261.2,202.1z"/>
	<path id="path21" d="M359.3,184.1c2,0,3.9,0,5.9,0c0,4.2,0,8.4,0.1,12.6c4.9-4.3,9.8-8.4,14.7-12.7c2.7,0,5.4,0,8.1,0
		c-5.8,4.8-11.6,9.6-17.3,14.5c5.6,5.9,11.5,11.7,17.2,17.5c-2.7,0-5.4,0.2-8-0.1c-4.6-4.7-9.1-9.4-13.7-14.1
		c-0.3,0.4-0.7,0.9-1,1.3c-0.1,4.3,0,8.6-0.1,12.9c-2,0-4,0-5.9,0C359.3,205.5,359.3,194.8,359.3,184.1z"/>
	<path id="path23" d="M65.1,211.1c11.1,0,22.1-0.1,33.2,0.1c6.6,11.5,13.4,22.8,19.9,34.3c-11.1,0.1-22.1,0-33.2,0
		C78.4,234.1,71.5,222.7,65.1,211.1z"/>
</g>
</svg>
