<?xml version="1.0" encoding="utf-8"?>
<!-- Generator: Adobe Illustrator 28.1.0, SVG Export Plug-In . SVG Version: 6.00 Build 0)  -->
<svg version="1.1" id="Layer_1" xmlns="http://www.w3.org/2000/svg" xmlns:xlink="http://www.w3.org/1999/xlink" x="0px" y="0px"
	 viewBox="0 0 400 400" style="enable-background:new 0 0 400 400;" xml:space="preserve">
<g>
	<polygon points="334.7,158.7 333.3,156.1 335.5,154.9 335,154.1 332.8,155.2 331.8,153.4 334.2,152.1 333.7,151.2 330.3,153 
		333.7,159.3 	"/>
	<polygon points="342.3,155.5 341.9,154.6 339.3,155.5 337.3,149.7 336.1,150.1 338.5,156.9 	"/>
	<path d="M344.6,153.2l2.8-0.5l0.9,1.6l1.3-0.2l-3.8-6.6l-1.4,0.2l-1.5,7.5l1.3-0.2L344.6,153.2z M345.3,149.3c0-0.1,0-0.2,0-0.2
		c0-0.1,0-0.2,0-0.3l0,0c0,0.1,0.1,0.2,0.1,0.3c0,0.1,0.1,0.1,0.1,0.2l1.4,2.6l-2.2,0.4L345.3,149.3z"/>
	<path d="M353.2,154.2l2.7-7.1l-1.3,0l-1.8,5.3c0,0.1-0.1,0.2-0.1,0.4c0,0.1-0.1,0.2-0.1,0.3l0,0c0-0.1,0-0.2-0.1-0.3
		c0-0.1,0-0.2-0.1-0.3l-1.7-5.3l-1.3,0l2.4,7.2L353.2,154.2z"/>
	<path d="M359.6,155.2c1,0.2,1.9,0.1,2.7-0.5c0.8-0.5,1.3-1.3,1.5-2.5c0.2-1.1,0.1-2-0.3-2.7c-0.5-0.8-1.2-1.3-2.1-1.5
		c-1-0.2-1.9-0.1-2.7,0.5c-0.8,0.5-1.3,1.4-1.5,2.5c-0.2,1-0.1,2,0.4,2.7C357.8,154.4,358.6,154.9,359.6,155.2z M358.3,151.1
		c0.2-0.8,0.5-1.3,1-1.7c0.5-0.4,1.1-0.5,1.7-0.4c0.6,0.1,1.1,0.5,1.4,1c0.3,0.5,0.3,1.2,0.1,2c-0.2,0.8-0.5,1.4-1,1.7
		c-0.5,0.4-1,0.5-1.7,0.3c-0.6-0.1-1.1-0.5-1.4-1C358.2,152.6,358.1,151.9,358.3,151.1z"/>
	<path d="M366.7,157.6c0.9,0.4,1.6,0.5,2.3,0.2c0.6-0.3,1.2-0.9,1.6-1.8l1.7-3.8l-1.1-0.5l-1.8,3.9c-0.3,0.6-0.6,1-0.9,1.1
		c-0.4,0.2-0.8,0.2-1.3-0.1c-0.5-0.2-0.8-0.5-0.9-0.9c-0.1-0.4,0-0.9,0.2-1.5l1.8-3.8l-1.1-0.5l-1.8,3.8c-0.4,0.9-0.5,1.7-0.3,2.3
		C365.4,156.7,365.9,157.2,366.7,157.6z"/>
	<path d="M372,160.4l1.6-2.3l0.5,0.4c0.2,0.1,0.3,0.3,0.3,0.5c0.1,0.2,0.1,0.5,0,0.9l-0.2,2.2l1.1,0.8l0.2-2.6c0-0.3,0-0.5,0-0.7
		c0-0.2-0.1-0.4-0.2-0.6l0,0c0.5,0.1,0.9,0.2,1.3,0c0.4-0.1,0.8-0.4,1.1-0.8c0.4-0.5,0.5-1.1,0.4-1.6c-0.1-0.5-0.5-1-1.1-1.4
		l-1.9-1.4l-4.2,5.8L372,160.4z M375.6,155.4l0.8,0.6c0.3,0.2,0.5,0.5,0.6,0.8c0.1,0.3,0,0.6-0.2,0.9c-0.2,0.3-0.5,0.5-0.8,0.5
		c-0.3,0.1-0.7,0-1-0.3l-0.7-0.5L375.6,155.4z"/>
	<path d="M381.3,164.1c0-0.5-0.2-1-0.5-1.7c-0.2-0.4-0.4-0.8-0.4-1c0-0.2,0.1-0.5,0.2-0.6c0.2-0.2,0.5-0.3,0.7-0.3
		c0.3,0,0.5,0.2,0.8,0.5c0.2,0.2,0.3,0.4,0.5,0.6c0.1,0.2,0.2,0.5,0.3,0.8l1-0.3c-0.1-0.3-0.2-0.6-0.4-0.9c-0.2-0.3-0.4-0.5-0.6-0.8
		c-0.5-0.5-1.1-0.8-1.7-0.9c-0.6,0-1.1,0.1-1.5,0.5c-0.4,0.4-0.6,0.8-0.6,1.3c0,0.5,0.2,1,0.5,1.7c0.2,0.4,0.3,0.8,0.4,1
		c0,0.3-0.1,0.5-0.3,0.7c-0.2,0.2-0.5,0.3-0.8,0.3c-0.3,0-0.6-0.2-0.9-0.5c-0.2-0.2-0.4-0.5-0.6-0.8c-0.1-0.3-0.2-0.6-0.3-1l-1,0.3
		c0.1,0.4,0.2,0.8,0.4,1.1c0.2,0.4,0.4,0.7,0.7,1c0.6,0.6,1.2,0.9,1.8,1c0.6,0,1.1-0.2,1.6-0.6C381.1,165,381.3,164.6,381.3,164.1z"
		/>
	<path d="M383.1,170.6c-0.3,0.9-0.2,1.7,0.3,2.6c0.5,0.9,1.2,1.5,2.1,1.7c0.9,0.2,1.8,0.1,2.9-0.4c1-0.5,1.6-1.2,1.9-2
		c0.3-0.9,0.2-1.7-0.2-2.6c-0.5-0.9-1.2-1.5-2.1-1.8c-0.9-0.2-1.9-0.1-2.9,0.4C384,169,383.4,169.7,383.1,170.6z M384.2,171
		c0.2-0.6,0.7-1,1.4-1.4c0.7-0.4,1.4-0.5,2-0.4c0.6,0.1,1.1,0.5,1.4,1.1c0.3,0.6,0.3,1.1,0.1,1.7c-0.2,0.5-0.7,1-1.5,1.4
		c-0.7,0.4-1.4,0.5-2,0.4c-0.6-0.1-1-0.5-1.3-1.1C384,172.1,383.9,171.6,384.2,171z"/>
	<polygon points="385.8,178.8 388.7,177.9 389.4,180.3 390.4,180 389.6,177.6 391.6,177 392.4,179.5 393.4,179.2 392.3,175.5 
		385.5,177.7 	"/>
	
		<rect x="387.4" y="185.8" transform="matrix(0.9962 -8.683126e-02 8.683126e-02 0.9962 -14.7096 34.6531)" width="7.1" height="1.2"/>
	<path d="M389.2,194.3c0.1,0,0.2-0.1,0.3-0.2l5.2-2.8l0.1-1.4l-7.1-0.5l-0.1,1.2l4.5,0.3c0.3,0,0.5,0,0.6,0c0.2,0,0.3,0,0.4,0l0,0
		c-0.1,0-0.2,0.1-0.2,0.1c-0.1,0-0.2,0.1-0.3,0.2l-5.3,2.9l-0.1,1.3l7.1,0.5l0.1-1.2l-4.5-0.3c-0.2,0-0.4,0-0.6,0
		c-0.2,0-0.3,0-0.4,0l0,0C389,194.4,389.1,194.3,389.2,194.3z"/>
	<path d="M386.2,199.5c-0.3,1.1-0.3,2.1,0.2,2.9c0.4,0.9,1.2,1.4,2.2,1.8c1.1,0.3,2,0.3,2.8-0.2c0.7-0.4,1.3-1.3,1.6-2.5l0.6-2.1
		l-6.8-2.1L386.2,199.5z M387.2,199.7l0.3-0.9l4.9,1.5l-0.3,0.9c-0.2,0.8-0.6,1.4-1.2,1.7c-0.5,0.3-1.2,0.3-1.9,0.1
		c-0.8-0.2-1.3-0.6-1.6-1.2C387,201.2,387,200.5,387.2,199.7z"/>
	<rect x="386.7" y="203.1" transform="matrix(0.432 -0.9019 0.9019 0.432 33.6152 466.6669)" width="1.2" height="7.1"/>
	<path d="M382.6,208l1.1,1.4l-1.6,2.4l-1.7-0.5l-0.7,1.1l7.4,1.8l0.8-1.1l-4.4-6.2L382.6,208z M386.1,212.6c0,0.1,0.1,0.1,0.2,0.2
		c0.1,0.1,0.1,0.1,0.2,0.2l0,0c-0.1,0-0.2-0.1-0.3-0.1c-0.1,0-0.1-0.1-0.2-0.1l-2.9-0.8l1.2-1.8L386.1,212.6z"/>
	<path d="M288.3,203.8c-3.3,3.4-14.3,5.5-20.2,7.6c-5.8,2.1-7.9,7.2-7.6,11.9c0.3,5,6.9,10.5,15.5,7.4c8.6-3.1,13.7-16.7,13.7-16.7
		v11.4c0,2.8,1.9,5.9,6,5.9c5,0,4.5-4.9,4.5-4.9s-1.1,2.9-3.3,2.9c-1.2,0-1.9-0.7-2.3-1.4c-0.4-0.6-0.5-1.4-0.5-2.1v-27.1
		c0.4-4.6-0.7-8.6-5.2-10.5c-8.7-3.6-13.7-1.9-18.2,0.9c-5.1,3.1-7.1,8.1-6.7,10.9c0.4,2.9,3.9,5.7,5.8,3.6c1.9-2.1,0.7-4,0.3-4.6
		c-0.5-0.5-1.5-5.5,2.8-8.8c4.2-3.3,13.3-1.9,15.2,0.4c0.9,1.1,1.7,3.3,2,5.8c0.2,1.7,0.1,3.6-0.4,5.1
		C289.4,202.3,289,203.2,288.3,203.8z M282.8,222.8c-6.4,6.8-11.2,7.1-14.8,4.1c-3.6-3-1.7-10.8,1.9-13.2c3.6-2.4,12.1-2.4,19.8-9.1
		C289.7,204.7,289.3,216.1,282.8,222.8z"/>
	<path d="M84,214v11.4c0,2.8,1.9,5.9,6,5.9c5,0,4.5-4.9,4.5-4.9s-1.1,2.9-3.3,2.9c-1.2,0-1.9-0.7-2.3-1.4c-0.4-0.6-0.5-1.4-0.5-2.1
		v-27.1c0.4-4.6-0.7-8.6-5.2-10.5c-8.7-3.6-13.7-1.9-18.2,0.9c-5.1,3.1-7.1,8.1-6.7,10.9c0.4,2.9,3.9,5.7,5.8,3.6
		c1.9-2.1,0.7-4,0.3-4.6c-0.5-0.5-1.5-5.5,2.8-8.8c4.2-3.3,13.3-1.9,15.2,0.4c0.9,1.1,1.7,3.3,2,5.8c0.2,1.7,0.1,3.6-0.4,5.1
		c-0.3,0.9-0.8,1.7-1.4,2.4c-3.3,3.4-14.3,5.5-20.2,7.6c-5.8,2.1-7.9,7.2-7.6,11.9c0.3,5,6.9,10.5,15.5,7.4
		C78.9,227.6,84,214,84,214z M62.2,226.9c-3.6-3-1.7-10.8,1.9-13.2c3.6-2.4,12.1-2.4,19.8-9.1c0,0-0.5,11.4-6.9,18.2
		C70.6,229.6,65.9,229.9,62.2,226.9z"/>
	<path d="M337.4,230.7C346,227.6,351,214,351,214v11.4c0,2.8,1.9,5.9,6,5.9c5,0,4.5-4.9,4.5-4.9s-1.1,2.9-3.3,2.9
		c-1.2,0-1.9-0.7-2.3-1.4c-0.4-0.6-0.5-1.4-0.5-2.1v-27.1c0.4-4.6-0.7-8.6-5.2-10.5c-8.7-3.6-13.7-1.9-18.2,0.9
		c-5.1,3.1-7.1,8.1-6.7,10.9c0.4,2.9,3.9,5.7,5.8,3.6c1.9-2.1,0.7-4,0.3-4.6c-0.5-0.5-1.5-5.5,2.8-8.8c4.2-3.3,13.3-1.9,15.2,0.4
		c0.9,1.1,1.7,3.3,2,5.8c0.2,1.7,0.1,3.6-0.4,5.1c-0.3,0.9-0.8,1.7-1.4,2.4c-3.3,3.4-14.3,5.5-20.2,7.6c-5.8,2.1-7.9,7.2-7.6,11.9
		C322.1,228.4,328.8,233.8,337.4,230.7z M331.2,213.8c3.6-2.4,12.1-2.4,19.8-9.1c0,0-0.5,11.4-6.9,18.2c-6.4,6.8-11.2,7.1-14.8,4.1
		C325.7,224,327.7,216.1,331.2,213.8z"/>
	<path d="M185.2,225.5c0,2.8,1.9,5.9,6.1,5.9c5,0,4.6-4.9,4.6-4.9s-1.1,2.9-3.3,2.9c-1.2,0-1.9-0.7-2.3-1.4
		c-0.4-0.6-0.5-1.4-0.5-2.1v-35.9h1.7v-1.6h-11.4v1.6h5.1V225.5z"/>
	<rect x="69" y="250.7" width="308.5" height="2.2"/>
	<path d="M306.1,224.4c0,3.4,2.2,7,7.2,7c6,0,5.4-5.9,5.4-5.9s-1.3,3.4-3.9,3.4c-1.4,0-2.2-0.9-2.7-1.7c-0.4-0.8-0.6-1.6-0.6-2.5
		v-59h1.5v-1.6h-11.7v1.6h4.9V224.4z"/>
	<path d="M111.4,228.5h-4.8v-27.4c3-6.1,9-11.8,16.2-11.8c7.8,0,7.7,6.5,7.7,9.3c0,7,0,26.9,0,26.9c0,2.8,1.9,5.9,6.1,5.9
		c5,0,4.6-4.9,4.6-4.9s-1.1,2.9-3.3,2.9c-1.2,0-1.9-0.7-2.3-1.4c-0.4-0.6-0.5-1.4-0.5-2.1c0,0,0-21.4,0-28.6c0-2.1-0.7-5.1-2.8-6.7
		c-1.5-1.2-6.9-4.6-14.2-2.2c-5.7,1.9-9.9,6.9-11.4,9v-7.5h2v-1.6H96.8v1.6h5.1v38.7h-5.1v1.6h14.6V228.5z"/>
	<path d="M31.4,187c-5.8,0-12.4,3.3-16,9.1v-30.4h1.5v-1.6H5.2v1.6h4.9V177v40.6v12.6h3.2v-8.9c2.2,3.7,7,8.8,17.2,8.8
		c15.9,0,20.7-10.3,20.7-18.3c0-7.9-0.8-15.4-5-19.4C42,188.5,38.2,187,31.4,187z M45.5,219.1c-2.1,6.3-7.9,9.7-14.1,9.7
		c-6.2,0-16.6-5.7-16.6-15c0-1.9,0.1-8.3,0.1-8.3c0-5.1,2.6-9.5,6.4-13c1.2-1.1,2.6-2.1,4.1-2.7c6.6-2.5,14.2-1.2,18.2,4.9
		C47.6,200.7,47.6,212.8,45.5,219.1z"/>
	<path d="M216.8,231c0.3,0.8,1.4,0.7,1.7,0l10.5-28.9l11.6,28.9c0.3,0.8,1.1,0.7,1.4,0l13.6-41.2h6.4v-1.6h-13.4v1.6h5.1l-11.2,34.5
		c-0.1,0.3-0.6,0.3-0.7,0l-12.3-34.5h5.7v-1.6H219v1.6h5.1l3.8,9.4l-9.1,25.1c-0.1,0.3-0.6,0.3-0.7,0l-12.3-34.5h5.1v-1.6h-16.2v1.6
		h5.7L216.8,231z"/>
	<path d="M149.8,228.1c6.6,3.8,12.1,3.6,18.3,2.2c6.2-1.5,9-6.4,9-12.1c0-4.2-3.5-9.2-10.9-12c-7.4-2.8-15.3-3.8-16.7-9.5
		c-1.4-5.8,6.6-8.5,11.9-8.5s10.4,4.7,10.1,6.8c-0.3,2.1-1.8,2.7-1.1,4.8c0.7,2.1,5.1,1.5,5.1-2.6c0-3.8-2.4-6.4-5.1-8.3
		c-2.7-1.9-5.6-2.5-9.1-2.5c-6.4,0-14.9,3.2-14.9,11.2s10.2,11.4,18.2,14.4c8,3.1,8.7,6.5,8.7,10.1s-3.8,7-12.3,7
		c-8.4,0-13.4-6-13.3-8.2c0.1-2.1,1.9-3.1,1.1-5.7c-0.9-2.6-4.2-1.3-4.9,1.1C143.3,218.8,143.1,224.3,149.8,228.1z"/>
	<path d="M188,174.1c2,0,3.6-1.6,3.6-3.6c0-2-1.6-3.6-3.6-3.6s-3.6,1.6-3.6,3.6C184.4,172.4,186,174.1,188,174.1z"/>
</g>
</svg>
