<svg width="400" height="400" viewBox="0 0 400 400" fill="none" xmlns="http://www.w3.org/2000/svg">
<path d="M152.678 155.205C152.678 151.524 149.107 148.229 144.219 148.229H135.375V175.089H142.241V154.436H143.999C145.537 154.436 146.69 155.205 146.69 156.523C146.69 157.896 145.537 158.665 143.944 158.665H143.175V163.554H145.812C147.844 163.554 148.943 164.488 148.943 166.081C148.943 167.839 147.35 168.662 145.757 168.662H143.175V175.144H146.855C152.238 175.144 155.809 171.189 155.809 166.96C155.809 162.895 152.568 160.038 149.712 160.038C150.81 159.984 152.678 158.006 152.678 155.205Z" fill="black"/>
<path d="M179.154 156.962C179.154 152.129 174.979 148.229 169.212 148.229H158.995L159.05 175.089H166.191V166.575H166.136V154.655H169.047C170.53 154.655 171.958 155.699 171.958 157.347C171.958 158.995 170.585 160.038 169.047 160.038H167.07V164.872L173.386 175.089H181.736L174.54 164.323C177.122 163.115 179.154 160.313 179.154 156.962Z" fill="black"/>
<path d="M191.623 171.958H200.741L198.489 166.74H193.875L196.677 160.368L199.423 166.74H199.368L201.62 171.958H201.675L203.049 175.089H210.849L198.325 147.899H194.974L182.45 175.089H190.25L191.623 171.958Z" fill="black"/>
<path d="M213.705 175.144H220.846V162.895L213.705 156.083V175.144Z" fill="black"/>
<path d="M236.886 107.086C234.524 106.152 232.162 105.328 229.745 104.559V161.357L215.957 148.009H213.705V155.26L220.846 162.071V162.016L222.549 163.664L234.688 175.419H236.94V113.678C247.762 118.347 257.759 125.048 266.328 133.617C284.07 151.36 293.793 174.87 293.793 199.918C293.793 224.966 284.015 248.531 266.328 266.218C248.586 283.96 225.076 293.683 200.027 293.683C196.292 293.683 192.612 293.463 188.932 293.024V299.231C192.557 299.616 196.237 299.835 200.027 299.835C255.232 299.835 300 255.067 300 199.863C299.945 157.841 273.798 121.752 236.886 107.086Z" fill="black"/>
<path d="M250.508 148.229H241.719V175.089H248.695V154.93H250.343C255.177 154.93 258.088 157.512 258.088 161.686C258.088 165.861 255.177 168.388 250.398 168.388H249.629V175.089H250.508C259.626 175.089 265.229 170.036 265.229 161.686C265.229 153.337 259.626 148.229 250.508 148.229Z" fill="black"/>
<path d="M120.324 210.299C118.072 210.299 115.985 209.311 114.886 207.663L110.547 211.892C111.92 214.859 115.93 216.836 120.324 216.836C125.707 216.836 130.486 213.65 130.486 208.542C130.486 204.587 127.685 202.005 123.51 200.247C120.599 199.039 118.731 198.654 118.731 197.391C118.731 196.457 119.775 195.743 121.258 195.743C122.521 195.743 124.609 196.347 125.433 197.775L129.552 193.82C128.509 191.184 125.323 189.261 121.203 189.261C116.094 189.261 111.7 192.557 111.7 197.226C111.7 201.291 114.611 203.488 118.017 204.971C120.654 206.125 123.4 207.333 123.4 208.761C123.345 209.75 121.862 210.299 120.324 210.299Z" fill="black"/>
<path d="M147.569 195.798C149.547 195.798 151.744 196.787 153.392 198.27L157.512 192.996C154.765 190.525 151.03 188.987 147.569 188.932C139.22 188.932 132.793 195.029 132.793 202.994C132.793 211.453 139.879 217.001 147.459 217.001C151.524 217.001 154.985 215.408 157.512 213.046L153.447 207.608C151.744 209.146 149.712 210.244 147.459 210.244C143.614 210.244 140.044 207.168 140.044 202.994C139.989 198.984 143.45 195.798 147.569 195.798Z" fill="black"/>
<path d="M177.891 213.321H177.946L179.264 216.452H187.064L174.595 189.261H171.189L158.72 216.452H166.52L167.893 213.321H176.957L174.705 208.102H170.146L172.892 201.73L175.639 208.102L177.891 213.321Z" fill="black"/>
<path d="M207.333 209.75H197.061V189.591H189.92V216.452H207.333V209.75Z" fill="black"/>
<path d="M226.174 199.973H218.429V205.905H226.174V199.973Z" fill="black"/>
<path d="M227.987 189.591H210.574V216.452H227.987V209.75H217.605V196.237H227.987V189.591Z" fill="black"/>
<path d="M169.761 230.568H162.62V257.429H169.761V230.568Z" fill="black"/>
<path d="M197.83 249.574V230.514H190.689V242.763L197.83 249.574Z" fill="black"/>
<path d="M181.736 244.301L195.578 257.704H197.83V250.453L189.481 242.488H189.536L176.902 230.239H174.595V290.277C159.269 285.993 145.207 277.808 133.617 266.273C115.875 248.531 106.152 225.021 106.152 199.973C106.152 174.924 115.93 151.36 133.617 133.672C151.36 115.93 174.87 106.207 199.918 106.207C207.663 106.207 215.243 107.141 222.549 108.954V102.582C215.353 100.934 207.773 100 199.973 100C144.768 100 100 144.768 100 199.973C100 246.388 131.64 285.444 174.595 296.649C176.957 297.254 179.319 297.803 181.736 298.242V291.98V244.301Z" fill="black"/>
<path d="M216.287 236.776C218.264 236.776 220.461 237.764 222.109 239.248L226.229 233.974C223.483 231.447 219.747 229.964 216.287 229.909C207.937 229.909 201.511 236.007 201.511 243.971C201.511 252.431 208.597 257.979 216.177 257.979C220.242 257.979 223.702 256.386 226.229 254.024L222.164 248.586C220.407 250.124 218.429 251.222 216.177 251.222C212.332 251.222 208.761 248.146 208.761 243.971C208.706 239.907 212.167 236.776 216.287 236.776Z" fill="black"/>
<path d="M237.654 254.188C237.654 251.936 235.622 250.069 233.26 250.069C230.843 250.069 228.866 251.936 228.866 254.188C228.866 256.495 230.843 258.363 233.26 258.363C235.677 258.363 237.654 256.495 237.654 254.188Z" fill="black"/>
<path d="M242.214 189.591V206.674C242.214 212.826 247.212 217.166 253.364 217.166C259.517 217.166 264.515 212.826 264.515 206.674V189.591H257.319V206.674C257.319 208.871 255.342 210.409 253.31 210.409C251.277 210.409 249.355 208.926 249.355 206.674V189.591H242.214Z" fill="black"/>
<path d="M279.291 201.95H277.094V208.542H279.291C284.949 208.542 289.453 204.202 289.453 199.039C289.453 193.765 284.839 189.646 279.291 189.646H269.129V216.451H276.27V196.182H279.291C281.214 196.182 282.532 197.446 282.532 199.039C282.532 200.687 281.214 202.005 279.291 201.95Z" fill="black"/>
</svg>
