<svg width="336" height="50" viewBox="0 0 336 50" fill="none" xmlns="http://www.w3.org/2000/svg">
<path d="M131.496 25.468C131.496 28.108 130.956 30.448 129.876 32.488C128.82 34.504 127.344 36.088 125.448 37.24C123.576 38.368 121.404 38.932 118.932 38.932C116.508 38.932 114.348 38.368 112.452 37.24C110.58 36.088 109.116 34.504 108.06 32.488C107.004 30.472 106.476 28.132 106.476 25.468C106.476 22.828 107.004 20.5 108.06 18.484C109.14 16.468 110.616 14.884 112.488 13.732C114.36 12.58 116.52 12.004 118.968 12.004C121.44 12.004 123.612 12.58 125.484 13.732C127.356 14.884 128.82 16.468 129.876 18.484C130.956 20.5 131.496 22.828 131.496 25.468ZM127.788 25.468C127.788 23.452 127.416 21.688 126.672 20.176C125.952 18.664 124.932 17.5 123.612 16.684C122.292 15.844 120.744 15.424 118.968 15.424C117.216 15.424 115.68 15.844 114.36 16.684C113.04 17.5 112.008 18.664 111.264 20.176C110.544 21.688 110.184 23.452 110.184 25.468C110.184 27.484 110.544 29.248 111.264 30.76C112.008 32.272 113.04 33.448 114.36 34.288C115.68 35.128 117.216 35.548 118.968 35.548C120.744 35.548 122.292 35.128 123.612 34.288C124.932 33.424 125.952 32.236 126.672 30.724C127.416 29.212 127.788 27.46 127.788 25.468ZM135.828 29.248V12.472H139.356V29.032C139.356 31.12 139.908 32.728 141.012 33.856C142.14 34.96 143.736 35.512 145.8 35.512C147.84 35.512 149.412 34.948 150.516 33.82C151.62 32.692 152.172 31.096 152.172 29.032V12.472H155.736V29.248C155.736 31.24 155.328 32.956 154.512 34.396C153.72 35.836 152.58 36.952 151.092 37.744C149.604 38.536 147.84 38.932 145.8 38.932C143.76 38.932 141.984 38.548 140.472 37.78C138.984 36.988 137.832 35.872 137.016 34.432C136.224 32.968 135.828 31.24 135.828 29.248ZM165.13 38.5H161.602V12.472H171.43C174.214 12.472 176.386 13.168 177.946 14.56C179.53 15.928 180.322 17.836 180.322 20.284C180.322 22.084 179.878 23.608 178.99 24.856C178.126 26.104 176.89 26.992 175.282 27.52L180.574 38.5H176.65L171.79 28.204H165.13V38.5ZM165.13 15.64V25.072H171.466C173.098 25.072 174.358 24.652 175.246 23.812C176.158 22.972 176.614 21.808 176.614 20.32C176.614 18.808 176.146 17.656 175.21 16.864C174.298 16.048 173.038 15.64 171.43 15.64H165.13ZM205.801 38.896C203.329 38.896 201.169 38.344 199.321 37.24C197.473 36.112 196.033 34.552 195.001 32.56C193.969 30.544 193.453 28.192 193.453 25.504C193.453 22.816 193.981 20.464 195.037 18.448C196.093 16.432 197.557 14.86 199.429 13.732C201.325 12.604 203.509 12.04 205.981 12.04C207.949 12.04 209.725 12.412 211.309 13.156C212.893 13.876 214.213 14.896 215.269 16.216C216.325 17.536 217.009 19.084 217.321 20.86H213.541C213.061 19.156 212.137 17.824 210.769 16.864C209.401 15.904 207.769 15.424 205.873 15.424C204.121 15.424 202.585 15.844 201.265 16.684C199.969 17.5 198.961 18.664 198.241 20.176C197.521 21.664 197.161 23.428 197.161 25.468C197.161 27.484 197.521 29.248 198.241 30.76C198.961 32.272 199.981 33.448 201.301 34.288C202.621 35.104 204.145 35.512 205.873 35.512C207.793 35.512 209.449 35.044 210.841 34.108C212.257 33.148 213.205 31.864 213.685 30.256H217.429C217.069 31.984 216.337 33.496 215.233 34.792C214.153 36.088 212.797 37.096 211.165 37.816C209.557 38.536 207.769 38.896 205.801 38.896ZM225.282 12.472V38.5H221.754V12.472H225.282ZM222.366 38.5V35.224H236.73V38.5H222.366ZM244.091 12.472V38.5H240.563V12.472H244.091ZM266.037 38.5H250.161V12.472H266.037V15.712H252.069L253.689 14.308V23.848H264.813V26.98H253.689V36.7L252.069 35.224H266.037V38.5ZM274.677 38.5H271.149V12.472H274.677L288.969 34.072H287.997V12.472H291.525V38.5H287.997L273.705 16.9H274.677V38.5ZM306.443 14.092V38.5H302.915V14.092H306.443ZM295.067 15.712V12.472H314.255V15.712H295.067ZM316.289 19.492C316.289 18.004 316.661 16.696 317.405 15.568C318.149 14.44 319.193 13.564 320.537 12.94C321.905 12.316 323.477 12.004 325.253 12.004C326.909 12.004 328.349 12.304 329.573 12.904C330.821 13.48 331.793 14.308 332.489 15.388C333.209 16.468 333.617 17.764 333.713 19.276H330.149C330.053 17.98 329.573 16.972 328.709 16.252C327.845 15.532 326.681 15.172 325.217 15.172C323.585 15.172 322.277 15.556 321.293 16.324C320.309 17.068 319.817 18.088 319.817 19.384C319.817 20.44 320.117 21.292 320.717 21.94C321.317 22.564 322.229 23.02 323.453 23.308L327.737 24.316C329.873 24.796 331.469 25.624 332.525 26.8C333.605 27.952 334.145 29.44 334.145 31.264C334.145 32.824 333.761 34.18 332.993 35.332C332.249 36.484 331.181 37.372 329.789 37.996C328.421 38.62 326.813 38.932 324.965 38.932C323.213 38.932 321.665 38.644 320.321 38.068C319.001 37.468 317.957 36.628 317.189 35.548C316.445 34.444 316.025 33.16 315.929 31.696H319.529C319.553 32.944 320.057 33.94 321.041 34.684C322.025 35.404 323.333 35.764 324.965 35.764C326.693 35.764 328.061 35.38 329.069 34.612C330.101 33.844 330.617 32.824 330.617 31.552C330.617 30.52 330.329 29.68 329.753 29.032C329.177 28.384 328.265 27.916 327.017 27.628L322.733 26.656C320.621 26.176 319.013 25.336 317.909 24.136C316.829 22.912 316.289 21.364 316.289 19.492Z" fill="#525252"/>
<path d="M18.3411 28.5222C17.4306 29.3501 16.568 30.2026 15.7534 31.0798C14.6921 32.2228 13.5173 33.7231 12.2295 35.5743C12.2295 35.5743 12.2294 35.5744 12.2294 35.5745L7.54954 42.2943L7.26076 42.7089L7.67845 42.9933L13.3184 46.8333L13.7191 47.1061L14.0042 46.7141L18.8042 40.1141L18.8067 40.1106C20.0179 38.415 20.9927 36.8324 21.7271 35.3636C22.2547 34.3083 22.7195 33.2726 23.121 32.2565C23.5573 33.2118 24.0346 34.2075 24.5526 35.2436C25.288 36.7144 26.3036 38.3375 27.5937 40.1117C27.5943 40.1125 27.5949 40.1133 27.5955 40.1141L32.272 46.7092L32.5586 47.1134L32.9654 46.8305L38.4854 42.9905L38.896 42.7048L38.6101 42.2943L33.9389 35.5868C32.8131 33.7388 31.7184 32.2358 30.653 31.0871C29.8991 30.2083 29.0507 29.3558 28.1087 28.5293C29.1614 28.3793 30.2771 28.1864 31.4557 27.9507C33.1662 27.6248 34.9912 27.0969 36.9298 26.3703L44.8444 23.6122L45.3368 23.4406L45.1447 22.9558L42.6247 16.5958L42.448 16.1498L41.995 16.308L34.4363 18.9475C34.4361 18.9476 34.4359 18.9476 34.4357 18.9477C32.3411 19.6728 30.5958 20.4023 29.2059 21.1381C28.1819 21.6802 27.1803 22.2449 26.201 22.8322C26.4108 21.7187 26.5758 20.5619 26.6961 19.362C26.9395 17.7346 27.0598 15.873 27.0598 13.78V5.5V5H26.5598H19.8398H19.3398V5.5V13.78C19.3398 15.8721 19.4203 17.7293 19.5823 19.3498L19.5837 19.3639L19.586 19.378C19.7633 20.5011 19.9623 21.6241 20.1831 22.7471C19.2446 22.1429 18.2429 21.604 17.1786 21.1301C15.7882 20.3955 14.0057 19.6683 11.8392 18.9461C11.8388 18.9459 11.8384 18.9458 11.838 18.9457L4.40025 16.4264L3.94552 16.2724L3.77317 16.7205L1.37317 22.9605L1.18875 23.44L1.67305 23.6114L9.46897 26.3699C9.46966 26.3701 9.47035 26.3704 9.47104 26.3706C11.2481 27.0168 12.9103 27.5037 14.4568 27.8293C15.6766 28.0861 16.9714 28.317 18.3411 28.5222Z" fill="black" stroke="black"/>
</svg>
