<?xml version="1.0" encoding="utf-8"?>
<!-- Generator: Adobe Illustrator 28.1.0, SVG Export Plug-In . SVG Version: 6.00 Build 0)  -->
<svg version="1.1" id="Layer_1" xmlns="http://www.w3.org/2000/svg" xmlns:xlink="http://www.w3.org/1999/xlink" x="0px" y="0px"
	 viewBox="0 0 400 400" style="enable-background:new 0 0 400 400;" xml:space="preserve">
<g>
	<path d="M43.9,177.5H25.5h-7v7v34.4v7h7h18.4c12.9,0,23.4-10.9,23.4-24.2S56.8,177.5,43.9,177.5z M43.9,218.9H25.5v-34.4h18.4
		c9.1,0,16.4,7.7,16.4,17.2S53,218.9,43.9,218.9z"/>
	<path d="M125.3,203.2c0,9.1-7.4,16.4-16.4,16.4s-16.4-7.4-16.4-16.4v-25.9h-7v25.9c0,12.9,10.5,23.4,23.4,23.4
		c12.9,0,23.4-10.5,23.4-23.4v-25.9h-7V203.2z"/>
	<path d="M370.5,207.1c6.1-2.1,10.5-7.9,10.5-14.6c0-8.6-7-15.5-15.5-15.5h-18.6h-7v0.3v6.7v17v7v18h7v-18h15.4l12.7,18h9.3
		L370.5,207.1z M346.8,200.9v-17h18.6c4.7,0,8.5,3.8,8.5,8.5c0,4.7-3.8,8.5-8.5,8.5H346.8z"/>
	<polygon points="161.2,177.3 154.2,177.3 154.2,218.9 154.2,225.9 161.2,225.9 191,225.9 191,218.9 161.2,218.9 	"/>
	<path d="M235.1,177.3h-6.4h-0.6l-22.2,48.6h7l5.2-11.4h27.5l5.2,11.4h7l-22.2-48.6H235.1z M221.4,207.5l10.6-23.2l10.6,23.2H221.4z
		"/>
	<path d="M298.8,177.3h-6.4h-0.6l-22.2,48.6h7l5.2-11.4h27.5l5.2,11.4h7l-22.2-48.6H298.8z M285,207.5l10.6-23.2l10.6,23.2H285z"/>
</g>
</svg>
