<?xml version="1.0" encoding="utf-8"?>
<!-- Generator: Adobe Illustrator 25.0.1, SVG Export Plug-In . SVG Version: 6.00 Build 0)  -->
<svg version="1.1" id="Layer_1" xmlns="http://www.w3.org/2000/svg" xmlns:xlink="http://www.w3.org/1999/xlink" x="0px" y="0px"
	 viewBox="0 0 400 400" style="enable-background:new 0 0 400 400;" xml:space="preserve">
<path d="M371.5,152.8c-5.6-4.9-11.8-8.5-18.9-10.5c-8.6-2.5-17.4-2.6-26.3-1.7c-14,1.5-26.4,6.9-37.4,15.6
	c-10.1,8-17.4,18.2-22.1,30.2c-2.8,7.2-7.9,12.4-13.4,17.4c-0.1-0.1-0.2-0.2-0.3-0.3c3.8-10.2,6.5-20.6,6.8-31.6
	c0.2-9-1-17.6-6.6-25.1c-5.6-7.7-16.4-11.4-24.7-7.7c-9,4-15.3,10.4-16.7,20.8c-1.4,10.9,5.8,20.2,16.7,21.3c2,0.2,2.2,1,1.7,2.5
	c-0.1,0.4-0.2,0.8-0.3,1.2c-2.5,10.9-6.2,21.4-13.3,30.2c-5.2,6.4-11.7,9.8-20.2,9c-4.6-0.4-7.6-2.9-8.5-7.3c-1-5.1,0.2-10.1,1.2-15
	c2.3-12.4,6.3-24.4,8.9-36.7c1-4.7,1.8-9.5,0.7-14.4c-1.8-8-9.7-13.3-17.8-12.9c-12.4,0.7-23.1,5.8-33.4,12.1
	c-4.2,2.6-5.2,6.4-2.8,10.2c2.2,3.6,2.6,7.3,1.9,11.3c-1.1,6.4-2.7,12.7-4,19c-1,4.5-2.1,8.6-6.1,11.9c-9.9,8.2-20.1,16-32,21.1
	c-7.2,3.1-14.4,5.9-22.4,5.4c-5.9-0.4-11.8-4.6-13.1-9.7c-0.8-3,0.2-4.3,3.3-4.5c10.2-0.5,20.1-2.5,29.5-6.4
	c9.2-3.8,17.9-8.2,24.7-15.7c7.3-8,10.2-17.3,8-28c-2-9.6-8.5-15.6-16.7-20c-12.4-6.6-25.7-6.6-39-4.1c-19.1,3.7-35,13.4-48.2,27.5
	c-13.4,14.3-19.1,31.3-16.9,50.8c2,17.5,11.3,30.2,27,38c11.2,5.6,23.2,6.6,35.3,4.8c17.4-2.6,33.2-9.5,46.9-20.9
	c4.8-4,9.4-8.2,13-13.5c0.2,0.3,0.3,0.4,0.3,0.5c1.4,16.1,12.9,27.3,27.3,30.5c17.4,3.9,33.8,0.6,49.3-8.1c4.5-2.5,8.3-6.2,12.7-8.7
	c13.4-7.7,25.2-17.1,35.5-28.6c0.3-0.3,0.5-1,1.2-0.6c-0.1,3.1,0.3,6.2,0.9,9.3c3.1,15.9,11.5,27.9,26.2,35.1
	c11.5,5.7,23.9,5.9,36.2,4.1c19.9-2.9,35.5-13,47.3-29.1c9.7-13.2,13.7-28.1,13.6-44.3C386.4,173.7,382,161.9,371.5,152.8z
	 M66.1,189.4c2.1-5.3,4.7-10.4,8.3-14.9c2.2-2.8,4.7-5.1,7.7-7c4.6-3,10.5-3.3,14.1-0.7c2.2,1.6,3,3.9,3.4,6.1
	c-0.4,5-2.7,8.6-6.5,11.4c-6.4,4.8-13.9,6.8-21.6,8.1c-0.9,0.2-1.8,0.3-2.7,0.4C66.2,193.1,65.2,191.8,66.1,189.4z M373.2,178.3
	c-0.2,8.1-2.5,15-6,21.4c-1.1,2-3.2,2.6-5.1,1.9c-2-0.8-2.8-2.3-2.2-4.7c0.9-3.5,0.5-6.9-0.9-10.2c-1.1-2.7-2.3-5.4-3.6-8
	c-1.2-2.4-2.2-4.9-2.9-7.6c-0.9-4,0.1-7.3,3-9.4c2.9-2.1,7-2,10.3,0.1c4.4,2.9,6.1,7.4,7,12.2C373.1,175.7,373.3,177.4,373.2,178.3z
	"/>
</svg>
