<svg width="400" height="400" viewBox="0 0 400 400" fill="none" xmlns="http://www.w3.org/2000/svg">
<path d="M112.199 249.22C112.798 248.458 113.07 247.478 113.07 246.335C113.07 244.811 112.526 243.559 111.492 242.688C110.457 241.817 108.988 241.381 107.137 241.381H101.693V255.915H103.218V251.289H107.137C107.518 251.289 107.953 251.289 108.28 251.234L111.601 255.915H113.288L109.75 250.907C110.838 250.581 111.655 250.037 112.199 249.22ZM107.082 249.982H103.218V242.688H107.082C108.498 242.688 109.641 243.014 110.403 243.613C111.165 244.266 111.546 245.137 111.546 246.335C111.546 247.478 111.165 248.403 110.403 249.002C109.641 249.655 108.552 249.982 107.082 249.982Z" fill="#0C0C0C"/>
<path d="M123.522 249.166H131.088V247.859H123.522V242.688H131.959V241.381H121.998V255.915H132.286V254.609H123.522V249.166Z" fill="#0C0C0C"/>
<path d="M148.29 248.785C147.636 248.512 146.766 248.295 145.677 248.022C144.751 247.805 144.044 247.587 143.499 247.424C142.955 247.26 142.52 246.988 142.193 246.607C141.866 246.281 141.649 245.791 141.649 245.192C141.649 244.43 141.975 243.777 142.628 243.287C143.282 242.797 144.207 242.525 145.514 242.525C146.167 242.525 146.874 242.633 147.528 242.851C148.235 243.069 148.888 243.341 149.487 243.777L150.032 242.525C149.433 242.143 148.78 241.817 147.963 241.599C147.147 241.381 146.33 241.273 145.514 241.273C144.316 241.273 143.336 241.436 142.52 241.817C141.703 242.198 141.104 242.633 140.723 243.287C140.342 243.885 140.124 244.539 140.124 245.301C140.124 246.226 140.342 246.934 140.832 247.424C141.322 247.968 141.866 248.349 142.52 248.621C143.173 248.893 144.044 249.166 145.132 249.438C146.058 249.656 146.766 249.873 147.255 250.037C147.745 250.2 148.181 250.472 148.562 250.853C148.888 251.18 149.106 251.67 149.106 252.268C149.106 253.03 148.78 253.629 148.126 254.119C147.473 254.609 146.493 254.827 145.187 254.827C144.262 254.827 143.336 254.664 142.465 254.337C141.594 254.01 140.887 253.575 140.342 253.085L139.743 254.282C140.288 254.827 141.05 255.317 142.03 255.643C143.01 255.97 144.044 256.188 145.132 256.188C146.33 256.188 147.31 256.024 148.126 255.643C148.943 255.317 149.542 254.827 149.923 254.228C150.304 253.629 150.522 252.976 150.522 252.214C150.522 251.343 150.304 250.635 149.814 250.091C149.487 249.438 148.943 249.057 148.29 248.785Z" fill="#0C0C0C"/>
<path d="M169.519 242.198C168.376 241.545 167.07 241.218 165.6 241.218C164.13 241.218 162.878 241.545 161.681 242.198C160.483 242.851 159.612 243.722 158.959 244.865C158.306 246.008 157.979 247.26 157.979 248.621C157.979 250.037 158.306 251.289 158.959 252.377C159.612 253.52 160.538 254.391 161.681 255.045C162.878 255.698 164.13 256.024 165.6 256.024C167.07 256.024 168.322 255.698 169.519 255.045C170.663 254.391 171.588 253.52 172.241 252.377C172.894 251.234 173.221 249.982 173.221 248.567C173.221 247.151 172.894 245.899 172.241 244.756C171.588 243.722 170.663 242.851 169.519 242.198ZM170.935 251.724C170.39 252.649 169.683 253.357 168.757 253.901C167.832 254.446 166.798 254.664 165.655 254.664C164.511 254.664 163.477 254.391 162.552 253.901C161.626 253.357 160.864 252.649 160.374 251.724C159.83 250.799 159.558 249.764 159.558 248.621C159.558 247.478 159.83 246.444 160.374 245.518C160.919 244.593 161.626 243.885 162.552 243.341C163.477 242.797 164.511 242.579 165.655 242.579C166.798 242.579 167.832 242.851 168.757 243.341C169.683 243.885 170.39 244.593 170.935 245.518C171.479 246.444 171.751 247.478 171.751 248.621C171.751 249.764 171.479 250.799 170.935 251.724Z" fill="#0C0C0C"/>
<path d="M192.545 249.22C193.144 248.458 193.416 247.478 193.416 246.335C193.416 244.811 192.872 243.559 191.838 242.688C190.803 241.817 189.334 241.381 187.483 241.381H182.039V255.915H183.563V251.289H187.483C187.864 251.289 188.299 251.289 188.626 251.234L191.946 255.915H193.634L190.096 250.907C191.13 250.581 191.946 250.037 192.545 249.22ZM187.428 249.982H183.563V242.688H187.428C188.844 242.688 189.987 243.014 190.749 243.613C191.511 244.266 191.892 245.137 191.892 246.335C191.892 247.478 191.511 248.403 190.749 249.002C189.932 249.655 188.844 249.982 187.428 249.982Z" fill="#0C0C0C"/>
<path d="M199.84 242.688H204.956V255.915H206.481V242.688H211.598V241.381H199.84V242.688Z" fill="#0C0C0C"/>
<path d="M233.48 253.956L229.18 241.381H227.765L223.41 253.901L219.219 241.381H217.64L222.539 255.915H224.172L228.418 243.504L232.664 255.915H234.297L239.196 241.381H237.726L233.48 253.956Z" fill="#0C0C0C"/>
<path d="M248.831 249.166H256.398V247.859H248.831V242.688H257.268V241.381H247.307V255.915H257.595V254.609H248.831V249.166Z" fill="#0C0C0C"/>
<path d="M270.823 241.381L264.182 255.915H265.76L267.502 252.051H275.613L277.355 255.915H278.988L272.347 241.381H270.823ZM268.101 250.799L271.585 242.96L275.069 250.799H268.101Z" fill="#0C0C0C"/>
<path d="M297.224 249.22C297.823 248.458 298.095 247.478 298.095 246.335C298.095 244.811 297.55 243.559 296.516 242.688C295.482 241.817 294.012 241.381 292.161 241.381H286.718V255.915H288.242V251.289H292.161C292.542 251.289 292.978 251.289 293.304 251.234L296.625 255.915H298.312L294.774 250.907C295.808 250.581 296.679 250.037 297.224 249.22ZM292.107 249.982H288.242V242.688H292.107C293.522 242.688 294.665 243.014 295.427 243.613C296.189 244.266 296.571 245.137 296.571 246.335C296.571 247.478 296.189 248.403 295.427 249.002C294.665 249.655 293.522 249.982 292.107 249.982Z" fill="#0C0C0C"/>
<path d="M248.559 225.759C258.194 225.759 267.774 225.759 277.409 225.759C277.899 225.759 278.77 226.085 278.77 225.432C278.825 224.561 277.899 224.942 277.409 224.888C273.98 224.724 270.714 224.017 268.101 221.567C266.196 219.771 264.944 217.593 263.855 215.307C259.555 206.162 255.69 196.799 251.607 187.491C245.238 172.957 238.924 158.368 232.609 143.834C232.392 143.29 232.12 143.017 231.521 143.017C229.724 143.017 227.928 143.072 226.077 143.017C225.315 143.017 225.261 143.29 225.533 143.888C226.186 145.249 226.731 146.665 227.438 148.025C227.928 148.951 227.819 149.767 227.438 150.693C221.233 164.846 215.081 179.053 208.876 193.206C205.719 200.392 202.834 207.686 199.295 214.654C196.301 220.587 192.11 224.888 184.924 224.833C184.598 224.833 184.108 224.888 184.162 225.269C184.217 225.922 184.87 225.704 185.251 225.704C196.846 225.704 208.44 225.704 220.035 225.704C220.471 225.704 221.124 225.867 221.124 225.214C221.124 224.561 220.471 224.724 220.035 224.724C217.912 224.67 215.789 224.561 213.666 224.18C208.604 223.2 206.045 220.206 206.1 215.089C206.154 211.17 207.297 207.414 208.386 203.658C208.604 202.841 209.148 202.95 209.747 202.95C216.606 202.95 223.464 202.95 230.323 202.95C236.093 202.95 241.809 202.95 247.579 202.95C248.994 202.95 250.682 202.46 251.825 203.168C252.968 203.876 253.023 205.672 253.621 206.979C253.621 207.033 253.676 207.033 253.676 207.087C255.091 210.952 256.942 214.708 257.867 218.791C258.466 221.404 257.541 223.037 254.982 223.962C252.914 224.67 250.791 224.724 248.668 224.833C248.178 224.833 247.307 224.67 247.307 225.269C247.144 226.085 248.015 225.759 248.559 225.759ZM250.029 201.807C243.388 201.753 236.692 201.807 230.051 201.807C223.464 201.807 216.878 201.753 210.346 201.807C209.148 201.807 208.93 201.481 209.311 200.392C210.781 195.928 212.36 191.465 213.993 187.055C218.402 175.406 223.192 163.866 228.146 152.435C228.309 152.108 228.255 151.564 228.69 151.564C229.235 151.509 229.18 152.163 229.343 152.489C236.692 168.439 243.986 184.388 250.845 200.555C251.281 201.589 251.117 201.807 250.029 201.807Z" fill="#0C0C0C"/>
<path d="M178.229 224.833C178.175 224.779 178.12 224.67 178.011 224.615C177.086 223.146 139.689 177.638 138.491 176.495C138.328 176.277 138.219 175.951 138.056 175.787C137.239 175.08 137.294 174.481 138.11 173.773C138.6 173.338 152.155 157.987 154.223 155.864C155.53 154.449 160.701 150.529 162.116 149.604C163.368 148.788 167.941 146.12 174.092 144.487C175.453 144.106 176.868 143.997 178.229 143.725C178.556 143.562 178.556 143.398 178.229 143.235C178.12 142.909 177.848 143.017 177.63 143.017C167.015 143.017 156.401 143.017 145.731 143.017C145.35 143.017 144.751 142.909 144.806 143.507C144.86 144.052 145.405 143.943 145.786 143.943C148.072 143.888 152.481 144.324 153.897 148.679C154.604 150.856 153.624 153.904 151.338 156.844C151.175 157.062 136.314 174.263 134.082 177.039C132.286 178.672 121.617 190.648 120.147 192.608C120.092 192.662 120.038 192.717 119.984 192.825C119.167 193.261 118.949 194.35 117.915 194.731C117.861 194.35 117.861 194.077 117.861 193.805C117.861 181.449 117.861 169.092 117.861 156.681C117.861 154.558 118.187 152.489 118.786 150.475C120.038 146.175 122.923 144.052 127.387 144.052C127.822 144.052 128.312 144.052 128.748 144.052C129.129 144.052 129.401 143.888 129.401 143.507C129.346 143.126 129.074 143.072 128.748 143.072C128.53 143.072 128.312 143.072 128.149 143.072C119.167 143.072 110.24 143.072 101.258 143.072C101.095 143.072 100.931 143.072 100.768 143.072C100.387 143.072 99.9515 143.017 100.006 143.616C100.06 144.161 100.496 144.106 100.822 144.106C101.421 144.106 101.966 144.106 102.564 144.106C105.994 144.161 108.498 145.739 109.968 148.896C111.111 151.4 111.492 154.122 111.492 156.789C111.546 175.406 111.546 194.023 111.492 212.64C111.492 214.599 111.165 216.559 110.566 218.464C109.314 222.71 106.484 224.888 102.074 224.833C101.585 224.833 101.095 224.833 100.605 224.833C100.278 224.833 100.006 224.942 100.006 225.269C99.9515 225.704 100.278 225.813 100.659 225.867C100.931 225.867 101.149 225.867 101.421 225.867C110.294 225.867 119.167 225.867 128.04 225.867C128.312 225.867 128.639 225.867 128.911 225.867C129.238 225.813 129.455 225.65 129.455 225.323C129.455 224.996 129.183 224.833 128.856 224.833C128.421 224.833 127.931 224.833 127.496 224.833C122.488 225.051 119.929 222.22 118.786 218.138C118.405 216.777 118.187 215.361 117.915 213.946C117.915 213.837 117.915 213.728 117.915 213.62C117.915 208.394 117.969 203.168 117.915 197.942C117.915 197.126 118.133 196.581 118.677 195.928C119.984 194.35 131.578 181.285 132.177 180.523C132.83 179.652 133.266 179.815 133.919 180.578C135.225 182.156 168.866 223.2 169.683 223.962C169.737 224.18 169.9 224.343 170.064 224.398C170.173 224.833 170.499 225.16 170.88 225.432C171.044 225.976 171.479 225.867 171.86 225.867C173.929 225.867 175.997 225.867 178.066 225.867C178.338 225.867 178.719 226.031 178.773 225.595C178.828 225.214 178.556 224.996 178.229 224.833Z" fill="#0C0C0C"/>
<path d="M300 143.017H293.74V225.813H300V143.017Z" fill="#0C0C0C"/>
</svg>
