<?xml version="1.0" encoding="utf-8"?>
<!-- Generator: Adobe Illustrator 25.0.1, SVG Export Plug-In . SVG Version: 6.00 Build 0)  -->
<svg version="1.1" id="Layer_1" xmlns="http://www.w3.org/2000/svg" xmlns:xlink="http://www.w3.org/1999/xlink" x="0px" y="0px"
	 viewBox="0 0 400 400" style="enable-background:new 0 0 400 400;" xml:space="preserve">
<g>
	<polygon points="187.2,183.3 181.7,183.3 165.3,201.2 182.3,220.6 188.1,220.6 170.6,200.8 	"/>
	<rect x="159.9" y="183.3" width="4.5" height="37.3"/>
	<rect x="213.9" y="183.3" width="4.5" height="37.3"/>
	<path d="M251.7,192.5c0-3.3,2.6-5.5,6.7-5.5c3.3,0,5.6,1.1,7.6,3l2.5-3.4c-2.1-2.3-6-3.9-10.3-3.9c-7.1,0-11.3,4.4-11.3,9.8
		c0,12.4,18.2,9.4,18.2,18.6c0,3.8-3.4,5.8-7.3,5.8c-3.1,0-7-1.5-9.2-4.4l-2.6,3.1c1.9,3.5,7.2,5.6,11.8,5.6c6.8,0,12.2-4,12.2-10.1
		C269.9,198.3,251.7,201.7,251.7,192.5z"/>
	<path d="M307.6,183.1l-16.1,37.6h4.6l4.7-11.3h17l4.8,11.3h4.9l-16.1-37.6H307.6z M302.7,205.1l6.7-16l6.7,16H302.7z"/>
	<polygon points="377.1,183.3 377.1,199.5 356.6,199.5 356.6,183.3 352.1,183.3 352.1,220.6 356.6,220.6 356.6,203.7 377.1,203.7 
		377.1,220.6 381.7,220.6 381.7,183.3 	"/>
	<path d="M79.3,139c-33.6,0-61,27.3-61,61s27.3,61,61,61s61-27.3,61-61S112.9,139,79.3,139z M79.3,258.8
		c-32.4,0-58.8-26.4-58.8-58.8s26.4-58.8,58.8-58.8s58.8,26.4,58.8,58.8S111.7,258.8,79.3,258.8z"/>
	<path d="M79.3,148.7C51,148.7,28,171.7,28,200s23,51.3,51.3,51.3c28.3,0,51.3-23,51.3-51.3S107.6,148.7,79.3,148.7z M79.3,249.1
		c-27.1,0-49.1-22-49.1-49.1c0-27.1,22-49.1,49.1-49.1c27.1,0,49.1,22,49.1,49.1C128.4,227.1,106.4,249.1,79.3,249.1z"/>
	<path d="M93.3,191.1c1.7,1.4,3.9,2.3,6.3,2.3c5.3,0,9.7-4.3,9.7-9.7c0-5.3-4.3-9.7-9.7-9.7c-3.6,0-6.7,1.9-8.3,4.8
		c-0.3,0.1-0.7,0.2-1,0.3c-2,0.7-4,1.6-6.2,2.7c-6.8,3.4-13.9,9.6-17.3,12.8v-2.9c2.6-1.7,4.3-4.7,4.3-8c0-5.3-4.3-9.7-9.7-9.7
		c-5.3,0-9.7,4.3-9.7,9.7c0,3.3,1.7,6.3,4.3,8v19c-2.6,1.7-4.3,4.7-4.3,8c0,5.3,4.3,9.7,9.7,9.7c5.3,0,9.7-4.3,9.7-9.7
		c0-3.3-1.7-6.3-4.3-8v-1.9c0.4-0.5,1-1.2,2.3-2.3c2.5,2.9,4.3,4.8,5.5,6c2.3,2.2,9,7.5,15.5,10c0.3,0.1,0.6,0.2,0.9,0.3
		c1.5,3.3,4.9,5.6,8.8,5.6c5.3,0,9.7-4.3,9.7-9.7c0-5.3-4.3-9.7-9.7-9.7c-2.1,0-4.1,0.7-5.7,1.9c0,0,0,0,0,0l-0.4-0.2
		c-5.4-2.8-13.6-7.8-16.8-9.8c5.4-3.5,11.9-7.2,16.4-9.7L93.3,191.1z M64.5,196.7v15.4v2.2c0,1.8-1.5,3.3-3.3,3.3
		c-1.8,0-3.3-1.5-3.3-3.3v-28.2c0-1.8,1.5-3.3,3.3-3.3c1.8,0,3.3,1.5,3.3,3.3V196.7z M92.5,212.6l0.4,0.2c0.3,0.1,0.6,0.3,0.8,0.4
		c5.2,2.6,7.3,3.4,8.5,3.8c-0.2,0.7-0.9,2-2,3c-1.5,1.3-3.3,1.9-5.5,1.5c-1.2-0.2-2.5-0.6-4-1.1c-6.2-2.4-12.7-7.5-14.8-9.5
		c-1.1-1.1-2.9-2.9-5.3-5.8c0.1-0.1,0.1-0.1,0.2-0.2c0.1-0.1,0.2-0.1,0.2-0.2c0.3-0.2,0.6-0.5,1-0.7c0.1-0.1,0.2-0.1,0.3-0.2
		c0.4-0.3,0.9-0.6,1.3-0.9c0.1-0.1,0.2-0.1,0.2-0.2c0.3-0.2,0.6-0.4,0.8-0.6C77.1,203.7,86.4,209.4,92.5,212.6z M92,189.3
		c-4.8,2.6-11.7,6.6-17.4,10.3l0,0L74,200c-1.1,0.7-2,1.4-2.9,2c-1,0.7-2,1.4-2.8,2.1c-0.6,0.5-1.2,1-1.7,1.5v-8.1
		c2.3-2.2,10.6-10,18.3-13.8c2.1-1,4.1-1.9,6-2.6c5.9-2,9.1-1.6,10.1-0.7c0.2,0.2,0.4,0.5,0.3,1.2c-0.2,1.5-2.2,4-6.9,6.5
		c-0.5,0.3-1.1,0.6-1.8,0.9L92,189.3z"/>
</g>
</svg>
