<?xml version="1.0" encoding="utf-8"?>
<!-- Generator: Adobe Illustrator 25.0.1, SVG Export Plug-In . SVG Version: 6.00 Build 0)  -->
<svg version="1.1" id="Layer_1" xmlns="http://www.w3.org/2000/svg" xmlns:xlink="http://www.w3.org/1999/xlink" x="0px" y="0px"
	 viewBox="0 0 400 400" style="enable-background:new 0 0 400 400;" xml:space="preserve">
<style type="text/css">
	.st0{fill-rule:evenodd;clip-rule:evenodd;}
</style>
<g>
	<path class="st0" d="M79.8,144.4c-35.7,0-64.6,24.9-64.6,55.6c0,30.7,28.9,55.6,64.6,55.6c35.7,0,64.6-24.9,64.6-55.6
		C144.4,169.3,115.5,144.4,79.8,144.4z M106.2,228.9c-8.3,0-14.7-5.6-19.2-12.6l0,22.1l-15.1,5.1l0-20.9c-4.2,3.6-9.1,6.1-15.7,6.1
		c-16.7,0-24.6-16.1-24.6-29.6c0-13,6.2-28.3,22.4-28.3c7.1,0,13.8,4.3,17.9,8.9l0-17.5l15-5l0,20.7c4.5-4.1,9.9-7,17.1-7
		c13.9,0,21.7,11.2,23.9,22.8h-6.3c-2.5-3.7-7.4-6-12.2-6c-10.7,0-17.2,9.6-22.6,17l0,3.6c5.6,2.8,10.8,5.8,17.2,5.9
		c7.8,0.1,14.9-2.9,17.9-8.6h6.3C127,217.2,120.5,228.9,106.2,228.9z"/>
	<path class="st0" d="M71.9,190.7v6.2c-5.1,7.1-11.3,15.4-21.2,15.4c-6.9,0-13.8-4.8-14-11.8c-0.2-10.2,8.9-14.6,19.2-14.5
		C61,186.2,68.5,188.5,71.9,190.7z"/>
	<g>
		<path class="st0" d="M368.4,207.5l15.2-20.1H367l-12.6,18.4h-0.2v-33.4l-15.1,5.2v53.5l0,0h15.1v-21.6h0.2l12.1,21.6h18.3
			L368.4,207.5z M286.5,221.5c-1.5,0.3-3.1,0.6-4.6,0.6c-4.8,0-6-2.7-6-8V198h10.6v-10.6h-10.6v-15.1l-14.8,5.3v9.8h-8.9V198h8.6
			v17.8c0,10.4,3.3,16.4,16.8,16.4c3.8,0,6.6-0.5,9.5-0.8L286.5,221.5z M228.1,186.4c-14.4,0-25.4,8.4-25.4,22.9
			c0,14.4,11,22.8,25.4,22.8c14.4,0,25.4-8.4,25.4-22.8C253.5,194.8,242.5,186.4,228.1,186.4z M228.1,221.6c-7,0-9.8-5.8-9.8-12.3
			c0-6.5,2.8-12.3,9.8-12.3c7,0,9.8,5.8,9.8,12.3C237.9,215.8,235.1,221.6,228.1,221.6z"/>
		<path class="st0" d="M333.8,231.3C333.8,231.3,333.8,231.3,333.8,231.3L333.8,231.3L333.8,231.3z M333,220.9v-16.5
			c0-13.5-9.8-18.4-21-18.4c-6.5,0-12.2,0.9-17.6,3.1l0.2,10.4c4.2-2.4,9.2-3.3,14.1-3.3c5.5,0,10,1.6,10.1,7.6
			c-2.4-0.4-4.7-0.6-7.1-0.6c-8.1,0-22.8,1.6-22.8,15.1c0,9.6,7.8,13.9,16.5,13.9c6.3,0,10.5-2.5,14-8h0.2c0,2.3,0.3,4.6,0.3,7h14
			C333.2,227.8,333,224.3,333,220.9z M309.3,222.1c-3.6,0-6.3-1.8-6.3-4.8c0-4.2,4.1-5.9,9.2-5.9c2.3,0,4.5,0.2,6.4,0.3
			C318.7,216.9,315.1,222.1,309.3,222.1z M205.7,227.7l-0.3-0.4l-13.8-19.8l12.1-16c0.1-0.1,0.2-0.2,0.3-0.4l2.8-3.7h-16.5
			l-12.6,18.4h-0.2v-33.4l-5.6,1.8l-0.1,0l-9.2,3l-0.2,0.1v53.8h15.1v-21.6h0.2l12.1,21.6h18.3L205.7,227.7z"/>
	</g>
</g>
</svg>
