<?xml version="1.0" encoding="utf-8"?>
<!-- Generator: Adobe Illustrator 25.0.1, SVG Export Plug-In . SVG Version: 6.00 Build 0)  -->
<svg version="1.1" id="Layer_1" xmlns="http://www.w3.org/2000/svg" xmlns:xlink="http://www.w3.org/1999/xlink" x="0px" y="0px"
	 viewBox="0 0 400 400" style="enable-background:new 0 0 400 400;" xml:space="preserve">
<g>
	<path d="M33.6,242.9c-0.5-0.4-1.2-0.7-2.1-0.9c-0.9-0.2-1.9-0.3-3.2-0.3c-0.5,0-0.9,0-1.3,0s-0.7,0-1,0c-0.3,0-0.6,0-0.9,0
		c-0.3,0-0.6,0-1,0h-2.9v1.3l1.8,0.3v13.3l-2,0.2v1.2h7.9v-1.2l-3.2-0.2v-4.7c0.1,0,0.2,0,0.3,0c0.1,0,0.3,0,0.5,0s0.4,0,0.6,0
		c0.2,0,0.5,0,0.7,0c1,0,1.9-0.1,2.8-0.4c0.9-0.3,1.6-0.6,2.2-1.1c0.6-0.5,1.1-1.1,1.4-1.8c0.3-0.7,0.5-1.5,0.5-2.4
		c0-0.7-0.1-1.4-0.3-2C34.5,243.8,34.1,243.3,33.6,242.9z M31.7,248.4c-0.2,0.6-0.5,1-0.9,1.4c-0.4,0.3-0.8,0.6-1.3,0.7
		c-0.5,0.1-1,0.2-1.5,0.2c-0.6,0-1,0-1.3,0c-0.3,0-0.6,0-0.8-0.1V243c0.1,0,0.3,0,0.4,0c0.1,0,0.3,0,0.4,0c0.2,0,0.3,0,0.5,0
		c0.2,0,0.4,0,0.7,0c0.7,0,1.3,0.1,1.8,0.2c0.5,0.1,0.9,0.3,1.3,0.6c0.3,0.3,0.6,0.6,0.8,1.1c0.2,0.4,0.3,1,0.3,1.6
		C32.1,247.1,32,247.8,31.7,248.4z"/>
	<polygon points="48.4,256.6 41.9,256.6 41.9,250.3 45.8,250.3 46.1,252.2 47.6,252.2 47.6,247.1 46.1,247.1 45.8,249 41.9,249 
		41.9,243 47.6,243 48.3,245.1 49.8,245.1 49.5,241.7 37.3,241.7 37.3,242.9 39.2,243.2 39.2,256.6 37.2,256.8 37.2,258 50.5,258 
		51.2,254.2 49.7,253.8 	"/>
	<path d="M67.6,256.1c-0.2-0.3-0.5-0.6-0.7-1c-0.2-0.4-0.5-0.8-0.8-1.3c-0.3-0.5-0.5-0.9-0.8-1.4c-0.3-0.4-0.6-0.8-0.9-1.2
		c-0.3-0.4-0.6-0.6-1-0.8c0.6-0.2,1.1-0.4,1.5-0.7c0.4-0.3,0.8-0.7,1.1-1.1c0.3-0.4,0.5-0.8,0.7-1.3c0.2-0.5,0.2-0.9,0.2-1.4
		c0-0.7-0.1-1.3-0.3-1.9c-0.2-0.5-0.6-1-1.1-1.3c-0.5-0.3-1.2-0.6-2-0.8c-0.8-0.2-1.8-0.3-3-0.3c-0.3,0-0.7,0-1,0
		c-0.3,0-0.6,0-0.9,0s-0.6,0-0.9,0c-0.3,0-0.6,0-0.9,0h-3.2v1.3l1.9,0.3v13.3l-2,0.2v1.2h7v-1.2l-2.3-0.2v-5.7c0.1,0,0.2,0,0.5,0
		s0.5,0,0.7,0c0.3,0,0.6,0,0.8,0c0.3,0,0.5,0,0.8,0c0.2,0.1,0.4,0.3,0.7,0.6c0.2,0.3,0.4,0.6,0.7,0.9c0.2,0.4,0.4,0.7,0.6,1.2
		c0.2,0.4,0.4,0.8,0.6,1.2c0.2,0.4,0.4,0.8,0.6,1.2c0.2,0.4,0.4,0.7,0.6,1c0.2,0.3,0.4,0.5,0.5,0.7c0.2,0.2,0.3,0.3,0.5,0.3h3.5
		v-1.2l-0.9-0.3C68.1,256.5,67.8,256.4,67.6,256.1z M62.1,249.4c-0.4,0.1-0.8,0.2-1.3,0.2c-0.1,0-0.3,0-0.6,0c-0.2,0-0.5,0-0.8,0
		c-0.3,0-0.5,0-0.8,0c-0.2,0-0.4,0-0.6,0V243c0.1,0,0.2,0,0.3,0c0.1,0,0.2,0,0.4,0c0.2,0,0.3,0,0.6,0c0.2,0,0.5,0,0.7,0
		c0.7,0,1.4,0.1,1.9,0.2c0.5,0.2,0.9,0.4,1.2,0.7c0.3,0.3,0.5,0.6,0.6,1s0.2,0.8,0.2,1.3c0,0.6-0.1,1.1-0.2,1.6
		c-0.1,0.4-0.4,0.8-0.6,1.1C62.8,249,62.5,249.2,62.1,249.4z"/>
	<path d="M81.3,250.5c-0.5-0.4-1-0.7-1.6-1c-0.6-0.3-1.2-0.5-1.7-0.8c-0.6-0.3-1.2-0.5-1.7-0.8c-0.5-0.2-0.9-0.5-1.3-0.7
		c-0.4-0.3-0.6-0.5-0.8-0.9c-0.2-0.3-0.3-0.7-0.3-1.1c0-0.7,0.3-1.3,0.8-1.7c0.5-0.4,1.3-0.6,2.4-0.6c0.3,0,0.6,0,0.8,0.1
		c0.3,0,0.5,0.1,0.7,0.1s0.4,0.1,0.6,0.2c0.2,0.1,0.3,0.1,0.3,0.2l0.5,2.5h1.6l0.2-3.6c-0.2,0-0.4-0.1-0.7-0.2
		c-0.3-0.1-0.7-0.2-1.1-0.3c-0.4-0.1-0.9-0.2-1.3-0.2c-0.5-0.1-1-0.1-1.6-0.1c-0.9,0-1.7,0.1-2.4,0.3c-0.7,0.2-1.3,0.5-1.8,0.9
		c-0.5,0.4-0.9,0.8-1.2,1.3c-0.3,0.5-0.4,1.1-0.4,1.6c0,0.7,0.2,1.3,0.5,1.8c0.3,0.5,0.7,1,1.2,1.4c0.5,0.4,1,0.7,1.5,1
		c0.6,0.3,1.1,0.5,1.6,0.7c0.6,0.2,1.2,0.5,1.7,0.7c0.5,0.2,0.9,0.5,1.3,0.7c0.4,0.3,0.6,0.6,0.8,0.9c0.2,0.3,0.3,0.7,0.3,1.1
		c0,0.8-0.3,1.4-0.9,1.9c-0.6,0.5-1.5,0.7-2.6,0.7c-0.4,0-0.7,0-1-0.1c-0.3,0-0.6-0.1-0.9-0.2c-0.3-0.1-0.5-0.2-0.7-0.3
		c-0.2-0.1-0.4-0.2-0.5-0.3l-0.5-2.7h-1.6L71,257c0.2,0,0.4,0.1,0.8,0.2s0.7,0.2,1.2,0.3c0.5,0.1,1,0.2,1.6,0.3
		c0.6,0.1,1.2,0.1,1.9,0.1c1.1,0,2-0.1,2.8-0.4c0.8-0.3,1.5-0.6,2-1.1c0.5-0.4,0.9-0.9,1.2-1.5c0.3-0.5,0.4-1.1,0.4-1.6
		c0-0.6-0.2-1.2-0.5-1.7C82.1,251.3,81.7,250.8,81.3,250.5z"/>
	<path d="M99,243.9c-0.6-0.7-1.4-1.2-2.4-1.6s-2.1-0.6-3.4-0.6c-1.2,0-2.2,0.2-3.2,0.6c-1,0.4-1.8,0.9-2.6,1.7
		c-0.7,0.7-1.3,1.6-1.7,2.6c-0.4,1-0.6,2.1-0.6,3.4c0,1.2,0.2,2.3,0.5,3.3c0.3,1,0.8,1.9,1.5,2.6c0.7,0.7,1.5,1.3,2.4,1.6
		c1,0.4,2.1,0.6,3.4,0.6c1.2,0,2.2-0.2,3.2-0.6c1-0.4,1.8-1,2.5-1.7c0.7-0.7,1.3-1.6,1.7-2.6c0.4-1,0.6-2.2,0.6-3.4
		c0-1.2-0.2-2.3-0.5-3.3C100.1,245.4,99.6,244.6,99,243.9z M97.5,252.8c-0.2,0.9-0.6,1.6-1,2.2c-0.4,0.6-0.9,1-1.5,1.3
		c-0.6,0.3-1.3,0.4-2,0.4c-0.8,0-1.5-0.2-2.1-0.5c-0.6-0.3-1.1-0.8-1.5-1.4c-0.4-0.6-0.7-1.3-0.9-2.2c-0.2-0.8-0.3-1.8-0.3-2.8
		c0-1.2,0.1-2.2,0.3-3.1c0.2-0.9,0.6-1.6,1-2.2c0.4-0.6,0.9-1,1.5-1.3c0.6-0.3,1.3-0.4,2-0.4c0.8,0,1.4,0.2,2.1,0.5
		c0.6,0.3,1.1,0.8,1.5,1.3c0.4,0.6,0.7,1.3,0.9,2.1c0.2,0.8,0.3,1.8,0.3,2.8C97.8,250.9,97.7,251.9,97.5,252.8z"/>
	<polygon points="115,242.9 117,243.2 117,254.4 115.8,252.2 107.9,241.7 103.3,241.7 103.3,242.9 105.2,243.2 105.2,256.6 
		103.3,256.8 103.3,258 109.2,258 109.2,256.8 107,256.6 107,244.4 108.8,247.3 116.9,258 118.8,258 118.8,243.2 120.8,242.9 
		120.8,241.7 115,241.7 	"/>
	<path d="M131.5,241.7h-2.8l-5.8,14.9l-1.5,0.3l0,1.2h5.8v-1.2l-2-0.3l1.1-3.1h6.9l1.1,3.1l-1.9,0.3v1.2h6.4v-1.2l-1.5-0.3
		L131.5,241.7z M126.7,252.1l2.4-6.9l0.5-1.8l0.5,1.8l2.5,6.9H126.7z"/>
	<polygon points="150.7,256.5 144.8,256.5 144.8,243.2 147,242.9 147,241.7 140.1,241.7 140.1,242.9 142,243.2 142,256.6 140,256.8 
		140,258 152.9,258 153.7,253 152.1,252.8 	"/>
	<polygon points="168.5,243.2 170.7,242.9 170.7,241.7 163.6,241.7 163.6,242.9 165.8,243.2 165.8,256.6 163.6,256.8 163.6,258 
		170.7,258 170.7,256.9 168.5,256.6 	"/>
	<polygon points="185.3,242.9 187.4,243.2 187.4,254.4 186.1,252.2 178.3,241.7 173.6,241.7 173.6,242.9 175.6,243.2 175.6,256.6 
		173.6,256.8 173.6,258 179.6,258 179.6,256.8 177.3,256.6 177.3,244.4 179.2,247.3 187.2,258 189.2,258 189.2,243.2 191.1,242.9 
		191.1,241.7 185.3,241.7 	"/>
	<path d="M193.3,242.9l2.2,0.3v9.6c0,0.7,0,1.4,0,1.9c0,0.5,0,1-0.1,1.4c0,0.4-0.1,0.7-0.2,1c-0.1,0.3-0.1,0.6-0.2,0.9
		c-0.1,0.4-0.3,0.7-0.5,1.1c-0.2,0.3-0.5,0.6-0.8,0.9c-0.3,0.2-0.6,0.5-0.9,0.6c-0.3,0.2-0.6,0.3-0.9,0.3l0.7,1
		c0.6-0.1,1.1-0.3,1.7-0.5c0.6-0.2,1.1-0.5,1.6-0.9c0.5-0.4,0.9-0.8,1.3-1.3c0.4-0.5,0.6-1.1,0.8-1.7c0.2-0.6,0.2-1.4,0.3-2.4
		c0-0.9,0-2,0-3.2v-8.8l2.1-0.3v-1.2h-7.1V242.9z"/>
	<path d="M213.4,243l1.9,0.3v8.2c0,0.8-0.1,1.6-0.3,2.3c-0.2,0.7-0.4,1.2-0.8,1.7c-0.4,0.5-0.8,0.8-1.3,1c-0.5,0.2-1.1,0.4-1.8,0.4
		c-0.7,0-1.3-0.1-1.8-0.3c-0.5-0.2-1-0.5-1.4-0.9s-0.7-1-0.9-1.7c-0.2-0.7-0.3-1.6-0.3-2.6v-8.1l2-0.3v-1.2h-6.5v1.2l1.7,0.3v7.8
		c0,1.2,0.1,2.2,0.4,3.1c0.3,0.9,0.7,1.6,1.2,2.2c0.6,0.6,1.3,1,2.2,1.3c0.9,0.3,1.9,0.4,3.1,0.4c0.9,0,1.8-0.1,2.6-0.4
		c0.8-0.3,1.5-0.7,2.1-1.2c0.6-0.5,1-1.2,1.4-2.1c0.3-0.8,0.5-1.8,0.5-3v-8.1l1.7-0.3v-1.2h-5.6V243z"/>
	<path d="M235.3,256.1c-0.2-0.3-0.5-0.6-0.7-1c-0.2-0.4-0.5-0.8-0.8-1.3c-0.3-0.5-0.5-0.9-0.8-1.4c-0.3-0.4-0.6-0.8-0.9-1.2
		c-0.3-0.4-0.6-0.6-1-0.8c0.6-0.2,1.1-0.4,1.5-0.7s0.8-0.7,1.1-1.1c0.3-0.4,0.5-0.8,0.7-1.3c0.2-0.5,0.2-0.9,0.2-1.4
		c0-0.7-0.1-1.3-0.3-1.9c-0.2-0.5-0.6-1-1.1-1.3c-0.5-0.3-1.2-0.6-2-0.8c-0.8-0.2-1.8-0.3-3-0.3c-0.3,0-0.7,0-1,0
		c-0.3,0-0.6,0-0.9,0s-0.6,0-0.9,0s-0.6,0-0.9,0h-3.2v1.3l1.9,0.3v13.3l-2,0.2v1.2h7v-1.2l-2.3-0.2v-5.7c0.1,0,0.2,0,0.5,0
		c0.2,0,0.5,0,0.7,0c0.3,0,0.6,0,0.8,0c0.3,0,0.5,0,0.8,0c0.2,0.1,0.4,0.3,0.7,0.6c0.2,0.3,0.4,0.6,0.7,0.9c0.2,0.4,0.4,0.7,0.6,1.2
		c0.2,0.4,0.4,0.8,0.6,1.2c0.2,0.4,0.4,0.8,0.6,1.2c0.2,0.4,0.4,0.7,0.6,1c0.2,0.3,0.4,0.5,0.5,0.7c0.2,0.2,0.3,0.3,0.5,0.3h3.5
		v-1.2l-0.9-0.3C235.7,256.5,235.5,256.4,235.3,256.1z M229.7,249.4c-0.4,0.1-0.8,0.2-1.3,0.2c-0.1,0-0.3,0-0.6,0
		c-0.2,0-0.5,0-0.8,0c-0.3,0-0.5,0-0.8,0c-0.2,0-0.4,0-0.6,0V243c0.1,0,0.2,0,0.3,0c0.1,0,0.2,0,0.4,0c0.2,0,0.3,0,0.6,0
		c0.2,0,0.5,0,0.7,0c0.7,0,1.4,0.1,1.9,0.2c0.5,0.2,0.9,0.4,1.2,0.7c0.3,0.3,0.5,0.6,0.6,1s0.2,0.8,0.2,1.3c0,0.6-0.1,1.1-0.2,1.6
		c-0.1,0.4-0.4,0.8-0.6,1.1C230.4,249,230.1,249.2,229.7,249.4z"/>
	<polygon points="247.5,242.9 249.4,243.2 246.3,249 245.5,250.5 244.8,249 241.5,243.2 243.4,242.9 243.4,241.7 236.9,241.7 
		236.9,242.9 238.4,243.2 243.7,251.7 243.7,256.6 241.2,256.8 241.2,258 249.2,258 249.2,256.8 246.6,256.6 246.6,251.6 
		251.5,243.2 253.1,242.9 253.1,241.7 247.5,241.7 	"/>
	<polygon points="272.7,256.5 266.8,256.5 266.8,243.2 269,242.9 269,241.7 262.1,241.7 262.1,242.9 264,243.2 264,256.6 262,256.8 
		262,258 274.9,258 275.7,253 274.1,252.8 	"/>
	<path d="M286.2,241.7h-2.8l-5.8,14.9l-1.5,0.3l0,1.2h5.8v-1.2l-2-0.3l1.1-3.1h6.9l1.1,3.1l-1.9,0.3v1.2h6.4v-1.2l-1.5-0.3
		L286.2,241.7z M281.5,252.1l2.4-6.9l0.5-1.8l0.5,1.8l2.5,6.9H281.5z"/>
	<polygon points="328.4,242.9 330.3,243.2 327.1,249 326.4,250.5 325.7,249 322.4,243.2 324.2,242.9 324.2,241.7 318.1,241.7 
		317.8,241.7 312.3,241.7 312.3,243 314.7,243.3 311.6,253.3 311,256.4 310.3,253.3 307,243.3 309.3,243 309.3,241.7 302.5,241.7 
		302.5,243 304.2,243.3 304.8,245.2 302.2,253.3 301.4,256.1 300.8,253.3 297.6,243.3 299.7,243 299.7,241.7 293.2,241.7 293.2,243 
		294.7,243.3 299.8,258 302.2,258 305.7,247.5 309.2,258 311.7,258 316.6,243.3 318.1,243 318.1,243 319.3,243.2 324.6,251.7 
		324.6,256.6 322,256.8 322,258 330.1,258 330.1,256.8 327.4,256.6 327.4,251.6 332.4,243.2 333.9,242.9 333.9,241.7 328.4,241.7 	
		"/>
	<polygon points="346.3,256.6 339.9,256.6 339.9,250.3 343.7,250.3 344,252.2 345.5,252.2 345.5,247.1 344,247.1 343.7,249 
		339.9,249 339.9,243 345.5,243 346.2,245.1 347.7,245.1 347.4,241.7 335.2,241.7 335.2,242.9 337.1,243.2 337.1,256.6 335.2,256.8 
		335.2,258 348.4,258 349.1,254.2 347.6,253.8 	"/>
	<path d="M365.5,256.1c-0.2-0.3-0.5-0.6-0.7-1c-0.2-0.4-0.5-0.8-0.8-1.3c-0.3-0.5-0.5-0.9-0.8-1.4c-0.3-0.4-0.6-0.8-0.9-1.2
		c-0.3-0.4-0.6-0.6-1-0.8c0.6-0.2,1.1-0.4,1.5-0.7s0.8-0.7,1.1-1.1c0.3-0.4,0.5-0.8,0.7-1.3c0.2-0.5,0.2-0.9,0.2-1.4
		c0-0.7-0.1-1.3-0.3-1.9c-0.2-0.5-0.6-1-1.1-1.3c-0.5-0.3-1.2-0.6-2-0.8c-0.8-0.2-1.8-0.3-3-0.3c-0.3,0-0.7,0-1,0s-0.6,0-0.9,0
		s-0.6,0-0.9,0s-0.6,0-0.9,0h-3.2v1.3l1.9,0.3v13.3l-2,0.2v1.2h7v-1.2l-2.3-0.2v-5.7c0.1,0,0.2,0,0.5,0c0.2,0,0.5,0,0.7,0
		c0.3,0,0.6,0,0.8,0s0.5,0,0.8,0c0.2,0.1,0.4,0.3,0.7,0.6s0.4,0.6,0.7,0.9c0.2,0.4,0.4,0.7,0.6,1.2c0.2,0.4,0.4,0.8,0.6,1.2
		c0.2,0.4,0.4,0.8,0.6,1.2c0.2,0.4,0.4,0.7,0.6,1c0.2,0.3,0.4,0.5,0.5,0.7c0.2,0.2,0.3,0.3,0.5,0.3h3.5v-1.2l-0.9-0.3
		C366,256.5,365.8,256.4,365.5,256.1z M360,249.4c-0.4,0.1-0.8,0.2-1.3,0.2c-0.1,0-0.3,0-0.6,0c-0.2,0-0.5,0-0.8,0
		c-0.3,0-0.5,0-0.8,0c-0.2,0-0.4,0-0.6,0V243c0.1,0,0.2,0,0.3,0c0.1,0,0.2,0,0.4,0c0.2,0,0.3,0,0.6,0c0.2,0,0.5,0,0.7,0
		c0.7,0,1.4,0.1,1.9,0.2c0.5,0.2,0.9,0.4,1.2,0.7c0.3,0.3,0.5,0.6,0.6,1s0.2,0.8,0.2,1.3c0,0.6-0.1,1.1-0.2,1.6
		c-0.1,0.4-0.4,0.8-0.6,1.1C360.7,249,360.4,249.2,360,249.4z"/>
	<path d="M379.2,250.5c-0.5-0.4-1-0.7-1.6-1c-0.6-0.3-1.2-0.5-1.7-0.8c-0.6-0.3-1.2-0.5-1.7-0.8c-0.5-0.2-0.9-0.5-1.3-0.7
		c-0.4-0.3-0.6-0.5-0.8-0.9c-0.2-0.3-0.3-0.7-0.3-1.1c0-0.7,0.3-1.3,0.8-1.7c0.5-0.4,1.3-0.6,2.4-0.6c0.3,0,0.6,0,0.8,0.1
		c0.3,0,0.5,0.1,0.7,0.1c0.2,0.1,0.4,0.1,0.6,0.2c0.2,0.1,0.3,0.1,0.3,0.2l0.5,2.5h1.6l0.2-3.6c-0.2,0-0.4-0.1-0.7-0.2
		c-0.3-0.1-0.7-0.2-1.1-0.3c-0.4-0.1-0.9-0.2-1.3-0.2c-0.5-0.1-1-0.1-1.6-0.1c-0.9,0-1.7,0.1-2.4,0.3c-0.7,0.2-1.3,0.5-1.8,0.9
		c-0.5,0.4-0.9,0.8-1.2,1.3c-0.3,0.5-0.4,1.1-0.4,1.6c0,0.7,0.2,1.3,0.5,1.8c0.3,0.5,0.7,1,1.2,1.4c0.5,0.4,1,0.7,1.5,1
		c0.6,0.3,1.1,0.5,1.6,0.7c0.6,0.2,1.2,0.5,1.7,0.7c0.5,0.2,0.9,0.5,1.3,0.7c0.4,0.3,0.6,0.6,0.8,0.9c0.2,0.3,0.3,0.7,0.3,1.1
		c0,0.8-0.3,1.4-0.9,1.9c-0.6,0.5-1.5,0.7-2.6,0.7c-0.4,0-0.7,0-1-0.1c-0.3,0-0.6-0.1-0.9-0.2c-0.3-0.1-0.5-0.2-0.7-0.3
		c-0.2-0.1-0.4-0.2-0.5-0.3l-0.5-2.7h-1.6l-0.2,3.9c0.2,0,0.4,0.1,0.8,0.2c0.3,0.1,0.7,0.2,1.2,0.3c0.5,0.1,1,0.2,1.6,0.3
		c0.6,0.1,1.2,0.1,1.9,0.1c1.1,0,2-0.1,2.8-0.4c0.8-0.3,1.5-0.6,2-1.1c0.5-0.4,0.9-0.9,1.2-1.5c0.3-0.5,0.4-1.1,0.4-1.6
		c0-0.6-0.2-1.2-0.5-1.7C380.1,251.3,379.7,250.8,379.2,250.5z"/>
	<path d="M31.3,219.9c-0.9,0.7-1.8,1.1-2.9,1.1v3.2h37.9v-9h-2.8c0,1.1-0.3,2.2-1,3.3c-0.7,1-1.6,1.6-2.6,1.6H44
		c-0.9,0-1.7-0.5-2.4-1.4c-0.7-0.9-1-2-1-3.2v-60.2c0-1.1,0.3-2,1-2.9c0.7-0.9,1.8-1.3,3.2-1.3v-3.3H28.4v3.3c1.3,0,2.3,0.4,3,1.2
		c0.8,0.8,1.2,1.8,1.2,3V217C32.6,218.2,32.2,219.1,31.3,219.9z"/>
	<path d="M105.5,220.9H105v3.2h14.8v-3.2h-0.6c-0.8-0.1-1.5-0.4-2.2-0.9c-0.6-0.5-1-1.2-1.2-2.1l-17.1-70.3h-4.3l-17.4,70.3
		c-0.3,0.8-0.8,1.5-1.4,2.1c-0.6,0.6-1.4,0.9-2.3,0.9h-0.3v3.2h10.5v-3.2h-0.8c-0.7,0-1.1-0.4-1.4-1.1c-0.2-0.7-0.2-1.5,0-2.3
		l3.1-12.7h19.9l3.2,13c0.2,0.8,0.1,1.5-0.2,2.1C107,220.6,106.4,220.9,105.5,220.9z M85.4,200.4l9.1-36.2l8.8,36.2H85.4z"/>
	<path d="M131.4,219.9c-0.9,0.7-1.8,1.1-2.9,1.1v3.2h37.9v-9h-2.8c0,1.1-0.3,2.2-1,3.3c-0.7,1-1.6,1.6-2.6,1.6h-15.9
		c-0.9,0-1.7-0.5-2.4-1.4c-0.7-0.9-1-2-1-3.2v-60.2c0-1.1,0.3-2,1-2.9c0.7-0.9,1.8-1.3,3.2-1.3v-3.3h-16.4v3.3c1.3,0,2.3,0.4,3,1.2
		c0.8,0.8,1.2,1.8,1.2,3V217C132.7,218.2,132.3,219.1,131.4,219.9z"/>
	<path d="M205.6,220.9h-0.6v3.2h14.8v-3.2h-0.6c-0.8-0.1-1.5-0.4-2.2-0.9c-0.6-0.5-1-1.2-1.2-2.1l-17.1-70.3h-4.3l-17.4,70.3
		c-0.3,0.8-0.8,1.5-1.4,2.1c-0.6,0.6-1.4,0.9-2.3,0.9h-0.3v3.2h10.5v-3.2h-0.8c-0.7,0-1.1-0.4-1.4-1.1c-0.2-0.7-0.2-1.5,0-2.3
		l3.1-12.7h19.9l3.2,13c0.2,0.8,0.1,1.5-0.2,2.1C207.1,220.6,206.5,220.9,205.6,220.9z M185.4,200.4l9.1-36.2l8.8,36.2H185.4z"/>
	<path d="M231.5,220.2c-0.9,1-1.8,1.5-2.9,1.5v2.5h12.2v-2.5c-1.1,0-2-0.5-2.9-1.5c-0.9-1-1.3-2.1-1.3-3.3v-57.6
		c3.7,10.9,7.3,21.7,10.9,32.4c3.6,10.7,7.2,21.5,10.7,32.5h8.3v-69.1c0-1.3,0.5-2.3,1.4-3.2c0.9-0.8,1.9-1.2,2.9-1.2v-3.1h-12.1
		v3.1c1.2,0,2.2,0.4,3,1.3c0.8,0.9,1.2,1.9,1.2,3.1v57.3l-21.4-64.9h-12.8v3.1c1.1,0,2.1,0.4,3,1.3c0.8,0.9,1.3,1.9,1.3,3.1V217
		C232.8,218.2,232.4,219.3,231.5,220.2z"/>
	<path d="M280.4,220.9v3.2h21.5c2.1,0,4.2-0.4,6.1-1.3c2-0.9,3.7-2.1,5.3-3.7c1.5-1.6,2.8-3.6,3.7-5.9c0.9-2.3,1.4-4.8,1.4-7.6
		v-39.3c0-2.4-0.4-4.8-1.3-7.1c-0.9-2.3-2.1-4.3-3.6-6c-1.5-1.7-3.3-3.1-5.3-4.1c-2-1-4.1-1.6-6.3-1.6h-21.5v3.2
		c1.1,0,2.1,0.4,2.9,1.2c0.8,0.8,1.2,1.8,1.2,3.1V217C284.4,219.6,283.1,220.9,280.4,220.9z M292.5,151.9h9.4c1.2,0,2.3,0.3,3.3,0.9
		c1,0.6,1.9,1.3,2.6,2.3c0.7,0.9,1.3,2,1.7,3.2c0.4,1.2,0.6,2.4,0.6,3.7v48c0,1.1-0.2,2.3-0.6,3.5c-0.4,1.2-1,2.3-1.6,3.3
		c-0.7,1-1.5,1.8-2.4,2.4c-0.9,0.6-1.9,0.9-3,0.9h-9.9V151.9z"/>
	<path d="M331.4,219.9c-0.9,0.6-1.9,0.9-3,0.9v3.3h38.7v-8.8h-2.9c0,1.3-0.4,2.4-1.1,3.3c-0.8,0.9-1.7,1.3-2.7,1.3h-16.2
		c-1.3,0-2.2-0.5-2.8-1.5c-0.6-1-0.9-2-0.9-3.2v-29.5h17.2c1.2,0.1,1.7,3.6,1.7,4.5h1.2v-5.9v-0.6v0v-0.7v-5.8h-1.2
		c0,0.9-0.5,4.5-1.7,4.5l-17.2,0v-30h19.9c1.3,0,2.2,0.5,2.9,1.5c0.7,1,1,2,1,3.2h2.9v-8.8h-38.7v3.2c1.3,0,2.4,0.4,3.1,1.1
		c0.8,0.7,1.2,1.8,1.2,3.2V217C332.7,218.3,332.3,219.3,331.4,219.9z"/>
	<rect x="14.5" y="228.8" width="371.1" height="2.9"/>
	<rect x="14.5" y="138.1" width="371.1" height="2.9"/>
</g>
</svg>
