<?xml version="1.0" encoding="utf-8"?>
<!-- Generator: Adobe Illustrator 25.0.1, SVG Export Plug-In . SVG Version: 6.00 Build 0)  -->
<svg version="1.1" id="Layer_1" xmlns="http://www.w3.org/2000/svg" xmlns:xlink="http://www.w3.org/1999/xlink" x="0px" y="0px"
	 viewBox="0 0 400 400" style="enable-background:new 0 0 400 400;" xml:space="preserve">
<g>
	<path d="M206.1,149.5c-7.4-17.3-19.7-29.5-37.4-36.1c-10.4-3.9-21.3-5.5-32.4-5.9c-9.6-0.3-19.1,0.2-28.6,1.4
		c-11.8,1.5-23.4,4-34.7,8C61.7,121,51,126.4,41.5,134c-12.9,10.2-22,23.1-26.8,38.9c-2.1,6.9-3.2,14-3.7,21.1
		c0,0.3,0.1,0.6-0.2,0.8c0,3.5,0,7,0,10.5c0.4,0.2,0.2,0.5,0.2,0.8c0.6,9.2,2.3,18.2,5.7,26.8c5.5,13.9,14.5,25.2,26.4,34.2
		c11.5,8.7,24.3,14.5,38.1,18.5c12,3.5,24.3,5.5,36.8,6.3c3.1,0.2,6.2,0.3,9.3,0.5c3.8,0,7.5,0,11.3,0c0.9-0.4,1.8-0.3,2.8-0.3
		c8.7-0.6,17.2-2.1,25.4-4.9c11.1-3.8,20.7-9.9,28.4-18.8c8-9.3,12.7-20.1,15.7-31.8c2.6-10,3.7-20.1,4-30.4
		c0.3-9.9,0-19.7-1.4-29.5C212.1,167.4,209.9,158.3,206.1,149.5z M62.3,192.8c-0.2-0.3-0.3-0.5-0.5-0.8c-0.1,0-0.1,0-0.2,0
		c0,0.3,0,0.7,0,1c0,7.7,0,15.5,0,23.2c0,0.8-0.2,1-1,1c-5.4,0-10.8,0-16.2,0c-0.8,0-1-0.2-1-1c0-16.1,0-32.1,0-48.2
		c0-0.8,0.2-1,1-1c5.9,0,11.8,0,17.7,0c0.7,0,1,0.3,1.3,0.8c2.6,4.9,5.2,9.7,7.8,14.6c0.1,0.3,0.2,0.6,0.6,0.8
		c0.7-1.3,1.5-2.7,2.2-4c2.1-3.8,4.2-7.7,6.2-11.5c0.3-0.5,0.6-0.7,1.2-0.7c5.9,0,11.9,0,17.8,0c0.7,0,0.9,0.2,0.9,0.9
		c0,16.1,0,32.3,0,48.4c0,0.7-0.2,0.9-0.9,0.9c-5.4,0-10.8,0-16.3,0c-0.8,0-0.9-0.3-0.9-1c0-7.7,0-15.5,0-23.2c0-0.3,0-0.7,0-1
		c-0.4,0-0.4,0.3-0.5,0.5c-3,4.8-6,9.5-9,14.3c-0.7,1.1-0.8,1.1-1.5,0C68.2,202.2,65.2,197.5,62.3,192.8z M77.9,233
		c0,0.4,0.1,0.8-0.6,0.8c-0.6,0-0.6-0.4-0.6-0.8c0-1.7,0-3.4,0-5.1c-0.1,0-0.1,0-0.2,0c-0.4,0.6-0.8,1.3-1.3,1.9
		c-0.5,0.7-0.8,0.7-1.3,0c-0.4-0.6-0.8-1.2-1.5-1.8c0,1.7,0,3.4,0,5.1c0,0.3,0.1,0.7-0.4,0.7c-0.4,0-0.7,0-0.7-0.6
		c0-2.4,0-4.8,0-7.2c0-0.2,0-0.5,0.3-0.5c0.4,0,0.8-0.1,1.1,0.3c0.5,0.8,1,1.5,1.5,2.2c0.3,0.4,0.5,0.6,0.8,0c0.4-0.7,1-1.4,1.4-2.2
		c0.3-0.5,0.7-0.5,1.2-0.4c0.5,0.1,0.3,0.6,0.3,0.9C77.9,228.6,77.9,230.8,77.9,233z M86.5,231c0,1.8-1.1,2.8-2.9,2.9
		c-1.8,0-2.9-1.1-2.9-2.9c0-0.8,0-1.5,0-2.3c0-0.8,0-1.6,0-2.4c0-0.4-0.1-0.8,0.6-0.8c0.6,0,0.6,0.3,0.6,0.8c0,1.6,0,3.3,0,4.9
		c0,1.4,1.5,2.2,2.7,1.5c0.6-0.4,0.8-0.9,0.8-1.6c0-1.6,0-3.2,0-4.8c0-0.4,0-0.8,0.6-0.8c0.6,0,0.6,0.3,0.6,0.8
		C86.5,227.8,86.5,229.4,86.5,231z M95.8,233.1c0,0.5-0.1,0.8-0.6,0.7c-0.6,0-0.5-0.4-0.5-0.7c0-1.7,0-3.4,0-5.1c-0.1,0-0.2,0-0.2,0
		c-0.4,0.6-0.8,1.2-1.2,1.8c-0.6,0.8-0.9,0.8-1.4,0c-0.4-0.6-0.8-1.2-1.3-1.9c-0.3,0.8-0.1,1.4-0.1,2.1c0,1.1,0,2.2,0,3.2
		c0,0.4-0.1,0.7-0.6,0.7c-0.5,0-0.6-0.3-0.6-0.7c0-2.3,0-4.6,0-6.9c0-0.3-0.1-0.6,0.3-0.7c0.4-0.1,0.8-0.2,1.1,0.3
		c0.4,0.6,0.8,1.2,1.2,1.8c0.7,1.1,0.7,1.1,1.5,0c0.3-0.5,0.7-1,1-1.5c0.3-0.5,0.7-0.6,1.2-0.5c0.6,0.1,0.3,0.6,0.3,0.9
		C95.8,228.6,95.8,230.9,95.8,233.1z M104.1,232.3c-0.4,1.1-1.4,1.4-2.4,1.4c-0.8,0-1.7,0-2.5,0c-0.5,0-0.6-0.2-0.6-0.6
		c0-2.3,0-4.7,0-7c0-0.5,0.2-0.7,0.7-0.7c0.9,0,1.7,0,2.6,0c1,0,1.8,0.3,2.2,1.4c0.4,1,0.1,1.8-0.9,2.6
		C104.2,230.4,104.5,231.3,104.1,232.3z M112.7,233.8c-0.3,0.1-0.9,0.2-1-0.2c-0.2-1.5-1.2-1.3-2.2-1.2c-0.3,0-0.6,0-0.9,0
		c-0.6-0.1-0.8,0.2-1,0.7c-0.1,0.3-0.1,0.8-0.6,0.8c-0.5,0-0.9,0.1-0.7-0.7c0.8-2.3,1.5-4.7,2.3-7c0.2-0.6,0.5-0.6,1-0.6
		c0.5,0,0.7,0.1,0.9,0.6c0.7,2.3,1.5,4.7,2.3,7C112.9,233.3,113.2,233.7,112.7,233.8z M116.5,229.6c0,1.2,0,2.4,0,3.6
		c0,0.4,0,0.6-0.5,0.6c-0.5,0-0.6-0.2-0.6-0.6c0-2.4,0-4.7,0-7.1c0-0.4,0.2-0.6,0.6-0.6c0.4,0,0.6,0.2,0.6,0.6
		C116.5,227.2,116.5,228.4,116.5,229.6z M128.3,232c-0.3,1.2-1.5,2-3,1.9c-1.5-0.1-2.5-1-2.6-2.4c-0.1-0.6,0-1.3,0-1.9c0,0,0,0,0,0
		c0-0.7-0.1-1.4,0-2.1c0.2-1.3,1.3-2.1,2.8-2.1c1.5,0,2.6,0.8,2.8,2c0.1,0.3,0.2,0.7-0.3,0.8c-0.4,0.1-0.7,0-0.8-0.5
		c-0.3-1-1-1.4-2-1.3c-0.9,0.1-1.4,0.7-1.4,1.8c0,1,0,2,0,3c0,1,0.5,1.6,1.5,1.7c0.9,0.1,1.7-0.3,1.9-1.2c0.1-0.6,0.5-0.7,0.9-0.5
		C128.7,231.2,128.4,231.7,128.3,232z M132.1,233.2c0,0.4-0.1,0.6-0.6,0.6c-0.5,0-0.6-0.2-0.6-0.7c0-1.2,0-2.4,0-3.6
		c0-1.1,0-2.3,0-3.4c0-0.4,0-0.7,0.6-0.7c0.5,0,0.6,0.2,0.6,0.6C132.1,228.5,132.1,230.8,132.1,233.2z M139.9,226.5
		c-0.6,0-1.4-0.3-1.8,0.2c-0.4,0.5-0.1,1.3-0.1,2c0,1.5,0,3,0,4.4c0,0.5-0.1,0.8-0.6,0.7c-0.6,0-0.6-0.3-0.6-0.7c0-1,0-2,0-3
		c0-1,0-1.9,0-2.9c0-0.5-0.2-0.7-0.7-0.7c-0.3,0-0.7,0-1,0c-0.4,0-0.7,0-0.6-0.5c0-0.4,0.2-0.5,0.6-0.5c1.6,0,3.2,0,4.8,0
		c0.4,0,0.6,0.1,0.6,0.5C140.5,226.4,140.3,226.5,139.9,226.5z M148.4,226.3c-0.2,0.5-0.5,1-0.8,1.5c-1.1,1.6-1.6,3.3-1.3,5.2
		c0.1,0.4,0.1,0.9-0.6,0.9c-0.6,0-0.6-0.4-0.6-0.8c0.3-2-0.4-3.7-1.4-5.4c-0.4-0.6-0.7-1.3-1.1-2c0.9-0.3,1.3-0.1,1.7,0.7
		c0.4,0.9,0.9,1.7,1.3,2.6c0.4-0.2,0.5-0.6,0.6-0.9c0.4-0.7,0.8-1.5,1.2-2.2c0.3-0.5,0.8-0.4,1.1-0.3
		C148.9,225.7,148.5,226.1,148.4,226.3z M125.6,196.9c1.6,3.9,4.8,5.6,8.7,6.2c4.1,0.6,8,0.1,11.9-1.3c0.7-0.2,0.9-0.2,1.1,0.6
		c1,3.9,2.1,7.8,3.2,11.7c0.2,0.7,0,1-0.7,1.2c-5.6,1.7-11.2,2.8-16.7,2.8c-6.6,0-12.6-1.2-17.8-4.8c-5.6-3.8-8.8-9.2-9.9-15.8
		c-1.1-6.3-0.6-12.5,2.4-18.2c3.7-7.1,9.8-11,17.5-12.5c6.4-1.3,12.7-0.7,19,0.7c1.9,0.4,3.7,0.9,5.5,1.5c0.6,0.2,0.8,0.5,0.6,1.1
		c-1.1,4-2.2,8.1-3.3,12.1c-0.2,0.6-0.5,0.5-0.9,0.4c-3-1.1-6.1-1.6-9.2-1.6c-3.1,0-6.1,0.6-8.6,2.6c-2.2,1.7-3.3,3.9-3.7,6.6
		C124.5,192.4,124.7,194.7,125.6,196.9z M160.2,231.2c0,1.5-0.8,2.4-2.3,2.6c-0.9,0.1-1.9,0-2.9,0c-0.6,0-0.6-0.3-0.6-0.7
		c0,0,0-0.1,0-0.1c0-1.1,0-2.3,0-3.4c0-1.1,0-2.3,0-3.4c0-0.5,0.2-0.7,0.7-0.7c0.9,0,1.8,0,2.7,0c1.5,0.1,2.4,1,2.4,2.5
		C160.2,229.1,160.2,230.1,160.2,231.2z M163.3,233.8c-0.5,0-0.6-0.2-0.6-0.6c0-2.4,0-4.7,0-7.1c0-0.5,0.1-0.6,0.6-0.6
		c0.6,0,0.6,0.3,0.6,0.7c0,1.2,0,2.3,0,3.5c0,1.2,0,2.3,0,3.5C164,233.6,163.8,233.8,163.3,233.8z M172.2,232.2
		c-0.2,0.7-0.6,1.1-1.2,1.4c-0.5,0.2-1,0.3-1.5,0.3c-1.6,0-2.7-0.6-2.9-1.7c-0.1-0.3-0.3-0.8,0.2-1c0.5-0.2,0.8,0,0.9,0.7
		c0.1,0.7,0.7,1,1.4,1.1c0.7,0.1,1.4,0.1,1.9-0.5c0.5-0.5,0.3-1.3-0.4-1.7c-0.8-0.4-1.7-0.7-2.5-1.1c-1.1-0.5-1.5-1.2-1.3-2.3
		c0-0.2,0-0.3,0.1-0.4c0.4-1,1.6-1.6,3-1.4c1.4,0.1,2.3,0.9,2.4,2c0,0.3,0.2,0.7-0.3,0.7c-0.4,0-0.7,0.1-0.9-0.5
		c-0.3-1.1-1.9-1.6-2.9-0.9c-0.7,0.5-0.6,1.4,0.3,1.9c0.9,0.4,1.8,0.8,2.7,1.2C172.1,230.3,172.4,231.2,172.2,232.2z M179.8,226.5
		c-0.1,0-0.2,0-0.3,0c-1.7,0.1-1.7,0.1-1.7,1.7c0,1.6,0,3.3,0,4.9c0,0.4,0,0.7-0.6,0.7c-0.6,0-0.7-0.3-0.6-0.7c0-1,0-2,0-3
		c0-1,0-2,0-3c0-0.5-0.2-0.7-0.7-0.7c-0.4,0-0.7,0-1.1,0c-0.4,0-0.6-0.1-0.6-0.5c0-0.3,0.1-0.5,0.5-0.5c1.7,0,3.3,0,5,0
		c0.3,0,0.5,0.1,0.5,0.5C180.2,226.3,180.1,226.5,179.8,226.5z M188.2,233.7c-0.3,0.1-0.9,0.2-1.1-0.3c-0.4-0.8-0.8-1.7-1.2-2.5
		c-0.3-0.7-1.2-1-1.9-0.8c-0.3,0.1-0.2,0.4-0.2,0.6c0,0.8,0,1.6,0,2.4c0,0.5-0.1,0.7-0.6,0.7c-0.5,0-0.5-0.3-0.5-0.6
		c0-1.2,0-2.4,0-3.6c0-1.1,0-2.3,0-3.4c0-0.5,0.1-0.7,0.7-0.7c0.9,0,1.8,0,2.8,0c1.1,0,1.9,0.6,2.2,1.6c0.3,1.1,0,2.1-1,2.7
		c-0.5,0.3-0.4,0.5-0.2,0.9c0.4,0.8,0.8,1.5,1.1,2.3C188.2,233.2,188.6,233.6,188.2,233.7z M191.4,233.8c-0.5,0-0.6-0.2-0.6-0.6
		c0-2.4,0-4.7,0-7.1c0-0.5,0.2-0.6,0.6-0.6c0.6,0,0.6,0.3,0.6,0.7c0,1.2,0,2.3,0,3.5c0,1.2,0,2.3,0,3.5
		C192,233.6,191.9,233.8,191.4,233.8z M195.8,231.3c0,0.9,0.6,1.5,1.5,1.6c0.9,0.1,1.7-0.3,1.9-1.1c0.1-0.6,0.4-0.8,0.9-0.6
		c0.6,0.2,0.3,0.7,0.2,1c-0.4,1.2-1.5,1.9-3,1.8c-1.5-0.1-2.5-0.9-2.6-2.2c-0.1-0.7,0-1.3,0-2c0-0.7-0.1-1.4,0-2
		c0.1-1.3,1.2-2.1,2.6-2.2c1.5-0.1,2.7,0.6,3.1,1.8c0.1,0.3,0.4,0.8-0.2,1c-0.5,0.1-0.8,0-0.9-0.6c-0.2-0.9-0.9-1.3-1.9-1.2
		c-0.9,0.1-1.4,0.7-1.4,1.6C195.8,229.1,195.8,230.2,195.8,231.3z M195,214.2c-4.9,2.3-10.2,3.3-15.5,3.7c-7.4,0.5-14.8,0-22.2-0.7
		c-0.7-0.1-0.7-0.4-0.7-1c0-5,0-10,0-15c0-3,0-6,0-9c0-7.9,0-15.9,0-23.8c0-0.8,0.2-1,1-1.1c4.6-0.6,9.2-0.9,13.8-1.1
		c4.7-0.2,9.4-0.1,14.1,0.8c5.7,1.1,11,3.2,15.3,7.2c4,3.6,6.4,8.2,7.2,13.5c0.8,5.3,0.5,10.5-1.7,15.5
		C204,208.3,200.1,211.8,195,214.2z M207.9,226.5c-0.6,0-1.4-0.3-1.8,0.1c-0.4,0.5-0.1,1.3-0.1,2c0,1.5,0,3,0,4.5
		c0,0.5-0.1,0.7-0.6,0.7c-0.5,0-0.5-0.3-0.5-0.6c0-1,0-2,0-3c0-1,0-1.9,0-2.9c0-0.6-0.2-0.8-0.8-0.8c-0.4,0-0.7,0-1.1,0
		c-0.4,0-0.5-0.2-0.5-0.5c0-0.4,0.2-0.5,0.5-0.5c1.7,0,3.3,0,5,0c0.4,0,0.5,0.2,0.5,0.5C208.5,226.4,208.3,226.5,207.9,226.5z"/>
	<path d="M363.3,217.2c-0.3-0.3-0.5-0.4-0.6-0.5c-11-8-11.5-23.1-0.8-31.6c0.5-0.4,0.4-0.7,0.3-1.2c-1.9-5.4-3.8-10.7-5.6-16.1
		c-0.2-0.6-0.5-0.8-1.1-0.8c-7.1,0-14.3,0-21.4,0c-0.6,0-0.9,0.2-1.1,0.8c-5,14.5-10.1,28.9-15.1,43.4c-0.7,2-1.4,3.9-2.1,5.9
		c0.2,0,0.3,0.1,0.4,0.1c6.2,0,12.3,0,18.5,0c0.5,0,0.7-0.2,0.8-0.7c0.6-2.3,1.2-4.6,1.8-7c0.1-0.4,0.2-0.8,0.8-0.8
		c4.5,0,9.1,0,13.6,0c0.5,0,0.7,0.2,0.8,0.6c0.6,2.4,1.3,4.7,1.9,7.1c0.1,0.4,0.3,0.6,0.7,0.6C357.6,217.2,360.3,217.2,363.3,217.2z
		 M342.3,197.1c-1.9,0-1.9,0-1.4-1.8c1.2-4.2,2.3-8.3,3.4-12.5c0.1-0.2,0.1-0.4,0.3-0.9c1.4,5.2,2.8,10.2,4.2,15.2
		C346.6,197.1,344.5,197.1,342.3,197.1z"/>
	<path d="M318.3,180.5c0-4.2,0-8.3,0-12.5c0-0.8-0.3-1-1-1c-7.6,0-15.3,0-22.9,0c-7.7,0-15.3,0-23,0c-0.7,0-0.9,0.2-0.9,0.9
		c0,4.2,0,8.4,0,12.6c0,0.7,0.2,0.9,0.9,0.9c4.1,0,8.2,0,12.3,0c0.9,0,1.1,0.2,1.1,1.1c0,11.3,0,22.5,0,33.8c0,0.8,0.2,1,1,1
		c5.8,0,11.6,0,17.4,0c0.8,0,1.1-0.2,1.1-1.1c0-11.3,0-22.5,0-33.8c0-0.8,0.2-1,1-1c4.1,0,8.3,0,12.4,0
		C318.1,181.4,318.3,181.2,318.3,180.5z"/>
	<path d="M251.5,216.1c0-11.3,0-22.5,0-33.8c0-0.8,0.2-1,1-1c4.1,0,8.1,0,12.2,0c0.8,0,1.1-0.2,1.1-1c-0.1-4.1,0-8.1,0-12.2
		c0-0.9-0.2-1.1-1.1-1.1c-7.6,0-15.3,0-22.9,0s-15.3,0-22.9,0c-0.7,0-1,0.1-1,0.9c0,4.2,0,8.4,0,12.6c0,0.7,0.2,0.8,0.8,0.8
		c4.1,0,8.2,0,12.3,0c0.9,0,1.2,0.2,1.2,1.2c0,11.2,0,22.5,0,33.7c0,0.8,0.2,1,1,1c5.8,0,11.5,0,17.3,0
		C251.3,217.2,251.5,217,251.5,216.1z"/>
	<path d="M389.2,200.7c0-8.6-6.9-15.5-15.4-15.5c-8.6,0-15.5,6.9-15.5,15.4c0,8.6,6.9,15.5,15.5,15.5
		C382.3,216.1,389.2,209.2,389.2,200.7z"/>
	<path d="M283.2,226.1c0-0.4,0-0.7-0.6-0.7c-0.5,0-0.6,0.2-0.6,0.7c0,0.5,0,1,0,1.6c0,1.2,0,2.4,0,3.8c-0.3-0.4-0.4-0.5-0.5-0.7
		c-1-1.6-2-3.2-3-4.9c-0.3-0.5-0.7-0.5-1.1-0.4c-0.5,0.1-0.3,0.5-0.3,0.8c0,2.2,0,4.4,0,6.6c0,0.4-0.1,0.9,0.6,0.9
		c0.7,0,0.6-0.5,0.6-0.9c0-1.6,0-3.2,0-4.8c0.1,0,0.2,0,0.2-0.1c0.2,0.3,0.4,0.6,0.6,0.9c0.9,1.4,1.8,2.8,2.6,4.3
		c0.3,0.5,0.6,0.7,1.1,0.6c0.6-0.1,0.3-0.6,0.3-0.9C283.2,230.6,283.2,228.4,283.2,226.1z"/>
	<path d="M389.2,226.1c0-0.5-0.2-0.6-0.7-0.6c-0.6,0-0.5,0.3-0.5,0.7c0,1.7,0,3.3,0,5.1c-0.4-0.2-0.5-0.5-0.6-0.7
		c-1-1.5-1.9-3.1-2.8-4.6c-0.3-0.5-0.7-0.5-1.1-0.4c-0.5,0.1-0.3,0.5-0.3,0.8c0,2.2,0,4.5,0,6.7c0,0.4-0.1,0.8,0.6,0.8
		c0.7,0,0.6-0.4,0.6-0.9c0-1.2,0-2.5,0-3.7c0-0.4,0-0.9,0-1.3c0.3,0.2,0.5,0.5,0.7,0.7c0.9,1.5,1.9,3.1,2.8,4.6
		c0.3,0.4,0.6,0.5,1,0.4c0.5,0,0.4-0.4,0.4-0.7C389.2,230.8,389.2,228.4,389.2,226.1z"/>
	<path d="M292.1,226.1c0-0.4-0.1-0.6-0.6-0.6c-0.4,0-0.6,0.1-0.6,0.6c0,1.4,0,2.8,0,4.2c0,0.3,0.1,0.6-0.2,0.8
		c-0.3-0.1-0.4-0.3-0.5-0.5c-1-1.5-1.9-3.1-2.8-4.6c-0.3-0.5-0.7-0.5-1.1-0.4c-0.5,0.1-0.3,0.5-0.3,0.8c0,2.2,0,4.4,0,6.6
		c0,0.4-0.1,0.9,0.6,0.9c0.7,0,0.6-0.5,0.6-0.9c0-1.6,0-3.2,0-4.8c0.1,0,0.2,0,0.2-0.1c0.2,0.4,0.5,0.7,0.7,1.1
		c0.9,1.4,1.7,2.8,2.6,4.3c0.3,0.4,0.6,0.5,1,0.4c0.5-0.1,0.3-0.5,0.3-0.8C292.1,230.7,292.1,228.4,292.1,226.1z"/>
	<path d="M238.5,229.5c0.9-0.9,1.2-1.7,0.8-2.7c-0.4-1.1-1.4-1.3-2.4-1.3c-0.8,0-1.6,0-2.4,0c-0.5,0-0.7,0.1-0.7,0.6
		c0,2.4,0,4.7,0,7.1c0,0.5,0.2,0.6,0.7,0.6c0.8,0,1.5,0,2.3,0c1.1,0,2.1-0.3,2.6-1.4C239.8,231.3,239.5,230.4,238.5,229.5z
		 M235.1,226.6c0-0.2,0.2-0.1,0.4-0.1c0.5,0,1,0,1.6,0c0.8,0.1,1.3,0.5,1.2,1.3c0,0.8-0.6,1.2-1.3,1.2c-0.2,0-0.5,0-0.8,0
		c-0.3-0.1-0.9,0.3-1-0.2C234.9,228.1,234.9,227.3,235.1,226.6z M237.5,232.7c-0.7,0.1-1.4,0.1-2.1,0.1c-0.3,0-0.3-0.2-0.3-0.4
		c0-0.3,0-0.6,0-1c0.2-0.3-0.3-1,0.3-1.2c0.8-0.3,2.5,0,2.8,0.6C238.6,231.4,238.3,232.5,237.5,232.7z"/>
	<path d="M340.6,229.6c0-0.6,0-1.1,0-1.7c-0.1-1.5-1.2-2.6-2.8-2.6c-1.7-0.1-2.9,0.9-3,2.5c-0.1,1.2-0.1,2.3,0,3.5
		c0.1,1.6,1.3,2.6,3,2.6c1.7-0.1,2.8-1.1,2.8-2.8C340.6,230.6,340.6,230.1,340.6,229.6C340.6,229.6,340.6,229.6,340.6,229.6z
		 M339.4,231.2c0,1-0.8,1.7-1.8,1.6c-1,0-1.6-0.7-1.7-1.7c0-0.5,0-1,0-1.6c0-0.5,0-1,0-1.5c0-1,0.7-1.7,1.7-1.7c1,0,1.8,0.6,1.9,1.6
		C339.4,229.1,339.4,230.2,339.4,231.2z"/>
	<path d="M377.4,225.4c-1.6,0.1-2.7,1.1-2.8,2.7c0,0.5,0,1,0,1.5c0,0.5,0,1,0,1.5c0,1.7,1.1,2.7,2.8,2.8c1.7,0.1,2.9-0.9,3.1-2.5
		c0.1-1.2,0.1-2.3,0-3.5C380.4,226.3,379.1,225.3,377.4,225.4z M379.3,231.2c0,1-0.7,1.6-1.6,1.7c-1,0.1-1.8-0.5-1.8-1.4
		c-0.1-1.2-0.1-2.4,0-3.6c0.1-1,0.9-1.5,1.9-1.5c0.9,0.1,1.6,0.7,1.6,1.7c0,0.5,0,1,0,1.6C379.3,230.2,379.4,230.7,379.3,231.2z"/>
	<path d="M331.2,229.8c-0.9-0.5-1.8-0.8-2.7-1.2c-0.8-0.4-1-1.4-0.3-1.9c0.9-0.7,2.6-0.2,2.9,0.9c0.1,0.6,0.5,0.5,0.9,0.5
		c0.6-0.1,0.3-0.5,0.3-0.8c-0.2-1.1-1.1-1.8-2.4-1.9c-1.4-0.2-2.6,0.3-3,1.3c-0.4,1-0.1,2.1,0.9,2.6c0.6,0.3,1.2,0.6,1.8,0.8
		c0.4,0.2,0.9,0.4,1.2,0.6c0.6,0.4,0.6,1.2,0.1,1.6c-0.6,0.5-1.3,0.5-2,0.4c-0.6-0.1-1.1-0.5-1.2-1.1c0-0.6-0.3-0.6-0.8-0.6
		c-0.6,0.1-0.4,0.6-0.4,0.9c0.2,1.2,1.3,1.9,2.9,1.9c0.6,0,1.1,0,1.6-0.3c0.6-0.3,1-0.7,1.2-1.3
		C332.6,231.3,332.2,230.3,331.2,229.8z"/>
	<path d="M323.4,230c-0.4-0.3-0.9-0.5-1.3-0.7c-0.6-0.3-1.3-0.5-1.9-0.8c-0.8-0.5-0.8-1.5,0-1.9c1.1-0.6,2.4-0.1,2.7,1.1
		c0.2,0.6,0.5,0.4,0.9,0.4c0.4,0,0.3-0.4,0.3-0.6c-0.1-1.2-1.1-2-2.6-2.1c-1.5-0.1-2.7,0.6-2.9,1.7c-0.2,1,0.1,1.8,1,2.3
		c0.6,0.3,1.2,0.5,1.8,0.8c0.4,0.2,0.9,0.4,1.2,0.6c0.6,0.4,0.6,1,0.2,1.5c-0.5,0.6-1.2,0.6-1.9,0.5c-0.6-0.1-1.3-0.4-1.4-1.1
		c-0.1-0.6-0.4-0.8-0.9-0.7c-0.6,0.2-0.3,0.7-0.2,1c0.3,1.1,1.3,1.8,2.9,1.8c0.6,0,1.2-0.1,1.8-0.4C324.5,232.7,324.6,231,323.4,230
		z"/>
	<path d="M303.1,229.7c-0.8-0.4-1.8-0.7-2.6-1.2c-0.8-0.4-0.9-1.3-0.3-1.8c0.9-0.7,2.7-0.3,2.9,0.8c0.1,0.6,0.5,0.6,0.9,0.6
		c0.5-0.1,0.3-0.6,0.2-0.9c-0.2-1-1.1-1.6-2.4-1.8c-1.4-0.1-2.5,0.3-2.9,1.3c-0.4,1-0.1,2.1,0.8,2.7c0.5,0.3,1,0.5,1.5,0.7
		c0.5,0.2,1.1,0.5,1.6,0.8c0.7,0.4,0.7,1.2,0.1,1.7c-1,0.8-2.8,0.3-3.1-0.9c-0.1-0.3-0.1-0.5-0.4-0.5c-0.5,0-0.8,0-0.7,0.6
		c0,1.3,1.2,2.2,2.9,2.2c0.5,0,1,0,1.5-0.2c0.7-0.3,1.2-0.8,1.3-1.5C304.5,231.1,304.2,230.2,303.1,229.7z"/>
	<path d="M271,226.5c1,0,2,0,3,0c0.4,0,0.7,0,0.7-0.5c0-0.5-0.3-0.5-0.7-0.5c-1.4,0-2.8,0-4.3,0c-0.5,0-0.6,0.2-0.6,0.6
		c0,1.2,0,2.3,0,3.5c0,1.2,0,2.3,0,3.5c0,0.4,0,0.7,0.5,0.7c1.5,0,3,0,4.5,0c0.3,0,0.5-0.1,0.5-0.5c0-0.4-0.1-0.6-0.5-0.6
		c-0.6,0-1.3,0-1.9,0c-1.9,0-1.9,0-1.9-2c0-0.1,0-0.1,0-0.2c0-0.4,0.2-0.5,0.6-0.5c0.6,0,1.3,0,1.9,0c0.4,0,0.5-0.1,0.5-0.5
		c0-0.4-0.2-0.5-0.6-0.5c-0.2,0-0.4,0-0.6,0c-2,0-1.9,0-1.8-2C270.4,226.6,270.6,226.4,271,226.5z"/>
	<path d="M314,226.1c-0.2-0.6-0.5-0.6-1-0.6c-0.5,0-0.8,0.1-0.9,0.7c-0.7,2.3-1.5,4.6-2.2,6.9c-0.1,0.2-0.4,0.6,0.1,0.7
		c0.4,0.1,0.8,0.2,1-0.4c0-0.1,0.1-0.2,0.1-0.4c0.1-0.6,0.4-0.8,1-0.8c0.3,0,0.6,0,0.9,0c0.9,0,1.9-0.3,2.1,1.2
		c0.1,0.5,0.7,0.4,1,0.3c0.4-0.1,0.1-0.5,0.1-0.7C315.5,230.7,314.7,228.4,314,226.1z M313.8,231.4c-2.2,0.1-2.2,0.1-1.6-2
		c0.2-0.8,0.5-1.5,0.8-2.5c0.5,1.5,0.8,2.7,1.2,3.9C314.5,231.3,314.3,231.3,313.8,231.4z"/>
	<path d="M229.1,226.2c-0.2-0.5-0.4-0.8-0.9-0.7c-0.5,0-0.8,0-0.9,0.5c-0.7,2.4-1.5,4.8-2.3,7.2c-0.2,0.5,0,0.6,0.4,0.6
		c0.5,0,0.8-0.2,0.8-0.7c0.1-0.7,0.5-1,1.2-0.9c0.4,0.1,0.7,0,1.1,0c0.9-0.1,1.6,0,1.7,1.1c0.1,0.6,0.7,0.5,1,0.4
		c0.5-0.1,0.1-0.5,0.1-0.7C230.5,230.7,229.8,228.5,229.1,226.2z M229,231.3C229,231.3,228.9,231.3,229,231.3
		c-2.4,0.2-2.4,0.2-1.7-2c0.2-0.7,0.5-1.5,0.7-2.2c0.1,0,0.1,0,0.2,0c0.4,1.2,0.8,2.4,1.2,3.7C229.5,231.2,229.4,231.4,229,231.3z"
		/>
	<path d="M359.2,226.1c-0.2-0.5-0.4-0.7-0.9-0.6c-0.4,0-0.8,0-0.9,0.5c-0.7,2.4-1.5,4.8-2.3,7.2c-0.2,0.6,0.1,0.6,0.5,0.6
		c0.5,0,0.7-0.2,0.7-0.6c0.1-0.7,0.5-1,1.2-0.9c0.4,0.1,0.8,0,1.2,0c0.8-0.1,1.5,0,1.6,1.1c0.1,0.6,0.7,0.5,1,0.4
		c0.6-0.1,0.2-0.5,0.1-0.7C360.7,230.7,359.9,228.4,359.2,226.1z M359.1,231.4c-2.3,0.2-2.3,0.2-1.6-2c0.2-0.7,0.5-1.5,0.8-2.5
		c0.5,1.5,0.9,2.8,1.3,4C359.6,231.3,359.4,231.3,359.1,231.4z"/>
	<path d="M251.8,226.5c1,0,2,0,3,0c0.4,0,0.7,0,0.7-0.5c0-0.5-0.3-0.5-0.6-0.5c-1.4,0-2.9,0-4.3,0c-0.5,0-0.6,0.2-0.6,0.7
		c0,1.1,0,2.3,0,3.4c0,1.2,0,2.4,0,3.6c0,0.5,0.1,0.7,0.6,0.6c1.4,0,2.9,0,4.3,0c0.4,0,0.6-0.1,0.6-0.5c0-0.4-0.2-0.5-0.6-0.5
		c-0.6,0-1.3,0-1.9,0c-1.9,0-1.9,0-1.9-1.9c0-0.1,0-0.1,0-0.2c0-0.4,0.2-0.5,0.5-0.5c0.7,0,1.4,0,2,0c0.4,0,0.5-0.2,0.5-0.5
		c0-0.3-0.1-0.6-0.5-0.5c-0.2,0-0.5,0-0.7,0c-2,0-1.9,0-1.9-2C251.1,226.5,251.3,226.4,251.8,226.5z"/>
	<path d="M345.6,226.4c1-0.1,1.7,0.3,1.9,1.2c0.1,0.6,0.4,0.7,0.9,0.6c0.7-0.1,0.3-0.6,0.3-0.9c-0.3-1.2-1.5-1.9-2.9-1.8
		c-1.5,0.1-2.5,0.9-2.7,2.2c-0.1,0.7,0,1.3,0,2c0,0,0,0,0,0c0,0.7-0.1,1.4,0,2.1c0.2,1.3,1.3,2.2,2.8,2.2c1.5,0,2.6-0.7,2.9-2
		c0.1-0.3,0.3-0.7-0.2-0.8c-0.4-0.1-0.8-0.1-0.9,0.5c-0.2,0.9-1,1.3-1.9,1.2c-0.9-0.1-1.5-0.7-1.5-1.6c0-1.1,0-2.2,0-3.3
		C344.2,227.1,344.8,226.5,345.6,226.4z"/>
	<path d="M223.4,225.5c-1.7,0-3.4,0-5.1,0c-0.4,0-0.5,0.2-0.5,0.5c0,0.3,0.1,0.5,0.5,0.5c0.4,0,0.8,0,1.2,0c0.5,0,0.7,0.2,0.7,0.7
		c0,1,0,1.9,0,2.9c0,1,0,2.1,0,3.1c0,0.5,0.1,0.7,0.6,0.7c0.5,0,0.5-0.3,0.5-0.6c0-1.6,0-3.2,0-4.8c0-1.8,0-1.8,1.8-1.9
		c0.1,0,0.2,0,0.3,0c0.3,0,0.4-0.2,0.4-0.5C223.8,225.7,223.8,225.5,223.4,225.5z"/>
	<path d="M246.8,232.8c-0.9,0-1.9,0-2.8,0c-0.6,0-0.8-0.2-0.8-0.8c0-2,0-3.9,0-5.9c0-0.4-0.1-0.6-0.6-0.6c-0.4,0-0.6,0.2-0.6,0.6
		c0,1.2,0,2.3,0,3.5c0,1.2,0,2.4,0,3.6c0,0.5,0.2,0.6,0.6,0.6c1.4,0,2.8,0,4.2,0c0.4,0,0.6-0.1,0.6-0.5
		C247.5,232.7,247.2,232.8,246.8,232.8z"/>
	<path d="M266.3,225.5c-1.7,0-3.3,0-5,0c-0.4,0-0.5,0.1-0.5,0.5c0,0.3,0.1,0.5,0.5,0.5c0.4,0,0.7,0,1.1,0c0.6-0.1,0.8,0.1,0.8,0.8
		c0,1,0,1.9,0,2.9c0,1,0,2,0,3c0,0.4-0.1,0.7,0.5,0.7c0.6,0,0.6-0.3,0.6-0.8c0-1.6,0-3.3,0-4.9c0-1.6,0-1.6,1.6-1.7
		c0.1,0,0.2,0,0.4,0c0.4,0,0.5-0.2,0.5-0.5C266.8,225.6,266.7,225.5,266.3,225.5z"/>
	<path d="M368,225.5c-1.6,0-3.3,0-4.9,0c-0.4,0-0.5,0.1-0.5,0.5c0,0.4,0.2,0.5,0.6,0.5c0.4,0,0.7,0,1.1,0c0.5,0,0.7,0.2,0.7,0.7
		c0,1,0,2,0,3c0,0.9,0,1.8,0,2.8c0,0.4-0.2,0.9,0.5,0.9c0.7,0,0.6-0.5,0.6-0.9c0-1.5,0-3,0-4.5c0-1.8,0-1.8,1.8-1.9c0,0,0.1,0,0.1,0
		c0.4,0,0.5-0.2,0.5-0.6C368.5,225.6,368.3,225.5,368,225.5z"/>
	<path d="M295.5,225.5c-0.5,0-0.6,0.2-0.6,0.7c0,1.2,0,2.3,0,3.5c0,1.2,0,2.3,0,3.5c0,0.4,0.1,0.7,0.6,0.7c0.5,0,0.6-0.2,0.6-0.7
		c0-2.3,0-4.7,0-7C296.1,225.7,296,225.5,295.5,225.5z"/>
	<path d="M371.4,225.5c-0.5,0-0.6,0.2-0.6,0.7c0,2.3,0,4.7,0,7c0,0.4,0.1,0.7,0.6,0.7c0.5,0,0.6-0.2,0.6-0.7c0-1.2,0-2.3,0-3.5
		c0-1.2,0-2.3,0-3.5C372.1,225.7,372,225.5,371.4,225.5z"/>
	<path d="M352.5,226.2c0-0.4,0-0.7-0.6-0.7c-0.5,0-0.6,0.3-0.6,0.7c0,1.1,0,2.3,0,3.4c0,1.2,0,2.3,0,3.5c0,0.4-0.1,0.7,0.5,0.7
		c0.6,0,0.6-0.3,0.6-0.7C352.5,230.8,352.5,228.5,352.5,226.2z"/>
	<path d="M181.9,180.3c-1.7-0.5-3.3-0.4-5-0.5c-0.8,0-1,0.3-1,1c0,3.7,0,7.4,0,11.1c0,3.7,0,7.3,0,11c0,0.8,0.3,1.1,1,1.1
		c1,0,2,0,2.9-0.1c3.7-0.5,6.4-2.4,7.8-5.9c1.4-3.4,1.5-7,0.7-10.6C187.5,183.9,185.4,181.4,181.9,180.3z"/>
	<path d="M100.1,230.1c-0.8,0.1-0.2,0.9-0.4,1.2c0,1.4,0,1.4,1.3,1.4c0.3,0,0.6,0,0.8,0c1-0.1,1.6-1.2,1-2
		C102.2,229.6,101.1,230,100.1,230.1z"/>
	<path d="M100.8,229c0.3,0,0.6,0,0.8,0c0.8,0,1.3-0.4,1.3-1.2c0-0.8-0.5-1.2-1.2-1.3c-0.5-0.1-1,0-1.6,0c-0.2,0-0.4,0-0.4,0.1
		c-0.2,0.7-0.2,1.5,0,2.2C99.9,229.3,100.5,228.9,100.8,229z"/>
	<path d="M157.5,226.5c-0.4,0-0.8,0-1.2,0c-0.5,0-0.6,0.2-0.6,0.6c0,0.8,0,1.7,0,2.5c0,0.5,0,1,0,1.6c0,1.7,0,1.7,1.7,1.6
		c1.1,0,1.6-0.5,1.6-1.6c0-1,0-2.1,0-3.1C159,227,158.5,226.5,157.5,226.5z"/>
	<path d="M187,227.2c-0.3-0.6-1.9-1-2.9-0.7c-0.7,0.2-0.1,0.9-0.3,1.2c0,0.4,0,0.7,0,1c0,0.4,0.2,0.5,0.5,0.5c0.6,0,1.1,0,1.7,0
		C187,229.1,187.5,228,187,227.2z"/>
	<path d="M109.7,227.2c-0.1,0-0.1,0-0.2,0c-0.2,0.7-0.5,1.4-0.7,2.2c-0.7,2.1-0.7,2.1,1.6,2c0.4,0,0.6-0.1,0.5-0.6
		C110.5,229.6,110.1,228.4,109.7,227.2z"/>
</g>
</svg>
