<?xml version="1.0" encoding="utf-8"?>
<!-- Generator: Adobe Illustrator 25.0.1, SVG Export Plug-In . SVG Version: 6.00 Build 0)  -->
<svg version="1.1" id="Layer_1" xmlns="http://www.w3.org/2000/svg" xmlns:xlink="http://www.w3.org/1999/xlink" x="0px" y="0px"
	 viewBox="0 0 400 400" style="enable-background:new 0 0 400 400;" xml:space="preserve">
<g>
	<path d="M74.6,171.8c-3.2-2.5-7-3.5-11.1-3.4c-4,0.1-7.5,1.5-10.4,4.3c-1.7,1.6-3,3.4-4.4,5.3c-0.1,0.1-0.2,0.3-0.4,0.4
		c-0.1-0.2-0.1-0.3-0.2-0.5c-3.6-8.1-11.9-10.7-18.9-8.9c-3.3,0.9-5.9,2.8-8.2,5.2c-0.6,0.6-1.2,1.3-1.8,2c0-0.3,0-0.5,0-0.7
		c0-2.2,0-4.5,0-6.7c0-0.6-0.2-0.6-0.7-0.6c-4.2,0.6-8.5,1.1-12.7,1.6c-0.5,0.1-0.7,0.2-0.7,0.8c0,16,0,32,0,48c0,0.1,0,0.2,0,0.3
		c0,0.3,0.1,0.4,0.4,0.4c4.5,0,9,0,13.5,0c0.4,0,0.4-0.1,0.4-0.5c-0.1-3-0.1-6.1-0.1-9.1c0-2.3-0.1-4.7-0.1-7c0-5.5,0-11,0.2-16.5
		c0.1-1.5,0.7-2.8,1.8-3.8c2.4-2.1,5.3-2.6,8.3-2c3.1,0.6,5,2.6,5.8,5.6c0.4,1.4,0.4,2.8,0.3,4.2c0,9.5,0,19,0,28.5
		c0,0.5,0.1,0.7,0.6,0.7c4.2,0,8.4,0,12.7,0c0.5,0,0.6-0.2,0.6-0.6c0-9.4,0-18.9,0-28.3c0-1.3,0.1-2.6,0.3-3.9
		c0.3-1.8,0.9-3.4,2.5-4.5c2.1-1.4,4.4-2,6.9-1.7c2.1,0.2,4,0.9,5.2,2.7c1,1.4,1.5,3,1.7,4.6c0.4,4.2,0.4,8.4,0.4,12.7
		c0,6.1-0.1,12.3-0.2,18.4c0,0.5,0.1,0.6,0.6,0.6c4.2,0,8.4,0,12.5,0c0.6,0,0.8-0.2,0.8-0.7c0-2.8,0.1-5.6,0.1-8.3
		c0-6.1,0-12.2,0-18.2c0-3.1,0-6.3-0.3-9.4C80.1,178.2,78.2,174.5,74.6,171.8z"/>
	<path d="M293.1,171.8c-2.8-2.2-6.1-3.2-9.7-3.4c-3.9-0.2-7.5,0.7-10.6,3.2c-1.8,1.4-3.2,3.1-4.6,4.9c-0.5,0.6-0.9,1.2-1.4,1.8
		c-0.1-0.3-0.2-0.4-0.3-0.6c-3.1-7-10.2-10.2-17.2-9.2c-3.6,0.5-6.5,2.3-9,4.8c-0.9,0.9-1.7,1.8-2.6,2.9c0-2.6,0-5,0-7.4
		c0-0.5-0.1-0.6-0.6-0.6c-4.3,0.6-8.5,1.1-12.8,1.6c-0.5,0.1-0.6,0.2-0.6,0.7c0,16,0,32,0,48.1c0,0.1,0,0.2,0,0.3
		c0,0.3,0.1,0.4,0.4,0.4c4.5,0,9.1,0,13.6,0c0.3,0,0.4-0.1,0.4-0.4c-0.1-3-0.1-6.1-0.1-9.1c0-2.5-0.1-5-0.1-7.5
		c0-5.4,0-10.7,0.2-16.1c0.1-1.5,0.6-2.8,1.8-3.8c2.5-2.2,5.3-2.7,8.5-2c2.9,0.6,4.8,2.4,5.7,5.2c0.4,1.4,0.5,2.8,0.5,4.3
		c0,9.6,0,19.3,0,28.9c0,0.5,0.2,0.5,0.6,0.5c4.2,0,8.4,0,12.6,0c0.6,0,0.7-0.1,0.7-0.7c0-9.4,0-18.8,0-28.2c0-1.3,0.1-2.6,0.3-3.9
		c0.3-1.5,0.7-3,1.9-4.1c2.4-2,5.2-2.6,8.2-2.1c1.8,0.3,3.4,1.1,4.5,2.7c0.9,1.4,1.5,2.9,1.7,4.6c0.4,3.8,0.4,7.5,0.4,11.3
		c0.1,6.5-0.1,13-0.2,19.6c0,1-0.1,0.8,0.8,0.8c4.1,0,8.3,0,12.4,0c0.5,0,0.6-0.2,0.7-0.7c0-2.7,0.1-5.5,0.1-8.2
		c0-6.2,0-12.4,0-18.6c0-3,0-6.1-0.3-9.1C298.5,178.3,296.6,174.6,293.1,171.8z"/>
	<path d="M187.3,143.7c0-0.4,0-0.6-0.6-0.5c-4.3,0.7-8.6,1.4-12.9,2.1c-0.5,0.1-0.7,0.2-0.7,0.8c0,9.1,0,18.2,0,27.3
		c0,0.2,0,0.4,0,0.6c-0.1,0-0.1,0.1-0.2,0.1c0-0.1,0-0.2-0.1-0.2c-1.2-1.6-2.9-2.7-4.7-3.6c-3-1.4-6.2-1.9-9.5-1.8
		c-4,0.1-7.7,1.1-10.9,3.6c-3.8,3-6.3,6.8-7,11.6c-0.4,3.1-0.4,6.1-0.5,9.2c-0.1,3.2,0.1,6.3,0.3,9.5c0.3,4.1,1.7,7.7,4.4,10.8
		c4,4.5,9,6.3,14.9,6.1c5-0.2,9.3-1.9,12.9-5.4c0.1-0.1,0.2-0.2,0.4-0.2c0.1,0.3,0.1,0.7,0.2,1.1c0.1,1.4,0.1,2.8,0.1,4.2
		c0,0.2-0.1,0.5,0.3,0.5c4.3-0.1,8.5-0.1,12.8-0.1c0.5,0,0.7-0.1,0.7-0.7c0-13.5,0-27,0-40.4C187.3,166.7,187.3,155.2,187.3,143.7z
		 M173.2,200c-0.1,1.2-0.4,2.3-0.6,3.5c-0.5,2.2-1.9,3.6-3.9,4.5c-2.4,1-4.8,1.3-7.3,0.8c-3.2-0.6-5.2-2.6-5.9-5.7
		c-0.5-2.2-0.6-4.3-0.6-6.5c0-0.8,0-1.6,0-2.4c0-2.6,0-5.2,0.4-7.7c0.1-0.8,0.3-1.7,0.6-2.5c0.8-2.2,2.3-3.7,4.6-4.3
		c2.4-0.7,4.7-0.8,7,0.1c3.5,1.3,5.4,3.9,5.8,7.5C173.7,191.4,173.7,195.7,173.2,200z"/>
	<path d="M131.1,214c0.3-4.2,0.1-8.4,0.5-12.7c-0.5,0.3-0.9,0.6-1.3,0.9c-2.8,1.9-5.7,3.7-8.9,4.8c-4.3,1.6-8.7,1.9-13.1,0.5
		c-3.8-1.2-6.2-4.2-6.4-8c-0.1-0.9-0.1-0.9,0.9-0.8c4.8,0.1,9.5,0.3,14.3-0.1c3-0.2,5.9-0.7,8.8-1.8c2.8-1.1,5.3-2.6,6.6-5.4
		c2.4-4.9,2.2-9.8-0.4-14.5c-2-3.7-5.3-5.9-9.2-7.4c-5.2-2-10.5-2.3-15.9-1.5c-8.6,1.3-14.4,6.2-17.3,14.3
		c-2.2,6.2-2.6,12.5-1.5,18.9c1.3,7.8,5.9,13.4,13.2,16.5c5.1,2.2,10.4,2.3,15.8,1.6c4.8-0.7,9.3-2.4,13.5-4.7
		C130.9,214.6,131.1,214.4,131.1,214z M101.8,188.6c-0.1-4.9,2.7-8.5,7.6-9.7c3-0.7,6-0.8,8.8,0.5c2.9,1.3,3.9,5.3,1.9,7.8
		c-0.7,0.9-1.8,1.4-2.9,1.7c-2.2,0.5-4.5,0.5-6.7,0.4c-0.8,0-1.6,0-2.4,0c-2-0.2-4-0.3-6-0.1C101.7,189.2,101.8,188.9,101.8,188.6z"
		/>
	<path d="M362.8,194.1c-0.4-0.5-0.3-0.8,0-1.3c5.7-8.1,11.5-16.2,17.2-24.3c0.1-0.1,0.3-0.2,0.2-0.5c-0.1,0-0.1,0-0.2,0
		c-4.9,0-9.8,0-14.6,0c-0.4,0-0.5,0.2-0.7,0.4c-3.2,4.5-6.4,9-9.7,13.5c-0.4,0.6-0.4,0.6-0.8,0c-3.2-4.5-6.4-9-9.6-13.5
		c-0.2-0.3-0.5-0.5-0.9-0.5c-4.8,0-9.6,0-14.3,0c-0.2,0-0.3,0-0.6,0c0.2,0.3,0.3,0.5,0.5,0.7c5.7,8.2,11.5,16.4,17.2,24.5
		c0.2,0.3,0.3,0.5,0,0.8c-5.1,7.2-10.2,14.5-15.3,21.7c-0.8,1.1-1.5,2.2-2.3,3.3c0.2,0,0.3,0,0.4,0c4.8,0,9.7,0,14.5,0
		c0.4,0,0.5-0.2,0.7-0.4c3.2-4.6,6.4-9.1,9.6-13.6c0.1-0.2,0.2-0.4,0.5-0.6c3.4,4.7,6.7,9.5,10.1,14.2c0.2,0.3,0.4,0.5,0.8,0.5
		c4.8,0,9.6,0,14.4,0c0.2,0,0.3,0.1,0.5-0.1c-0.1-0.1-0.2-0.3-0.3-0.4C374.3,210.5,368.6,202.3,362.8,194.1z"/>
	<path d="M212.4,193.4C212.4,193.4,212.4,193.4,212.4,193.4c-0.1-1.7-0.1-3.5-0.1-5.2c0-4.6,0-9.2,0-13.7c0-2.1,0-4.2,0-6.3
		c0-0.4-0.1-0.5-0.5-0.4c-0.6,0.1-1.1,0.2-1.7,0.3c-3.7,0.5-7.5,1.1-11.2,1.5c-0.5,0.1-0.7,0.2-0.7,0.8c0,16.1,0,32.1,0,48.2
		c0,0.1,0,0.2,0,0.3c0,0.3,0.1,0.4,0.4,0.4c4.5,0,9,0,13.5,0c0.3,0,0.4-0.1,0.4-0.4c0-0.8,0-1.7,0-2.5
		C212.4,208.6,212.4,201,212.4,193.4z"/>
	<path d="M322.7,177.9c-0.4,0.2-0.8,0.4-1.2,0.6c-4,1.8-8.1,1.9-12.3,1c-0.4-0.1-0.6,0-0.6,0.4c0,13,0,25.9,0,38.9
		c0,0.5,0.2,0.6,0.6,0.6c4.3,0,8.5,0,12.8,0c0.6,0,0.7-0.1,0.7-0.7c0-13.4,0-26.8,0-40.2C322.7,178.3,322.7,178.1,322.7,177.9z"/>
	<path d="M166.8,252.3c-0.1-0.3-0.2-0.5,0.2-0.6c1.1-0.5,1.8-1.5,2-2.7c0.4-1.8,0.4-3.7,0-5.5c-0.5-2.1-1.5-3.1-3.7-3.3
		c-1.5-0.2-3,0-4.5-0.1c-0.5,0-0.6,0.1-0.6,0.6c0,3.5,0,6.9,0,10.4c0,3.3,0,6.5,0,9.8c0,1.2,0,1.2,1.2,1.2c0.5,0,0.7-0.1,0.7-0.7
		c0-2.9,0-5.7,0-8.6c0-0.5,0.1-0.6,0.6-0.6c0.6,0,1.2,0,1.7,0c0.3,0,0.5,0.1,0.6,0.4c0.8,2.7,1.7,5.3,2.6,8c0.4,1.3,0.4,1.3,1.8,1.3
		c0.5,0,0.6-0.1,0.4-0.6C168.8,258.3,167.8,255.3,166.8,252.3z M165,250.5c-0.8,0-1.7,0-2.5,0c-0.4,0-0.4-0.2-0.4-0.5
		c0-1.3,0-2.6,0-3.9c0-1.3,0-2.6,0-3.9c0-0.4,0.1-0.5,0.5-0.5c0.8,0,1.6,0,2.4,0c0.9,0,1.6,0.5,2,1.4c0.7,2,0.7,4,0,6
		C166.7,250,165.9,250.4,165,250.5z"/>
	<path d="M260.5,243.7c-0.4-2-1.7-3.3-3.8-3.6c-1.5-0.2-3.1,0-4.7-0.1c-0.5,0-0.6,0.1-0.6,0.6c0,3.5,0,6.9,0,10.4
		c0,3.5,0,6.9,0,10.4c0,0.2-0.1,0.6,0.3,0.6c1.6,0,3.2,0,4.8,0c1.2,0,2.1-0.6,2.9-1.5c1-1.2,1.1-2.6,1.2-4c0.2-2.8,0.1-5.6,0.1-8.4
		C260.8,246.5,260.7,245.1,260.5,243.7z M258.8,256.5c0,0.6-0.1,1.1-0.2,1.7c-0.3,1.3-1.3,2.1-2.7,2.1c-0.6,0-1.3,0-1.9,0
		c-0.5,0-0.7-0.1-0.7-0.7c0-2.9,0-5.7,0-8.6c0-2.9,0-5.8,0-8.7c0-0.5,0.1-0.6,0.6-0.6c0.7,0,1.4,0,2,0c1.4,0,2.3,0.8,2.7,2.2
		c0.3,1.3,0.3,2.7,0.3,4C258.9,250.8,259,253.7,258.8,256.5z"/>
	<path d="M136.5,240c-0.5,0-0.5,0.1-0.5,0.6c0,2.8,0,5.7,0,8.5c0,2.8,0,5.6,0,8.4c0,2.1-1.7,3.5-3.6,2.9c-1.2-0.4-1.9-1.5-1.9-3
		c0-5.4,0-10.8,0-16.2c0-1.2,0-1.1-1.2-1.2c-0.6,0-0.7,0.2-0.7,0.7c0,5.4,0,10.8,0,16.2c0,0.4,0,0.8,0.1,1.2c0.2,1.7,1,3,2.6,3.7
		c1.6,0.6,3.3,0.6,4.7-0.6c1.3-1,1.7-2.4,1.7-3.9c0-5.3,0-10.7,0-16C137.9,240,137.9,240,136.5,240z"/>
	<path d="M76,240.4c0-0.1,0-0.3-0.2-0.4c-0.5,0-1-0.1-1.5,0c-0.3,0.1-0.2,0.5-0.3,0.7c-1.5,6.7-3,13.4-4.5,20.1c-0.2,1-0.2,1,0.8,1
		c1,0,1,0,1.2-1c0.3-1.5,0.6-3,0.9-4.5c0.1-0.4,0.2-0.5,0.6-0.5c1.4,0,2.8,0,4.1,0c0.3,0,0.5,0.1,0.5,0.4c0.2,1.4,0.5,2.7,0.8,4.1
		c0.3,1.5,0.3,1.5,1.8,1.5c0.4,0,0.4-0.1,0.3-0.5C79.1,254.5,77.5,247.4,76,240.4z M76.7,254.3c-1.2,0-2.3,0-3.5,0
		c-0.2,0-0.4,0-0.3-0.3c0.7-3.4,1.3-6.8,2-10.1c0-0.1,0-0.1,0.1-0.3c0.5,2.6,1,5.1,1.5,7.7c0.2,0.9,0.3,1.8,0.5,2.7
		C77.2,254.2,77.1,254.3,76.7,254.3z"/>
	<path d="M200.7,240c-0.3,0-0.6,0-0.9,0c-0.5-0.1-0.6,0.2-0.7,0.6c-0.9,4.7-1.8,9.5-2.7,14.2c-0.2,1.1-0.4,2.3-0.7,3.4
		c0,0-0.1,0-0.1,0c-1.1-5.5-2.1-11.1-3.2-16.6c-0.3-1.6-0.3-1.6-1.8-1.6c-0.4,0-0.5,0.1-0.4,0.5c1.5,6.7,2.9,13.5,4.3,20.2
		c0.3,1.2,0.3,1.2,1.4,1.2c0.6,0,0.7-0.2,0.8-0.7c1-4.8,2-9.5,3-14.3c0.5-2.1,0.9-4.3,1.4-6.4C201.2,240.1,201.1,240,200.7,240z"/>
	<path d="M316.2,256.9c-0.5,0-1.1-0.1-1.5,0.1c-0.3,0.1-0.2,0.7-0.2,1.1c-0.2,1.4-1.1,2.3-2.4,2.4c-1.5,0.1-2.4-0.7-2.8-2.2
		c-0.1-0.3-0.1-0.5-0.1-0.8c-0.3-2.2-0.2-4.4-0.2-6.2c0-1.2,0-2.1,0-2.9c0-1.6,0-3.3,0.4-4.9c0.4-1.5,1.3-2.1,2.9-2
		c1.2,0.1,2.1,1,2.3,2.4c0.2,1.3,0.2,1.3,1.5,1.2c0.3,0,0.4-0.1,0.4-0.5c-0.1-0.6-0.1-1.1-0.3-1.7c-0.5-1.9-2-3.1-3.9-3.2
		c-2.2-0.1-3.9,0.9-4.6,2.8c-0.2,0.6-0.3,1.2-0.4,1.8c-0.3,3.1-0.2,6.1-0.2,9.2c0,1.6,0,3.3,0.3,4.9c0.3,1.7,1.2,3.1,3,3.5
		c1.7,0.5,3.4,0.4,4.8-1.1c1-1,1.2-2.4,1.3-3.7C316.4,257,316.3,256.9,316.2,256.9z"/>
	<path d="M224.2,241.7c1.4,0,2.8,0,4.1,0c1.1,0,1.1,0,1.1-1.1c0-0.5-0.2-0.6-0.6-0.6c-2.2,0-4.3,0-6.5,0c-0.5,0-0.6,0.1-0.6,0.6
		c0,3.5,0,6.9,0,10.4c0,3.5,0,6.9,0,10.4c0,0.4,0.1,0.6,0.6,0.6c2,0,4,0,6,0c1.1,0,1.1,0,1.1-1.1c0-0.4-0.1-0.5-0.5-0.5
		c-1.6,0-3.2,0-4.8,0c-0.4,0-0.5,0-0.5-0.5c0-2.5,0-5,0-7.5c0-0.4,0.1-0.5,0.5-0.5c1.1,0,2.3,0,3.4,0c1.2,0,1.2,0,1.2-1.2
		c0-0.4-0.2-0.5-0.5-0.5c-1.3,0-2.7,0-4,0c-0.4,0-0.5-0.1-0.5-0.5c0-2.5,0-4.9,0-7.4C223.7,241.8,223.8,241.7,224.2,241.7z"/>
	<path d="M107.8,240c-0.3,0-0.6,0-0.9,0c-0.4-0.1-0.6,0.1-0.7,0.5c-0.6,2.1-1.2,4.3-1.8,6.4c-0.3,1-0.5,1.9-0.8,3
		c-0.1-0.3-0.1-0.5-0.2-0.7c-0.8-2.9-1.6-5.8-2.4-8.7c-0.1-0.2,0-0.6-0.5-0.6c-0.6,0-1.1,0-1.7,0c0.1,0.2,0.1,0.4,0.1,0.6
		c1.2,3.9,2.3,7.8,3.5,11.6c0.1,0.4,0.2,0.8,0.2,1.2c0,2.4,0,4.8,0,7.2c0,1.3,0,1.3,1.3,1.3c0.5,0,0.6-0.2,0.6-0.6
		c0-2.7,0-5.4,0-8.1c0-0.3,0-0.7,0.1-1c0.8-2.5,1.5-5,2.3-7.5c0.4-1.4,0.8-2.8,1.3-4.2C108.4,240.1,108.3,240,107.8,240z"/>
	<path d="M283.5,240c-0.5,0-0.5,0.1-0.5,0.6c0,3.5,0,6.9,0,10.4c0,3.2,0,6.5,0,9.7c0,1.2,0,1.2,1.2,1.2c0.5,0,0.7-0.2,0.7-0.7
		c0-6.6,0-13.3,0-19.9C284.8,240,284.8,240,283.5,240z"/>
	<path d="M326.9,171.1c-0.5,0.5-0.9,0.9-1.4,1.4c-0.1,0.1-0.2,0.2-0.3,0.3c-0.1,0.1-0.2,0.1-0.2,0.2c-3.9,2.8-8.3,3.8-12.9,3
		c-6.1-1-10.3-4.6-12.3-10.5c-0.7-2-1.1-4.2-0.5-6.3c2.4-8.9,8-15.1,16.6-18.6c0.1-0.1,0.3-0.2,0.5,0c-0.4,0.2-0.9,0.4-1.3,0.7
		c-4.7,3-8.3,7.1-10.9,12c-1.1,2-1.8,4.1-2.3,6.3c-0.1,0.2-0.3,0.5,0.1,0.8c1.7,0.9,3.5,1.5,5.4,1.3c2.6-0.2,4.6-1.5,6.2-3.4
		c0.8-1,1.2-1.1-0.5-1.5c-1.1-0.3-2.3-0.3-3.6-0.3c0.5-0.3,0.9-0.3,1.3-0.4c1.4-0.4,2.7-0.6,4.1,0.1c0.3,0.1,0.4,0,0.5-0.2
		c0.5-1,0.9-2,1.3-3.1c0.2-0.5,0-0.7-0.4-0.8c-0.2,0-0.3-0.1-0.5-0.1c-0.9-0.2-1.8-0.1-2.7-0.1c1.1-0.5,2.3-1.1,3.6-0.7
		c0.4,0.1,0.5,0,0.6-0.4c0.3-1.5,0.6-2.9,1-4.4c0.1-0.5,0-0.6-0.4-0.4c-0.6,0.2-1.2,0.3-1.8,0.5c0.7-0.6,1.4-1.3,2.3-1.6
		c0.4-0.2,0.6-0.4,0.7-0.7c0.7-2.3,2-4.1,4.5-5c-0.2-0.1-0.3-0.1-0.4-0.2c-1.1-0.2-2.2-0.4-3.4-0.6c-0.8-0.1-1.6-0.1-2.4-0.3
		c-1.9,0-3.8,0-5.7,0c-0.2,0.2-0.4,0.1-0.6,0.1c-0.5,0-0.8,0.2-0.9,0.7c-0.2,0.5-0.4,1-0.6,1.5c-0.1-0.5-0.2-1.1-0.2-1.6
		c0-0.3-0.1-0.4-0.4-0.4c-1.2,0.2-2.4,0.5-3.6,0.9c-0.4,0.1-0.4,0.3-0.4,0.7c0.1,1,0,1.9-0.3,2.9c-0.2-0.9-0.4-1.7-0.7-2.6
		c-0.1-0.3-0.2-0.3-0.5-0.2c-1.1,0.6-2.2,1.2-3.2,2c-0.2,0.1-0.3,0.2-0.2,0.5c0.2,0.5,0.3,1.1,0.4,1.7c0.1,0.8,0.2,1.7,0.3,2.5
		c-0.4-1.1-0.7-2.2-1.2-3.3c-0.2-0.4-0.4-0.5-0.7-0.1c-3.3,3.3-4.2,7.1-2.8,11.5c0.1,0.3,0.1,0.6,0,0.9c-0.7,2.3-0.9,4.7-0.5,7.1
		c1,6.1,4.5,10.5,10.1,13.2c4.4,2.1,9,2,13.6,0.7c2.4-0.7,4.5-1.8,6.4-3.5c0.1-0.1,0.2-0.2,0.3-0.3c0.5-0.4,1-0.9,1.4-1.4l0,0
		c0.1-0.1,0.2-0.2,0.1-0.4C327.1,170.9,327,171,326.9,171.1z"/>
	<path d="M391.3,172.8c0.3-0.1,0.5-0.3,0.6-0.6c0.1-0.3,0.2-0.5,0.2-0.9c0-0.3-0.1-0.6-0.2-0.9c-0.1-0.3-0.3-0.5-0.6-0.6
		c-0.3-0.1-0.6-0.2-1.1-0.2h-1.9v5.4h0.8V173h1.1c0,0,0,0,0.1,0l1.1,2.1h0.9l-1.2-2.2C391.1,172.8,391.2,172.8,391.3,172.8z
		 M390.8,172.2c-0.2,0.1-0.4,0.1-0.6,0.1h-1v-2h1c0.3,0,0.5,0,0.7,0.1c0.2,0.1,0.3,0.2,0.4,0.3c0.1,0.2,0.1,0.3,0.1,0.5
		c0,0.2,0,0.4-0.1,0.5C391.1,172,391,172.1,390.8,172.2z"/>
	<path d="M390.2,168c-2.5,0-4.5,2-4.5,4.5c0,2.5,2,4.5,4.5,4.5c2.5,0,4.5-2,4.5-4.5C394.7,170,392.7,168,390.2,168z M390.2,176.3
		c-2.1,0-3.8-1.7-3.8-3.8c0-2.1,1.7-3.8,3.8-3.8c2.1,0,3.8,1.7,3.8,3.8C394,174.6,392.3,176.3,390.2,176.3z"/>
</g>
</svg>
