<svg width="400" height="400" viewBox="0 0 400 400" fill="none" xmlns="http://www.w3.org/2000/svg">
<path d="M137.943 155.506L172.365 178.749L187.141 188.766L178.175 182.678L199.647 197.344L199.758 197.233L227.152 178.749L261.573 155.506V239.015L290.516 258.55V100L261.573 119.314L199.758 160.487L137.943 119.314L109 100V258.55L137.943 239.015V155.506Z" fill="black"/>
<path d="M202.636 199.225L258.308 236.801V199.502L229.974 180.576L202.636 199.225Z" fill="black"/>
<path d="M141.208 199.502V236.801L196.714 199.281L169.432 180.686L141.208 199.502Z" fill="black"/>
<path d="M128.701 289.264H128.535L121.396 264.361H109.166V299.447H117.356V284.228C117.356 281.848 117.19 278.528 116.858 274.211H117.08L124.053 299.447H132.852L139.714 274.267H139.935C139.769 278.085 139.659 280.465 139.603 281.461C139.603 282.457 139.548 283.343 139.548 284.117V299.502H148.015V264.416H135.674L128.701 289.264Z" fill="black"/>
<path d="M158.198 299.391H178.452V291.699H167.439V285.058H177.622V277.476H167.439V271.942H178.452V264.361H158.198V299.391Z" fill="black"/>
<path d="M195.94 272.053C196.493 271.61 197.379 271.389 198.541 271.389C200.865 271.389 203.632 272.164 206.786 273.658L209.609 266.353C205.956 264.693 202.359 263.807 198.817 263.807C194.833 263.807 191.679 264.693 189.41 266.519C187.141 268.345 185.978 270.836 185.978 274.101C185.978 275.816 186.255 277.31 186.809 278.583C187.362 279.856 188.192 280.963 189.299 281.959C190.406 282.955 192.066 283.951 194.28 285.003C196.714 286.165 198.264 286.884 198.817 287.272C199.371 287.659 199.814 287.991 200.035 288.379C200.312 288.711 200.422 289.153 200.422 289.651C200.422 290.426 200.09 291.035 199.482 291.533C198.817 292.031 197.821 292.252 196.493 292.252C194.888 292.252 193.173 291.976 191.291 291.478C189.41 290.98 187.583 290.26 185.812 289.319V297.786C187.473 298.616 189.078 299.17 190.627 299.502C192.177 299.834 194.058 300 196.327 300C199.039 300 201.418 299.557 203.466 298.616C205.514 297.676 207.063 296.348 208.115 294.687C209.166 293.027 209.719 291.09 209.719 288.877C209.719 286.497 209.166 284.56 208.004 283.011C206.842 281.461 204.794 279.967 201.861 278.639C198.817 277.2 196.936 276.204 196.216 275.65C195.497 275.097 195.165 274.488 195.165 273.824C195.11 273.049 195.386 272.496 195.94 272.053Z" fill="black"/>
<path d="M233.128 263.807C227.705 263.807 223.61 265.357 220.732 268.401C217.91 271.5 216.471 275.927 216.471 281.793C216.471 287.714 217.91 292.197 220.732 295.296C223.61 298.395 227.705 299.945 233.018 299.945C238.441 299.945 242.592 298.395 245.359 295.351C248.181 292.308 249.564 287.825 249.564 281.904C249.564 275.982 248.181 271.5 245.359 268.456C242.647 265.357 238.552 263.807 233.128 263.807ZM238.275 289.541C237.168 291.201 235.397 292.031 233.073 292.031C228.48 292.031 226.211 288.655 226.211 281.848C226.211 274.986 228.535 271.61 233.128 271.61C235.397 271.61 237.113 272.441 238.275 274.101C239.437 275.761 239.991 278.362 239.991 281.848C239.991 285.335 239.382 287.88 238.275 289.541Z" fill="black"/>
<path d="M282.99 264.361V280.188C282.99 282.346 283.101 285.169 283.322 288.711H283.156L270.76 264.361H258.696V299.447H266.886V283.619C266.886 281.572 266.72 278.583 266.443 274.709H266.665L279.116 299.391H291.18V264.305H282.99V264.361Z" fill="black"/>
</svg>
