<?xml version="1.0" encoding="utf-8"?>
<!-- Generator: Adobe Illustrator 25.0.1, SVG Export Plug-In . SVG Version: 6.00 Build 0)  -->
<svg version="1.1" id="Layer_1" xmlns="http://www.w3.org/2000/svg" xmlns:xlink="http://www.w3.org/1999/xlink" x="0px" y="0px"
	 viewBox="0 0 400 400" style="enable-background:new 0 0 400 400;" xml:space="preserve">
<g>
	<polygon points="87.7,119.7 149.9,161.7 176.6,179.8 160.4,168.8 199.2,195.3 199.4,195.1 199.4,195.1 248.9,161.7 311.1,119.7 
		311.1,270.6 363.4,305.9 363.4,19.4 311.1,54.3 199.4,128.7 87.7,54.3 35.4,19.4 35.4,305.9 87.7,270.6 	"/>
	<polygon points="204.6,198.7 305.2,266.6 305.2,199.2 254,165 	"/>
	<polygon points="93.6,199.2 93.6,266.6 193.9,198.8 144.6,165.2 	"/>
	<path d="M71,361.4h-0.3l-12.9-45H35.7v63.4h14.8v-27.5c0-4.3-0.3-10.3-0.9-18.1h0.4l12.6,45.6h15.9l12.4-45.5h0.4
		c-0.3,6.9-0.5,11.2-0.6,13c0,1.8-0.1,3.4-0.1,4.8v27.8h15.3v-63.4H83.6L71,361.4z"/>
	<polygon points="124.3,379.7 160.9,379.7 160.9,365.8 141,365.8 141,353.8 159.4,353.8 159.4,340.1 141,340.1 141,330.1 
		160.9,330.1 160.9,316.4 124.3,316.4 	"/>
	<path d="M192.5,330.3c1-0.8,2.6-1.2,4.7-1.2c4.2,0,9.2,1.4,14.9,4.1l5.1-13.2c-6.6-3-13.1-4.6-19.5-4.6c-7.2,0-12.9,1.6-17,4.9
		c-4.1,3.3-6.2,7.8-6.2,13.7c0,3.1,0.5,5.8,1.5,8.1c1,2.3,2.5,4.3,4.5,6.1c2,1.8,5,3.6,9,5.5c4.4,2.1,7.2,3.4,8.2,4.1
		c1,0.7,1.8,1.3,2.2,2c0.5,0.6,0.7,1.4,0.7,2.3c0,1.4-0.6,2.5-1.7,3.4c-1.2,0.9-3,1.3-5.4,1.3c-2.9,0-6-0.5-9.4-1.4
		c-3.4-0.9-6.7-2.2-9.9-3.9v15.3c3,1.5,5.9,2.5,8.7,3.1c2.8,0.6,6.2,0.9,10.3,0.9c4.9,0,9.2-0.8,12.9-2.5c3.7-1.7,6.5-4.1,8.4-7.1
		c1.9-3,2.9-6.5,2.9-10.5c0-4.3-1-7.8-3.1-10.6c-2.1-2.8-5.8-5.5-11.1-7.9c-5.5-2.6-8.9-4.4-10.2-5.4c-1.3-1-1.9-2.1-1.9-3.3
		C191,332.1,191.5,331.1,192.5,330.3z"/>
	<path d="M259.7,315.4c-9.8,0-17.2,2.8-22.4,8.3c-5.1,5.6-7.7,13.6-7.7,24.2c0,10.7,2.6,18.8,7.7,24.4c5.2,5.6,12.6,8.4,22.2,8.4
		c9.8,0,17.3-2.8,22.3-8.3c5.1-5.5,7.6-13.6,7.6-24.3c0-10.7-2.5-18.8-7.6-24.3C276.9,318.2,269.5,315.4,259.7,315.4z M269,361.9
		c-2,3-5.2,4.5-9.4,4.5c-8.3,0-12.4-6.1-12.4-18.4c0-12.4,4.2-18.5,12.5-18.5c4.1,0,7.2,1.5,9.3,4.5c2.1,3,3.1,7.7,3.1,14
		C272.1,354.3,271,358.9,269,361.9z"/>
	<path d="M349.8,316.4V345c0,3.9,0.2,9,0.6,15.4h-0.3l-22.4-44h-21.8v63.4h14.8v-28.6c0-3.7-0.3-9.1-0.8-16.1h0.4l22.5,44.6h21.8
		v-63.4H349.8z"/>
</g>
</svg>
