<?xml version="1.0" encoding="utf-8"?>
<!-- Generator: Adobe Illustrator 25.0.1, SVG Export Plug-In . SVG Version: 6.00 Build 0)  -->
<svg version="1.1" id="Layer_1" xmlns="http://www.w3.org/2000/svg" xmlns:xlink="http://www.w3.org/1999/xlink" x="0px" y="0px"
	 viewBox="0 0 400 400" style="enable-background:new 0 0 400 400;" xml:space="preserve">
<g>
	<path d="M54.7,173.1c-3.9-1.7-8.9-2.5-14.9-2.5H13.5v60.1h9.4v-21.9h17c6,0,11-0.9,14.9-2.6s6.7-4,8.6-6.9c1.9-2.9,2.8-6.1,2.8-9.7
		c0-3.5-0.9-6.7-2.8-9.6C61.4,177.1,58.6,174.8,54.7,173.1z M55.1,196c-1.1,1.9-3,3.4-5.5,4.5c-2.5,1.1-5.9,1.7-10,1.7H22.9V177
		h16.5c4.2,0,7.6,0.5,10.2,1.6c2.6,1.1,4.4,2.6,5.6,4.5c1.1,1.9,1.7,4,1.7,6.5C56.9,192,56.3,194.1,55.1,196z"/>
	<polygon points="90.7,203.8 125.7,203.8 125.7,197.3 90.7,197.3 90.7,177 128.1,177 128.1,170.5 81.3,170.5 81.3,230.6 
		128.7,230.6 128.7,224.2 90.7,224.2 	"/>
	<path d="M186.2,173.1c-3.9-1.7-8.9-2.5-14.9-2.5h-26.2v60.1h9.4v-21.9h17c6,0,11-0.9,14.9-2.6s6.7-4,8.6-6.9
		c1.9-2.9,2.8-6.1,2.8-9.7c0-3.5-0.9-6.7-2.8-9.6C193,177.1,190.1,174.8,186.2,173.1z M186.7,196c-1.1,1.9-3,3.4-5.5,4.5
		c-2.5,1.1-5.9,1.7-10,1.7h-16.7V177H171c4.2,0,7.6,0.5,10.2,1.6c2.6,1.1,4.4,2.6,5.6,4.5c1.1,1.9,1.7,4,1.7,6.5
		C188.4,192,187.8,194.1,186.7,196z"/>
	<path d="M254,204.8c3.9-1.6,6.7-3.7,8.6-6.4c1.9-2.7,2.8-5.9,2.8-9.4c0-3.5-0.9-6.7-2.8-9.5c-1.9-2.8-4.7-5-8.6-6.6
		c-3.9-1.6-8.9-2.4-14.9-2.4h-26.2v60.1h9.4v-23.5h17c0.7,0,1.3,0,1.9-0.1l16.4,23.5h10.9l-17.5-24.8C252,205.6,253,205.2,254,204.8
		z M222.2,177h16.5c4.2,0,7.6,0.5,10.1,1.5c2.6,1,4.4,2.4,5.6,4.2c1.2,1.8,1.7,3.9,1.7,6.3c0,2.4-0.6,4.5-1.7,6.2s-3,3.1-5.5,4
		c-2.5,0.9-5.9,1.4-10,1.4h-16.7V177z"/>
	<polygon points="316.5,197.7 331.6,171.3 346.7,144.9 316.5,144.9 286.2,144.9 301.3,171.3 	"/>
	<polygon points="316.5,202.3 301.3,228.7 286.2,255.1 316.5,255.1 346.7,255.1 331.6,228.7 	"/>
	<polygon points="368.7,166.7 356.2,144.9 343.7,166.7 	"/>
	<polygon points="326,197.7 386.5,197.7 373,174.1 339.5,174.1 	"/>
	<polygon points="356.2,255.1 369.2,232.4 343.2,232.4 	"/>
	<polygon points="338.9,224.9 373.5,224.9 386.5,202.3 326,202.3 	"/>
</g>
</svg>
