<?xml version="1.0" encoding="utf-8"?>
<!-- Generator: Adobe Illustrator 25.0.1, SVG Export Plug-In . SVG Version: 6.00 Build 0)  -->
<svg version="1.1" id="Layer_1" xmlns="http://www.w3.org/2000/svg" xmlns:xlink="http://www.w3.org/1999/xlink" x="0px" y="0px"
	 viewBox="0 0 400 400" style="enable-background:new 0 0 400 400;" xml:space="preserve">
<g>
	<path d="M228.4,187c-0.6-3.1-2.7-5.3-4.9-7.2c-0.7-0.6-1.6-1.3-2.8-0.5c-0.6,0.5-0.9-0.2-1.2-0.7c-0.3-0.7,0.1-0.8,0.6-1
		c0.4-0.1,0.9-0.2,1-0.7c0.1-0.6-0.4-0.9-0.8-1.1c-0.8-0.4-1.6-0.9-2.6-0.6c-0.2-0.1-0.6-0.1-0.7-0.3c-0.2-0.4,0.3-0.4,0.4-0.5
		c1.7-1.1,3.5-2.1,2.1-4.6c0,0,0-0.1,0-0.2c-0.5-1.3-1.5-1.3-2.8-0.1c-0.1,0.1-0.2,0.2-0.3,0.3c-0.8,1.1-1.8,2.1-3,2.7
		c-1.9,0.9-2.5,3.1-4.6,3.9c-0.6,0.2-1.6,1.3-1,2.1c0.7,0.8,1.9,1.4,3,0.3c0.2-0.2,0.5-0.4,0.8-0.6c1.4-0.9,2.8-1.5,4.4-0.7
		c0.7,0.3,1.1,0.9,0,1.1c-1.2,0.3-2.1,1.9-3.6,1c-0.1,0-0.4,0.2-0.5,0.4c-0.6,0.9-1.5,0.9-2.5,0.9c-3.2,0.2-4.9,1.9-5,5
		c0,0.5-0.1,1-0.2,1.5c-0.1,1.2,1.1,2.2,0.8,3.4c-0.3,1.2-1.8,1.6-2,2.9c0.5,0.3,1.2-0.3,1.4,0.4c0.1,0.4-0.1,0.6-0.4,0.8
		c-1.4,0.8-1.4,1,0,2.2c0.5-0.3-0.1-1.1,0.6-1.3c1.2,0.9,1.2,0.9,2-0.4c0.1-0.1,0.2-0.2,0.4-0.3c0.3-0.1,0.4,0.2,0.4,0.4
		c0,0.3-0.4,0.7,0.1,1c1.2-1.3,2.8-1.7,4.3-2.4c0,0.4-0.4,0.6-0.7,0.8c-0.8,0.6-0.6,1.1,0.1,1.7c0.6,0.6,1,0.6,1.5-0.3
		c0.6-1,1.4-1.8,2.1-2.8c0.5,1.2,1.9,1.4,2,2.9c0.1,0.7,1.8,1.1,1.1,2.5c-0.5,1-0.1,2.5-0.8,3c-1.5,1.2-2.2,2.2-2.1,4.3
		c0.1,1.1-1.8,2.5-3,3.5c-0.8,0.6-1.8,0.8-2.8-0.2c-1-0.9-1.8-2.4-3.6-2c-0.4,0.1-0.4-0.5-0.2-0.7c0.2-0.3,0.5-0.6,0.7-0.9
		c0.7-0.7,0.1-1.2-0.2-1.7c-0.4-0.8-0.8-0.2-1.1,0.1c-0.8,0.6-1.2,0.4-1.2-0.6c0-0.6-0.3-1.1-0.2-1.7c0.2-1-0.2-1.7-1.5-1.3
		c-0.4,0.1-0.8,0.2-1.2,0.4c-0.6,0.4-0.9-0.1-1.2-0.5c-0.3-0.5-0.1-0.8,0.5-0.9c0.4,0,0.6-0.2,0.6-0.6c-0.1-0.4-0.4-0.6-0.8-0.7
		c-0.4-0.1-0.8,0.4-1.3,0.1c0.3-1.7,1.8-3.5,0.2-5.3c-0.4,0-0.6,0.2-0.7,0.5c-0.3,1.1-1,0.4-1,0.1c0.2-1.5-0.8-2.6-1.3-3.9
		c-0.2-0.5-0.2-0.9-0.3-1.4c-0.1-0.3,0-0.7,0.4-0.8c0.3-0.1,0.8-0.2,0.9,0.1c0.4,1.6,1.9,1,2.7,1.7c0-1.4-0.3-2.8,0.9-3.5
		c1.2-0.7,1-1.6,0.7-2.6c-0.2-0.5-0.7-1-0.2-1.4c0.5-0.4,1.1-0.4,1.6,0.1c0.7,0.6,0.8,0.3,1-0.4c0.3-1.2,0.7-2.3,1.6-3.1
		c0.9-0.9,1.9-1.8,2.9-2.7c0.4-0.3,0.8-0.7,0.5-1.2c-1.1-2.1-2.1-4.3-4.4-5.2c-3.8-1.6-7.6-2-11.4-0.3c-0.8,0.4-1.5,0.8-2.3,1.1
		c-2.7,0.9-5.3,2.1-8.2,2.3c-1,0.1-2.3,0.2-3.1,0.9c-1.7,1.6-4,2.4-5.5,4.1c-2,2.3-3.5,4.8-5,7.5c-0.4,0.8-0.2,1.7-0.7,2.5
		c-1.1,1.8-1.2,3.9-2,5.8c-0.9,2,0.7,3.9-0.1,5.9c-0.4,0.8,0.6,1.6,0.5,2.6c-0.2,1.2-0.7,2.5-0.9,3.5c-0.3,1.9-0.7,4.1,0.4,6
		c0.4,0.7,0.5,1.4,0.7,2.2c0.9,3.3,1.8,6.6,3.4,9.6c0.6,1,1.1,2,0.7,3.2c-0.3,0.8,0.2,1.3,1.1,1c1.6-0.7,3-0.3,4.3,0.6
		c1.5,1,3.3,1.4,4.9,2.2c1.7,0.9,3.5,0.3,5.2,0.9c7.4,2.5,14.8,2.8,22.1-0.5c1.4-0.6,2.8-1.2,4.2-1.7c1.5-0.6,3.3-1.2,4-2.8
		c1.5-3.3,4.1-5.8,6.5-8.3c0.6-0.6,1.6-0.8,2.3-1.4c2.5-2.2,3.4-5.1,3.8-8.3c0.7-5.4,1.6-10.9,0.5-16.4
		C229.3,190.2,228.7,188.6,228.4,187z M212.5,194c-0.2,0-0.4,0.1-0.6,0.1c0.1-0.2,0.1-0.4,0.2-0.6c0.1-0.2,0.4-0.4,0.6-0.3
		c0.1,0,0.3,0.2,0.3,0.3C213,193.8,212.8,193.9,212.5,194z M223.2,209.2c-0.1,3.2-1.4,5.9-3.5,8.2c-0.2,0.2-0.4,0.6-0.3,0.7
		c0.8,1.4-0.4,2.4-1,3.3c-1.2,1.7-2.7,3.2-4.1,4.8c-0.3,0.4-0.7,0.4-0.9,0.4c-0.8,0-1.4,0.1-1.2-0.8c0.1-0.4-0.2-0.5-0.5-0.5
		c-0.8-0.2-1.6-0.6-1.2-1.5c0.4-0.7,0.5-2.2,2.1-1.5c0.6,0.3,1.2,0.1,1.7-0.6c0.6-1.1,2.3-0.9,2.6-2.5c0.2-1.3,0.7-2.6,0.9-3.9
		c0.2-0.8-0.1-1.4-1-0.6c-0.3,0.3-0.8,0.4-1,0c-0.2-0.3,0.1-0.6,0.3-0.8c0.7-0.9,0.8-2.3,2.5-2.5c0.6-0.1,1.7-1.2,2.2-2.3
		c0.2-0.5,0.4-0.7,0.8-0.9c0.4-0.2,0.8-0.6,1.2-0.3C223.4,208.2,223.2,208.7,223.2,209.2z M222.8,195.3c1.2,1.3-1.3,2.4-0.2,3.8
		c0.1,0.1-0.1,0.7-0.2,0.7c-2.2,0.1-1.1,2.2-1.9,3.1c-0.3,0.4-0.4,1.2-1.1,0.8c-0.7-0.4-0.1-0.9,0.1-1.5c0.5-1.4,0.9-2.9,1.2-4.3
		c0.3-1.7,0-3.3-0.6-4.9c-0.4-1,0.7-2.4,1.9-2.5c0.6,0,0.9,0.3,0.6,0.8c-0.3,0.6,0,1.4-0.6,2c-0.2,0.2-0.3,0.5,0,0.7
		c0.4,0.2,0.6-0.1,0.8-0.4c0.4-0.5,0.1-1.2,0.3-1.7c0.1-0.5,0.3-1.2,1-0.9c0.7,0.3,0.1,0.8,0.1,1.2
		C224.2,193.5,224,194.6,222.8,195.3z"/>
	<path d="M274.2,198.3c-4.3-3.1-10.3-2.2-13.7,1.9c-0.4,0.5-0.7,1.5-1.5,0.4c-3.5-4.8-10.2-5.6-14.9-1.6c-0.2,0.2-0.4,0.6-0.8,0.4
		c-0.4-0.2-0.3-0.7-0.2-1c0.2-1.1-0.3-1.4-1.4-1.4c-2.4,0.1-4.9,0.1-7.3,0c-1.2,0-1.6,0.3-1.6,1.6c0.1,4.4,0,8.8,0,13.2
		c0,4.4,0.1,8.9,0,13.3c0,1.4,0.5,1.6,1.7,1.6c2.3-0.1,4.7-0.1,7,0c1.3,0.1,1.6-0.4,1.6-1.7c-0.1-5,0-10,0-15c0-2,0.8-3.3,2.4-3.8
		c2.8-1,5.2,0.8,5.3,3.9c0,5,0,10,0,15c0,1.2,0.2,1.6,1.5,1.6c2.4-0.1,4.9-0.1,7.3,0c1.3,0.1,1.7-0.3,1.7-1.6
		c-0.1-5.3,0-10.5,0-15.8c0-0.8,0.1-1.5,0.7-2.1c1.1-1.1,3-1.5,4.4-0.9c1.5,0.6,2.4,2.1,2.4,3.7c-0.1,5.1-0.1,10.2-0.1,15.3
		c0,1.1,0.3,1.4,1.4,1.4c2.5-0.1,5-0.1,7.5,0c1.2,0,1.5-0.4,1.5-1.5c0-6,0-11.9,0-17.9C278.7,203.5,277.3,200.5,274.2,198.3z"/>
	<path d="M343.8,187.5c-2.4,0.1-4.8,0.1-7.2,0c-1.2,0-1.6,0.3-1.6,1.6c0.1,2.7,0,5.3,0.1,8c0,1-0.2,1.2-1.2,0.8
		c-3.2-1.5-6.5-1.8-10-1c-9.3,2.2-14.5,13-10.2,21.6c3.6,7.2,12.3,11.1,20.2,7.4c0.3-0.2,0.8-0.5,1-0.1c0.5,1.4,1.6,0.9,2.5,0.9
		c2.2,0.1,4.3,0,6.5,0c1.1,0,1.6-0.3,1.6-1.5c-0.1-6,0-12,0-18.1c0-6-0.1-11.9,0-17.9C345.5,187.7,345.1,187.4,343.8,187.5z
		 M328.6,218.4c-3.6,0-6.6-2.9-6.8-6.3c-0.2-3.9,3.1-7.1,6.7-7.1c3.7-0.1,6.7,3,6.7,6.8C335.3,215.5,332.3,218.4,328.6,218.4z"/>
	<path d="M18.7,197.2c-0.4,0.2-0.9,0.6-1.1,0.1c-0.4-1.1-1.3-0.8-2.1-0.8c-2.3,0-4.6,0.1-6.8,0c-1.3-0.1-1.7,0.4-1.6,1.6
		c0.1,6,0,12,0,18.1c0,6.1,0,12.1,0,18.2c0,1.1,0.3,1.5,1.5,1.5c2.4-0.1,4.9-0.1,7.3,0c1.4,0.1,1.6-0.5,1.6-1.7
		c-0.1-2.1,0-4.1,0-6.2c0-2.9,0-2.9,2.8-2c0.1,0,0.1,0,0.2,0.1c9.3,2.9,19.2-3.9,19.9-13.4C41.1,200.9,29.3,192.4,18.7,197.2z
		 M23.9,217.9c-3.6,0-6.7-3.1-6.7-6.6c0-3.8,3.1-6.8,6.9-6.8c3.6,0,6.6,3,6.7,6.6C30.8,214.8,27.7,217.9,23.9,217.9z"/>
	<path d="M163.3,207.7c0-0.6,0.1-1.2,0-1.8c-0.8-4.1-2.9-7.3-7-8.6c-4-1.4-7.7-0.5-10.7,2.6c-0.2,0.2-0.4,0.6-0.8,0.4
		c-0.4-0.2-0.2-0.6-0.2-0.9c0-3.5,0.1-7,0.1-10.6c0-1-0.3-1.5-1.4-1.4c-2.5,0.1-5,0-7.5,0c-1.2,0-1.6,0.4-1.6,1.6c0.1,6,0,12,0,18.1
		c0,6,0,11.9,0,17.9c0,1.4,0.5,1.7,1.7,1.6c2.3-0.1,4.7-0.1,7,0c1.4,0.1,1.7-0.5,1.7-1.8c-0.1-4.5,0-9,0-13.5c0-1.4,0.1-2.9,1.2-3.9
		c1.3-1.3,2.8-1.6,4.5-1.1c1.8,0.6,2.8,2,2.9,3.9c0,5,0,10,0,15c0,1.1,0.3,1.4,1.4,1.4c2.4-0.1,4.9-0.1,7.3,0
		c1.4,0.1,1.6-0.5,1.6-1.7C163.2,219.2,163.3,213.4,163.3,207.7z"/>
	<path d="M357,197.2c-6.9,2.4-11.5,10.7-10,17.3c1.5,6.5,6.8,11.8,13,12.5c7,0.8,13.3-2.8,16.3-9.1c0.5-1,0.3-1.2-0.8-1.2
		c-2.1,0.1-4.2,0.1-6.3,0c-1.3,0-2.2,0.2-3.1,1.2c-2.7,2.6-7.1,1.8-8.7-1.4c-0.8-1.6-0.5-2.2,1.3-2.2c2.8,0,5.6,0,8.5,0
		c3,0,6,0,8.9,0c0.7,0,1.3,0,1.3-1c-0.1-2.3,0.1-4.6-0.7-6.9C374.1,199.5,365.8,194.2,357,197.2z M366.5,208.8c-1.5,0-2.9,0-4.4,0
		c-1.5,0-2.9,0-4.4,0c-0.6,0-1-0.1-0.9-0.9c0.3-2.3,2.6-4.2,5.2-4.3c2.7-0.2,5,1.8,5.6,4.3C367.8,208.7,367.2,208.8,366.5,208.8z"/>
	<path d="M63.5,197.8c-10.3-4.6-20.6,2.7-21.7,12.1c-1.2,9.8,7.3,18.6,17.4,17.2c5.4-0.8,9.4-3.9,11.8-8.9c0.6-1.3,0.2-1.5-1-1.5
		c-2,0-3.9,0.1-5.9,0c-1.4-0.1-2.4,0.3-3.4,1.4c-2.5,2.5-7.1,1.6-8.6-1.5c-0.8-1.7-0.6-2.2,1.3-2.3c2.9-0.1,5.9,0,8.8,0c0,0,0,0,0,0
		c2.9,0,5.8,0,8.6,0c1,0,1.4-0.3,1.5-1.4C72.9,206.7,69.1,200.3,63.5,197.8z M61.1,208.8c-2.7,0-5.4,0-8.1,0c-1.3,0-1.5-0.5-1.1-1.6
		c0.7-2.2,2.8-3.6,5.2-3.6c2.4,0,4.4,1.3,5.2,3.4C62.8,208.2,62.5,208.8,61.1,208.8z"/>
	<path d="M101.1,212.6c0-1.5,0-3.2,0-4.9c0-4.7-3-9.1-7.5-10.5c-5.2-1.6-10-0.8-14.6,2c-2.3,1.4-3.8,3.3-4.5,5.9
		c-0.3,1-0.1,1.6,1.1,1.5c2,0,4,0,6,0c0.7,0,1.2-0.1,1.5-0.9c1.5-3.1,7.6-3.4,9.6-0.5c0.6,0.9,0.6,1.5-0.5,1.8c-1,0.3-2,0.5-3,0.7
		c-3.7,0.8-7.5,1.3-10.9,3c-3.4,1.6-5.5,4.9-5.3,8c0.3,3.9,2.8,6.8,6.7,7.8c4.8,1.3,9.2,0.2,13.3-2.6c1.3-0.9,1.6-0.6,1.8,0.7
		c0.2,1.3,0.9,2,2.3,1.8c1.2-0.1,2.4-0.1,3.6,0c1.3,0.1,1.6-0.3,1.4-1.6C101.4,221,100.8,216.9,101.1,212.6z M91,216
		c-0.6,2.9-2.8,4.8-5.3,4.8c-1.4,0-2.4-0.3-3.3-1.1c-1.6-1.3-1.4-3.3,0.3-4.3c1.6-0.9,3.5-1.2,5.3-1.4c0.4-0.1,0.8,0,1.1-0.1
		C91.5,213.5,91.5,213.5,91,216z"/>
	<path d="M295.6,196.3c-8.3-0.1-15.6,7-15.5,15.3c0.1,8.1,6.7,15.8,16.2,15.5c6.5-0.2,14.7-6.2,14.5-15.3
		C311.2,203.6,304.1,196.4,295.6,196.3z M295.4,218.4c-3.7,0-6.6-3-6.6-6.8c0-3.5,3.1-6.7,6.6-6.7c3.6,0,6.8,3.2,6.8,6.7
		C302.3,215.4,299.3,218.5,295.4,218.4z"/>
	<path d="M128.6,200.7c-6.1-5.6-14.4-5.8-20.8-0.4c-4.6,3.9-6.1,9-4.9,14.8c1.2,5.7,4.9,9.7,10.5,11.4c8.2,2.5,16.2-1.8,19.1-9.8
		c0.5-1.4,0-1.5-1.1-1.5c-2.2,0.1-4.5,0.1-6.7,0c-0.8,0-1.3,0.2-1.8,0.8c-1.9,2.3-4.4,2.8-7.2,2.1c-2.6-0.7-4.4-2.9-4.7-5.8
		c-0.3-2.4,1.3-5.2,3.7-6.4c2.5-1.3,5.4-1,7.5,1.1c1.2,1.2,2.4,1.5,3.9,1.4c0.6,0,1.3,0,2,0c1.3,0,2.6,0,3.9,0c0.5,0,1.1,0,0.8-0.9
		C131.9,204.9,130.6,202.5,128.6,200.7z"/>
	<path d="M383,164.2c-5.6-0.1-10.2,4.3-10.3,9.9c-0.1,5.5,4.4,9.9,10,10c5.5,0.1,10.2-4.4,10.2-9.8C393,168.8,388.5,164.3,383,164.2
		z M382.8,182.4c-4.7,0-8.5-3.6-8.5-8.2c0-4.6,3.8-8.5,8.5-8.4c4.6,0,8.5,3.8,8.5,8.3C391.3,178.7,387.5,182.4,382.8,182.4z"/>
	<path d="M201.7,193.4c1-0.7,0.8-1.8,1.5-2.5c0.8-0.9,0.5-1.6-0.3-2.3c-0.3-0.2-0.4-0.7-0.9-0.4c-0.3,0.2-0.2,0.6,0,0.9
		c0.8,1,0.2,1.9-0.1,2.8C201.7,192.3,201.3,192.7,201.7,193.4z"/>
	<path d="M211,206.7c-1,0.4-1.6,0.5-1.7,1.3c0,0.1,0.2,0.4,0.2,0.3C210.3,208.2,210.6,207.7,211,206.7z"/>
	<path d="M198.9,193.4C198.9,193.4,198.9,193.4,198.9,193.4C198.9,193.5,198.9,193.5,198.9,193.4
		C198.9,193.5,198.9,193.5,198.9,193.4C198.9,193.5,198.9,193.4,198.9,193.4z"/>
	<path d="M199,193.3c0,0-0.1,0.1-0.1,0.1C198.9,193.4,199,193.4,199,193.3C199,193.4,199,193.3,199,193.3z"/>
	<path d="M385.4,175.5c0.6-0.2,1-0.6,1.3-1c0.3-0.4,0.4-1,0.4-1.6c0-0.6-0.1-1.1-0.4-1.6s-0.7-0.8-1.3-1.1c-0.6-0.2-1.3-0.4-2.1-0.4
		h-4.1v9.4h2v-3.4h2l2.1,3.4h2.2l-2.4-3.7C385.2,175.5,385.3,175.5,385.4,175.5z M381.2,171.3h1.8c0.5,0,0.9,0.1,1.2,0.2
		c0.3,0.1,0.5,0.3,0.7,0.5c0.2,0.2,0.2,0.5,0.2,0.9s-0.1,0.6-0.2,0.8c-0.2,0.2-0.4,0.4-0.7,0.5c-0.3,0.1-0.7,0.2-1.2,0.2h-1.8V171.3
		z"/>
</g>
</svg>
