<?xml version="1.0" encoding="utf-8"?>
<!-- Generator: Adobe Illustrator 25.0.1, SVG Export Plug-In . SVG Version: 6.00 Build 0)  -->
<svg version="1.1" id="Layer_1" xmlns="http://www.w3.org/2000/svg" xmlns:xlink="http://www.w3.org/1999/xlink" x="0px" y="0px"
	 viewBox="0 0 400 400" style="enable-background:new 0 0 400 400;" xml:space="preserve">
<g>
	<path d="M143.2,154.5c0-2.1,2.2-4.1,5.9-4.1c4.6,0,9.2,1.9,12.1,4c0.4,0.3,1,0.1,1.2-0.3l3.8-7.2c0.2-0.4,0.1-0.8-0.2-1
		c-3.1-2.6-8.9-5.6-17.6-5.6c-9.8,0-17.4,5.2-17.4,14.5c0,17.3,25.7,13.1,25.7,20.8c0,3-2.7,4.4-6.2,4.4c-4.4,0-10.9-2.5-14.1-5.3
		c-0.4-0.3-0.9-0.3-1.2,0.1l-5,6.6c-0.2,0.3-0.2,0.7,0,1c2.7,3.3,11.1,7.6,19.5,7.6c11.6,0,19.2-5.8,19.2-15.2
		C168.9,158.1,143.2,162.5,143.2,154.5z"/>
	<path d="M192,190c5.8,0,10.6-2.1,13.5-4.3c0.3-0.2,0.4-0.6,0.3-1l-3.1-7.8c-0.2-0.5-0.8-0.7-1.3-0.4c-1.6,1.1-3.7,2.1-6.4,2.1
		c-4,0-5.7-3.4-5.7-8.6v-16.5c0-0.5,0.4-0.9,0.9-0.9h13.6c0.5,0,0.9-0.4,0.9-0.9v-9.7c0-0.5-0.4-0.9-0.9-0.9h-13.6
		c-0.5,0-0.9-0.4-0.9-0.9v-11.5c0-0.5-0.4-0.9-0.9-0.9h-10.4c-0.5,0-0.9,0.4-0.9,0.9v41.8C177.2,183.1,181.2,190,192,190z"/>
	<path d="M261.9,165.2c0-14.3-10.1-24.9-25.9-24.9s-25.9,10.7-25.9,24.9c0,14.3,10.1,24.9,25.9,24.9S261.9,179.5,261.9,165.2z
		 M236,178.8c-7.4,0-12.9-5.7-12.9-13.6c0-8.2,5.7-13.5,12.9-13.5c7.4,0,13,5.5,13,13.5C249,173.4,243.5,178.8,236,178.8z"/>
	<path d="M304.4,163.2v24.9c0,0.5,0.4,0.9,0.9,0.9h10.4c0.5,0,0.9-0.4,0.9-0.9v-27c0-14.9-7.9-20.5-19.5-20.5
		c-4.9,0-9.3,1.9-12.2,4.3c-0.5,0.5-1.4,0-1.4-0.7v-1.9c0-0.5-0.4-0.9-0.9-0.9H272c-0.5,0-0.9,0.4-0.9,0.9v45.8
		c0,0.5,0.4,0.9,0.9,0.9h10.4c0.5,0,0.9-0.4,0.9-0.9v-31.2c0-0.2,0.1-0.5,0.3-0.6c2.8-2.7,6.1-4.3,10.1-4.3
		C300.4,152,304.4,155.6,304.4,163.2z"/>
	<path d="M349.8,140.3c-15.6,0-25.1,11.1-25.1,24.9c0,15,10.2,24.9,25.6,24.9c6.4,0,12.9-1.8,17.7-5.5c0.3-0.2,0.4-0.6,0.3-1
		l-2.8-6.9c-0.2-0.5-0.8-0.7-1.3-0.4c-2.8,2-7.3,3.7-12.6,3.7c-7.1,0-12.6-3.5-14.1-10.1c-0.1-0.5,0.3-1,0.8-1h32.6
		c0.4,0,0.7-0.3,0.8-0.7c0.4-1.6,0.6-3.3,0.6-5.9C372.3,149.1,362,140.3,349.8,140.3z M359.2,160.8h-21.4c-0.6,0-1-0.5-0.8-1.1
		c1.5-5.6,5.3-9.3,12.2-9.3c6.6,0,10.6,4.1,10.9,9.5C360.1,160.4,359.7,160.8,359.2,160.8z"/>
	<path d="M143.2,218.2c0-2.1,2.2-4.1,5.9-4.1c4.6,0,9.2,1.9,12.1,4c0.4,0.3,1,0.1,1.2-0.3l3.8-7.2c0.2-0.4,0.1-0.8-0.2-1
		c-3.1-2.6-8.9-5.6-17.6-5.6c-9.8,0-17.4,5.2-17.4,14.5c0,17.3,25.7,13.1,25.7,20.8c0,3-2.7,4.4-6.2,4.4c-4.4,0-10.9-2.5-14.1-5.3
		c-0.4-0.3-0.9-0.3-1.2,0.1l-5,6.6c-0.2,0.3-0.2,0.7,0,1c2.7,3.3,11.1,7.6,19.5,7.6c11.6,0,19.2-5.8,19.2-15.2
		C168.9,221.8,143.2,226.1,143.2,218.2z"/>
	<path d="M202.4,203.9c-15.7,0-25.9,10.7-25.9,24.9c0,14.3,10.1,24.9,25.9,24.9c15.7,0,25.9-10.7,25.9-24.9
		C228.3,214.6,218.2,203.9,202.4,203.9z M202.4,242.5c-7.4,0-12.9-5.7-12.9-13.6c0-8.2,5.7-13.5,12.9-13.5c7.4,0,13,5.5,13,13.5
		C215.4,237.1,209.9,242.5,202.4,242.5z"/>
	<path d="M281,205.1h-10.4c-0.5,0-0.9,0.4-0.9,0.9v30.4c0,0.2-0.1,0.4-0.2,0.5c-2.7,3.4-6.6,5.6-10.5,5.6c-6.7,0-9.1-4.5-9.1-10.9
		v-25.7c0-0.5-0.4-0.9-0.9-0.9h-10.4c-0.5,0-0.9,0.4-0.9,0.9v28.2c0,13.6,7.4,19.6,16.7,19.6c6.3,0,10.8-2.5,13.8-5.4
		c0.5-0.5,1.4-0.1,1.4,0.6v2.8c0,0.5,0.4,0.9,0.9,0.9H281c0.5,0,0.9-0.4,0.9-0.9v-45.8C281.9,205.5,281.5,205.1,281,205.1z"/>
	<path d="M322.2,203.9c-5.3,0-10.1,1.9-13.3,4.4c-0.6,0.5-1.4,0.1-1.4-0.6v-1.7c0-0.5-0.4-0.9-0.9-0.9h-10.4c-0.5,0-0.9,0.4-0.9,0.9
		v66.9c0,0.5,0.4,0.9,0.9,0.9h10.4c0.5,0,0.9-0.4,0.9-0.9v-20c0-0.6,0.6-1,1.2-0.8c2.7,1.2,6.3,1.7,9.9,1.7
		c15.2,0,25.1-11.2,25.1-25.7C343.7,214.1,335.3,203.9,322.2,203.9z M317.6,242.5c-3.8,0-6.5-0.6-9.6-2.5c-0.3-0.2-0.4-0.4-0.4-0.7
		v-18.4c0-0.2,0.1-0.4,0.2-0.6c2.9-3.1,6.6-4.9,10.6-4.9c8,0,12.5,5.5,12.5,13.1C330.9,236.3,326,242.5,317.6,242.5z"/>
	<path d="M114.2,207.4c0-0.1,0-0.2-0.1-0.3c0,0,0-0.1,0-0.1l-19.9-46.3c0-0.1-0.1-0.1-0.1-0.2l-18.9-33.3c0,0,0,0,0,0
		c-0.1-0.2-0.2-0.4-0.4-0.5c0,0,0,0,0,0c-0.1-0.1-0.2-0.2-0.3-0.2c-0.1,0-0.1-0.1-0.2-0.1c0,0-0.1,0-0.1,0c-0.2-0.1-0.4-0.1-0.6-0.1
		c0,0-0.1,0-0.1,0c-0.2,0-0.4,0-0.6,0.1c0,0,0,0,0,0c0,0,0,0,0,0c-0.2,0.1-0.4,0.2-0.5,0.3c0,0,0,0-0.1,0.1
		c-0.1,0.1-0.3,0.3-0.4,0.5c0,0,0,0,0,0c0,0,0,0,0,0L28,209.3c0,0,0,0,0,0l0,0c-0.1,0.1-0.1,0.3-0.2,0.4c0,0,0,0,0,0c0,0,0,0,0,0.1
		c0,0.1,0,0.2-0.1,0.3c0,0,0,0.1,0,0.1c0,0.1,0,0.2,0,0.3c0,0.1,0,0.1,0,0.2c0,0.1,0,0.2,0.1,0.3c0,0,0,0.1,0.1,0.1
		c0,0.1,0.1,0.2,0.2,0.3c0,0,0,0,0,0.1l0,0c0,0,0,0,0,0l43.7,57.4c0,0,0,0,0,0c0,0,0,0,0,0c0.1,0.1,0.2,0.2,0.3,0.3
		c0,0,0.1,0.1,0.1,0.1c0.1,0.1,0.2,0.1,0.3,0.2c0,0,0.1,0,0.1,0c0,0,0,0,0.1,0c0.2,0.1,0.4,0.1,0.6,0.1c0,0,0,0,0,0c0,0,0,0,0,0
		c0,0,0,0,0,0c0,0,0,0,0,0c0.2,0,0.4,0,0.5-0.1c0,0,0.1,0,0.1,0c0.2-0.1,0.3-0.2,0.5-0.3c0,0,0,0,0,0c0.1,0,0.1-0.1,0.2-0.2
		c0,0,0.1-0.1,0.1-0.1L91,251c0,0,0.1-0.1,0.1-0.1c0,0,0,0,0,0c0,0,0,0,0,0h0c0,0,0,0,0,0c0,0,0,0,0,0c0,0,0,0,0,0c0,0,0,0,0,0
		c0,0,0,0,0,0l0,0c0,0,0,0,0,0c0,0,0,0,0,0c0,0,0,0,0,0l0,0c0,0,0,0,0,0c0,0,0,0,0,0c0,0,0,0,0,0c0,0,0,0,0,0c0,0,0,0,0,0
		c0,0,0,0,0,0c0-0.1,0.1-0.1,0.1-0.2l22.8-41.8c0,0,0-0.1,0-0.1c0-0.1,0.1-0.2,0.1-0.2c0-0.1,0-0.1,0-0.2c0,0,0-0.1,0-0.1
		c0,0,0-0.1,0-0.1c0-0.1,0-0.1,0-0.2c0-0.1,0-0.2,0-0.2C114.2,207.6,114.2,207.5,114.2,207.4z M90.6,162.5l13.5,31.5l-19.9-26
		c-0.1-0.2-0.3-0.3-0.5-0.5l-5.7-27.2L90.6,162.5z M81.2,174.9l5.4,41.2l-20-25.7L81.2,174.9z M58.5,193.2l6.4-23l14.5,0.8
		L58.5,193.2z M74.8,144l4.8,23L66,166.3l3.6-13L74.8,144z M72.7,134l0.9,4.1l-7.5,13.5c-0.1,0.1-0.1,0.3-0.2,0.4L52.8,199L34,206.4
		L72.7,134z M32.9,211.1l20.8-8.2l14.4,20.2l2.8,38L32.9,211.1z M75,262.8l-2.5-33.5L87,249.5L75,262.8z M87.5,243.5l-15.8-22.2
		c0,0,0-0.1-0.1-0.1L57,200.6l6.9-7.3l23.7,30.5V243.5z M91.5,241.9v-17.7l15.2-10.2L91.5,241.9z M91,219.7l-5.7-43.9l24.1,31.6
		L91,219.7z"/>
</g>
</svg>
