<?xml version="1.0" encoding="utf-8"?>
<!-- Generator: Adobe Illustrator 25.0.1, SVG Export Plug-In . SVG Version: 6.00 Build 0)  -->
<svg version="1.1" id="Layer_1" xmlns="http://www.w3.org/2000/svg" xmlns:xlink="http://www.w3.org/1999/xlink" x="0px" y="0px"
	 viewBox="0 0 400 400" style="enable-background:new 0 0 400 400;" xml:space="preserve">
<g>
	<polygon points="384.7,169.5 382.8,176.6 380.8,169.5 377.6,169.5 377.6,180.1 379.5,180.1 379.5,171.7 381.8,180.1 383.7,180.1 
		386,171.7 386,179.8 387.9,179.8 387.9,169.5 	"/>
	<polygon points="368,171.4 371.2,171.4 371.2,180.1 373.1,180.1 373.1,171.4 376.3,171.4 376.3,169.5 368,169.5 	"/>
	<polygon points="12.1,179.4 30.1,179.4 30.1,228.9 42.3,228.9 42.3,179.4 60.3,179.4 60.3,169.5 12.1,169.5 	"/>
	<path d="M80.5,186.2c-1.9,1.6-3.5,3.5-4.8,5.8v-6.1H64.8v43h11.6h0.3v-13.2c-0.3-4.8,0-9.6,1-14.5c0.3-1.9,1.3-3.5,2.6-4.8
		c1.3-1,2.6-1.3,4.2-1.3c1.9,0,3.9,0.6,5.5,1.9l3.5-10c-2.2-1.6-5.1-2.2-7.7-2.2C83.7,184.9,82.1,185.2,80.5,186.2z"/>
	<path d="M128.4,204.5c0,3.9-0.3,7.7-1,11.6c-0.6,1.6-1.6,2.9-3.2,3.9c-1.6,1-3.5,1.6-5.5,1.6c-1.3,0-2.9-0.3-4.2-1.3
		c-1-0.6-1.9-1.9-2.2-3.2c-0.6-3.9-1-7.4-0.6-11.2v-19.9H99.8v27c0,3.2,0.3,6.4,1.6,9.6c1,2.6,2.9,4.2,5.1,5.5
		c2.6,1.3,5.1,1.9,8,1.9c2.9,0,5.8-0.6,8.4-1.9c2.6-1.3,4.8-3.2,6.4-5.5v6.4h10.6v-43h-11.6V204.5z"/>
	<path d="M174.3,208c-0.6,1-1,2.2-1.3,3.5c-0.3,0.3-0.6,1.6-1.3,3.5l-2.6-7.4l-8.4-21.8h-12.2l17.3,43h11.2l17.3-43h-11.9L174.3,208
		z"/>
	<rect x="203.2" y="185.9" width="11.6" height="43"/>
	<rect x="203.2" y="169.5" width="11.6" height="10.6"/>
	<path d="M244,220.9c-0.6,0-1.3-0.3-1.9-0.6c-0.3-0.6-0.6-1-1-1.6c-0.3-1.9-0.3-4.2-0.3-6.1v-17.7h8v-9h-8v-15.1l-11.6,6.4v8.7h-5.5
		v9.6h5.5v19c0,2.6,0,5.5,0.3,8c0.3,1.6,0.6,3.2,1.6,4.5c1.3,1,2.2,1.9,3.9,2.6c1.9,0.6,3.9,1,5.8,1c2.9,0,6.1-0.3,9-1.6l-1-9
		C247.2,220.6,245.6,220.9,244,220.9z"/>
	<path d="M294.7,214.8v-13.2c0.3-3.5-0.3-7.1-1.6-10.3c-1.3-1.9-3.2-3.5-5.5-4.5c-3.5-1.6-7.7-2.2-11.6-1.9c-4.5-0.3-9,0.6-12.8,2.9
		c-3.2,2.2-5.1,5.5-6.1,9.3l10.6,1.9c0.3-1.6,1.3-3.2,3.9-4.2c1.3-1,3.2-1.3,4.8-1.3c1.9-0.3,4.2,0,6.1,1.3c1.3,1.3,1.9,3.2,1.6,4.8
		v1.3c-3.5,1.3-7.4,2.2-11.2,2.9c-3.2,0.3-6.4,1.3-9.3,2.6c-2.2,1-3.9,2.6-5.1,4.5c-1.3,1.9-1.9,4.2-1.9,6.4c0,3.5,1.3,7.1,3.9,9.3
		c2.9,2.6,6.7,3.9,10.6,3.5c2.2,0,4.8-0.6,7.1-1.6c2.2-1,4.5-2.2,6.4-4.2c0,0,0,0.6,0.3,1.3c0.3,1,0.6,2.2,1,3.2h11.6
		c-0.6-1.9-1.6-3.9-1.9-5.8C294.7,220.2,294.7,217.7,294.7,214.8z M283.2,210.6c0,1.9-0.3,3.5-0.6,5.5c-0.6,1.6-1.6,2.9-2.9,3.9
		c-1.9,1.3-3.9,1.9-6.1,1.9c-1.6,0.3-3.2-0.3-4.5-1.6c-1-1-1.6-2.6-1.6-4.2c0-1.9,1-3.2,2.2-4.2c1.9-1,4.2-1.6,6.4-1.9
		c3.2-0.6,5.5-1.3,7.1-1.6V210.6z"/>
	<rect x="308.2" y="169.5" width="11.6" height="59.4"/>
	<path d="M367,207.1c-3.9-2.6-8.4-4.5-12.8-5.1c-3.9-0.6-7.4-1.6-10.9-3.2c-1-0.3-1.3-1-1.3-1.9c0-1,0.3-1.6,1.3-2.2
		c2.2-1,4.5-1.6,6.7-1.3c1.9-0.3,3.9,0.3,5.5,1.3c1.3,1,2.2,2.2,2.6,3.9l10.9-1.9c-1-3.5-2.9-6.7-6.1-8.7c-4.2-2.2-9-3.2-13.5-2.9
		c-4.8-0.3-10,1-13.8,3.9c-2.9,2.2-4.5,5.8-4.5,9.3c-0.3,3.9,1.9,7.7,5.1,9.6c5.5,2.6,11.6,4.5,17.7,5.5c1.3,0.3,2.6,1,3.9,1.6
		c0.6,0.6,1,1.6,1,2.2c0,1.3-0.6,2.6-1.6,3.2c-1.9,1.3-4.5,1.9-6.7,1.6c-2.2,0.3-4.5-0.3-6.4-1.6c-1.6-1.3-2.6-3.2-2.9-5.1
		l-11.6,1.6c1.3,4.2,3.5,7.4,7.4,9.3c4.2,2.6,9.3,3.9,14.1,3.5c5.1,0.3,10.6-1,14.8-4.2c2.9-2.2,4.8-6.1,4.8-10
		C370.9,212.2,369.6,209.3,367,207.1z"/>
</g>
</svg>
