<?xml version="1.0" encoding="utf-8"?>
<!-- Generator: Adobe Illustrator 25.0.1, SVG Export Plug-In . SVG Version: 6.00 Build 0)  -->
<svg version="1.1" id="Layer_1" xmlns="http://www.w3.org/2000/svg" xmlns:xlink="http://www.w3.org/1999/xlink" x="0px" y="0px"
	 viewBox="0 0 400 400" style="enable-background:new 0 0 400 400;" xml:space="preserve">
<g>
	<path d="M209.7,162.4c2.5-3.8,5.6-7.1,9.8-9.1c5.1-2.5,10.2-2.6,15.4-0.3c4.6,2.1,7.8,5.6,10.4,9.7c3,4.7,4.8,9.8,6.1,15.1
		c0.1,0.5,0.3,0.7,0.9,0.7c3.4,0,6.8,0,10.1,0c3.3,0,6.7,0,10,0c1,0,1,0,0.7-1c-0.6-1.9-1.2-3.9-2.1-5.7
		c-4.4-9.9-11.4-17.3-21.3-21.9c-5.7-2.7-11.8-4-18.1-4.4c-7.7-0.5-15.2,0.2-22.6,2.8c-5.8,2.1-10.9,5.2-15.3,9.5
		c-6.7,6.5-10.9,14.5-13.2,23.4c-2.8,10.7-3.1,21.4-1.1,32.3c2,11.1,6.5,21,14.7,28.9c2.8,2.7,6,4.9,9.4,6.7
		c5.5,2.9,11.4,4.5,17.6,5.1c7.6,0.7,15,0.3,22.4-1.9c7.3-2.2,13.8-5.9,19.1-11.4c5.1-5.3,8.5-11.6,10.6-18.7c0.2-0.8,0-0.8-0.7-0.8
		c-6.7,0-13.4,0-20.1,0c-0.6,0-0.8,0.2-1,0.8c-1,4-2.3,8-4.2,11.7c-2.6,5-6,9.3-11.1,12c-3.7,1.9-7.6,2.8-11.8,2
		c-4.7-0.9-8.4-3.4-11.6-6.9c-3.5-3.8-5.9-8.2-7.7-13c-3.2-8.4-4.5-17.2-4.6-26.1c-0.1-6.2,0.3-12.4,1.5-18.5
		C203.2,175.8,205.5,168.8,209.7,162.4z"/>
	<path d="M389.4,221.4c-6.7,0-13.5,0-20.2,0c-0.5,0-0.8,0.1-0.9,0.7c-0.9,3.9-2.1,7.6-3.9,11.1c-2.2,4.4-4.9,8.4-8.9,11.3
		c-7.4,5.5-16.2,5.3-23.2-0.6c-3.4-2.8-5.9-6.3-7.9-10.2c-3.2-6.1-5-12.6-6.1-19.4c-1.2-7.7-1.4-15.4-0.7-23.1
		c0.8-8.4,2.6-16.5,6.3-24.1c2.2-4.4,4.9-8.5,8.9-11.5c6.2-4.8,13-5.8,20.1-2.1c3.8,2,6.6,5,9,8.6c3.2,4.8,5.1,10.1,6.4,15.6
		c0.1,0.6,0.3,0.8,0.9,0.8c3.4,0,6.7,0,10.1,0c3.4,0,6.8,0,10.1,0c0.7,0,0.8-0.2,0.6-0.8c-0.9-2.8-1.8-5.5-3.2-8.1
		c-6.3-12.3-16.3-19.7-29.7-22.8c-7.3-1.7-14.6-1.8-22-0.7c-6,0.9-11.7,2.8-17,5.9c-6.7,4-11.8,9.5-15.6,16.2
		c-4,7-6.1,14.5-7.1,22.4c-0.8,6.6-0.8,13.1,0.1,19.7c0.9,6.5,2.6,12.8,5.5,18.8c2.6,5.4,6,10.1,10.5,14.1c6.2,5.6,13.5,9,21.7,10.5
		c7.3,1.3,14.7,1.4,22,0c6.2-1.2,12-3.4,17.3-7c8.8-6,14.3-14.3,17.3-24.4C390.2,221.6,390.1,221.4,389.4,221.4z"/>
	<path d="M92.6,146.7c-2.1,0-4.2,0-6.3,0c-0.5,0-0.7,0.1-0.5,0.7c0.2,0.8,0.1,1.6,0,2.5c-0.4,2.7-1.3,5.4-2.2,8
		c-2.4,6.5-4.9,13.1-7.4,19.6c-3.4,8.9-6.7,17.8-10.1,26.7c-1.6,4.3-3.3,8.6-4.9,12.9c-0.1,0.3-0.1,0.6-0.5,0.6
		c-0.4,0-0.4-0.3-0.5-0.6c-0.4-1.1-0.8-2.2-1.3-3.3c-2.4-6.3-4.8-12.7-7.2-19c-2.5-6.6-5.1-13.3-7.6-19.9
		c-2.3-5.9-4.6-11.8-6.7-17.8c-1-3-2-6-2.5-9.2c-0.2-1.1-0.2-1.1-1.3-1.1c-7.6,0-15.2,0-22.8,0c-0.2,0-0.5-0.1-0.8,0.1
		c1.5,2.2,2.7,4.5,3.8,6.9c2.2,4.7,4,9.5,5.9,14.3c2.4,6.2,4.9,12.5,7.3,18.7c3.3,8.4,6.6,16.8,9.9,25.3c3.1,8,6.2,16,9.4,24
		c2.3,5.8,4.6,11.7,6.8,17.5c0.2,0.6,0.6,0.8,1.1,0.6c0.4-0.1,0.4-0.6,0.5-0.9c2.3-6.1,4.7-12.3,7-18.4c2.4-6.2,4.8-12.4,7.1-18.6
		c3.1-8,6.1-16,9.2-24c2.3-6,4.6-12.1,6.9-18.1c3-7.9,6.3-15.8,9.9-23.5c0.6-1.3,1.2-2.4,1.9-3.8C95.2,146.7,93.9,146.7,92.6,146.7z
		"/>
	<path d="M171.5,233.1c-0.2,0-0.2,0.2-0.3,0.3c0,0.2-0.1,0.4-0.1,0.5c-0.6,2.6-1.8,4.9-3.6,6.9c-3.2,3.4-7.3,5.1-12,5.4
		c-4.9,0.4-9.8,0.2-14.7,0.2c-1.3,0-2.6-0.3-3.9-0.6c-2.6-0.7-3.8-2.2-3.9-4.9c0-0.4,0-0.9,0-1.3c0-24.8,0-49.7,0-74.5
		c0-5.9,0-11.8,0-17.6c0-0.7-0.2-0.9-0.9-0.8c-2,0-4.1,0-6.1,0c-5.2,0-10.3,0-15.5,0c-0.6,0-0.7,0.1-0.4,0.7c0.5,0.7,0.8,1.5,1,2.3
		c0.8,2.8,0.9,5.7,0.9,8.6c0,15.2,0,30.4,0,45.6c0,16.1,0,32.1,0,48.2c0,1.1-0.2,1,1,1c18.8,0,37.7,0,56.5,0c0.1,0,0.3,0,0.4,0
		c0.5,0.1,0.6-0.2,0.6-0.6c0.1-1.4,0.1-2.8,0.2-4.2c0.2-4.2,0.5-8.4,0.7-12.7c0-0.7,0.1-1.4,0.1-2.1
		C171.7,233.3,171.7,233.2,171.5,233.1z"/>
</g>
</svg>
